<?xml version="1.0" encoding="UTF-8"?>
<svg width="24px" height="16px" viewBox="0 0 24 16" version="1.1" xmlns="http://www.w3.org/2000/svg" xmlns:xlink="http://www.w3.org/1999/xlink">
    <!-- Generator: sketchtool 60 (101010) - https://sketch.com -->
    <title>3598D93E-65A0-4482-A419-661C6C9F6FDF</title>
    <desc>Created with sketchtool.</desc>
    <g id="Page-1" stroke="none" stroke-width="1" fill="none" fill-rule="evenodd">
        <g id="icon" transform="translate(-115.000000, -710.000000)" fill="#FFFFFF" fill-rule="nonzero">
            <g id="11" transform="translate(83.000000, 690.000000)">
                <g id="Horse-Racing" transform="translate(32.000000, 20.000000)">
                    <g>
                        <path d="M18.5467456,12.6736842 C17.7514793,12.2385965 16.9704142,11.8175439 16.1609467,11.3824561 C16.0899408,11.9438596 16.0331361,12.477193 15.9621302,13.0105263 C15.9053254,13.5438596 15.8485207,14.077193 15.7775148,14.5964912 C15.7349112,14.9192982 15.4650888,15.1157895 15.1384615,15.0596491 C14.8686391,15.0175439 14.6130178,14.9614035 14.3431953,14.9192982 C14.087574,14.877193 13.8319527,14.8350877 13.5195266,14.7789474 C13.7467456,15.0877193 13.9455621,15.3684211 14.1301775,15.6491228 C14.1869822,15.7192982 14.2011834,15.8175439 14.2295858,15.9017544 C14.1443787,15.9298246 14.0449704,15.9438596 13.9597633,15.9719298 C13.9455621,15.9719298 13.9313609,15.9719298 13.9171598,15.9719298 C13.547929,16.0421053 13.2923077,15.9157895 13.1786982,15.5508772 C13.1502959,15.4807018 13.0934911,15.3964912 13.0224852,15.3684211 C12.5538462,15.1017544 12.0994083,14.8631579 11.616568,14.5964912 C11.5881657,14.9473684 11.4461538,15.0175439 11.1621302,14.8210526 C10.9349112,14.6807018 10.7076923,14.5403509 10.7218935,14.2035088 C10.7218935,14.1473684 10.6224852,14.0631579 10.5514793,14.0210526 C10.1822485,13.8105263 9.81301775,13.6140351 9.4295858,13.4175439 C9.27337278,13.3473684 9.1739645,13.2491228 9.1739645,13.0807018 C9.15976331,12.9122807 9.06035503,12.8561404 8.9183432,12.8 C8.40710059,12.6315789 7.91005917,12.4631579 7.41301775,12.2807018 C7.05798817,12.154386 6.98698225,11.9298246 7.2,11.6350877 C7.51242604,11.2 7.83905325,10.7789474 8.16568047,10.3298246 C8.06627219,10.2736842 7.98106509,10.2315789 7.89585799,10.1754386 C7.34201183,9.86666667 6.84497041,9.47368421 6.48994083,8.94035088 C6.26272189,8.60350877 6.34792899,8.29473684 6.17751479,8.35087719 L1.8887574,10.2035088 C1.81775148,9.97894737 1.74674556,9.75438596 1.66153846,9.51578947 L1.13609467,9.65614035 L0.880473373,8.87017544 L0.355029586,9.0245614 C0.284023669,8.77192982 0.170414201,8.44912281 0.0852071006,8.19649123 C0.0852071006,8.19649123 4.89940828,6.65263158 6.14911243,6.24561404 C6.24852071,6.21754386 6.34792899,6.13333333 6.41893491,6.06315789 C7.00118343,5.31929825 7.76804734,4.98245614 8.70532544,5.05263158 C10.1822485,5.16491228 11.6591716,5.30526316 13.1360947,5.43157895 C13.1786982,5.43157895 13.2213018,5.43157895 13.3349112,5.44561404 C13.2497041,5.38947368 13.2071006,5.36140351 13.1502959,5.33333333 C12.6816568,5.10877193 12.2272189,4.88421053 11.7585799,4.65964912 C11.0343195,4.29473684 10.8639053,3.53684211 11.3751479,2.89122807 C11.5881657,2.6245614 11.8721893,2.44210526 12.1988166,2.32982456 C13.0508876,2.03508772 13.9171598,1.76842105 14.7550296,1.45964912 C15.5360947,1.16491228 15.7633136,1.44561404 15.9763314,2.06315789 C16.1609467,2.58245614 16.3739645,3.10175439 16.5585799,3.62105263 C16.6011834,3.73333333 16.6579882,3.78947368 16.7857988,3.80350877 C17.1408284,3.83157895 17.495858,3.90175439 17.8366864,3.92982456 C17.9502959,3.94385965 18.0923077,3.8877193 18.1775148,3.81754386 C18.6887574,3.38245614 19.3420118,2.18947368 20.5491124,2.18947368 C20.6343195,2.18947368 20.7337278,2.14736842 20.8047337,2.09122807 C20.9183432,1.99298246 21.0177515,1.86666667 21.1455621,1.72631579 C21.2023669,1.96491228 21.2307692,2.1754386 21.287574,2.37192982 C21.3159763,2.48421053 21.3869822,2.61052632 21.4721893,2.66666667 L23.7869822,5.29122807 C24,5.61403509 23.9573964,5.97894737 23.7017751,6.25964912 C23.6307692,6.34385965 23.5597633,6.41403509 23.4887574,6.49824561 C23.2331361,6.76491228 22.9775148,6.82105263 22.6366864,6.66666667 C22.0544379,6.41403509 21.4721893,6.14736842 20.8757396,5.89473684 C20.8047337,5.86666667 20.7337278,5.83859649 20.6485207,5.79649123 C19.7680473,7.56491228 18.887574,9.33333333 18.0071006,11.1017544 C18.4473373,11.5087719 18.8733728,11.9157895 19.2994083,12.3087719 C19.6260355,12.6175439 19.6402367,12.8140351 19.3278107,13.1368421 C18.8591716,13.6280702 18.3905325,14.1052632 17.9218935,14.5964912 C17.7372781,14.7929825 17.5242604,14.9192982 17.2402367,14.9473684 C16.9278107,14.9754386 16.6153846,15.0315789 16.3029586,15.0736842 C16.0473373,15.1017544 15.9905325,15.0035088 16.0615385,14.7508772 C16.1751479,14.3578947 16.416568,14.1614035 16.8284024,14.2035088 C17.1550296,14.2315789 17.3680473,14.0912281 17.5668639,13.8385965 C17.8650888,13.4315789 18.2059172,13.0666667 18.5467456,12.6736842 Z M14.7550296,14.1192982 C14.7550296,14.0491228 14.7550296,13.9929825 14.7550296,13.9368421 C14.6698225,13.0666667 14.5846154,12.1964912 14.4710059,11.3263158 C14.4568047,11.2561404 14.3573964,11.1719298 14.2863905,11.1578947 C13.391716,10.9614035 12.4828402,10.8070175 11.6023669,10.554386 C11.0343195,10.4 10.2532544,10.5263158 10.2532544,11.2421053 C10.6650888,12.9122807 10.8923077,13.3052632 11.8011834,13.5578947 C11.8153846,13.5438596 14.0307692,14.0210526 14.7550296,14.1192982 Z M15.2946746,3.7754386 C14.8828402,3.90175439 14.4994083,4.02807018 14.0733728,4.16842105 C14.3289941,4.33684211 14.556213,4.47719298 14.7976331,4.60350877 C15.1810651,4.81403509 15.4366864,5.08070175 15.2946746,5.55789474 C15.4650888,5.57192982 15.6213018,5.6 15.7633136,5.6 C15.8769231,5.6 16.0189349,5.62807018 16.0899408,5.57192982 C16.3455621,5.3754386 16.5727811,5.16491228 16.8710059,4.9122807 C16.6153846,4.89824561 16.416568,4.88421053 16.2319527,4.87017544 C15.8343195,4.84210526 15.6213018,4.6877193 15.5076923,4.32280702 C15.4224852,4.15438596 15.3656805,3.97192982 15.2946746,3.7754386 Z" id="Shape"></path>
                        <path d="M18.5183432,1.31929825 C18.504142,1.97894737 17.9786982,2.48421053 17.3112426,2.47017544 C16.6579882,2.45614035 16.1467456,1.92280702 16.1467456,1.29122807 C16.1609467,0.645614035 16.7147929,0.112280702 17.3680473,0.126315789 C18.0213018,0.140350877 18.5325444,0.673684211 18.5183432,1.31929825 Z" id="Path"></path>
                    </g>
                </g>
            </g>
        </g>
    </g>
</svg>