<?xml version="1.0" encoding="utf-8"?>
<!-- Generator: Adobe Illustrator 19.0.0, SVG Export Plug-In . SVG Version: 6.00 Build 0)  -->
<svg version="1.1" id="Layer_1" xmlns="http://www.w3.org/2000/svg" xmlns:xlink="http://www.w3.org/1999/xlink" x="0px" y="0px"
	 viewBox="-293 386 24 21" style="enable-background:new -293 386 24 21;" xml:space="preserve">
<style type="text/css">
	.st0{fill:#996658;}
</style>
<title>C0ACA0B6-54E6-4732-8E83-B5F2539CE0B1</title>
<desc>Created with sketchtool.</desc>
<g id="Page-1">
	<g id="icon" transform="translate(-444.000000, -771.000000)">
		<g id="_x32_4" transform="translate(393.000000, 754.000000)">
			<g id="Trotting" transform="translate(51.000000, 17.000000)">
				<path id="Horse-Racing" class="st0" d="M-269,392c0,0.6-0.5,1.2-1.2,1.2c-0.3,0-0.6-0.1-0.8-0.3l0,0l-1.6-1.4
					c-0.2,0.1-0.3,0.1-0.5,0.1c-0.4,0-0.7-0.2-0.9-0.4c-0.2,0.3-0.6,1-0.7,1.9c0.2,0.4,0.6,1.5,0.7,3.1c0,0.5-0.2,1.1-0.6,1.6
					c-0.1,0.3-0.1,0.5-0.2,0.7l1.3,1.2c0,0,0.7,0.4,0.6,1.4c-0.1,1,0,2.4,0,2.4s-0.2,0.4-0.6,0.7c-0.1,0.1-0.2,0.1-0.2,0.1
					c-0.3-0.1-0.5,0.3-0.6,0.5c0,0.2-0.3,0.3-0.4,0.4l-0.6,0.6l-0.3-1.5c0,0-0.1-0.4,0.5-0.6l0-0.1c0,0,0.1-0.1,0.4-0.1
					c0.1,0,0.2,0,0.3,0c-0.1-0.2-0.1-0.4,0-0.6c0.6-0.8,0.1-0.7,0.1-1.6c0,0-0.3-0.1-0.5-0.5c0,0-0.3-0.1-0.8-0.3
					c-0.3,0.7-0.5,1-0.6,1.1c-0.1,0.3-0.3,0.6-0.3,0.6s0,1.5,0.2,2c0.2,0.4,0.2,0.8,0.1,1c-0.1,0.2,0,0.6,0.2,0.6
					c0.2,0,0.2,0.3,0.3,0.5l0.4,0.7h-1.5c0,0-0.4,0-0.5-0.6h-0.1c0,0-0.1-0.1,0-0.5c0-0.3,0.2-0.4,0.2-0.6c0-0.2-0.2-0.2-0.3-0.5
					c-0.1-0.3,0.1-0.5,0.1-0.5s-0.4-2.3-0.4-2.6c-0.1-0.4-0.3-0.7-0.1-1.2c0-0.3-0.1-0.7-0.1-1c-0.2-0.1-0.4-0.2-0.5-0.3
					c-0.2,0-0.3-0.1-0.5-0.1c-2.9-1-4.7-1.3-5.2-1.3c-0.1,0-0.3,0-0.4,0c-0.5,2.8-1.1,3.5-1.2,3.8c-0.1,0.3-0.3,0.6-0.3,0.6
					s0.1,1.5,0.3,2c0.2,0.4,0.2,0.8,0.1,1c-0.1,0.2,0,0.6,0.3,0.6c0.2,0,0.3,0.3,0.3,0.5l0.5,0.7h-1.5c0,0-0.4,0-0.5-0.6h-0.1
					c0,0-0.1-0.1-0.1-0.5c0-0.3,0.2-0.4,0.2-0.6c0-0.2-0.2-0.2-0.3-0.5c-0.2-0.3,0-0.5,0-0.5s-0.5-2.3-0.6-2.6
					c0-0.1-0.1-0.2-0.1-0.3c-0.1,0.1-0.2,0.1-0.2,0.2c-0.2,0.3-0.3,0.6-0.3,0.6s-0.1,1.5,0,2c0.2,0.4,0.1,0.8,0,1
					c-0.1,0.2-0.1,0.6,0.2,0.6c0.2,0,0.2,0.3,0.2,0.5l0.4,0.7h-1.5c0,0-0.4,0-0.4-0.6h-0.1c0,0,0-0.1,0-0.5c0-0.3,0.3-0.4,0.3-0.6
					s-0.1-0.2-0.3-0.5c-0.1-0.3,0.1-0.5,0.1-0.5s-0.2-2.3-0.2-2.6c0-0.4-0.5-0.9,0-1.2c1.1-0.6,0.5-2.9,0.5-2.9
					c0-0.1-0.1-0.2-0.1-0.3c-0.2-0.5-0.3-1.2-0.2-2c-1.9,2.7-1.7,7.3-1.7,7.3l-0.5-0.7l0.1-3.1l-0.3,2.9l-1-1c0-4.9,2.4-6.7,4.2-7.3
					c0.2-0.3,0.5-0.5,0.9-0.7c1.9-1.2,3.7-0.1,4.6,0c0.9,0.1,3.3-0.1,3.3-0.1s1-0.9,1.6-1.4c0.8-1.7,2.5-3.8,6.1-4.5
					c0,0,0.6-0.8,1.3-0.9l-0.4,1.2c0,0,0.6,0,0.9,0.9l1.4,3.4l0,0C-269,391.6-269,391.8-269,392z"/>
			</g>
		</g>
	</g>
</g>
</svg>
