<?xml version="1.0" encoding="UTF-8"?>
<svg width="24px" height="21px" viewBox="0 0 24 21" version="1.1" xmlns="http://www.w3.org/2000/svg" xmlns:xlink="http://www.w3.org/1999/xlink">
    <!-- Generator: sketchtool 60 (101010) - https://sketch.com -->
    <title>C0ACA0B6-54E6-4732-8E83-B5F2539CE0B1</title>
    <desc>Created with sketchtool.</desc>
    <g id="Page-1" stroke="none" stroke-width="1" fill="none" fill-rule="evenodd">
        <g id="icon" transform="translate(-444.000000, -771.000000)" fill="#FFFFFF" fill-rule="nonzero">
            <g id="24" transform="translate(393.000000, 754.000000)">
                <g id="Trotting" transform="translate(51.000000, 17.000000)">
                    <path d="M24,5.97845439 C24,6.61967744 23.4750486,7.13984669 22.8276086,7.13984669 C22.5309196,7.13984669 22.26087,7.02939802 22.0542847,6.84911062 L22.05324,6.84962794 L20.4258907,5.44483472 C20.2657936,5.53252113 20.0816688,5.58296022 19.8852691,5.58296022 C19.5311228,5.58296022 19.2158908,5.41922718 19.0103502,5.16496246 C18.7742526,5.47432219 18.365783,6.12977165 18.2631432,7.06716267 C18.4637217,7.47843522 18.9058822,8.5542104 19.0059103,10.179125 C19.0482198,10.6654095 18.8233525,11.2616254 18.3999962,11.8053329 C18.3425389,12.0634775 18.2848203,12.3037745 18.2271018,12.5272584 L19.4948202,13.6896854 C19.4948202,13.6896854 20.1712501,14.0696598 20.0947273,15.1061184 C20.0182046,16.1428356 20.1427826,17.5251253 20.1427826,17.5251253 C20.1427826,17.5251253 19.985036,17.9025131 19.5669031,18.2136835 C19.4574729,18.3047325 19.3352454,18.2703304 19.3352454,18.2703304 C19.082433,18.2061823 18.7862664,18.5465814 18.7708574,18.7928276 C18.7596271,18.9705284 18.5141275,19.0959795 18.378058,19.1534024 L17.7700546,19.7359092 L17.4331455,18.2540347 C17.4331455,18.2540347 17.3393855,17.8854414 17.942949,17.6666134 L17.9157873,17.5468529 C17.9157873,17.5468529 18.0168601,17.4666677 18.3605596,17.4063994 C18.4916668,17.3833785 18.585688,17.3968289 18.6622108,17.4185565 C18.6078874,17.2346479 18.5736742,16.9997828 18.6823208,16.8492415 C19.2555886,16.0590291 18.768768,16.1200734 18.8126446,15.2320868 C18.8126446,15.2320868 18.464244,15.181389 18.3467176,14.7455436 C18.3467176,14.7455436 18.0395818,14.6485454 17.5741772,14.4899856 C17.267825,15.185269 17.0272875,15.4643653 16.952593,15.6138719 C16.8144341,15.8893469 16.6613886,16.2576816 16.6613886,16.2576816 C16.6613886,16.2576816 16.6590381,17.8008589 16.858833,18.2147181 C17.0586279,18.6290946 17.0659407,18.974667 16.9471084,19.2041002 C16.8277538,19.435344 16.9262148,19.7571195 17.164924,19.8259236 C17.3372961,19.8758454 17.4075508,20.1407152 17.4328843,20.2845313 L17.8734778,21 L16.3396273,21 C16.3396273,21 15.9564912,21.0100781 15.8734392,20.3786842 L15.7493835,20.3786842 C15.7493835,20.3786842 15.6927096,20.2638383 15.708641,19.9182659 C15.7248335,19.5732108 15.9298519,19.5269103 15.913137,19.3424843 C15.8969445,19.1580584 15.7566963,19.1580584 15.6140975,18.8595624 C15.4712376,18.5597732 15.665548,18.3290467 15.665548,18.3290467 C15.665548,18.3290467 15.2732709,16.0732556 15.2205146,15.7049209 C15.1674971,15.3360689 14.9564719,15.0380903 15.1142184,14.5075746 C15.0867956,14.1948522 15.0316888,13.8433306 14.9663963,13.4956889 C14.7773093,13.4129171 14.5944905,13.3288519 14.421596,13.2445281 C14.2638494,13.2080568 14.1042747,13.1622736 13.9426105,13.1035573 C11.0796667,12.0704614 9.25957407,11.8293884 8.72574292,11.7820533 C8.59933671,11.7704135 8.44498533,11.778432 8.27679196,11.7980903 C7.79545594,14.6444068 7.15036642,15.3407248 7.02918362,15.6128372 C6.90565028,15.8883122 6.77193132,16.2566469 6.77193132,16.2566469 C6.77193132,16.2566469 6.85132695,17.7998243 7.07279898,18.2136835 C7.29453218,18.62806 7.32012682,18.9736324 7.21356953,19.2030655 C7.10675106,19.4343094 7.22218813,19.7560849 7.46429257,19.8248889 C7.6390152,19.8748107 7.72337306,20.1396806 7.75654163,20.2834966 L8.23526595,20.9989557 L6.70089312,20.9989557 C6.70089312,20.9989557 6.3182793,21.0090435 6.20153638,20.3776496 L6.07800305,20.3776496 C6.07800305,20.3776496 6.01532229,20.2628037 6.01271059,19.9172313 C6.01036006,19.5721762 6.21302786,19.5258757 6.18691087,19.3414497 C6.16079389,19.1570237 6.02132919,19.1570237 5.86253793,18.8585278 C5.70400783,18.5587385 5.88604321,18.3280121 5.88604321,18.3280121 C5.88604321,18.3280121 5.37441149,16.0722209 5.30206745,15.7038862 C5.28587492,15.6211144 5.24591593,15.5316174 5.19890536,15.4397924 C5.08137893,15.5124764 5.00250564,15.5675714 4.97664982,15.6120612 C4.81394101,15.8877949 4.62798808,16.2561296 4.62798808,16.2561296 C4.62798808,16.2561296 4.48852339,17.7990483 4.6512322,18.2131661 C4.81394101,18.627284 4.79043572,18.973115 4.6512322,19.2028069 C4.5117675,19.433792 4.58149985,19.7555675 4.81394101,19.8243716 C4.98161205,19.8742934 5.02810028,20.1394219 5.04141994,20.2829793 L5.41828803,20.9984384 L3.88417637,20.9984384 C3.88417637,20.9984384 3.5,21.0085262 3.47309504,20.3773909 L3.3495617,20.3773909 C3.3495617,20.3773909 3.30333464,20.2622864 3.3495617,19.9167139 C3.39604993,19.5716589 3.60524698,19.525617 3.60524698,19.341191 C3.60524698,19.156765 3.46578228,19.156765 3.3495617,18.8582691 C3.23334112,18.5582212 3.44802273,18.3277534 3.44802273,18.3277534 C3.44802273,18.3277534 3.25684641,16.0717036 3.23673633,15.7033689 C3.21636508,15.3342583 2.74521469,14.8280568 3.23673633,14.5060226 C4.33234382,13.9074788 3.7029245,11.6390132 3.7029245,11.6390132 C3.66374902,11.5425323 3.63162513,11.4527766 3.60237411,11.3653488 C3.41642118,10.857078 3.25423471,10.16076 3.35243457,9.41374417 C1.41638253,12.1015008 1.68747682,16.731033 1.68747682,16.731033 L1.15469034,16.0789461 L1.30434066,13.0169056 L0.984146435,15.9379753 L0,14.9563531 C-0.0137835339,10.0593645 2.43311672,8.27640744 4.18086531,7.62768319 C4.40860541,7.36850388 4.69040767,7.11760176 5.03671889,6.87911541 C6.97773316,5.65331628 8.7492482,6.78315181 9.62286132,6.87911541 C10.4962133,6.975079 12.9564332,6.7580616 12.9564332,6.7580616 C12.9564332,6.7580616 13.9397377,5.81549734 14.5427788,5.32714352 C15.3589346,3.62333704 17.0732534,1.52558837 20.6465792,0.870397569 C20.6465792,0.870397569 21.2245481,0.103206131 21.9657481,0 L21.5259381,1.2477854 C21.5259381,1.2477854 22.1195771,1.28296343 22.4640602,2.10007663 L23.8963156,5.50251634 L23.8957932,5.50303367 C23.9623915,5.6484017 24,5.80928945 24,5.97845439 Z" id="Horse-Racing"></path>
                </g>
            </g>
        </g>
    </g>
</svg>