<?xml version="1.0" encoding="UTF-8"?>
<svg width="24px" height="24px" viewBox="0 0 24 24" version="1.1" xmlns="http://www.w3.org/2000/svg" xmlns:xlink="http://www.w3.org/1999/xlink">
    <!-- Generator: sketchtool 60 (101010) - https://sketch.com -->
    <title>EE18CD3D-D3D0-4891-95C7-26E7E3B1C0AA</title>
    <desc>Created with sketchtool.</desc>
    <g id="Page-1" stroke="none" stroke-width="1" fill="none" fill-rule="evenodd">
        <g id="icon" transform="translate(-126.000000, -130.000000)" fill="#FFFFFF" fill-rule="nonzero">
            <g id="2" transform="translate(83.000000, 114.000000)">
                <g id="basketball/white" transform="translate(43.000000, 16.000000)">
                    <g id="Path">
                        <path d="M20.44,3.48 C18.215,4.49 16.13,5.63 14.2,6.905 C13.47,6.14 12.72,5.41 11.935,4.715 C13.045,3.38 13.91,1.895 14.47,0.36 L14.5,0.27 C16.79,0.75 18.84,1.89 20.44,3.48 Z"></path>
                        <path d="M13.265,0.07 C12.755,1.41 11.975,2.73 11,3.915 C9.77,2.88 8.47,1.925 7.1,1.05 C8.595,0.38 10.255,0 12,0 C12.425,0 12.85,0.02 13.265,0.07 Z"></path>
                        <path d="M0.375,9.015 C1.165,5.92 3.165,3.31 5.835,1.71 C7.365,2.655 8.81,3.695 10.175,4.84 C10.12,4.9 10.065,4.955 10.005,5.02 C7.225,7.8 3.63,9.29 0.375,9.015 Z"></path>
                        <path d="M13.155,7.61 C8.735,10.71 5.105,14.54 2.3,19.065 C0.855,17.085 0,14.645 0,12 C0,11.4 0.045,10.81 0.13,10.235 C0.395,10.255 0.705,10.285 1.14,10.285 C4.51,10.285 8.08,8.685 10.88,5.895 C10.96,5.815 11.04,5.725 11.11,5.645 C11.82,6.275 12.5,6.925 13.155,7.61 Z"></path>
                        <path d="M23.945,10.875 C22.115,10.875 20.22,11.345 18.445,12.21 C17.4,10.655 16.26,9.19 15.045,7.82 C16.99,6.56 19.075,5.43 21.31,4.44 C22.77,6.23 23.72,8.45 23.945,10.875 Z"></path>
                        <path d="M24,12.105 C23.98,14.505 23.25,16.735 22.02,18.605 C21.155,16.72 20.19,14.94 19.135,13.26 C20.715,12.515 22.37,12.105 23.945,12.105 L24,12.105 L24,12.105 Z"></path>
                        <path d="M3.13,20.085 C5.9,15.495 9.535,11.625 14.005,8.515 C15.21,9.845 16.32,11.275 17.35,12.805 C16.23,13.47 15.165,14.295 14.19,15.265 C11.74,17.725 10.2,20.755 9.875,23.81 C7.225,23.34 4.875,21.995 3.13,20.085 Z"></path>
                        <path d="M15.065,16.14 C15.97,15.23 16.975,14.46 18.035,13.84 C19.205,15.675 20.25,17.635 21.175,19.73 C18.975,22.34 15.68,24 12,24 C11.69,24 11.385,23.99 11.085,23.965 C11.39,21.215 12.835,18.37 15.065,16.14 Z"></path>
                    </g>
                </g>
            </g>
        </g>
    </g>
</svg>