<?xml version="1.0" encoding="UTF-8"?>
<svg width="24px" height="16px" viewBox="0 0 24 16" version="1.1" xmlns="http://www.w3.org/2000/svg" xmlns:xlink="http://www.w3.org/1999/xlink">
    <!-- Generator: sketchtool 60 (101010) - https://sketch.com -->
    <title>6D2762C8-B931-4A3F-891C-12DF52A516BB</title>
    <desc>Created with sketchtool.</desc>
    <g id="Page-1" stroke="none" stroke-width="1" fill="none" fill-rule="evenodd">
        <g id="icon" transform="translate(-132.000000, -966.000000)" fill="#FFFFFF" fill-rule="nonzero">
            <g id="12-copy-3" transform="translate(83.000000, 946.000000)">
                <g id="Speedway/white" transform="translate(49.000000, 20.000000)">
                    <g>
                        <path d="M19.28,8.296 C20.944,8.296 22.296,9.648 22.296,11.312 C22.296,12.976 20.944,14.328 19.28,14.328 C17.616,14.328 16.2639647,12.976 16.2639647,11.312 C16.256,9.648 17.608,8.296 19.28,8.296 M19.28,7.12 C16.96,7.12 15.088,9 15.088,11.312 C15.088,13.632 16.968,15.512 19.28,15.512 C21.6,15.512 23.48,13.632 23.48,11.312 C23.472,8.992 21.592,7.12 19.28,7.12 L19.28,7.12 Z" id="Shape"></path>
                        <path d="M4.72,8.296 C6.384,8.296 7.736,9.648 7.736,11.312 C7.736,12.976 6.384,14.328 4.72,14.328 C3.056,14.328 1.704,12.976 1.704,11.312 C1.704,9.648 3.056,8.296 4.72,8.296 M4.72,7.12 C2.4,7.12 0.528,9 0.528,11.312 C0.528,13.632 2.408,15.512 4.72,15.512 C7.04,15.512 8.91202544,13.632 8.91202544,11.312 C8.92,8.992 7.04,7.12 4.72,7.12 L4.72,7.12 Z" id="Shape"></path>
                        <polygon id="Path" points="13.312 11.952 4.72 11.952 4.72 10.672 10.648 10.672 7.48 7.504 8.16 6.824 1.232 6.824 2.944 4.64 12.96 4.64 16.096 2.824 18.384 5.232"></polygon>
                        <polygon id="Path" points="18.888 11.368 18.024 5.432 13.464 1.368 11.68 1.904 11.448 1.152 13.656 0.488 18.76 5.032 19.664 11.256"></polygon>
                        <path d="M18.264,5.544 C17.848,5.6 17.408,4.928 17.28,4.032 C17.152,3.136 17.384,2.36 17.8,2.304 C18.216,2.248 18.656,2.92 18.784,3.816 C18.912,4.712 18.68,5.48 18.264,5.544 Z" id="Path"></path>
                    </g>
                </g>
            </g>
        </g>
    </g>
</svg>