<?xml version="1.0" encoding="UTF-8"?>
<svg width="18px" height="24px" viewBox="0 0 18 24" version="1.1" xmlns="http://www.w3.org/2000/svg" xmlns:xlink="http://www.w3.org/1999/xlink">
    <!-- Generator: sketchtool 60 (101010) - https://sketch.com -->
    <title>6D597FCD-76DE-4646-ACAB-B4BAA64E2A44</title>
    <desc>Created with sketchtool.</desc>
    <g id="Page-1" stroke="none" stroke-width="1" fill="none" fill-rule="evenodd">
        <g id="icon" transform="translate(-145.000000, -1026.000000)" fill="#FFFFFF" fill-rule="nonzero">
            <g id="12-copy-4" transform="translate(83.000000, 1010.000000)">
                <g id="chess/white" transform="translate(62.000000, 16.000000)">
                    <g id="Path">
                        <path d="M17.587875,7.61685937 C15.588375,6.04635937 13.618875,4.47735937 11.626875,2.90685937 C10.762875,2.24235937 10.342875,1.39785937 10.518375,0.305859375 C10.548375,0.034359375 10.396875,-0.057140625 10.098375,0.034359375 C9.411375,0.244359375 8.844375,0.638859375 8.515875,1.27335937 C8.065875,2.17935937 7.353375,2.51235937 6.453375,2.48235937 C5.107875,2.42085937 4.273875,3.14835937 3.556875,4.17735937 C2.776875,5.26935937 2.394375,6.53835937 2.095875,7.80885937 C1.767375,9.17085937 1.614375,10.5343594 1.560375,11.9203594 C1.498875,12.9808594 1.530375,14.0098594 1.498875,15.0643594 C1.498875,15.1258594 1.498875,15.1573594 1.498875,15.1873594 L1.498875,17.9998594 L14.700375,17.9998594 L14.700375,15.8788594 C14.700375,15.8788594 14.806875,14.9863594 14.146875,14.3323594 C13.486875,13.6783594 12.786375,13.0663594 12.786375,13.0663594 C12.448875,12.7903594 12.141375,12.4753594 11.875875,12.1318594 L9.441375,8.98185938 C9.592875,9.10485937 9.739875,9.22185938 9.891375,9.34485938 C10.639875,9.91785937 11.443875,10.1593594 12.367875,9.91785937 C12.903375,9.79485937 13.444875,9.85635938 13.920375,10.1578594 C14.185875,10.3348594 14.479875,10.4878594 14.775375,10.6408594 C15.469875,11.0008594 16.324875,10.8358594 16.824375,10.2358594 C17.131875,9.86685938 17.439375,9.49785938 17.746875,9.13485938 C18.138375,8.67135937 18.066375,7.99185937 17.587875,7.61685937 Z"></path>
                        <path d="M16.420875,22.9153594 L14.920875,19.9138594 C14.793375,19.6603594 14.533875,19.4998594 14.250375,19.4998594 L2.250375,19.4998594 C1.966875,19.4998594 1.707375,19.6603594 1.579875,19.9138594 L0.079875,22.9138594 C-0.037125,23.1463594 -0.023625,23.4223594 0.112875,23.6428594 C0.249375,23.8633594 0.490875,23.9998594 0.750375,23.9998594 L15.750375,23.9998594 C16.009875,23.9998594 16.251375,23.8648594 16.389375,23.6443594 C16.525875,23.4238594 16.537875,23.1478594 16.420875,22.9153594 Z"></path>
                    </g>
                </g>
            </g>
        </g>
    </g>
</svg>