<?xml version="1.0" encoding="UTF-8"?>
<svg width="24px" height="24px" viewBox="0 0 24 24" version="1.1" xmlns="http://www.w3.org/2000/svg" xmlns:xlink="http://www.w3.org/1999/xlink">
    <!-- Generator: sketchtool 60 (101010) - https://sketch.com -->
    <title>01A6699D-937B-4686-A773-D1C5991F5D49</title>
    <desc>Created with sketchtool.</desc>
    <g id="Page-1" stroke="none" stroke-width="1" fill="none" fill-rule="evenodd">
        <g id="icon" transform="translate(-439.000000, -514.000000)" fill="#FFFFFF" fill-rule="nonzero">
            <g id="20" transform="translate(393.000000, 498.000000)">
                <g id="Volleyball" transform="translate(46.000000, 16.000000)">
                    <g id="Path">
                        <path d="M12.6098713,12.4515 C12.208655,18.0525 9.18306433,21.351 7.09464327,22.971 C8.08121637,23.4135 9.13815205,23.721 10.2444912,23.883 L10.6981053,23.514 C13.4437427,21.2835 16.7657544,17.316 17.5337544,11.0655 C16.0052398,11.1765 14.3509708,11.5935 12.6098713,12.4515 Z"></path>
                        <path d="M23.4891228,8.682 L22.882807,8.3085 C20.716538,6.9705 15.044117,4.2795 8.13960234,7.1595 C9.01239766,8.5425 10.2489825,9.8925 11.993076,11.0715 C16.9963041,8.625 21.4096842,9.606 23.8768655,10.596 C23.7990175,9.9405 23.6672749,9.3015 23.4891228,8.682 Z"></path>
                        <path d="M11.9825965,0.0015 C9.87920468,0.0015 7.90306433,0.549 6.18442105,1.5045 L6.19040936,1.5585 C6.32963743,2.826 6.68893567,4.3215 7.40902924,5.841 C14.0545497,3 19.673076,4.899 22.5789006,6.4125 C20.5713216,2.601 16.581614,0.0015 11.9825965,0.0015 Z"></path>
                        <path d="M4.80561404,2.4105 C3.83251462,3.1425 2.97469006,4.0155 2.26357895,5.0055 L2.32795322,5.424 C2.87288889,8.9445 4.58254971,13.887 9.53038596,17.8485 C10.3477895,16.3725 10.969076,14.5425 11.1232749,12.2925 C6.79522807,9.351 5.27120468,5.442 4.80561404,2.4105 Z"></path>
                        <path d="M1.10184795,7.002 C0.401216374,8.529 0,10.2225 0,12.012 C0,16.3095 2.25908772,20.0685 5.64397661,22.191 L5.78769591,22.0875 C6.63504094,21.48 7.73688889,20.4975 8.72795322,19.1235 C3.9148538,15.327 1.90577778,10.6725 1.10184795,7.002 Z"></path>
                        <path d="M23.7526082,12.1725 C22.4950643,11.6145 20.8872047,11.1345 19.0458012,11.043 C18.3346901,17.328 15.2357427,21.477 12.4152515,24 C18.747883,23.7735 23.8229708,18.633 23.9547135,12.261 L23.7526082,12.1725 Z"></path>
                    </g>
                </g>
            </g>
        </g>
    </g>
</svg>