<?xml version="1.0" encoding="UTF-8"?>
<svg width="24px" height="24px" viewBox="0 0 24 24" version="1.1" xmlns="http://www.w3.org/2000/svg" xmlns:xlink="http://www.w3.org/1999/xlink">
    <!-- Generator: sketchtool 60 (101010) - https://sketch.com -->
    <title>13E098C2-A7A5-4DE8-B2AD-674148F61472</title>
    <desc>Created with sketchtool.</desc>
    <g id="Page-1" stroke="none" stroke-width="1" fill="none" fill-rule="evenodd">
        <g id="icon" transform="translate(-124.000000, -770.000000)" fill="#FFFFFF" fill-rule="nonzero">
            <g id="12" transform="translate(83.000000, 754.000000)">
                <g id="hockey" transform="translate(41.000000, 16.000000)">
                    <g id="Path">
                        <path d="M23.6111719,1.58053125 L20.5987031,0.07425 C20.4318281,-0.0091875 20.2387969,-0.022828125 20.0619375,0.03609375 C19.8850312,0.0950625 19.7387812,0.22190625 19.6553906,0.3886875 L11.565375,16.5687656 L3.71484375,16.5687656 C3.71470312,16.5687656 3.71475,16.5687656 3.71460937,16.5687656 C1.69532812,16.5687656 -5.68434189e-14,18.2005313 -5.68434189e-14,20.2851094 C-5.68434189e-14,22.3335 1.6665,24 3.71484375,24 L12.7530469,24 C13.0193906,24 13.2628594,23.8495313 13.3819219,23.6113125 L23.9256094,2.52384375 C24.0992812,2.1765 23.9585156,1.75415625 23.6111719,1.58053125 L23.6111719,1.58053125 Z"></path>
                        <path d="M6.628125,11.9500313 C9.49289063,11.9500313 11.8499531,10.7275781 11.8499531,8.98753125 L11.8499531,8.0085 C11.5962656,8.21807813 11.3101875,8.411625 10.9930781,8.58675 C9.8206875,9.23404688 8.27053125,9.590625 6.628125,9.590625 C4.98825,9.590625 3.43954688,9.23498438 2.26739062,8.58923438 C1.94859375,8.41359375 1.6610625,8.21939063 1.40625,8.00892188 L1.40625,8.98753125 C1.40625,10.7325 3.77151563,11.9500313 6.628125,11.9500313 L6.628125,11.9500313 Z"></path>
                        <path d="M6.628125,8.184375 C9.49289063,8.184375 11.8499531,6.96196875 11.8499531,5.22192188 C11.8499531,3.47695313 9.4846875,2.25942188 6.628125,2.25942188 C3.76335937,2.25942188 1.40625,3.48182813 1.40625,5.221875 C1.40625,6.96689062 3.77151563,8.184375 6.628125,8.184375 Z"></path>
                    </g>
                </g>
            </g>
        </g>
    </g>
</svg>