<?xml version="1.0" encoding="UTF-8"?>
<svg width="24px" height="24px" viewBox="0 0 24 24" version="1.1" xmlns="http://www.w3.org/2000/svg" xmlns:xlink="http://www.w3.org/1999/xlink">
    <!-- Generator: sketchtool 60 (101010) - https://sketch.com -->
    <title>81884FA3-8FC0-450A-8C81-7B9562B27FD5</title>
    <desc>Created with sketchtool.</desc>
    <g id="Page-1" stroke="none" stroke-width="1" fill="none" fill-rule="evenodd">
        <g id="icon" transform="translate(-450.000000, -450.000000)" fill="#FFFFFF" fill-rule="nonzero">
            <g id="19" transform="translate(393.000000, 434.000000)">
                <g id="tennis/white" transform="translate(57.000000, 16.000000)">
                    <g id="tennis">
                        <path d="M20.4854531,3.5146875 C18.0693281,1.0985625 14.8790625,-0.0725625 11.7129375,0.003609375 L16.6030781,4.89164063 L16.6030781,4.89164063 C19.8153281,8.127375 19.8094688,13.354875 16.5825469,16.5817969 C13.3556719,19.8087188 8.12714063,19.8160313 4.89295313,16.6007813 L4.89295313,16.6022344 L0.003515625,11.713125 C-0.07115625,14.8781719 1.09917187,18.0699844 3.51459375,20.4854531 C8.20040625,25.1713594 15.8003906,25.1713594 20.4854531,20.4854531 C25.1712656,15.7980938 25.1712656,8.20059375 20.4854531,3.5146875 Z" id="Path"></path>
                        <path d="M6.18928125,15.2956875 C7.405125,16.5056719 9.02067187,17.1691406 10.737375,17.1677833 C12.452625,17.1648281 14.0675625,16.4954063 15.2804062,15.2811563 C16.4946562,14.0683125 17.164125,12.45375 17.1670408,10.7377031 C17.1699375,9.02170313 16.506375,7.4053125 15.2965312,6.1895625 L15.2276719,6.12070313 L9.39276562,0.284859375 C7.2380625,0.760921875 5.19032812,1.83754688 3.51464062,3.51473438 C1.84035937,5.19042188 0.76228125,7.23675 0.286265625,9.39220313 L6.12482812,15.2326875 L6.18928125,15.2956875 Z" id="Path"></path>
                    </g>
                </g>
            </g>
        </g>
    </g>
</svg>