<?xml version="1.0" encoding="utf-8"?>
<!-- Generator: Adobe Illustrator 19.0.0, SVG Export Plug-In . SVG Version: 6.00 Build 0)  -->
<svg version="1.1" id="Layer_1" xmlns="http://www.w3.org/2000/svg" xmlns:xlink="http://www.w3.org/1999/xlink" x="0px" y="0px"
	 viewBox="-293 385 24 23" style="enable-background:new -293 385 24 23;" xml:space="preserve">
<style type="text/css">
	.st0{fill:#E07A5F;}
</style>
<title>12BEC266-BC1E-44DF-AFAB-74821C07A2A2</title>
<desc>Created with sketchtool.</desc>
<g id="Page-1">
	<g id="icon" transform="translate(-112.000000, -1842.000000)">
		<g id="_x2D_54" transform="translate(83.000000, 1825.000000)">
			<g id="Equine-Sports" transform="translate(29.000000, 17.000000)">
				<g id="Path">
					<path class="st0" d="M-275.3,399.1l1.1-2.5c-0.2,0-0.4,0-0.6-0.1c-1.2-0.3-2-1.2-2.6-2.2h-1.1c0.1,0.5,0.1,1-0.2,1.5l-2.3,3.4
						c-0.3,0.5-0.9,0.8-1.5,0.8c-0.4,0-0.7-0.1-1-0.3c-0.8-0.5-1.1-1.7-0.5-2.5l1.1-1.7l-1.3-0.6c-0.3-0.1-0.6-0.4-0.8-0.7h-0.8
						c-0.8,0-1.5,0.3-2.1,0.8c-0.8-0.5-3.6-2.2-4.5,0.9c-1,3.3,1.3,3.8-0.4,5.3c-0.1,0.1-0.1,0.2-0.1,0.3c0.1,0.1,0.2,0.1,0.3,0.1
						c0.8-0.3,1.9-1.1,2.3-3.6c0.3-1.7,1.1-2.3,1.8-2.2c-0.3,0.5-0.4,1-0.4,1.6c0,0.9,0.4,1.7,0.9,2.2l-1.2,1.8l-0.1,0.1
						c-0.1,0.1-0.1,0.3-0.1,0.5l0.3,5.3c0,0.3,0.2,0.5,0.5,0.5c0.3,0.1,0.6-0.2,0.7-0.5l0.6-3.2l0.9,3.2c0.1,0.3,0.3,0.4,0.6,0.4
						c0.3,0,0.6-0.3,0.6-0.6l-0.2-4.7l1.4-2h4.5l0.9,1.8l-0.7,4.8c0,0.3,0.1,0.6,0.4,0.7c0.3,0.1,0.7,0,0.8-0.4l1.5-3.9l0.8,3.9
						c0.1,0.3,0.3,0.5,0.6,0.5c0.3,0,0.6-0.3,0.6-0.6L-275.3,399.1z"/>
					<path class="st0" d="M-280.2,388c0.8,0,1.5-0.7,1.5-1.5c0-0.8-0.7-1.5-1.5-1.5c-0.8,0-1.5,0.7-1.5,1.5
						C-281.7,387.3-281,388-280.2,388z"/>
					<path class="st0" d="M-269.4,391.3l-2.8-2.3l0.2-2.2c0-0.1,0-0.2-0.1-0.2c-0.1,0-0.2,0-0.3,0l-1.3,1.2l-0.9,2l-1.4,2.1
						c0.4,1,1,2,1.7,2.2c0.3,0.1,0.8,0,1.2-0.4l0.5-1.2l1.4,0.6c-1.3,1.4-2.4,2-3.3,1.7c-1.4-0.4-2.3-2.6-2.6-3.9c0-0.1,0-0.3,0-0.4
						c-0.1-0.3-0.4-0.4-0.6-0.4c-0.1,0-0.2,0-0.2,0l-1.8,0.6l-0.6-1.3c0,0,0,0,0,0c0.1-0.3,0.1-0.6,0-0.9s-0.4-0.5-0.6-0.6l-0.1,0
						c-0.6-0.2-1.2,0.1-1.4,0.6c-0.4,1-1.2,2.6-1.9,4.3c-0.2,0.5,0,1.1,0.5,1.3l2.1,1l-1.6,2.5c-0.3,0.5-0.2,1.1,0.3,1.4
						c0.2,0.1,0.4,0.2,0.6,0.2c0.3,0,0.7-0.2,0.8-0.5l2.3-3.4c0.2-0.2,0.4-1.1-0.4-1.4c-0.5-0.2-1.8-0.8-1.8-0.8l0.7-1.8
						c0.3,0.7,0.4,1,0.8,1c0.4,0,1-0.3,2.4-0.8c0.4,1.3,1.3,3.7,3.1,4.1c0.2,0,0.4,0.1,0.6,0.1c1.2,0,2.4-0.8,3.8-2.3
						c0.1,0,0.3,0,0.4-0.1c0.3-0.1,0.5-0.3,0.6-0.6l0.1-0.2C-268.9,392.2-269,391.6-269.4,391.3z"/>
				</g>
			</g>
		</g>
	</g>
</g>
</svg>
