<?xml version="1.0" encoding="UTF-8"?>
<svg width="24px" height="23px" viewBox="0 0 24 23" version="1.1" xmlns="http://www.w3.org/2000/svg" xmlns:xlink="http://www.w3.org/1999/xlink">
    <!-- Generator: sketchtool 60 (101010) - https://sketch.com -->
    <title>12BEC266-BC1E-44DF-AFAB-74821C07A2A2</title>
    <desc>Created with sketchtool.</desc>
    <g id="Page-1" stroke="none" stroke-width="1" fill="none" fill-rule="evenodd">
        <g id="icon" transform="translate(-112.000000, -1842.000000)" fill="#FFFFFF" fill-rule="nonzero">
            <g id="-54" transform="translate(83.000000, 1825.000000)">
                <g id="Equine-Sports" transform="translate(29.000000, 17.000000)">
                    <g id="Path">
                        <path d="M17.6619877,14.0939322 L18.775411,11.5793792 C18.5733006,11.5668559 18.3719264,11.5418581 18.1722209,11.4922521 C17.0099632,11.202803 16.1412025,10.2952775 15.5381595,9.31577966 L14.3902822,9.31577966 C14.5365399,9.821 14.4532515,10.3620847 14.1623067,10.7992797 L11.8872638,14.243822 C11.5497423,14.7536229 10.9820859,15.0577881 10.3669693,15.0577881 C10.0122209,15.0577881 9.6686135,14.9554576 9.37133742,14.7622479 C8.53384049,14.2164852 8.3003681,13.0959661 8.85006135,12.2652373 L9.9682454,10.5713263 L8.68009816,9.98146398 C8.36014724,9.83498517 8.09825767,9.60352331 7.91347239,9.31573093 L7.16083436,9.31573093 C6.3728589,9.31573093 5.6603681,9.61175847 5.10507975,10.084428 C4.33128834,9.55547669 1.48520245,7.86975212 0.564171779,10.9796737 C-0.399852761,14.2317373 1.81860123,14.7849068 0.133300613,16.2590021 C0.0444662577,16.3371144 0.0231656442,16.4663432 0.082208589,16.568625 C0.14203681,16.6705169 0.265374233,16.7169555 0.377865031,16.6790445 C1.17766871,16.4104513 2.24868712,15.578553 2.63258896,13.1034216 C2.8911411,11.4317309 3.72014724,10.8445975 4.42488344,10.8965424 C4.15420859,11.3603432 3.98743558,11.8915847 3.98743558,12.4662924 C3.98743558,13.3341525 4.34134969,14.1200021 4.91317791,14.6895932 L3.70046626,16.5298856 L3.63607362,16.6268072 C3.54468712,16.7653919 3.49595092,16.933214 3.50537423,17.1108792 L3.79710429,22.3773919 C3.8121227,22.6396992 4.00554601,22.8685297 4.27695706,22.917697 C4.59533742,22.9758792 4.90130061,22.7661992 4.9595092,22.4499979 L5.54296933,19.2889597 L6.47798773,22.5074492 C6.55204908,22.7599619 6.79185276,22.9399661 7.06797546,22.9273941 C7.39190184,22.9130191 7.64196319,22.6412585 7.62773006,22.3199894 L7.41472393,17.6047458 L8.79725153,15.6167564 L13.260908,15.6167564 L14.1842945,17.4504703 L13.4371534,22.2536208 C13.3929816,22.5369788 13.5510184,22.8236017 13.8319509,22.9312924 C14.1558773,23.0554534 14.5200491,22.895428 14.6449571,22.5737691 L16.1800245,18.6291229 L16.9405153,22.4878602 C16.9971534,22.7760424 17.2606626,22.985625 17.5634356,22.9688623 C17.8952638,22.9501504 18.1485153,22.6686441 18.1295215,22.3395297 L17.6619877,14.0939322 Z"></path>
                        <path d="M12.7989202,3.01051483 C13.6332761,3.01051483 14.3105276,2.33820339 14.3105276,1.50864407 C14.3105276,0.678987288 13.6332761,0.00672457627 12.7989202,0.00672457627 C11.9622086,0.00672457627 11.2859877,0.678987288 11.2859877,1.50864407 C11.2859877,2.33820339 11.9622086,3.01051483 12.7989202,3.01051483 Z"></path>
                        <path d="M23.5893006,6.32231992 L20.832,4.02680297 L21.067092,1.85846822 C21.0765644,1.7655911 21.0270429,1.67622246 20.9429202,1.63475424 C20.8579141,1.59338347 20.7564172,1.60897669 20.6888834,1.67344492 L19.4237055,2.87509746 L18.5222086,4.87863136 L17.0933497,7.0067161 C17.5039018,8.03499153 18.1000736,9.00240466 18.7614724,9.16603602 C19.0987975,9.24950847 19.5226012,9.11911017 20.0016196,8.81075424 L20.5410552,7.59151059 L21.9062086,8.19745339 C20.6314601,9.58875847 19.5062086,10.1787669 18.5655951,9.94136017 C17.134184,9.58612712 16.2652761,7.32608475 15.9340859,6.05645551 C15.9727607,5.92454661 15.9828221,5.78284322 15.931681,5.64343008 C15.8318528,5.37132839 15.5732515,5.20345763 15.2979141,5.20345763 C15.2209571,5.20345763 15.1429693,5.21666314 15.0667485,5.244 L13.2903067,5.88741525 L12.6894724,4.57144492 C12.6896687,4.5709089 12.6899141,4.57032415 12.6901104,4.56978814 C12.7978405,4.28833051 12.7872393,3.97573517 12.6608589,3.70202542 C12.5344785,3.42831568 12.3027239,3.21615042 12.0175706,3.113625 L11.892908,3.06879449 C11.3333988,2.86764195 10.7145521,3.12951059 10.4719018,3.66898729 C10.0372515,4.63513347 9.3168589,6.22398517 8.52284663,7.92374364 C8.28858896,8.42691737 8.51042945,9.02301695 9.01747239,9.25574576 L11.1541595,10.2340742 L9.52323926,12.7037479 C9.2164908,13.1676462 9.3471411,13.7898644 9.81334969,14.0939809 C9.98414724,14.2048877 10.1767362,14.2582945 10.3670184,14.2582945 C10.6958528,14.2582945 11.0189939,14.0998771 11.2139877,13.8051165 L13.4892761,10.360964 C13.651092,10.1169788 13.8991902,9.27733263 13.1190675,8.92482839 C12.6117791,8.69560805 11.3531779,8.11305508 11.3531779,8.11305508 L12.0185521,6.3473178 C12.3511656,7.07576483 12.4613006,7.39396398 12.8616442,7.39396398 C13.2429939,7.39396398 13.8980613,7.1015911 15.2531534,6.60299788 C15.6361227,7.90347246 16.5665767,10.2680869 18.3680982,10.7166843 C18.5678528,10.7662903 18.7699632,10.7912394 18.9760491,10.7912394 C20.1281963,10.7912394 21.3865031,10.008411 22.727411,8.47540254 C22.8768098,8.48237076 23.0269939,8.46248941 23.1693252,8.40859534 C23.4407362,8.3055339 23.6592393,8.09984958 23.7772761,7.83666525 L23.8850552,7.59779661 C24.0839264,7.15460805 23.9635337,6.63379449 23.5893006,6.32231992 Z"></path>
                    </g>
                </g>
            </g>
        </g>
    </g>
</svg>