<?xml version="1.0" encoding="utf-8"?>
<!-- Generator: Adobe Illustrator 19.0.0, SVG Export Plug-In . SVG Version: 6.00 Build 0)  -->
<svg version="1.1" id="Layer_1" xmlns="http://www.w3.org/2000/svg" xmlns:xlink="http://www.w3.org/1999/xlink" x="0px" y="0px"
	 viewBox="-293 385 24 24" style="enable-background:new -293 385 24 24;" xml:space="preserve">
<style type="text/css">
	.st0{fill:#FF6457;}
</style>
<title>7C4DD9E7-DB31-43A2-AA10-B147B7CAB5F4</title>
<desc>Created with sketchtool.</desc>
<g id="Page-1">
	<g id="icon" transform="translate(-106.000000, -1090.000000)">
		<g id="_x31_2-copy-5" transform="translate(83.000000, 1074.000000)">
			<g id="Australian-rules_x2F_white" transform="translate(23.000000, 16.000000)">
				<g id="Fill-1">
					<path class="st0" d="M-287.4,390.7c2.2-2.2,4.7-3.9,7.1-4.7c0.1-0.1,0.3-0.1,0.2,0c0.8,2,2,4,3.6,5.6c1.7,1.7,3.6,2.8,5.6,3.6
						c0.1,0.1,0.3,0.3,0.2,0.4c-0.8,2.4-2.5,4.9-4.7,7.1c-2.2,2.2-4.7,3.9-7,4.8c-0.2,0-0.3-0.1-0.4-0.2c-0.8-2-2-4-3.6-5.6
						c-1.6-1.6-3.6-2.8-5.6-3.6c-0.2,0-0.2-0.2-0.1-0.3C-291.3,395.4-289.6,392.9-287.4,390.7 M-277.2,385.5c-0.1-0.1,0-0.4,0.2-0.4
						c2.3-0.3,4.3,0.3,5.6,1.6c1.4,1.4,1.8,3.4,1.6,5.6c0,0.2-0.2,0.2-0.4,0.2c-1.5-0.7-3-1.6-4.2-2.8
						C-275.6,388.5-276.5,387-277.2,385.5 M-292.9,400.7c1.6,0.6,3.2,1.6,4.5,2.9c1.2,1.2,2.1,2.7,2.8,4.2c0.1,0.1,0,0.4-0.2,0.4
						c-2.3,0.3-4.3-0.3-5.6-1.6C-292.8,405.2-293.3,403.1-292.9,400.7"/>
				</g>
			</g>
		</g>
	</g>
</g>
</svg>
