<?xml version="1.0" encoding="UTF-8"?>
<svg width="24px" height="24px" viewBox="0 0 24 24" version="1.1" xmlns="http://www.w3.org/2000/svg" xmlns:xlink="http://www.w3.org/1999/xlink">
    <!-- Generator: sketchtool 60 (101010) - https://sketch.com -->
    <title>7C4DD9E7-DB31-43A2-AA10-B147B7CAB5F4</title>
    <desc>Created with sketchtool.</desc>
    <g id="Page-1" stroke="none" stroke-width="1" fill="none" fill-rule="evenodd">
        <g id="icon" transform="translate(-106.000000, -1090.000000)" fill="#FFFFFF">
            <g id="12-copy-5" transform="translate(83.000000, 1074.000000)">
                <g id="Australian-rules/white" transform="translate(23.000000, 16.000000)">
                    <g id="Fill-1">
                        <path d="M5.62390588,5.6664 C7.8192,3.46969412 10.3152,1.77275294 12.7109647,0.975105882 C12.8112,0.873458824 13.0102588,0.873458824 12.9114353,0.975105882 C13.7104941,2.97134118 14.9076706,4.96757647 16.5043765,6.56428235 C18.2013176,8.26122353 20.0987294,9.35957647 22.0949647,10.1586353 C22.1952,10.2588706 22.3942588,10.4579294 22.2954353,10.5581647 C21.4963765,12.9539294 19.7994353,15.4499294 17.6027294,17.6452235 C15.4060235,19.8419294 12.9114353,21.5388706 10.6144941,22.4367529 C10.4154353,22.4367529 10.3152,22.3379294 10.2149647,22.2362824 C9.41731765,20.2400471 8.21872941,18.2438118 6.62202353,16.6471059 C5.02531765,15.0489882 3.02767059,13.8518118 1.03143529,13.0527529 C0.830964706,13.0527529 0.830964706,12.8536941 0.9312,12.7548706 C1.73025882,10.3576941 3.4272,7.86310588 5.62390588,5.6664 M15.8055529,0.475341176 C15.7067294,0.375105882 15.8055529,0.0758117647 16.0060235,0.0758117647 C18.3015529,-0.223482353 20.2977882,0.375105882 21.5952,1.67251765 C22.9928471,3.07016471 23.3923765,5.0664 23.1933176,7.26310588 C23.1933176,7.46216471 22.9928471,7.46216471 22.7937882,7.46216471 C21.2973176,6.76334118 19.7994353,5.86687059 18.6008471,4.66828235 C17.4036706,3.46969412 16.5043765,1.97322353 15.8055529,0.475341176 M0.133552941,15.7492235 C1.73025882,16.3464 3.32837647,17.3445176 4.62437647,18.6433412 C5.82296471,19.8419294 6.72225882,21.3398118 7.41967059,22.8362824 C7.51990588,22.9351059 7.41967059,23.2358118 7.22061176,23.2358118 C4.92508235,23.5351059 2.92884706,22.9351059 1.63002353,21.6376941 C0.233788235,20.2400471 -0.265976471,18.1449882 0.133552941,15.7492235"></path>
                    </g>
                </g>
            </g>
        </g>
    </g>
</svg>