<?xml version="1.0" encoding="UTF-8"?>
<svg width="24px" height="24px" viewBox="0 0 24 24" version="1.1" xmlns="http://www.w3.org/2000/svg" xmlns:xlink="http://www.w3.org/1999/xlink">
    <!-- Generator: sketchtool 60 (101010) - https://sketch.com -->
    <title>9CE549A9-00BF-40E6-BCDA-5BCF2814C1EC</title>
    <desc>Created with sketchtool.</desc>
    <g id="Page-1" stroke="none" stroke-width="1" fill="none" fill-rule="evenodd">
        <g id="icon" transform="translate(-123.000000, -1154.000000)" fill="#FFFFFF" fill-rule="nonzero">
            <g id="12-copy-6" transform="translate(83.000000, 1138.000000)">
                <g id="badminton/white" transform="translate(40.000000, 16.000000)">
                    <g id="Path">
                        <path d="M23.4119531,10.8127969 L19.8674531,10.0192969 L9.41545312,18.0517969 L8.34595312,16.9822969 L19.0649531,8.74579688 L18.7439531,5.91529688 C18.7049531,5.56729688 18.4304531,5.29279688 18.0839531,5.25529688 L15.0584531,4.91179688 L7.00345312,15.6412969 L5.93395312,14.5702969 L14.0729531,3.72679687 L13.7279531,0.665296875 C13.7069531,0.459796875 13.5974531,0.272296875 13.4324531,0.149296875 C13.2674531,0.026296875 13.0574531,-0.024703125 12.8534531,0.011296875 L8.61145313,0.761296875 C8.33995313,0.809296875 8.11795313,0.999796875 8.02945313,1.26079687 L3.84295312,13.7902969 L2.59645313,15.0367969 L8.95945312,21.3997969 L10.2044531,20.1547969 L22.7339531,15.9682969 C22.9889531,15.8827969 23.1794531,15.6682969 23.2319531,15.4042969 L23.9819531,11.6932969 C24.0644531,11.2942969 23.8109531,10.9027969 23.4119531,10.8127969 Z"></path>
                        <path d="M1.53595313,16.0987969 L1.31695313,16.3177969 C-0.436546875,18.0727969 -0.436546875,20.9257969 1.31695313,22.6807969 C2.16595313,23.5312969 3.29695313,23.9992969 4.49845313,23.9992969 C5.69995313,23.9992969 6.83095313,23.5297969 7.67995313,22.6807969 L7.89895313,22.4617969 L1.53595313,16.0987969 Z"></path>
                    </g>
                </g>
            </g>
        </g>
    </g>
</svg>