<?xml version="1.0" encoding="utf-8"?>
<!-- Generator: Adobe Illustrator 19.0.0, SVG Export Plug-In . SVG Version: 6.00 Build 0)  -->
<svg version="1.1" id="Layer_1" xmlns="http://www.w3.org/2000/svg" xmlns:xlink="http://www.w3.org/1999/xlink" x="0px" y="0px"
	 viewBox="-289 392 33 10" style="enable-background:new -289 392 33 10;" xml:space="preserve">
<style type="text/css">
	.st0{fill:#BF6F7E;}
</style>
<title>383E4978-F714-4158-87C4-5B310638D525</title>
<desc>Created with sketchtool.</desc>
<g id="Page-1">
	<g id="icon" transform="translate(-122.000000, -1225.000000)">
		<g id="_x31_2-copy-7" transform="translate(83.000000, 1202.000000)">
			<g id="Formula-1_x2F_white" transform="translate(39.000000, 23.000000)">
				<g transform="translate(16.500000, 5.000000) scale(-1, 1) translate(-16.500000, -5.000000) ">
					<path id="Path" class="st0" d="M292.8,398.9c0-0.7,0.2-1.4,0.6-1.9c-1.8,0.7-2.4,1.7-2.4,1.8l-1.3,0.3l-0.6,1h3.3l0,0
						c0.2,0,0.4,0,0.7,0C292.9,399.7,292.8,399.3,292.8,398.9z"/>
					<path id="Shape" class="st0" d="M296.6,395.8c-1.8,0-3.2,1.4-3.2,3.1c0,1.7,1.5,3.1,3.2,3.1c1.8,0,3.2-1.4,3.2-3.1
						C299.9,397.2,298.4,395.8,296.6,395.8z M296.6,399.9c-0.6,0-1.1-0.5-1.1-1c0-0.6,0.5-1,1.1-1s1.1,0.5,1.1,1
						C297.7,399.4,297.2,399.9,296.6,399.9z"/>
					<path id="Shape_1_" class="st0" d="M314.3,395.8c-1.8,0-3.2,1.4-3.2,3.1c0,1.7,1.5,3.1,3.2,3.1s3.2-1.4,3.2-3.1
						C317.5,397.2,316.1,395.8,314.3,395.8z M314.3,399.9c-0.6,0-1.1-0.5-1.1-1c0-0.6,0.5-1,1.1-1s1.1,0.5,1.1,1
						C315.4,399.4,314.9,399.9,314.3,399.9z"/>
					
						<ellipse id="Oval" transform="matrix(0.9549 -0.297 0.297 0.9549 -103.1652 109.1858)" class="st0" cx="307.8" cy="394.1" rx="1.7" ry="-1.6"/>
					<path id="Path_1_" class="st0" d="M321.1,393.1l-2.5-0.6c-0.3-0.1-0.6,0-0.8,0.1l-0.6,0.5l1.4,0.5l-0.5,0.4
						c-1.7-0.7-3.6-0.8-5.4-0.3l-2.1,0.6c0,0-0.2,0.6-0.9,1.5c-3.1,1.5-6.1-0.1-6.1-0.1s-1.2,0.2-4.3,0.5c0.8,0.7,1.2,1.6,1.2,2.7
						c0,0.4-0.1,0.8-0.2,1.2c3.4,0,7.2,0,10.5,0c-0.1-0.4-0.2-0.8-0.2-1.2c0-2,1.7-3.6,3.8-3.6c2.1,0,3.8,1.6,3.8,3.6
						c0,0.4-0.1,0.8-0.2,1.2c0.6,0,1,0,1.2,0c1.9-0.5-0.1-4.5-0.1-4.5l1.2-1.4l1.3,0.5l0.5-0.6C322.1,393.7,321.8,393.2,321.1,393.1
						z"/>
				</g>
			</g>
		</g>
	</g>
</g>
</svg>
