<?xml version="1.0" encoding="UTF-8"?>
<svg width="33px" height="10px" viewBox="0 0 33 10" version="1.1" xmlns="http://www.w3.org/2000/svg" xmlns:xlink="http://www.w3.org/1999/xlink">
    <!-- Generator: sketchtool 60 (101010) - https://sketch.com -->
    <title>383E4978-F714-4158-87C4-5B310638D525</title>
    <desc>Created with sketchtool.</desc>
    <g id="Page-1" stroke="none" stroke-width="1" fill="none" fill-rule="evenodd">
        <g id="icon" transform="translate(-122.000000, -1225.000000)" fill="#FFFFFF" fill-rule="nonzero">
            <g id="12-copy-7" transform="translate(83.000000, 1202.000000)">
                <g id="Formula-1/white" transform="translate(39.000000, 23.000000)">
                    <g transform="translate(16.500000, 5.000000) scale(-1, 1) translate(-16.500000, -5.000000) ">
                        <path d="M3.828,6.88059701 C3.828,6.17164179 4.03764706,5.50746269 4.41035294,4.94776119 C2.58564706,5.60447761 2.04988235,6.68656716 2.00329412,6.7761194 L0.66,7.04477612 L0.0465882353,8.05970149 L3.36988235,8.05970149 L3.36988235,8.05970149 C3.564,8.05970149 3.78917647,8.05970149 4.02988235,8.05970149 C3.89788235,7.68656716 3.828,7.29104478 3.828,6.88059701 Z" id="Path"></path>
                        <path d="M7.61717647,3.76119403 C5.83129412,3.76119403 4.37152941,5.1641791 4.37152941,6.88059701 C4.37152941,8.59701493 5.82352941,10 7.61717647,10 C9.41082353,10 10.8628235,8.59701493 10.8628235,6.88059701 C10.8628235,5.1641791 9.40305882,3.76119403 7.61717647,3.76119403 Z M7.61717647,7.91044776 C7.02705882,7.91044776 6.54564706,7.44776119 6.54564706,6.88059701 C6.54564706,6.31343284 7.02705882,5.85074627 7.61717647,5.85074627 C8.20729412,5.85074627 8.68870588,6.31343284 8.68870588,6.88059701 C8.68870588,7.44776119 8.20729412,7.91044776 7.61717647,7.91044776 Z" id="Shape"></path>
                        <path d="M25.2896471,3.76119403 C23.5037647,3.76119403 22.044,5.1641791 22.044,6.88059701 C22.044,8.59701493 23.5037647,10 25.2896471,10 C27.0755294,10 28.5352941,8.59701493 28.5352941,6.88059701 C28.5352941,5.1641791 27.0832941,3.76119403 25.2896471,3.76119403 Z M25.2896471,7.91044776 C24.6995294,7.91044776 24.2181176,7.44776119 24.2181176,6.88059701 C24.2181176,6.31343284 24.6995294,5.85074627 25.2896471,5.85074627 C25.8797647,5.85074627 26.3611765,6.31343284 26.3611765,6.88059701 C26.3611765,7.44776119 25.8797647,7.91044776 25.2896471,7.91044776 Z" id="Shape"></path>
                        <ellipse id="Oval" transform="translate(18.757275, 2.118549) rotate(-72.722878) translate(-18.757275, -2.118549) " cx="18.7572745" cy="2.11854851" rx="1.64779722" ry="1.70251766"></ellipse>
                        <path d="M32.1148235,1.05970149 L29.568,0.455223881 C29.2884706,0.388059701 28.9701176,0.440298507 28.7837647,0.574626866 L28.1392941,1.03731343 L29.5524706,1.58208955 L29.0089412,1.94776119 C27.3162353,1.2761194 25.4138824,1.17910448 23.6435294,1.67164179 L21.5858824,2.31343284 C21.5858824,2.31343284 21.3529412,2.93283582 20.6463529,3.84328358 C17.5870588,5.36567164 14.4967059,3.70149254 14.4967059,3.70149254 C14.4967059,3.70149254 13.2931765,3.8880597 10.164,4.18656716 C10.9249412,4.85074627 11.4063529,5.81343284 11.4063529,6.88059701 C11.4063529,7.29104478 11.3364706,7.68656716 11.2044706,8.05970149 C14.5665882,8.05970149 18.3868235,8.05970149 21.7101176,8.05970149 C21.5781176,7.69402985 21.5082353,7.29850746 21.5082353,6.8880597 C21.5082353,4.88059701 23.2087059,3.24626866 25.2974118,3.24626866 C27.3861176,3.24626866 29.0865882,4.88059701 29.0865882,6.8880597 C29.0865882,7.29850746 29.0167059,7.69402985 28.8847059,8.06716418 C29.4592941,8.06716418 29.8630588,8.06716418 30.0571765,8.07462687 C31.9129412,7.53731343 29.9484706,3.60447761 29.9484706,3.60447761 L31.1054118,2.17910448 L32.3555294,2.6641791 L32.8136471,2.08208955 C33.1087059,1.67910448 32.7981176,1.21641791 32.1148235,1.05970149 Z" id="Path"></path>
                    </g>
                </g>
            </g>
        </g>
    </g>
</svg>