<?xml version="1.0" encoding="utf-8"?>
<!-- Generator: Adobe Illustrator 19.0.0, SVG Export Plug-In . SVG Version: 6.00 Build 0)  -->
<svg version="1.1" id="Layer_1" xmlns="http://www.w3.org/2000/svg" xmlns:xlink="http://www.w3.org/1999/xlink" x="0px" y="0px"
	 viewBox="-293 385 24 24" style="enable-background:new -293 385 24 24;" xml:space="preserve">
<style type="text/css">
	.st0{fill:#CB2755;}
</style>
<title>C32B681C-69A9-407E-91F4-87663FEDE76B</title>
<desc>Created with sketchtool.</desc>
<g id="Page-1">
	<g id="icon" transform="translate(-444.000000, -834.000000)">
		<g id="_x31_2-copy-8" transform="translate(393.000000, 818.000000)">
			<g id="NASCAR_x2F_white" transform="translate(51.000000, 16.000000)">
				<g>
					<path id="Path" class="st0" d="M-276.1,388.2l-0.6,1.6c-0.5-0.1-1-0.3-1.5-0.5l-1,2.7h-0.8c0.2-0.5,0.7-1.8,1.7-4.7
						C-277.6,387.8-276.9,388.1-276.1,388.2z"/>
					<path id="Path_1_" class="st0" d="M-275.3,386c-0.7-0.1-1.5-0.4-2.1-1l-0.5,1.4c0.6,0.7,1.3,0.9,2.1,1L-275.3,386z"/>
					<path id="Path_2_" class="st0" d="M-272.5,387.6l0.5-1.5c-0.8,0-1.6,0-2.5,0l-0.5,1.5C-274.2,387.6-273.3,387.5-272.5,387.6z"
						/>
					<path id="Path_3_" class="st0" d="M-275.3,388.3l-0.6,1.6c0.9,0,1.7-0.1,2.6,0l0.6-1.5C-273.6,388.3-274.4,388.4-275.3,388.3z"
						/>
					<path id="Path_4_" class="st0" d="M-272,388.4l-0.5,1.5c0.8,0.1,1.5,0.4,2,1.3l0.5-1.4C-270.5,388.9-271.2,388.6-272,388.4z"/>
					<path id="Path_5_" class="st0" d="M-271.1,386.2l-0.5,1.5c0.8,0.2,1.5,0.5,2.1,1.2l0.5-1.4
						C-269.6,386.7-270.3,386.3-271.1,386.2z"/>
					<path id="Path_6_" class="st0" d="M-284,386.4l-0.5-1.4c-0.7,0.6-1.4,0.9-2.1,1l0.5,1.5C-285.3,387.4-284.6,387.1-284,386.4z"
						/>
					<path id="Path_7_" class="st0" d="M-287,387.6l-0.5-1.5c-1,0.1-1.6,0-2.5,0l0.5,1.5C-288.7,387.5-287.8,387.6-287,387.6z"/>
					<path id="Path_8_" class="st0" d="M-290.9,386.2c-0.9,0.2-1.5,0.5-2,1.4l0.5,1.4c0.6-0.7,1.3-1.1,2.1-1.2L-290.9,386.2z"/>
					<path id="Path_9_" class="st0" d="M-289.2,388.3l0.6,1.5c0.8,0,1.7,0.1,2.6,0l-0.6-1.6C-287.6,388.4-288.4,388.3-289.2,388.3z"
						/>
					<path id="Path_10_" class="st0" d="M-292,389.8l0.5,1.4c0.6-0.8,1.3-1.1,2-1.3l-0.5-1.5C-290.8,388.6-291.5,388.9-292,389.8z"
						/>
					<path id="Path_11_" class="st0" d="M-282,392h-0.8l-1-2.7c-0.5,0.3-1,0.5-1.5,0.6l-0.6-1.6c0.8-0.1,1.5-0.4,2.1-1
						C-282.7,390.1-282.2,391.4-282,392z"/>
					<rect id="Rectangle" x="-289.2" y="407.1" class="st0" width="16.5" height="1.9"/>
					<path id="Path_12_" class="st0" d="M-272.8,394.7L-272.8,394.7h-16.5l0,0c0-1.1,0.9-1.9,1.9-1.9h12.6
						C-273.6,392.8-272.8,393.6-272.8,394.7z"/>
					<rect id="Rectangle_1_" x="-286.7" y="405.1" class="st0" width="11.3" height="1.1"/>
					<path id="Shape" class="st0" d="M-285,395.5v8.9h2.1v-8.9H-285z M-282.2,395.5v8.9h2.4v-8.9H-282.2z M-279,395.5v8.9h2.1v-8.9
						H-279z"/>
				</g>
			</g>
		</g>
	</g>
</g>
</svg>
