<?xml version="1.0" encoding="UTF-8"?>
<svg width="24px" height="24px" viewBox="0 0 24 24" version="1.1" xmlns="http://www.w3.org/2000/svg" xmlns:xlink="http://www.w3.org/1999/xlink">
    <!-- Generator: sketchtool 60 (101010) - https://sketch.com -->
    <title>C32B681C-69A9-407E-91F4-87663FEDE76B</title>
    <desc>Created with sketchtool.</desc>
    <g id="Page-1" stroke="none" stroke-width="1" fill="none" fill-rule="evenodd">
        <g id="icon" transform="translate(-444.000000, -834.000000)" fill="#FFFFFF" fill-rule="nonzero">
            <g id="12-copy-8" transform="translate(393.000000, 818.000000)">
                <g id="NASCAR/white" transform="translate(51.000000, 16.000000)">
                    <g>
                        <path d="M16.8642,3.24945 L16.2968625,4.80075 C15.8167875,4.7095125 15.3327375,4.5388875 14.84475,4.25325 L13.85685,6.9630375 L13.01175,6.9630375 C13.2141,6.4155 13.678275,5.1379875 14.72175,2.2654875 C15.3644625,2.840775 16.102425,3.1185 16.8642,3.24945 Z" id="Path"></path>
                        <path d="M17.6879625,0.9811125 C16.941075,0.8574375 16.1992125,0.58935 15.5454,0 L15.0201,1.4433 C15.620025,2.101425 16.3449,2.37825 17.1393375,2.4885 L17.6879625,0.9811125 Z" id="Path"></path>
                        <path d="M20.50545,2.5692 L21.0474,1.0801125 C20.2046625,1.0425375 19.47375,1.1165625 18.50145,1.066425 L17.960475,2.5528125 C18.808875,2.577225 19.6564125,2.5110375 20.50545,2.5692 Z" id="Path"></path>
                        <path d="M17.6761875,3.333975 L17.1053625,4.9024875 C17.967225,4.95225 18.8244,4.8508875 19.6699125,4.8650625 L20.222175,3.3476625 C19.3654875,3.3124875 18.5759625,3.3838875 17.6761875,3.333975 Z" id="Path"></path>
                        <path d="M21.03645,3.4308 L20.4903,4.9315125 C21.253425,5.0543625 21.973275,5.3799 22.5372375,6.183375 L23.038125,4.807275 C22.538475,3.939375 21.8491875,3.5755875 21.03645,3.4308 Z" id="Path"></path>
                        <path d="M21.8617125,1.16325 L21.312,2.673675 C22.0863,2.830275 22.7998875,3.1681875 23.373825,3.88485 L23.865375,2.534325 C23.3844,1.6956375 22.732575,1.317675 21.8617125,1.16325 Z" id="Path"></path>
                        <path d="M8.9799,1.4433 L8.4546,0 C7.800675,0.58935 7.0588875,0.85755 6.3121125,0.9812625 L6.86085,2.48895 C7.655175,2.37855 8.38005,2.1013875 8.9799,1.4433 Z" id="Path"></path>
                        <path d="M6.039675,2.553225 L5.4985875,1.0665375 C4.45065,1.1205 3.858825,1.0396875 2.9525625,1.0801125 L3.49425,2.5684875 C4.346025,2.51025 5.1869625,2.577675 6.039675,2.553225 Z" id="Path"></path>
                        <path d="M2.1382875,1.16325 C1.267425,1.317675 0.6156,1.6956375 0.1345875,2.534325 L0.6261375,3.8848125 C1.20015,3.167925 1.9135875,2.8297125 2.687775,2.673 L2.1382875,1.16325 Z" id="Path"></path>
                        <path d="M3.77775,3.347475 L4.3300875,4.8650625 C5.1755625,4.8508875 6.035025,4.951875 6.8946,4.9023375 L6.3238125,3.33405 C5.4186375,3.3841875 4.6286625,3.3125625 3.77775,3.347475 Z" id="Path"></path>
                        <path d="M0.9619125,4.8072375 L1.4628,6.183375 C2.026725,5.3799 2.746575,5.0543625 3.5097375,4.9315125 L2.9635125,3.43065 C2.1507,3.5754375 1.46145,3.939375 0.9619125,4.8072375 Z" id="Path"></path>
                        <path d="M10.9962,6.9630375 L10.1511375,6.9630375 L9.1632,4.249275 C8.6752125,4.5388875 8.18325,4.7095125 7.7031375,4.80075 L7.1358,3.24945 C7.897575,3.1185 8.6355375,2.840775 9.2782875,2.265525 C10.3257,5.1379875 10.7938875,6.4155 10.9962,6.9630375 Z" id="Path"></path>
                        <rect id="Rectangle" x="3.763875" y="22.069275" width="16.47225" height="1.930725"></rect>
                        <path d="M20.236125,9.688125 L20.236125,9.688125 L3.763875,9.688125 L3.763875,9.688125 C3.763875,8.6218125 4.6282875,7.7574 5.6946,7.7574 L18.3054,7.7574 C19.3717125,7.7574 20.236125,8.6218125 20.236125,9.688125 Z" id="Path"></path>
                        <rect id="Rectangle" x="6.33435" y="20.139225" width="11.3313" height="1.1347125"></rect>
                        <path d="M7.9531125,10.482225 L7.9531125,19.3456875 L10.004325,19.3456875 L10.004325,10.482225 L7.9531125,10.482225 Z M10.797825,10.482225 L10.797825,19.3456875 L13.202175,19.3456875 L13.202175,10.482225 L10.797825,10.482225 Z M13.995675,10.482225 L13.995675,19.3456875 L16.0468875,19.3456875 L16.0468875,10.482225 L13.995675,10.482225 Z" id="Shape"></path>
                    </g>
                </g>
            </g>
        </g>
    </g>
</svg>