<?xml version="1.0" encoding="UTF-8"?>
<svg width="24px" height="23px" viewBox="0 0 24 23" version="1.1" xmlns="http://www.w3.org/2000/svg" xmlns:xlink="http://www.w3.org/1999/xlink">
    <!-- Generator: sketchtool 60 (101010) - https://sketch.com -->
    <title>1548A8C1-D660-4119-976D-91D4E2D58253</title>
    <desc>Created with sketchtool.</desc>
    <g id="Page-1" stroke="none" stroke-width="1" fill="none" fill-rule="evenodd">
        <g id="icon" transform="translate(-447.000000, -899.000000)" fill="#FFFFFF" fill-rule="nonzero">
            <g id="12-copy-9" transform="translate(393.000000, 882.000000)">
                <g id="Hockey/white" transform="translate(54.000000, 17.000000)">
                    <g transform="translate(0.000000, 0.000000)" id="Shape">
                        <path d="M23.2046512,0.258614735 L23.2046512,0.258614735 C22.7767442,-0.115369005 22.1255814,-0.0779706308 21.7348837,0.333411483 L21.7162791,0.35211067 L21.6790698,0.389509044 L5.79069767,17.8358505 C5.58604651,18.0228424 5.3255814,18.1350375 5.04651163,18.1350375 C4.74883721,18.1350375 4.46976744,18.0228424 4.26511628,17.8171513 C3.8372093,17.38707 3.8372093,16.6765009 4.26511628,16.2464196 L4.54418605,15.9659318 C4.84186047,15.6667448 4.84186047,15.180566 4.5255814,14.881379 C4.48837209,14.8439806 4.45116279,14.8252814 4.43255814,14.787883 L3.09302326,13.8716229 C2.79534884,13.6659318 2.38604651,13.7033302 2.14418605,13.9651188 L2.10697674,14.0025172 L2.10697674,14.0025172 L1.3255814,14.7691838 C-0.441860465,16.583005 -0.441860465,19.5000781 1.3255814,21.3138993 C2.2,22.1927611 3.37209302,22.6789399 4.58139535,22.6789399 L4.65581395,22.6789399 C5.77209302,22.6789399 6.85116279,22.2301595 7.66976744,21.4447936 C7.7255814,21.388696 7.78139535,21.3325985 7.85581395,21.2578017 C11.8186047,17.0317855 21.4744186,4.22284238 23.372093,1.69845213 C23.6883721,1.26837083 23.6325581,0.632598475 23.2046512,0.258614735 Z M6.1255814,20.8651188 C5.64186047,21.0708099 5.12093023,21.183005 4.6,21.183005 C4.09767442,21.183005 3.61395349,21.089509 3.14883721,20.9025172 C2.9627907,20.8277204 2.86976744,20.6033302 2.94418605,20.4163383 C3.01860465,20.2293464 3.24186047,20.1358505 3.42790698,20.2106473 C4.20930233,20.5285334 5.06511628,20.5098342 5.84651163,20.1732489 C6.03255814,20.0984521 6.25581395,20.1732489 6.33023256,20.3602408 C6.40465116,20.5472326 6.33023256,20.7716229 6.1255814,20.8651188 L6.1255814,20.8651188 Z M10.4604651,12.6935741 C10.4790698,12.6748749 10.4976744,12.6561757 10.5162791,12.6374765 L10.4604651,12.6935741 L10.4604651,12.6935741 Z M8.93488372,14.3765009 L8.93488372,14.3765009 C8.95348837,14.3391025 8.97209302,14.3204034 8.99069767,14.3017042 L8.93488372,14.3765009 Z M10.9627907,16.489509 L9.28837209,15.1244684 L9.79069767,14.5634928 L11.427907,15.9098342 L10.9627907,16.489509 Z M12.3581395,14.7317855 L10.7953488,13.4602408 L11.2976744,12.8992651 L12.8232558,14.1521107 L12.3581395,14.7317855 Z M20.6,4.12934644 L20.5627907,4.11064726 L19.8744186,3.51227327 L20.3767442,2.95129766 L21.027907,3.54967165 L20.6,4.12934644 Z M21.6976744,2.67080986 L21.1023256,2.14723262 L21.6046512,1.58625701 L22.144186,2.05373669 L21.6976744,2.67080986 Z"></path>
                        <path d="M20.655814,16.4334115 C18.9069767,16.4334115 17.4930233,17.8545497 17.4930233,19.6309725 C17.4930233,21.4073952 18.9069767,22.8285334 20.655814,22.8285334 C22.4046512,22.8285334 23.8186047,21.4073952 23.8186047,19.6309725 C23.8186047,17.8545497 22.4046512,16.4334115 20.655814,16.4334115 Z M21.027907,18.7334115 C20.5627907,18.7334115 20.1348837,18.9952001 19.9116279,19.4252814 C19.8186047,19.6122733 19.5953488,19.6683708 19.4093023,19.5748749 C19.2418605,19.481379 19.1674419,19.2569887 19.2604651,19.088696 C19.5953488,18.4155253 20.2837209,18.0041432 21.027907,18.0041432 C21.2325581,18.0041432 21.4,18.1724359 21.4,18.3781269 C21.4,18.5651188 21.2325581,18.7334115 21.027907,18.7334115 Z"></path>
                    </g>
                </g>
            </g>
        </g>
    </g>
</svg>