<?xml version="1.0" encoding="utf-8"?>
<!-- Generator: Adobe Illustrator 19.0.0, SVG Export Plug-In . SVG Version: 6.00 Build 0)  -->
<svg version="1.1" id="Layer_1" xmlns="http://www.w3.org/2000/svg" xmlns:xlink="http://www.w3.org/1999/xlink" x="0px" y="0px"
	 viewBox="-288 392 35 10" style="enable-background:new -288 392 35 10;" xml:space="preserve">
<style type="text/css">
	.st0{fill:#772B59;}
</style>
<title>4D2C4DBD-7B95-4E40-9F94-D4E30E087CC4</title>
<desc>Created with sketchtool.</desc>
<g id="Page-1">
	<g id="icon" transform="translate(-431.000000, -969.000000)">
		<g id="_x31_2-copy-10" transform="translate(393.000000, 946.000000)">
			<g id="Supercars_x2F_white" transform="translate(38.000000, 23.000000)">
				<g id="Path">
					<path class="st0" d="M-253.8,400.7c0.4-1.2,0.3-2.1-0.3-2.9c-1-1.5-3.4-1.7-3.8-1.7l-0.9-0.5l-0.1,0c-1-0.3-4.6-0.4-5.1-0.4
						c-0.9-0.4-1.6-0.8-2.2-1.1c-2.2-1.2-3.7-2-7.9-2c-5.1,0-9.2,2.1-9.8,2.4c-0.3,0-0.6,0-0.8,0.1l-0.7-0.9l0.8,0.1
						c0.3,0,0.5-0.1,0.3-0.4c-0.1-0.2-0.5-0.4-0.8-0.5l-2.6-0.3c-0.3,0-0.5,0.1-0.3,0.4c0.1,0.2,0.5,0.4,0.8,0.5l0.4,0l0.9,1.2
						c-1.5,0.1-1.5,0.2-1.5,0.5c0,1.9-0.3,2.3-0.3,2.4l-0.4-0.3v2l0.2,0.3c0,0.3,0.1,0.6,0.3,0.8c0.6,0.7,2.1,0.7,2.3,0.7
						c0.5,0,1.5-0.2,2.2-0.4c0-0.1-0.1-0.2-0.1-0.2c0-0.1-0.1-0.2-0.1-0.3c-0.1-0.3-0.1-0.5-0.1-0.8c0-1.5,1.2-2.7,2.7-2.7
						s2.7,1.2,2.7,2.7c0,0.6-0.2,1.2-0.6,1.7c-0.1,0.1-0.2,0.2-0.3,0.3c-0.1,0.1-0.2,0.2-0.4,0.3c3.2,0,12.1,0.1,18.2,0.2
						c-0.1-0.1-0.2-0.2-0.2-0.3c-0.1-0.1-0.1-0.2-0.2-0.3c-0.2-0.4-0.4-0.8-0.4-1.3c0-1.5,1.2-2.7,2.7-2.7s2.7,1.2,2.7,2.7
						c0,0.5-0.2,1-0.4,1.4c-0.1,0.1-0.1,0.2-0.2,0.3c-0.1,0.1-0.2,0.2-0.3,0.3c0.6,0,1,0,1.5,0c2.1,0,2.5-0.2,2.6-0.5
						C-253.1,401.2-253.1,400.9-253.8,400.7z"/>
					<path class="st0" d="M-282.4,400.5c0.4,0.6,1.1,0.9,1.8,0.9c0,0,0,0,0.1,0c0.3,0,0.5-0.1,0.8-0.2c0.2-0.1,0.3-0.2,0.5-0.3
						c0.5-0.4,0.9-1,0.9-1.7c0-1.2-1-2.1-2.2-2.1s-2.2,0.9-2.2,2.1c0,0.2,0,0.5,0.1,0.7c0,0.1,0.1,0.2,0.1,0.3
						C-282.5,400.3-282.4,400.4-282.4,400.5z"/>
					<path class="st0" d="M-258.9,401.9c0.3,0,0.6-0.1,0.8-0.2c0.2-0.1,0.3-0.2,0.5-0.3c0.1-0.1,0.2-0.2,0.3-0.3
						c0.4-0.4,0.6-0.9,0.6-1.4c0-1.2-1-2.1-2.2-2.1c-1.2,0-2.2,0.9-2.2,2.1c0,0.5,0.2,1,0.5,1.3c0.1,0.1,0.2,0.2,0.3,0.3
						c0.1,0.1,0.3,0.2,0.5,0.3C-259.6,401.8-259.3,401.9-258.9,401.9z"/>
				</g>
			</g>
		</g>
	</g>
</g>
</svg>
