<?xml version="1.0" encoding="UTF-8"?>
<svg width="35px" height="10px" viewBox="0 0 35 10" version="1.1" xmlns="http://www.w3.org/2000/svg" xmlns:xlink="http://www.w3.org/1999/xlink">
    <!-- Generator: sketchtool 60 (101010) - https://sketch.com -->
    <title>4D2C4DBD-7B95-4E40-9F94-D4E30E087CC4</title>
    <desc>Created with sketchtool.</desc>
    <g id="Page-1" stroke="none" stroke-width="1" fill="none" fill-rule="evenodd">
        <g id="icon" transform="translate(-431.000000, -969.000000)" fill="#FFFFFF" fill-rule="nonzero">
            <g id="12-copy-10" transform="translate(393.000000, 946.000000)">
                <g id="Supercars/white" transform="translate(38.000000, 23.000000)">
                    <g id="Path">
                        <path d="M34.2281692,8.65739583 C34.5885077,7.49614583 34.4925538,6.51770833 33.9427846,5.74645833 C32.8965538,4.28145833 30.5711538,4.09395833 30.1272462,4.071875 L29.2574154,3.61854167 L29.2005538,3.5959375 C28.2346615,3.32916667 24.5972462,3.221875 24.0523231,3.20708333 C23.1930462,2.79708333 22.4792615,2.41333333 21.8473231,2.07385417 C19.6357538,0.885 18.1742615,0.0990625 13.9902,0.0990625 C8.92338462,0.0990625 4.78821538,2.22354167 4.2336,2.5209375 C3.93076923,2.54302083 3.66315385,2.56302083 3.41018462,2.58239583 L2.71503077,1.67270833 L3.50549231,1.75333333 C3.81887692,1.78520833 3.96501538,1.62385417 3.83190769,1.39302083 C3.69836923,1.1621875 3.3362,0.9490625 3.02216923,0.916979167 L0.442830769,0.6540625 C0.129446154,0.622291667 -0.0166923077,0.783541667 0.116953846,1.014375 C0.250492308,1.24520833 0.612661538,1.45833333 0.926692308,1.49041667 L1.32289231,1.530625 L2.20230769,2.68166667 C0.713676923,2.81864583 0.713676923,2.90447917 0.713676923,3.13697917 C0.713676923,5.04645833 0.461353846,5.4865625 0.408692308,5.57125 L0,5.25447917 L0,7.235625 L0.242092308,7.53666667 C0.232615385,7.82572917 0.330723077,8.09114583 0.530061538,8.31072917 C1.17416923,9.01947917 2.653,9.04 2.81916923,9.04 C3.31821538,9.04 4.34958462,8.79354167 5.05701538,8.60739583 C5.00790769,8.52604167 4.95718462,8.445625 4.91701538,8.35822917 C4.87824615,8.27395833 4.85207692,8.18447917 4.82170769,8.09604167 C4.73436923,7.8371875 4.67503077,7.56520833 4.67503077,7.27885417 C4.67503077,5.8128125 5.908,4.6209375 7.4228,4.6209375 C8.9376,4.6209375 10.1711077,5.81322917 10.1711077,7.279375 C10.1711077,7.91145833 9.93192308,8.48541667 9.5494,8.94229167 C9.46830769,9.03885417 9.38495385,9.13270833 9.29126154,9.21739583 C9.1812,9.3171875 9.06629231,9.41104167 8.94083077,9.4925 C12.0996615,9.50385417 21.0200308,9.54604167 27.1093846,9.67697917 C27.0202154,9.59125 26.9442923,9.4925 26.8684769,9.39541667 C26.7982615,9.30645833 26.7368769,9.213125 26.6788308,9.11541667 C26.4457846,8.72541667 26.3019077,8.27947917 26.3019077,7.7971875 C26.3019077,6.33166667 27.5354154,5.13958333 29.05,5.13958333 C30.5645846,5.13958333 31.7980923,6.3321875 31.7980923,7.7971875 C31.7980923,8.33114583 31.6308462,8.82583333 31.3509538,9.2428125 C31.2858,9.33885417 31.2081538,9.425625 31.1312615,9.51302083 C31.0470462,9.6090625 30.9572308,9.69854167 30.8591231,9.7821875 C31.4200923,9.79833333 31.9036308,9.80635417 32.3179231,9.80635417 C34.4247077,9.80635417 34.8363077,9.63052083 34.8875692,9.28364583 C34.9045846,9.17791667 34.9431385,8.916875 34.2281692,8.65739583 Z"></path>
                        <path d="M5.61830769,8.45572917 C6.01009231,9.01604167 6.67304615,9.38510417 7.4228,9.38510417 C7.44735385,9.38510417 7.47018462,9.37864583 7.4942,9.3775 C7.77161538,9.36885417 8.03729231,9.31395833 8.27938462,9.21354167 C8.44889231,9.14291667 8.60203077,9.046875 8.74590769,8.93895833 C9.26089231,8.55333333 9.59958462,7.95677083 9.59958462,7.27927083 C9.59958462,6.1184375 8.62324615,5.1734375 7.42290769,5.1734375 C6.22256923,5.1734375 5.24612308,6.1184375 5.24612308,7.27927083 C5.24612308,7.515 5.29576923,7.73875 5.36986154,7.95072917 C5.40087692,8.03927083 5.4362,8.125 5.47916923,8.208125 C5.52235385,8.29229167 5.56413846,8.37854167 5.61830769,8.45572917 Z"></path>
                        <path d="M29.0505385,9.90291667 C29.3365692,9.90291667 29.6076308,9.84572917 29.8585538,9.74864583 C30.0296769,9.68177083 30.1880923,9.59333333 30.3347692,9.48875 C30.4462308,9.40885417 30.5488615,9.32041667 30.6430923,9.2221875 C31.0027846,8.84677083 31.2280769,8.34833333 31.2280769,7.79708333 C31.2280769,6.63625 30.2512,5.691875 29.0510769,5.691875 C27.8509538,5.691875 26.8739692,6.63625 26.8739692,7.79708333 C26.8739692,8.30520833 27.0691077,8.76583333 27.3803385,9.13052083 C27.4684308,9.23354167 27.5654615,9.32739583 27.6719692,9.413125 C27.8131538,9.52645833 27.9658615,9.62395833 28.1342923,9.70010417 C28.4131077,9.82635417 28.7219692,9.90291667 29.0505385,9.90291667 Z"></path>
                    </g>
                </g>
            </g>
        </g>
    </g>
</svg>