<?xml version="1.0" encoding="utf-8"?>
<!-- Generator: Adobe Illustrator 19.0.0, SVG Export Plug-In . SVG Version: 6.00 Build 0)  -->
<svg version="1.1" id="Layer_1" xmlns="http://www.w3.org/2000/svg" xmlns:xlink="http://www.w3.org/1999/xlink" x="0px" y="0px"
	 viewBox="-294 385 23 24" style="enable-background:new -294 385 23 24;" xml:space="preserve">
<style type="text/css">
	.st0{fill:#279A95;}
</style>
<title>6398E246-DF97-46AE-B646-73769E38F151</title>
<desc>Created with sketchtool.</desc>
<g id="Page-1">
	<g id="icon" transform="translate(-448.000000, -1026.000000)">
		<g id="_x31_2-copy-11" transform="translate(393.000000, 1010.000000)">
			<g id="Netball_x2F_white" transform="translate(55.000000, 16.000000)">
				<g>
					<path id="Combined-Shape" class="st0" d="M-274.8,395.8L-274.8,395.8L-274.8,395.8L-274.8,395.8L-274.8,395.8L-274.8,395.8
						c0.1,0,0.1,0,0.1,0c0,0,0,0,0.1,0c0,0,0,0,0.1,0c0,0,0,0,0,0l0,0l0,0l0,0c0,0,0,0,0,0c0,0,0,0,0,0s0,0,0,0l0,0l0,0l0,0
						c0,0,0,0,0,0c0,0,0,0,0,0.1c0,0,0,0,0,0.1c0,0,0,0,0,0.1c0,0,0,0,0,0.1c0,0,0,0,0,0c0,0,0,0,0,0l0,0l0,0l-1,11.9
						c0,0.3-0.3,0.5-0.6,0.5c0,0,0,0-0.1,0c-0.2,0-0.3-0.1-0.4-0.3c0,0,0,0.1-0.1,0.1c-0.1,0.1-0.3,0.2-0.4,0.2s-0.3-0.1-0.4-0.2
						l0,0l-1.2-1.1l-1.2,1.1c-0.1,0.1-0.3,0.2-0.4,0.2s-0.3-0.1-0.4-0.2c-0.2-0.2-0.2-0.6,0-0.8l0,0l1.2-1.1l-1.4-1.4l-1.4,1.4
						l1.2,1.1c0.2,0.2,0.2,0.6,0,0.8c-0.1,0.1-0.3,0.2-0.4,0.2s-0.3-0.1-0.4-0.2l0,0l-1.2-1.1l-1.2,1.1c-0.1,0.1-0.3,0.2-0.4,0.2
						c0,0-0.1,0-0.1,0c0,0-0.1,0-0.1,0c0,0,0,0-0.1,0c-0.3,0-0.6-0.2-0.6-0.5l0,0l-1-11.3h-6.7v10.5c0,0.3-0.3,0.6-0.6,0.6
						s-0.6-0.3-0.6-0.6l0,0v-11c0,0,0,0,0,0c0,0,0,0,0,0c0-0.3,0.3-0.6,0.6-0.6H-274.8L-274.8,395.8z M-276.1,405.4l-1.4,1.4
						l1.2,1.1c0,0,0,0,0,0l0,0L-276.1,405.4z M-284.2,406.1l0.1,1.1l0.5-0.5L-284.2,406.1z M-282.8,403.2l-1.4,1.4l1.4,1.4l1.4-1.4
						L-282.8,403.2z M-278.3,403.2l-1.4,1.4l1.4,1.4l1.4-1.4L-278.3,403.2z M-280.5,401l-1.4,1.4l1.4,1.4l1.4-1.4L-280.5,401z
						 M-276.1,401l-1.4,1.4l1.4,1.4l0.2-0.2l0.2-2.2L-276.1,401z M-284.6,401.3l0.2,1.9l0.9-0.9L-284.6,401.3z M-282.8,398.8
						l-1.4,1.4l1.4,1.4l1.4-1.4L-282.8,398.8z M-278.3,398.8l-1.4,1.4l1.4,1.4l1.4-1.4L-278.3,398.8z M-280.2,397h-0.8l-1,1l1.4,1.4
						l1.4-1.4L-280.2,397z M-275.4,397h-1.1l-1,1l1.4,1.4l0.6-0.6L-275.4,397L-275.4,397z M-284.6,397h-0.4l0.2,2.2l1.2-1.2
						L-284.6,397z"/>
					<g id="ball" transform="translate(12.488220, 0.000000)">
						<g id="Path">
							<path class="st0" d="M-289.1,385c0.1,0,0.1,0,0.2,0c-0.3,2.2-2.1,3.9-4.3,3.9c-0.3,0-0.5,0-0.8-0.1
								C-293.4,386.7-291.5,385-289.1,385z"/>
							<path class="st0" d="M-294,390.2c0.3,0,0.6,0.1,0.8,0.1c2.8,0,5.2-2.2,5.6-5c1.6,0.5,2.8,1.8,3.2,3.4c0,0-0.1,0-0.1,0
								c-3.5,0-6.4,2.3-7.1,5.4C-292.9,393.3-293.9,391.9-294,390.2z"/>
							<path class="st0" d="M-289.1,394.8c-0.4,0-0.8-0.1-1.2-0.2c0.4-2.6,2.9-4.6,5.8-4.6c0.1,0,0.2,0,0.3,0
								C-284.2,392.6-286.4,394.8-289.1,394.8z"/>
						</g>
					</g>
				</g>
			</g>
		</g>
	</g>
</g>
</svg>
