<?xml version="1.0" encoding="UTF-8"?>
<svg width="23px" height="24px" viewBox="0 0 23 24" version="1.1" xmlns="http://www.w3.org/2000/svg" xmlns:xlink="http://www.w3.org/1999/xlink">
    <!-- Generator: sketchtool 60 (101010) - https://sketch.com -->
    <title>6398E246-DF97-46AE-B646-73769E38F151</title>
    <desc>Created with sketchtool.</desc>
    <g id="Page-1" stroke="none" stroke-width="1" fill="none" fill-rule="evenodd">
        <g id="icon" transform="translate(-448.000000, -1026.000000)" fill="#FFFFFF" fill-rule="nonzero">
            <g id="12-copy-11" transform="translate(393.000000, 1010.000000)">
                <g id="Netball/white" transform="translate(55.000000, 16.000000)">
                    <g>
                        <path d="M19.2318983,10.8356129 L19.2572373,10.8383226 L19.2572373,10.8383226 L19.2821864,10.8379355 L19.2821864,10.8379355 L19.3141525,10.844129 C19.3344237,10.8468387 19.3546949,10.8503226 19.3749661,10.8553548 C19.3928983,10.8596129 19.4104407,10.8654194 19.4279831,10.8716129 C19.4463051,10.8778065 19.4642373,10.8851613 19.4817797,10.8932903 C19.4989322,10.9014194 19.5153051,10.9103226 19.531678,10.92 L19.5551653,10.9345161 L19.5551653,10.9345161 L19.5780678,10.9501935 C19.5932712,10.9618065 19.6076949,10.9738065 19.6217288,10.9861935 C19.6357627,10.9989677 19.6486271,11.0113548 19.6611017,11.0249032 C19.6735763,11.0384516 19.685661,11.0527742 19.6969661,11.067871 L19.7134852,11.0904677 L19.7134852,11.0904677 L19.7285424,11.1139355 C19.7382881,11.1298065 19.7472542,11.1460645 19.7554407,11.1627097 C19.7636271,11.1797419 19.7710339,11.1967742 19.7780508,11.2141935 C19.7850678,11.232 19.7901356,11.2501935 19.7952034,11.2687742 C19.7994915,11.2869677 19.8037797,11.3051613 19.8068983,11.3237419 C19.8104068,11.3430968 19.8119661,11.3628387 19.8131356,11.3825806 C19.8139153,11.3938065 19.8166441,11.4046452 19.8178136,11.4170323 C19.8178136,11.4259355 19.8154746,11.4340645 19.8150847,11.4425806 L19.8150847,11.4425806 L19.8154746,11.4669677 L18.7761864,23.3376774 C18.7500678,23.64 18.4947288,23.868 18.1945593,23.868 C18.1774068,23.868 18.1602542,23.8672258 18.1431017,23.8656774 C17.9563729,23.8498065 17.7992712,23.7460645 17.7045424,23.6009032 C17.6827119,23.6338065 17.6682881,23.6698065 17.6394407,23.6984516 C17.5252203,23.811871 17.3755254,23.8683876 17.2258305,23.8683876 C17.0761356,23.8683876 16.9264407,23.811871 16.8122203,23.6984516 L16.8122203,23.6984516 L15.6575424,22.551871 L14.5036441,23.6980645 C14.3894237,23.8114839 14.2397288,23.868 14.0900339,23.868 C13.940339,23.868 13.7906441,23.8114839 13.6764237,23.6980645 C13.4479831,23.4712258 13.4479831,23.103871 13.6764237,22.8770323 L13.6764237,22.8770323 L14.830322,21.7308387 L13.4522712,20.3624516 L12.0734407,21.7312258 L13.2265593,22.8762581 C13.455,23.1030968 13.455,23.4704516 13.2265593,23.6972903 C13.112339,23.8107097 12.9626441,23.8672258 12.8129492,23.8672258 C12.6632542,23.8672258 12.5135593,23.8107097 12.399339,23.6972903 L12.399339,23.6972903 L11.2462203,22.5522581 L10.0927119,23.6980645 C9.97849153,23.8114839 9.82879661,23.868 9.67910169,23.868 C9.64245763,23.868 9.60737288,23.8540645 9.57111864,23.8470968 C9.53876271,23.8556129 9.50601695,23.8625806 9.47171186,23.8656774 C9.45455932,23.8672258 9.43740678,23.868 9.42025424,23.868 C9.12047458,23.868 8.86513559,23.64 8.83862712,23.3376774 L8.83862712,23.3376774 L7.84572881,11.9969032 L1.16949153,11.9969032 L1.16949153,22.4516129 C1.16949153,22.772129 0.907915254,23.0322581 0.584745763,23.0322581 C0.261576271,23.0322581 -4.68958206e-13,22.772129 -4.68958206e-13,22.4516129 L-4.68958206e-13,22.4516129 L-4.68958206e-13,11.4425806 C-4.68958206e-13,11.4381426 5.00298658e-05,11.4337163 0.000149560618,11.4293022 C4.97214396e-05,11.4251164 -2.3447856e-13,11.420693 -2.34479103e-13,11.4162581 C-2.34518375e-13,11.0955766 0.259963694,10.8356129 0.580645161,10.8356129 L19.2318983,10.8356129 L19.2318983,10.8356129 Z M17.8616441,20.3624516 L16.4835932,21.7308387 L17.6382712,22.8774194 C17.6394407,22.8785806 17.6398305,22.8805161 17.6413898,22.8820645 L17.6413898,22.8820645 L17.8616441,20.3624516 Z M9.81944068,21.135871 L9.91572881,22.2317419 L10.4193898,21.7312258 L9.81944068,21.135871 Z M11.247,18.1730323 L9.86816949,19.5418065 L11.2462203,20.9101935 L12.6250508,19.5414194 L11.247,18.1730323 Z M15.6567627,18.1722581 L14.2787119,19.5410323 L15.6567627,20.9094194 L17.0352034,19.5410323 L15.6567627,18.1722581 Z M13.4518814,15.9828387 L12.0738305,17.3516129 L13.4518814,18.72 L14.8299322,17.3512258 L13.4518814,15.9828387 Z M17.8620339,15.9828387 L16.4835932,17.3512258 L17.8620339,18.72 L18.0191356,18.5636129 L18.2144407,16.3327742 L17.8620339,15.9828387 Z M9.39959322,16.3381935 L9.5629322,18.2028387 L10.4201695,17.3516129 L9.39959322,16.3381935 Z M11.2466102,13.7930323 L9.86816949,15.1618065 L11.247,16.5305806 L12.6250508,15.1618065 L11.2466102,13.7930323 Z M15.6571525,13.7934194 L14.2787119,15.1618065 L15.6567627,16.5301935 L17.0352034,15.1618065 L15.6571525,13.7934194 Z M13.8479492,11.9969032 L13.0554237,11.9969032 L12.0734407,12.972 L13.4518814,14.3407742 L14.830322,12.9723871 L13.8479492,11.9969032 Z M18.5941356,11.9965161 L17.4663559,11.9965161 L16.4843729,12.972 L17.8624237,14.3403871 L18.4393729,13.7674839 L18.5941356,11.9969032 L18.5941356,11.9965161 Z M9.43779661,11.9972903 L9.01950847,11.9972903 L9.21013559,14.1735484 L10.4197797,12.972 L9.43779661,11.9972903 Z" id="Combined-Shape"></path>
                        <g id="ball" transform="translate(12.488220, 0.000000)">
                            <g id="Path">
                                <path d="M4.90562712,0 C4.97833898,0 5.04928814,0.00787657784 5.12111864,0.0109396914 C4.84216949,2.22382048 3.03450847,3.93828892 0.847864407,3.93828892 C0.59359322,3.93828892 0.341966102,3.91247125 0.0943050847,3.86696213 C0.568033898,1.66064516 2.54447458,0 4.90562712,0 Z"></path>
                                <path d="M1.57029945e-12,5.18497616 C0.279389831,5.22873492 0.562305085,5.25105189 0.847864407,5.25105189 C3.68538983,5.25105189 6.03376271,3.06748948 6.422,0.239798036 C8.01813559,0.75483871 9.25423729,2.05928752 9.67023729,3.68667602 C9.62661017,3.68580084 9.58342373,3.68230014 9.54023729,3.68230014 C6.04786441,3.68230014 3.11735593,6.00764095 2.46427119,9.12282749 C1.06776271,8.32641795 0.103559322,6.87056381 1.57029945e-12,5.18497616 Z"></path>
                                <path d="M4.90562712,9.77264516 C4.49227119,9.77264516 4.09257627,9.71619635 3.70874576,9.62036466 C4.13311864,6.98915007 6.59430508,4.9955007 9.54023729,4.9955007 C9.63366102,4.9955007 9.72708475,5.00075175 9.82050847,5.00469004 C9.75661017,7.64378121 7.57877966,9.77264516 4.90562712,9.77264516 Z"></path>
                            </g>
                        </g>
                    </g>
                </g>
            </g>
        </g>
    </g>
</svg>