<?xml version="1.0" encoding="utf-8"?>
<!-- Generator: Adobe Illustrator 19.0.0, SVG Export Plug-In . SVG Version: 6.00 Build 0)  -->
<svg version="1.1" id="Layer_1" xmlns="http://www.w3.org/2000/svg" xmlns:xlink="http://www.w3.org/1999/xlink" x="0px" y="0px"
	 viewBox="-295 385 20 24" style="enable-background:new -295 385 20 24;" xml:space="preserve">
<style type="text/css">
	.st0{fill:#81A6FF;}
</style>
<title>C90C4A32-F992-433A-B391-A6316904E705</title>
<desc>Created with sketchtool.</desc>
<g id="Page-1">
	<g id="icon" transform="translate(-449.000000, -1090.000000)">
		<g id="_x31_2-copy-12" transform="translate(393.000000, 1074.000000)">
			<g id="surfing_x2F_white" transform="translate(56.000000, 16.000000)">
				<g id="Shape">
					<path class="st0" d="M-289.1,393.1l4,2.8c0-0.6-0.1-1.1-0.2-1.6l-4.3-3l-4.3,3c-0.1,0.5-0.1,1.1-0.2,1.6l4-2.8
						C-289.8,392.9-289.4,392.9-289.1,393.1L-289.1,393.1z"/>
					<path class="st0" d="M-294,401.4c0,0.5,0.1,0.9,0.2,1.4l3.8-2.6c0.3-0.2,0.7-0.2,1,0l3.8,2.6c0.1-0.4,0.1-0.9,0.2-1.4l-4.4-3.1
						L-294,401.4z"/>
					<path class="st0" d="M-290.1,397.6c0.3-0.2,0.7-0.2,1,0l4,2.8c0.1-0.9,0.1-1.9,0.1-3.1c0-0.1,0-0.3,0-0.4l-4.6-3.2l-4.6,3.2
						c0,0.1,0,0.3,0,0.4c0,1.1,0,2.2,0.1,3.1L-290.1,397.6z"/>
					<path class="st0" d="M-289.1,390.6l3.6,2.5c-0.6-3-2-5.7-4-8c0,0-0.1-0.1-0.2-0.1s-0.1,0-0.2,0.1c-2,2.3-3.3,5.1-4,8l3.6-2.6
						C-289.8,390.4-289.4,390.4-289.1,390.6z"/>
					<path class="st0" d="M-294.6,409h19.1c0.2,0,0.4-0.2,0.4-0.4s-0.2-0.4-0.4-0.4c-6,0-7.4,0-7.3,0c0.2,0,0.4-0.1,0.6-0.2
						c1.3-1,3-2.8,5.1-8.3c1.4-3.5,1.5-7.4,0.5-11.1c0-0.1-0.1-0.1-0.2-0.1c-0.1,0-0.2,0.1-0.2,0.1l-7.5,19.5h-0.9l7.6-19.9
						c0-0.1,0-0.2-0.1-0.2c-0.1-0.1-0.2-0.1-0.2,0c-2.7,1.8-4.9,4.2-6.3,7.1c0.1,0.5,0.1,1,0.1,1.5c0,0.1,0,0.1,0,0.2
						c0,0.2,0,0.4,0,0.5c0,6.4-1,8.9-2,10.6c0,0.1-0.1,0.1-0.1,0.2h-1.7c0.4,0,0.8-0.2,1.1-0.6c0.7-1.2,1.2-2.5,1.4-3.9l-4.1-2.9
						l-4.1,2.9c0.2,1.4,0.7,2.7,1.4,3.9c0.2,0.4,0.6,0.6,1.1,0.6h-3.4c-0.2,0-0.4,0.2-0.4,0.4S-294.8,409-294.6,409z"/>
				</g>
			</g>
		</g>
	</g>
</g>
</svg>
