<?xml version="1.0" encoding="UTF-8"?>
<svg width="20px" height="24px" viewBox="0 0 20 24" version="1.1" xmlns="http://www.w3.org/2000/svg" xmlns:xlink="http://www.w3.org/1999/xlink">
    <!-- Generator: sketchtool 60 (101010) - https://sketch.com -->
    <title>C90C4A32-F992-433A-B391-A6316904E705</title>
    <desc>Created with sketchtool.</desc>
    <g id="Page-1" stroke="none" stroke-width="1" fill="none" fill-rule="evenodd">
        <g id="icon" transform="translate(-449.000000, -1090.000000)" fill="#FFFFFF" fill-rule="nonzero">
            <g id="12-copy-12" transform="translate(393.000000, 1074.000000)">
                <g id="surfing/white" transform="translate(56.000000, 16.000000)">
                    <g id="Shape">
                        <path d="M5.90441626,8.07708502 L9.94213984,10.9169231 C9.90051382,10.3593198 9.8339122,9.82617652 9.7523252,9.30795789 L5.42113821,6.26456356 L1.09203252,9.3062996 C1.00878049,9.82451822 0.943427642,10.3580761 0.902217886,10.9152648 L4.93994146,8.074183 C5.22931275,7.87069285 5.61628481,7.87185722 5.90441626,8.07708502 L5.90441626,8.07708502 Z"></path>
                        <path d="M1.01252683,16.4100405 C1.05873171,16.8984097 1.11492683,17.3473943 1.17694959,17.7673587 L4.9395252,15.1232 C5.22836688,14.9186457 5.61557458,14.9186457 5.90441626,15.1232 L9.66699187,17.766115 C9.72901463,17.3461506 9.78520976,16.8955077 9.83141463,16.4087968 L5.42113821,13.3119223 L1.01252683,16.4100405 Z"></path>
                        <path d="M4.9395252,12.6345069 C5.22836688,12.4299526 5.61557458,12.4299526 5.90441626,12.6345069 L9.90675772,15.446983 C9.96669919,14.5444534 10,13.5308178 10,12.388664 C10,12.2427336 9.98917724,12.1046802 9.98626341,11.9608227 L5.42113821,8.75159838 L0.856013008,11.9612372 C0.853099187,12.1046802 0.842276423,12.2427336 0.842276423,12.388664 C0.842276423,13.5308178 0.875577236,14.5444534 0.935518699,15.4482267 L4.9395252,12.6345069 Z"></path>
                        <path d="M5.90441626,5.58963563 L9.53212358,8.13802753 C8.90122681,5.17863892 7.54064401,2.42218595 5.57307317,0.117246964 C5.53442129,0.0732549949 5.47858378,0.0480213257 5.41988943,0.0480213257 C5.36119508,0.0480213257 5.30535757,0.0732549949 5.26670569,0.117246964 C3.30131623,2.42217164 1.94173752,5.17733177 1.31015285,8.13512551 L4.93994146,5.5850753 C5.22966645,5.38207995 5.61663958,5.38390967 5.90441626,5.58963563 Z"></path>
                        <path d="M0.42601626,23.9967611 L19.5739837,23.9967611 C19.8038779,23.9967611 19.9902439,23.8111496 19.9902439,23.5821862 C19.9902439,23.3532229 19.8038779,23.1676113 19.5739837,23.1676113 C13.5864976,23.1676113 12.1254244,23.1771466 12.2478049,23.1638802 C12.4556531,23.1662508 12.6600035,23.1105225 12.8376455,23.0030251 C14.1875772,21.9653441 15.8526179,20.2104486 17.9272585,14.6974316 C19.2879182,11.1599286 19.4657354,7.27949088 18.4342634,3.63325668 C18.4087853,3.54798693 18.3315159,3.488418 18.2422465,3.48522595 C18.1529771,3.4820339 18.0716174,3.53593065 18.040065,3.61916113 L10.5623675,23.1676113 L9.67157073,23.1676113 L17.2674862,3.30947368 C17.298483,3.22651664 17.2731695,3.13310989 17.2044722,3.07695187 C17.1357749,3.02079386 17.038853,3.01427683 16.9632,3.06072874 C14.2608775,4.81224816 12.0954525,7.27156989 10.7047285,10.1686154 C10.7568997,10.6495223 10.7914493,11.1448011 10.8083772,11.6544518 C10.8243529,11.7146983 10.8264871,11.7777565 10.8146211,11.8389377 C10.8192,12.0230089 10.8325203,12.2008615 10.8325203,12.388664 C10.8325203,18.759851 9.85597398,21.2560065 8.80117073,23.0017814 C8.76599808,23.0590438 8.72778673,23.1143989 8.68669919,23.1676113 L7.02373984,23.1676113 C7.45755111,23.168888 7.86070915,22.9450326 8.08770081,22.5768421 C8.7988015,21.3735418 9.28138203,20.0501318 9.51131057,18.6727903 L5.42113821,15.7993717 L1.33096585,18.6727903 C1.56089439,20.0501318 2.04347492,21.3735418 2.75457561,22.5768421 C2.98156727,22.9450326 3.38472531,23.168888 3.81853659,23.1676113 L0.42601626,23.1676113 C0.19612212,23.1676113 0.00975609756,23.3532229 0.00975609756,23.5821862 C0.00975609756,23.8111496 0.19612212,23.9967611 0.42601626,23.9967611 Z"></path>
                    </g>
                </g>
            </g>
        </g>
    </g>
</svg>