<?xml version="1.0" encoding="UTF-8"?>
<svg width="24px" height="15px" viewBox="0 0 24 15" version="1.1" xmlns="http://www.w3.org/2000/svg" xmlns:xlink="http://www.w3.org/1999/xlink">
    <!-- Generator: sketchtool 60 (101010) - https://sketch.com -->
    <title>873723E5-3C3A-46D7-88CD-0CD54F3628AE</title>
    <desc>Created with sketchtool.</desc>
    <g id="Page-1" stroke="none" stroke-width="1" fill="none" fill-rule="evenodd">
        <g id="icon" transform="translate(-138.000000, -327.000000)" fill="#FFFFFF" fill-rule="nonzero">
            <g id="5" transform="translate(83.000000, 306.000000)">
                <g id="bike" transform="translate(55.000000, 21.000000)">
                    <g id="Shape">
                        <path d="M19.1030156,5.18095312 C18.4837031,5.18095312 17.8910625,5.29678125 17.3451563,5.50748437 C16.9174688,4.55704687 16.5479531,3.55190625 16.3634063,2.61679687 C16.0670156,1.11501562 14.7399375,0.02503125 13.207875,0.02503125 C12.8195625,0.02503125 12.50475,0.33984375 12.50475,0.72815625 C12.50475,1.11646875 12.8195625,1.43128125 13.207875,1.43128125 C13.3751719,1.43128125 13.5380625,1.454625 13.6932656,1.49798437 C14.1649688,1.62979688 14.5652344,1.94882812 14.7986719,2.37726563 C14.7797813,2.40126563 14.7617813,2.42615625 14.7457969,2.45310937 L14.5273594,2.82084375 L13.4222344,4.6813125 L7.51767188,4.6813125 L7.18204688,3.83657812 L7.32135938,3.83657812 C7.70967188,3.83657812 8.02448438,3.52176562 8.02448438,3.13345312 C8.02448438,2.74514062 7.70967188,2.43032812 7.32135938,2.43032812 L4.89703125,2.43032812 C4.50871875,2.43032812 4.19390625,2.74514062 4.19390625,3.13345312 C4.19390625,3.52176562 4.50871875,3.83657812 4.89703125,3.83657812 L5.668875,3.83657812 L6.28246875,5.38082812 C5.84296875,5.25098437 5.3780625,5.18090625 4.89703125,5.18090625 C2.19679687,5.18095312 0,7.37775 0,10.0779375 C0,12.778125 2.19679687,14.9749688 4.89698437,14.9749688 C7.3584375,14.9749688 9.40125,13.1493281 9.74329688,10.7810625 L11.0345625,10.7810625 C11.282625,10.7810625 11.5123594,10.6503281 11.6390625,10.4370469 L15.3340781,4.21645313 C15.5508281,4.88723437 15.8221406,5.55932812 16.1145938,6.20142187 C14.9545781,7.09776562 14.2060313,8.502 14.2060313,10.0779844 C14.2060313,12.7781719 16.4028281,14.9749688 19.1030156,14.9749688 C21.8032031,14.9749688 24,12.7781719 24,10.0779844 C24,7.37779688 21.8032031,5.18095312 19.1030156,5.18095312 Z M4.89698438,10.7810625 L8.3165625,10.7810625 C7.9903125,12.3699844 6.58101562,13.5686719 4.89698438,13.5686719 C2.97220313,13.5686719 1.40625,12.0027187 1.40625,10.0779375 C1.40625,8.15315625 2.97220313,6.58720313 4.89698438,6.58720313 C6.58101562,6.58720313 7.9903125,7.78589063 8.3165625,9.3748125 L4.89698438,9.3748125 C4.50867187,9.3748125 4.19385937,9.689625 4.19385937,10.0779375 C4.19385937,10.46625 4.50867188,10.7810625 4.89698438,10.7810625 Z M10.6343906,9.3748125 L9.74329688,9.3748125 C9.580125,8.24517188 9.03004688,7.23914062 8.232,6.49570312 C8.2246875,6.46748437 8.21620312,6.43935937 8.20514063,6.4115625 L8.07642187,6.08760937 L12.5869687,6.08760937 L10.6343906,9.3748125 Z M19.1030156,13.568625 C17.1781875,13.568625 15.6122813,12.0026719 15.6122813,10.0778906 C15.6122813,9.05821875 16.051875,8.139375 16.7513906,7.5005625 C17.6161406,9.1531875 18.4607813,10.3851563 18.5243437,10.4773125 C18.6607969,10.6749844 18.8803125,10.7810625 19.103625,10.7810625 C19.2413437,10.7810625 19.3805156,10.7406563 19.5024375,10.6565156 C19.8220312,10.4359219 19.9022812,9.99801563 19.6816875,9.67842188 C19.6665469,9.65648438 18.8156719,8.41565625 17.963625,6.7790625 C18.321,6.65526563 18.7041094,6.58710938 19.1030156,6.58710938 C21.0277969,6.58710938 22.59375,8.1530625 22.59375,10.0778438 C22.59375,12.002625 21.0277969,13.568625 19.1030156,13.568625 Z"></path>
                    </g>
                </g>
            </g>
        </g>
    </g>
</svg>