<?xml version="1.0" encoding="UTF-8"?>
<svg width="24px" height="24px" viewBox="0 0 24 24" version="1.1" xmlns="http://www.w3.org/2000/svg" xmlns:xlink="http://www.w3.org/1999/xlink">
    <!-- Generator: sketchtool 60 (101010) - https://sketch.com -->
    <title>40AA871E-6325-4537-91B0-0E9FA37F739B</title>
    <desc>Created with sketchtool.</desc>
    <g id="Page-1" stroke="none" stroke-width="1" fill="none" fill-rule="evenodd">
        <g id="icon" transform="translate(-116.000000, -194.000000)" fill="#FFFFFF" fill-rule="nonzero">
            <g id="3" transform="translate(83.000000, 178.000000)">
                <g id="boxing" transform="translate(33.000000, 16.000000)">
                    <g id="Path">
                        <path d="M4.70588235,21.140625 L4.70588235,23.296875 C4.70588235,23.6851875 5.02192941,24 5.41176471,24 L14.8235294,24 C15.2133647,24 15.5294118,23.6851875 15.5294118,23.296875 L15.5294118,21.140625 L4.70588235,21.140625 Z"></path>
                        <path d="M18.5882353,0 L12.9411765,0 C11.5122353,0 10.2128471,0.551953125 9.24555294,1.453125 L12.9411765,1.453125 C16.7036706,1.453125 19.7647059,4.50220312 19.7647059,8.25 L19.7647059,8.953125 C19.7647059,9.17564062 19.7495059,9.39464062 19.7206588,9.609375 L20.4705882,9.609375 C22.4198118,9.609375 24,8.03535937 24,6.09375 L24,5.390625 C24,2.41345313 21.5770824,0 18.5882353,0 Z"></path>
                        <path d="M8.94089412,8.484375 C10.7572706,8.484375 12.2350118,9.95629687 12.2350118,11.765625 C12.2350118,12.0069844 12.2079529,12.2420625 12.1580706,12.46875 L14.8235294,12.46875 C16.7727529,12.46875 18.3529412,10.8947344 18.3529412,8.953125 L18.3529412,8.25 C18.3529412,5.27282813 15.9300235,2.859375 12.9411765,2.859375 L7.29411765,2.859375 C4.30527059,2.859375 1.88235294,5.27282813 1.88235294,8.25 L1.88235294,8.9491875 C2.56150588,8.65059375 3.31195294,8.484375 4.10075294,8.484375 L4.15472941,8.484375 L8.94089412,8.484375 Z"></path>
                        <path d="M10.1176471,17.390625 C9.3392,17.390625 8.70588235,18.0214688 8.70588235,18.796875 L8.70588235,19.734375 L11.5294118,19.734375 L11.5294118,18.796875 C11.5294118,18.0214687 10.8960941,17.390625 10.1176471,17.390625 Z"></path>
                        <path d="M20.4705882,11.015625 L19.7647059,11.015625 L19.7647059,12.834375 C19.7647059,14.2117031 19.5582118,15.5722969 19.1571765,16.875 L20.4705882,16.875 L21.8909647,16.875 C23.2586353,14.8434844 24,12.4414219 24,9.975 L24,9.5345625 C23.1024471,10.4478281 21.8519529,11.015625 20.4705882,11.015625 Z"></path>
                        <path d="M20.4705882,18.28125 L18.6400471,18.28125 C18.3044235,19.0573594 17.8956706,19.8057188 17.4164235,20.5176094 L16.9969882,21.140625 L20.4705882,21.140625 C20.8604235,21.140625 21.1764706,20.8258125 21.1764706,20.4375 L21.1764706,18.28125 L20.4705882,18.28125 Z"></path>
                        <path d="M14.8235294,13.875 L11.4608941,13.875 C10.8786353,14.5640156 10.0177882,15.0118125 9.05251765,15.0440625 C8.93924706,15.0550312 8.82362353,15.0587344 8.70592941,15.0548906 L5.17661176,15.0481875 C4.78691765,15.0474375 4.47138824,14.7325781 4.47138824,14.3444063 C4.47138824,13.9557188 4.78771765,13.640625 5.17792941,13.640625 L8.94084706,13.640625 C9.98042353,13.640625 10.8232,12.8011406 10.8232,11.765625 C10.8232,10.7301094 9.98042353,9.890625 8.94084706,9.890625 L4.15472941,9.890625 L4.15468235,9.890625 C1.99614118,9.890625 0.166070588,11.5330313 0.0107764706,13.6775625 C-0.0706823529,14.8022344 0.312094118,15.8967187 1.06691765,16.7235 L3.60569412,19.5042656 C3.73948235,19.6507969 3.92908235,19.7343281 4.12790588,19.7343281 L7.29411765,19.7343281 L7.29411765,18.7968281 C7.29411765,17.2460156 8.56075294,15.9843281 10.1176471,15.9843281 C11.6745412,15.9843281 12.9411765,17.2460156 12.9411765,18.7968281 L12.9411765,19.7343281 L16.2439059,19.7343281 C17.6115765,17.7028594 18.3529412,15.3007969 18.3529412,12.834375 L18.3529412,12.3939375 C17.4553882,13.3072031 16.2048941,13.875 14.8235294,13.875 Z"></path>
                    </g>
                </g>
            </g>
        </g>
    </g>
</svg>