<?xml version="1.0" encoding="utf-8"?>
<!-- Generator: Adobe Illustrator 19.0.0, SVG Export Plug-In . SVG Version: 6.00 Build 0)  -->
<svg version="1.1" id="Layer_1" xmlns="http://www.w3.org/2000/svg" xmlns:xlink="http://www.w3.org/1999/xlink" x="0px" y="0px"
	 viewBox="-293 385 24 24" style="enable-background:new -293 385 24 24;" xml:space="preserve">
<style type="text/css">
	.st0{fill:#07695F;}
</style>
<title>152F96F3-8383-4954-8E17-AB45CB63D484</title>
<desc>Created with sketchtool.</desc>
<g id="Page-1">
	<g id="icon" transform="translate(-426.000000, -1154.000000)">
		<g id="_x31_2-copy-13" transform="translate(393.000000, 1138.000000)">
			<g id="Gaelic-sports_x2F_white" transform="translate(33.000000, 16.000000)">
				<g id="Path">
					<path class="st0" d="M-269,393.7c0-1-0.3-1.9-1-2.5c-0.6-0.5-1.4-0.8-2.3-0.8h0c-1.1,0-2.5,0.8-3.9,1.8c1-1.4,1.8-2.9,1.8-3.9
						c0-0.9-0.3-1.7-0.8-2.3c-0.6-0.6-1.4-1-2.5-1c-1.1,0-2.5,0.8-3.3,1.4c-0.8-0.7-2.2-1.4-3.3-1.4c-2,0-3.3,1.3-3.3,3.3
						c0,1.1,0.8,2.5,1.8,3.9c-1.4-1-2.9-1.8-3.9-1.8c0,0,0,0,0,0c-2,0-3.3,1.3-3.3,3.3c0,1.1,0.8,2.5,1.4,3.3
						c-0.7,0.8-1.4,2.2-1.4,3.3c0,2,1.3,3.3,3.3,3.3c1.1,0,2.5-0.8,3.9-1.8c-1,1.4-1.8,2.9-1.8,3.9c0,2,1.3,3.3,3.3,3.3
						c1.1,0,2.5-0.8,3.3-1.4c0.8,0.7,2.2,1.4,3.3,1.4c2,0,3.3-1.3,3.3-3.3c0-0.5-0.2-1.1-0.5-1.8c1.3,1.4,2.7,3,3.8,4.8
						c0.1,0.2,0.3,0.3,0.5,0.3c0.1,0,0.2,0,0.3-0.1c0.3-0.2,0.3-0.5,0.2-0.8c-1.2-2-2.9-3.8-4.3-5.3c0.8,0.4,1.6,0.7,2.2,0.7
						c0,0,0,0,0,0c2,0,3.3-1.3,3.3-3.3c0-1.1-0.8-2.5-1.4-3.3C-269.8,396.2-269,394.8-269,393.7z"/>
				</g>
			</g>
		</g>
	</g>
</g>
</svg>
