<?xml version="1.0" encoding="utf-8"?>
<!-- Generator: Adobe Illustrator 19.0.0, SVG Export Plug-In . SVG Version: 6.00 Build 0)  -->
<svg version="1.1" id="Layer_1" xmlns="http://www.w3.org/2000/svg" xmlns:xlink="http://www.w3.org/1999/xlink" x="0px" y="0px"
	 viewBox="-295 385 21 24" style="enable-background:new -295 385 21 24;" xml:space="preserve">
<style type="text/css">
	.st0{fill:#2F158B;}
</style>
<title>24F4D260-5092-422F-AF85-3901F8DBB601</title>
<desc>Created with sketchtool.</desc>
<g id="Page-1">
	<g id="icon" transform="translate(-444.000000, -578.000000)">
		<g id="_x32_1" transform="translate(393.000000, 562.000000)">
			<g id="Biathlon" transform="translate(51.000000, 16.000000)">
				<g>
					<path id="Shape" class="st0" d="M-292.7,408.8c0.3,0.3,0.8,0.3,1,0l3.8-3.7c0.6-0.5,0.9-1.2,0.9-2v-2.8l0.5,0.5
						c0.9,0.8,2.3,0.8,3.1,0l1-1c0.9-0.8,0.9-2.2,0-3l-0.5-0.5l3.1-3c0.6-0.5,0.6-1.4,0-2l5.4-5.2c0.3-0.3,0.3-0.7,0-1
						c-0.3-0.3-0.8-0.3-1,0l-5.9,5.7c0,0,0,0,0,0l-1.6,1.5l-1-1l-1,1l1,1l-3.1,3l-1-1l-1,1l1,1l-1.7,1.6c-0.2,0.2-0.3,0.5-0.1,0.8
						c0.3,0.5,0.2,1.2-0.3,1.6l-4.7,4.5c-0.3,0.3-0.3,0.7,0,1L-292.7,408.8z M-283.3,397.9c0.3,0.3,0.3,0.7,0,1l-1,1
						c-0.3,0.3-0.8,0.3-1,0l-0.5-0.5l2.1-2L-283.3,397.9z"/>
					<path id="Path" class="st0" d="M-282.3,389.9c0.3-0.3,0.3-0.7,0-1l-1-1c-0.3-0.3-0.8-0.3-1,0l-1.6,1.5l2.1,2L-282.3,389.9z"/>
					<polygon id="Path_1_" class="st0" points="-290.1,393.4 -287,390.4 -284.9,392.4 -288,395.4 					"/>
					<path id="Path_2_" class="st0" d="M-292.7,395.9c-0.3,0.3-0.3,0.7,0,1l1,1c0.3,0.3,0.8,0.3,1,0l1.6-1.5l-2.1-2L-292.7,395.9z"
						/>
					<path id="Path_3_" class="st0" d="M-286.4,388.9c-0.3-0.3-0.8-0.3-1,0c-0.3,0.3-0.3,0.7,0,1l0.5,0.5l1-1L-286.4,388.9z"/>
					<path id="Path_4_" class="st0" d="M-290.6,392.9c-0.3-0.3-0.8-0.3-1,0c-0.3,0.3-0.3,0.7,0,1l0.5,0.5l1-1L-290.6,392.9z"/>
				</g>
			</g>
		</g>
	</g>
</g>
</svg>
