<?xml version="1.0" encoding="UTF-8"?>
<svg width="21px" height="24px" viewBox="0 0 21 24" version="1.1" xmlns="http://www.w3.org/2000/svg" xmlns:xlink="http://www.w3.org/1999/xlink">
    <!-- Generator: sketchtool 60 (101010) - https://sketch.com -->
    <title>24F4D260-5092-422F-AF85-3901F8DBB601</title>
    <desc>Created with sketchtool.</desc>
    <g id="Page-1" stroke="none" stroke-width="1" fill="none" fill-rule="evenodd">
        <g id="icon" transform="translate(-444.000000, -578.000000)" fill="#FFFFFF" fill-rule="nonzero">
            <g id="21" transform="translate(393.000000, 562.000000)">
                <g id="Biathlon" transform="translate(51.000000, 16.000000)">
                    <g>
                        <path d="M2.30283044,23.7940064 C2.59080433,24.0686646 3.05801744,24.0686646 3.34599128,23.7940064 L7.17629356,20.1434326 C7.72976434,19.6157227 8.06576587,18.9001465 8.06576587,18.1541748 L8.06576587,15.342041 L8.5623719,15.8389893 C9.42667775,16.6627808 10.8279329,16.6627808 11.6922388,15.8389893 L12.7353996,14.8445435 C13.5997054,14.020935 13.5997054,12.6853638 12.7353996,11.8615723 L12.2138191,11.3644409 L15.343686,8.38128661 C15.9198258,7.83215334 15.9198258,6.94171144 15.343686,6.39257813 L20.7646645,1.20043945 C21.0530225,0.92578125 21.0530225,0.481018078 20.7646645,0.206176781 C20.4763063,-0.0686645625 20.0096696,-0.0686645625 19.7213115,0.206176781 L13.7787526,5.89544677 C13.7785604,5.89544677 13.7785604,5.89562991 13.7785604,5.89562991 L12.2138191,7.38702394 L11.1704662,6.39257813 L10.1271132,7.38702394 L11.1706583,8.38128661 L8.04079151,11.3644409 L6.99743852,10.3699951 L5.95408554,11.3644409 L6.99743852,12.3587036 L5.33606557,13.9421997 C5.11590679,14.1522217 5.06576587,14.4686279 5.19947489,14.7368775 C5.45997693,15.2592773 5.36392161,15.904541 4.9109247,16.3363037 L0.216124475,20.8110352 C-0.0720415082,21.0855103 -0.0720415082,21.5306396 0.216124475,21.8052979 L2.30283044,23.7940064 Z M11.6922388,12.8560181 C11.9802126,13.1306763 11.9802126,13.5758057 11.6922388,13.8502807 L10.6488858,14.8447266 C10.3607198,15.1193848 9.89369877,15.1193848 9.60572489,14.8447266 L9.08395234,14.3475952 L11.1704662,12.3588867 L11.6922388,12.8560181 Z" id="Shape"></path>
                        <path d="M12.7353996,4.901001 C13.0275999,4.62268069 13.0275999,4.18524169 12.7353996,3.90673828 L11.6922388,2.91229247 C11.4000384,2.63378906 10.9410861,2.63378906 10.6488858,2.91229247 L9.08395234,4.40386964 L11.1704662,6.39257812 L12.7353996,4.901001 Z" id="Path"></path>
                        <polygon id="Path" points="4.91073256 8.38146975 8.04059941 5.39831541 10.1271132 7.38702394 6.99724643 10.3699951"></polygon>
                        <path d="M2.30283044,10.8673096 C2.0106301,11.145813 2.0106301,11.583252 2.30283044,11.8617554 L3.34599128,12.8560181 C3.63819157,13.1345215 4.09714397,13.1345215 4.38934426,12.8560181 L5.95427764,11.3644409 L3.86776382,9.37573242 L2.30283044,10.8673096 Z" id="Path"></path>
                        <path d="M8.5623719,3.90673828 C8.27017161,3.62823487 7.81121926,3.62823487 7.51901897,3.90673828 C7.22701077,4.18524169 7.22701077,4.62268069 7.51901897,4.901001 L8.04079151,5.39831541 L9.08395234,4.40386964 L8.5623719,3.90673828 Z" id="Path"></path>
                        <path d="M4.38915216,7.88415525 C4.09714397,7.60583494 3.63819157,7.60583494 3.34599128,7.88415525 C3.05379098,8.1626587 3.05379098,8.60009766 3.34599128,8.87860106 L3.86757172,9.37573242 L4.9109247,8.38128661 L4.38915216,7.88415525 Z" id="Path"></path>
                    </g>
                </g>
            </g>
        </g>
    </g>
</svg>