<?xml version="1.0" encoding="UTF-8"?>
<svg width="21px" height="24px" viewBox="0 0 21 24" version="1.1" xmlns="http://www.w3.org/2000/svg" xmlns:xlink="http://www.w3.org/1999/xlink">
    <!-- Generator: sketchtool 60 (101010) - https://sketch.com -->
    <title>124B53F0-E517-4303-9554-0E3D171E8095</title>
    <desc>Created with sketchtool.</desc>
    <g id="Page-1" stroke="none" stroke-width="1" fill="none" fill-rule="evenodd">
        <g id="icon" transform="translate(-134.000000, -1282.000000)" fill="#FFFFFF" fill-rule="nonzero">
            <g id="12-copy-15" transform="translate(83.000000, 1266.000000)">
                <g id="Athletics/white" transform="translate(51.000000, 16.000000)">
                    <g id="Path">
                        <path d="M20.95,22.956213 C20.9285714,22.9775148 20.9071429,22.9988166 20.8785714,23.0201183 C20.7857143,23.0982249 20.6428571,23.1692308 20.4642857,23.2402367 C20.0928571,23.3893491 19.8714286,23.4532544 19.5,23.4532544 C19.3071429,23.4532544 19.0714286,23.4390533 18.7571429,23.4106509 C18.6428571,23.4035503 18.5142857,23.3964497 18.3785714,23.3964497 C17.55,23.3964497 16.6428571,23.5810651 16.6357143,23.5881657 L16.6214286,23.5952663 C16.6,23.6591716 16.5142857,24.0284024 17.0714286,23.9573964 C17.6785714,23.8863905 17.9,23.7585799 18.5714286,23.7443787 C18.5714286,23.7443787 19.4142857,23.8508876 19.8857143,23.7088757 C20.3571429,23.5668639 20.7785714,23.4177515 20.9785714,22.9988166 C20.9928571,22.956213 20.9785714,22.9491124 20.95,22.956213 Z"></path>
                        <path d="M1.07857143,21.3727811 C0.821428571,20.8260355 0.742857143,20.5775148 0.742857143,19.6544379 C0.742857143,18.7668639 0.464285714,17.687574 0.464285714,17.6804734 L0.464285714,17.6804734 C0.464285714,17.6804734 0.464285714,17.6804734 0.464285714,17.6733728 C0.464285714,17.6733728 -0.1,17.5455621 0.0214285714,18.1278107 C0.142857143,18.7171598 0.428571429,18.887574 0.471428571,19.5763314 C0.492857143,19.895858 0.435714286,20.4071006 0.614285714,20.8544379 C0.792857143,21.3017751 0.95,21.7207101 1.38571429,21.8840237 C1.41428571,21.8982249 1.43571429,21.8840237 1.42142857,21.8556213 C1.31428571,21.791716 1.2,21.6284024 1.07857143,21.3727811 Z"></path>
                        <path d="M20.8428571,22.5869822 C20.7928571,22.5656805 20.6857143,22.5372781 20.2785714,22.5372781 C20.1285714,22.5372781 19.9357143,22.5443787 19.6928571,22.5514793 C19.6928571,22.5514793 19.0071429,22.4662722 18.5857143,22.1112426 C18.4571429,21.9976331 18.4357143,21.9550296 18.3571429,21.8840237 C18.3357143,21.8627219 18.3142857,21.8556213 18.3,21.8556213 C18.2928571,21.8556213 18.2928571,21.8556213 18.2857143,21.8556213 C18.2714286,21.8627219 18.2571429,21.8698225 18.25,21.9337278 C18.2428571,22.0047337 18.2214286,22.0970414 18.2071429,22.139645 C18.2,22.1680473 18.1928571,22.1964497 18.1785714,22.2248521 C18.0928571,21.6568047 17.6285714,18.4331361 17.8214286,16.7573964 C17.8214286,16.7573964 17.8357143,15.7278107 17.4071429,15.3230769 C17.4071429,15.3230769 16.8,14.5136095 14.8428571,13.4130178 L13.7928571,15.3301775 C14.3928571,15.7207101 15.1357143,16.1538462 15.9928571,16.5585799 C15.8642857,16.6579882 15.8285714,18.1065089 16.2357143,18.887574 C16.6928571,19.7609467 16.8285714,21.3514793 16.9714286,22.2745562 C16.9785714,22.3029586 16.9785714,22.3242604 16.9857143,22.3455621 C16.9714286,22.3313609 16.9571429,22.3100592 16.9357143,22.2887574 C16.8785714,22.2248521 16.8285714,22.1893491 16.7857143,22.1893491 C16.7285714,22.1893491 16.6928571,22.260355 16.6857143,22.4023669 C16.6714286,22.6011834 16.6285714,23.1550296 16.6285714,23.5313609 C16.6285714,23.5313609 17.5428571,23.339645 18.3857143,23.339645 C18.5142857,23.339645 18.6428571,23.3467456 18.7642857,23.3538462 C19.0857143,23.3822485 19.3142857,23.3964497 19.5071429,23.3964497 C19.8642857,23.3964497 20.0642857,23.339645 20.4428571,23.1905325 C20.6214286,23.1195266 20.75,23.0485207 20.8357143,22.9775148 C21.0142857,22.8213018 21.0142857,22.6650888 20.8428571,22.5869822 Z"></path>
                        <path d="M7.75,16.6508876 C7.75,16.6508876 6.07857143,16.3810651 4.55,17.0698225 C3.32142857,17.6236686 2.28571429,17.808284 1.66428571,17.9147929 C1.67857143,17.9005917 1.69285714,17.8863905 1.70714286,17.8721893 C1.85714286,17.7159763 1.81428571,17.6378698 1.57857143,17.6378698 C1.57857143,17.6378698 1.57857143,17.6378698 1.57857143,17.6378698 C1.37857143,17.6378698 0.9,17.6378698 0.528571429,17.6662722 C0.528571429,17.6662722 0.814285714,18.7526627 0.807142857,19.6615385 C0.807142857,20.5704142 0.885714286,20.8118343 1.13571429,21.3514793 C1.3,21.6994083 1.44285714,21.8485207 1.55714286,21.8485207 C1.62142857,21.8485207 1.67857143,21.7988166 1.72142857,21.7207101 C1.72857143,21.7065089 1.77857143,21.4792899 1.66428571,20.591716 C1.66428571,20.591716 1.85,19.9526627 2.00714286,19.4769231 C2.06428571,19.3136095 2.15,19.3207101 2.21428571,19.235503 C2.23571429,19.2071006 2.23571429,19.1786982 2.23571429,19.164497 C2.22857143,19.1502959 2.21428571,19.1360947 2.15714286,19.1360947 C2.08571429,19.1360947 1.99285714,19.1218935 1.95,19.1147929 C1.94285714,19.1147929 1.94285714,19.1147929 1.93571429,19.1147929 C2.63571429,18.9514793 4.24285714,18.6035503 5.42857143,18.5751479 C6.98571429,18.539645 7.16428571,18.4615385 7.50714286,18.5609467 C7.85714286,18.660355 8.31428571,18.6887574 8.67142857,18.383432 C8.91428571,18.1775148 9.77142857,17.2402367 10.75,16.0260355 L8.97142857,14.6414201 C8.53571429,15.2023669 8.00714286,15.9621302 7.75,16.6508876 Z"></path>
                        <path d="M14.7642857,13.3633136 L14.8785714,13.1431953 C14.8785714,13.1431953 14.2357143,12.4047337 13.6714286,12.0639053 C13.6714286,12.0639053 13.5428571,11.7940828 13.5,11.6449704 C13.4357143,11.4461538 13.3857143,11.1408284 13.3857143,11.1266272 C13.4714286,10.4094675 13.9214286,8.96094675 14.3214286,7.73254438 C14.6642857,8.13017751 15.0071429,8.35029586 15.1142857,8.45680473 C15.1142857,8.45680473 15.1142857,8.45680473 15.1142857,8.45680473 C15.3142857,8.69822485 15.7642857,8.49940828 16.7714286,8.15857988 C17.7785714,7.81775148 18.4571429,7.53372781 18.7785714,7.29940828 C18.9428571,7.17869822 19.1642857,7.02248521 19.3928571,6.88757396 C19.5428571,6.83076923 19.6642857,6.80236686 19.6642857,6.80236686 C20.05,6.75976331 20.5785714,6.40473373 20.5357143,6.19881657 C20.5142857,6.09230769 20.4214286,6.05680473 20.4214286,6.05680473 C20.5714286,5.94319527 20.3857143,5.72307692 20.2928571,5.77278107 C20.4428571,5.58106509 20.1357143,5.4887574 20.1357143,5.4887574 C20.1928571,5.34674556 20.0357143,5.23313609 19.8357143,5.3112426 C19.7928571,5.32544379 19.7642857,5.34674556 19.7642857,5.34674556 C19.7642857,5.34674556 19.6428571,5.25443787 19.4785714,5.32544379 C19.35,5.38224852 19.1214286,5.51005917 19.1071429,5.73017751 C19.1,5.80118343 19.0714286,5.97869822 19.05,6.09940828 C18.6714286,6.45443787 17.9785714,6.49704142 17.2214286,6.61775148 C16.4285714,6.74556213 15.7428571,6.92307692 15.6142857,6.95857988 C15.1285714,6.11360947 14.4571429,5.61656805 14.2642857,5.53846154 C14.1785714,5.43195266 14.1142857,5.29704142 14.05,5.20473373 C13.8785714,4.95621302 13.8071429,4.84260355 13.8071429,4.84260355 C14.0214286,4.51597633 14.1428571,4.03313609 14.1428571,4.03313609 C14.1428571,4.03313609 14.3785714,4.01893491 14.5714286,3.99053254 C14.6785714,3.97633136 14.8,3.97633136 14.8714286,3.90532544 C14.9,3.87692308 14.9071429,3.84142012 14.9,3.75621302 C14.8928571,3.71360947 14.8785714,3.62840237 14.8785714,3.57869822 C14.8785714,3.54319527 14.8785714,3.50769231 14.8785714,3.47218935 C14.8785714,3.45088757 14.8857143,3.41538462 14.8857143,3.39408284 C14.8785714,3.07455621 14.9357143,3.03905325 14.9357143,3.03905325 C14.9357143,3.03905325 14.95,3.02485207 15.0571429,2.98934911 C15.1,2.97514793 15.1785714,2.96094675 15.2071429,2.92544379 C15.3071429,2.81893491 14.8214286,1.9739645 14.8071429,1.93136095 C14.8,1.91715976 14.7857143,1.85325444 14.7928571,1.83195266 C14.8071429,1.77514793 14.8428571,1.64023669 14.85,1.60473373 C14.8571429,1.55502959 14.8571429,1.51952663 14.8571429,1.50532544 C14.8428571,1.00118343 14.8071429,0.95147929 14.8,0.95147929 L14.95,0.90887574 C14.7428571,0.461538462 14.5142857,0.0710059172 13.6071429,0.00710059172 C12.7,-0.049704142 12.2357143,0.404733728 12.2357143,0.404733728 C11.9714286,0.631952663 11.4642857,0.979881657 11.4642857,0.979881657 L11.6571429,1.05088757 C11.25,1.26390533 11.0214286,1.90295858 11.0214286,1.90295858 L11.2571429,1.8816568 C11.2571429,1.8816568 11.2214286,1.99526627 11.1785714,2.08047337 C11.1428571,2.1443787 11.0642857,2.2295858 11.0642857,2.2295858 C11.0642857,2.2295858 11.1714286,2.28639053 11.2357143,2.30769231 C11.3214286,2.32899408 11.4214286,2.33609467 11.4214286,2.33609467 C11.4214286,2.33609467 11.35,2.42130178 11.3,2.47100592 C11.2357143,2.52781065 11.1785714,2.59171598 11.1785714,2.59171598 C11.1785714,2.59171598 11.2642857,2.64142012 11.3571429,2.6556213 C11.45,2.66982249 11.5928571,2.66272189 11.5928571,2.66272189 L11.2571429,2.90414201 C11.2571429,2.90414201 11.3357143,2.98934911 11.4,3.03195266 C11.4714286,3.0816568 11.5714286,3.13136095 11.5714286,3.13136095 C11.5714286,3.13136095 11.55,3.18106509 11.5071429,3.21656805 C11.4642857,3.2591716 11.3928571,3.28047337 11.3928571,3.28047337 C11.6928571,3.86272189 12.2928571,3.99053254 12.2928571,3.99053254 L12.0714286,4.39526627 C11.5214286,4.6295858 11.0928571,4.85680473 10.7642857,5.04852071 C8.55714286,5.7443787 7.70714286,6.70295858 7.47142857,6.91597633 C7.22142857,7.00828402 7.12857143,7.54792899 6.91428571,8.4852071 C6.72857143,9.28047337 6.67142857,10.1609467 6.60714286,10.6863905 C6.6,10.7005917 6.6,10.7218935 6.6,10.7360947 C6.6,10.7431953 6.6,10.7502959 6.6,10.764497 C6.58571429,10.8568047 6.57142857,10.9420118 6.55714286,10.9988166 C6.51428571,11.1550296 6.45,11.2757396 6.43571429,11.2970414 C6.22857143,11.6591716 6.31428571,12.3692308 6.38571429,12.4615385 C6.44285714,12.539645 6.59285714,12.4544379 6.59285714,12.4544379 C6.58571429,12.695858 6.9,12.660355 6.92857143,12.5254438 C6.89285714,12.6887574 7.22857143,12.7242604 7.28571429,12.5822485 C7.33571429,12.7455621 7.65,12.6177515 7.65,12.4402367 C7.65,12.3053254 7.8,12.383432 7.83571429,12.1988166 C7.85714286,12.0994083 7.94285714,11.6804734 7.76428571,11.5171598 C7.7,11.4532544 7.53571429,11.3538462 7.44285714,11.2473373 C7.4,10.8213018 7.58571429,10.4023669 7.87857143,9.7704142 C8.25714286,8.93964497 8.62142857,7.84615385 8.62142857,7.84615385 C9.21428571,7.59763314 9.67142857,7.36331361 10.0142857,7.16449704 C10.1,7.86035503 10.1071429,7.8887574 10.3928571,8.84733728 C10.6214286,9.61420118 10.3714286,10.452071 10.0428571,11.2331361 C9.80714286,11.5881657 9.49285714,12.1988166 9.41428571,13.0224852 L8.61428571,14.243787 L10.9928571,16.104142 C11.15,15.9266272 11.8714286,15.1100592 12.1357143,14.6769231 C12.1357143,14.6769231 12.9428571,15.3017751 13.5357143,15.6568047 L14.7857143,13.3775148 C14.7714286,13.3633136 14.7714286,13.3633136 14.7642857,13.3633136 Z"></path>
                    </g>
                </g>
            </g>
        </g>
    </g>
</svg>