<?xml version="1.0" encoding="utf-8"?>
<!-- Generator: Adobe Illustrator 19.0.0, SVG Export Plug-In . SVG Version: 6.00 Build 0)  -->
<svg version="1.1" id="Layer_1" xmlns="http://www.w3.org/2000/svg" xmlns:xlink="http://www.w3.org/1999/xlink" x="0px" y="0px"
	 viewBox="-293 385 24 23" style="enable-background:new -293 385 24 23;" xml:space="preserve">
<style type="text/css">
	.st0{fill:#446EA6;}
</style>
<title>91907A6F-A1EA-439C-9AC6-74B85FF29C55</title>
<desc>Created with sketchtool.</desc>
<g id="Page-1">
	<g id="icon" transform="translate(-137.000000, -1346.000000)">
		<g id="_x31_2-copy-16" transform="translate(83.000000, 1330.000000)">
			<g id="Squash_x2F_white" transform="translate(54.000000, 16.000000)">
				<g>
					<ellipse id="Oval" class="st0" cx="-289.4" cy="390.9" rx="1.6" ry="1.6"/>
					<path id="Path" class="st0" d="M-276.7,388.8c-0.6,1.2-2.1,1.8-3.4,1.2c-1.3-0.6-1.8-2.1-1.2-3.4c0.6-1.3,2.1-1.8,3.4-1.2
						C-276.6,386-276.1,387.5-276.7,388.8z"/>
					<path id="Path_1_" class="st0" d="M-269.3,390.5l-1.6,3.2c-0.3,0.6-1,0.9-1.6,0.6l-1.6-0.7l1.4,4c0,0,0,0.1,0.1,0.1l2.8,8.1
						c0.3,0.8-0.1,1.6-0.9,1.8c-0.7,0.3-1.6-0.1-1.8-0.9l-2.4-6.7c-0.7,0-2.5-0.4-3.5-0.6l0.6,2c0.2,0.8-0.3,1.6-1,1.8
						c-0.8,0.2-1.6-0.3-1.8-1l-1.2-4.3c-0.1-0.5,0-1,0.4-1.4c0.3-0.4,0.9-0.5,1.4-0.4l2.5,0.5l-1.1-3.1l-6,1.8
						c-0.5,0.1-1.1,0-1.4-0.5l-2,0.6c0,0.5-0.2,0.9-0.6,1.3c-1,0.9-1.8,1.3-2.3,1.3c-0.1,0-0.3,0-0.4-0.1c-1-0.5-1.6-2.9-1.1-3.8
						c0.3-0.6,1.3-0.7,3-0.4c0.6,0.1,1.1,0.5,1.3,1l1.9-0.5c0-0.5,0.3-1,0.9-1.2l9.2-2.7c0.3-0.1,0.6-0.1,0.8,0l2.8,1.1l1.1-2.2
						c0.3-0.6,1.1-0.9,1.7-0.6C-269.3,389.1-269,389.9-269.3,390.5z"/>
				</g>
			</g>
		</g>
	</g>
</g>
</svg>
