<?xml version="1.0" encoding="UTF-8"?>
<svg width="24px" height="23px" viewBox="0 0 24 23" version="1.1" xmlns="http://www.w3.org/2000/svg" xmlns:xlink="http://www.w3.org/1999/xlink">
    <!-- Generator: sketchtool 60 (101010) - https://sketch.com -->
    <title>91907A6F-A1EA-439C-9AC6-74B85FF29C55</title>
    <desc>Created with sketchtool.</desc>
    <g id="Page-1" stroke="none" stroke-width="1" fill="none" fill-rule="evenodd">
        <g id="icon" transform="translate(-137.000000, -1346.000000)" fill="#FFFFFF" fill-rule="nonzero">
            <g id="12-copy-16" transform="translate(83.000000, 1330.000000)">
                <g id="Squash/white" transform="translate(54.000000, 16.000000)">
                    <g>
                        <ellipse id="Oval" cx="3.61846154" cy="5.91428571" rx="1.58769231" ry="1.56984127"></ellipse>
                        <path d="M16.2830769,3.76031746 C15.6553846,5.0015873 14.1784615,5.51269841 12.8861538,4.92857143 C11.6307692,4.30793651 11.1138462,2.81111111 11.7046154,1.56984127 C12.3323077,0.292063492 13.8461538,-0.182539683 15.1015385,0.401587302 C16.3569231,1.02222222 16.9107692,2.51904762 16.2830769,3.76031746 Z" id="Path"></path>
                        <path d="M23.6676923,5.51269841 L22.08,8.76190476 C21.7846154,9.34603175 21.12,9.63809524 20.4553846,9.38253968 L18.8676923,8.72539683 L20.3076923,12.7047619 C20.3446154,12.7412698 20.3446154,12.8142857 20.3815385,12.8507937 L23.2246154,20.9190476 C23.4830769,21.6857143 23.0769231,22.4888889 22.3384615,22.7444444 C21.6369231,23 20.7876923,22.6349206 20.4923077,21.868254 L18.0923077,15.1873016 C17.3907692,15.1507937 15.5446154,14.7857143 14.5846154,14.6031746 L15.1384615,16.647619 C15.36,17.4142857 14.88,18.2174603 14.1046154,18.4 C13.2923077,18.6190476 12.5169231,18.1444444 12.3323077,17.3777778 L11.1507692,13.0698413 C11.04,12.5952381 11.1507692,12.047619 11.52,11.7190476 C11.8523077,11.3539683 12.4061538,11.2079365 12.8861538,11.3174603 L15.36,11.8650794 L14.2523077,8.7984127 L8.27076923,10.5873016 C7.75384615,10.7333333 7.16307692,10.5507937 6.83076923,10.0761905 L4.83692308,10.6603175 C4.83692308,11.1349206 4.61538462,11.6095238 4.24615385,11.9380952 C3.24923077,12.8142857 2.47384615,13.252381 1.92,13.252381 C1.77230769,13.252381 1.58769231,13.215873 1.47692308,13.1428571 C0.516923077,12.631746 -0.147692308,10.2587302 0.369230769,9.30952381 C0.701538462,8.72539683 1.66153846,8.61587302 3.36,8.87142857 C3.95076923,8.98095238 4.46769231,9.34603175 4.68923077,9.89365079 L6.60923077,9.34603175 C6.60923077,8.83492063 6.94153846,8.32380952 7.49538462,8.14126984 L16.6892308,5.4031746 C16.9846154,5.33015873 17.28,5.33015873 17.5384615,5.43968254 L20.3076923,6.57142857 L21.4153846,4.38095238 C21.7107692,3.76031746 22.4861538,3.5047619 23.1138462,3.7968254 C23.7046154,4.12539683 24,4.89206349 23.6676923,5.51269841 Z" id="Path"></path>
                    </g>
                </g>
            </g>
        </g>
    </g>
</svg>