<?xml version="1.0" encoding="utf-8"?>
<!-- Generator: Adobe Illustrator 19.0.0, SVG Export Plug-In . SVG Version: 6.00 Build 0)  -->
<svg version="1.1" id="Layer_1" xmlns="http://www.w3.org/2000/svg" xmlns:xlink="http://www.w3.org/1999/xlink" x="0px" y="0px"
	 viewBox="-293 385 24 24" style="enable-background:new -293 385 24 24;" xml:space="preserve">
<style type="text/css">
	.st0{fill:#04ADBF;}
</style>
<title>7675D32E-8250-45A4-A275-4815C32A8E92</title>
<desc>Created with sketchtool.</desc>
<g id="Page-1">
	<g id="icon" transform="translate(-132.000000, -1474.000000)">
		<g id="_x31_2-copy-18" transform="translate(83.000000, 1458.000000)">
			<g id="Floorball_x2F_white" transform="translate(49.000000, 16.000000)">
				<g>
					<path id="Fill-1" class="st0" d="M-293,404.8c0.1-0.3,0.2-0.7,0.3-1c0.4-0.9,0.9-1.5,1.8-1.9c0.4-0.2,0.8-0.2,1.3,0.1
						c1.2,0.6,2.4,1,3.7,1.1c0.5,0.1,1,0,1.5,0c0.2,0,0.4-0.1,0.5-0.3c0.3-0.6,0.7-1.1,1.1-1.7c0-0.1,0.1-0.1,0.2-0.2
						c1.1,0.7,2.2,1.5,3.3,2.2c-0.3,0.4-0.5,0.8-0.8,1.2c-0.1,0.1-0.1,0.3-0.1,0.4c-0.1,0.5-0.1,0.9-0.2,1.4
						c-0.3,1.4-1.2,2.2-2.6,2.5c-1.3,0.3-2.5,0.3-3.8,0.2c-1.3-0.1-2.7-0.3-3.9-0.8c-0.5-0.2-1-0.5-1.4-0.8
						c-0.5-0.4-0.8-0.9-0.9-1.5c0,0,0-0.1,0-0.1V404.8z"/>
					<path id="Fill-4" class="st0" d="M-269,387.3c-0.1,0.5-0.4,0.9-0.7,1.3c-2.9,4.4-5.8,8.8-8.7,13.1c0,0.1-0.1,0.1-0.2,0.2
						c-1.1-0.7-2.2-1.5-3.3-2.2c0.6-0.8,1.1-1.7,1.6-2.5c2.5-3.8,5-7.5,7.5-11.3c0.6-0.9,1.6-1.2,2.6-0.8c0.6,0.3,0.9,0.7,1.1,1.4
						c0,0.1,0,0.1,0.1,0.2V387.3z"/>
					<path id="Fill-7" class="st0" d="M-286.4,394.6c1.9,0,3.4,1.5,3.4,3.4c0,1.8-1.5,3.3-3.4,3.3c-1.9,0-3.4-1.5-3.4-3.4
						C-289.8,396.1-288.3,394.6-286.4,394.6"/>
				</g>
			</g>
		</g>
	</g>
</g>
</svg>
