<?xml version="1.0" encoding="UTF-8"?>
<svg width="24px" height="24px" viewBox="0 0 24 24" version="1.1" xmlns="http://www.w3.org/2000/svg" xmlns:xlink="http://www.w3.org/1999/xlink">
    <!-- Generator: sketchtool 60 (101010) - https://sketch.com -->
    <title>7675D32E-8250-45A4-A275-4815C32A8E92</title>
    <desc>Created with sketchtool.</desc>
    <g id="Page-1" stroke="none" stroke-width="1" fill="none" fill-rule="evenodd">
        <g id="icon" transform="translate(-132.000000, -1474.000000)" fill="#FFFFFF">
            <g id="12-copy-18" transform="translate(83.000000, 1458.000000)">
                <g id="Floorball/white" transform="translate(49.000000, 16.000000)">
                    <g>
                        <path d="M0,19.8244697 C0.09159375,19.5037808 0.154078125,19.1710685 0.280265625,18.8646575 C0.630609375,18.014184 1.22170312,17.3784892 2.06432813,16.9953816 C2.50026562,16.797135 2.90746875,16.809863 3.35676562,17.0490176 C4.5103125,17.6630607 5.7556875,18.0218865 7.051875,18.1740117 C7.5534375,18.232908 8.06451563,18.2127593 8.57142187,18.2220117 C8.80814063,18.2263327 8.9814375,18.1477573 9.12009375,17.918184 C9.46748437,17.3432172 9.85317187,16.7914051 10.2240469,16.2306223 C10.2709687,16.1597025 10.3212656,16.0910372 10.381875,16.0043366 C11.4795469,16.7380039 12.5679375,17.4655186 13.6747031,18.2052916 C13.3989844,18.6237182 13.1254687,19.0224658 12.8721094,19.4337534 C12.7995,19.551593 12.7660312,19.7032016 12.7480313,19.8436321 C12.6883594,20.30818 12.6872812,20.7844227 12.5856094,21.238638 C12.2778281,22.6130254 11.4180469,23.4401096 10.0334531,23.7239295 C8.78226562,23.9804149 7.52132813,24.0051663 6.25551562,23.9048924 C4.91995312,23.7991233 3.60121875,23.5847671 2.3611875,23.0564853 C1.85648437,22.8414716 1.37146875,22.5567593 0.922921875,22.2393112 C0.423984375,21.8861213 0.1033125,21.3852681 0.037125,20.7522975 C0.034171875,20.7237886 0.012796875,20.6972994 0,20.6698708 L0,19.8244697 Z" id="Fill-1"></path>
                        <path d="M24,2.25891194 C23.9039531,2.7630998 23.6185781,3.17213307 23.3430469,3.58844618 C20.4445781,7.96823483 17.5483594,12.3495734 14.6512969,16.7303014 C14.6084531,16.7950685 14.56275,16.8580039 14.5001719,16.9479922 C13.4020312,16.2148415 12.3088594,15.4849315 11.2043906,14.7474599 C11.758125,13.9092916 12.3000469,13.0889706 12.841875,12.2686497 C15.3272344,8.50586301 17.8115156,4.74232485 20.29875,0.980712329 C20.898375,0.0738786693 21.9239531,-0.240939335 22.8502969,0.1918591 C23.4326719,0.463984344 23.7885,0.925761252 23.9490469,1.54468885 C23.9623125,1.59588258 23.9828437,1.64515068 24,1.69531115 L24,2.25891194 Z" id="Fill-4"></path>
                        <path d="M6.56634375,9.57391377 C8.45578125,9.58041487 9.94851563,11.0920391 9.93825624,12.9884149 C9.92817188,14.8300274 8.4075,16.338364 6.56254688,16.3367684 C4.67990625,16.3351233 3.1785,14.8014247 3.18834204,12.8899726 C3.1978125,11.0703405 4.72860938,9.56763992 6.56634375,9.57391377" id="Fill-7"></path>
                    </g>
                </g>
            </g>
        </g>
    </g>
</svg>