<?xml version="1.0" encoding="UTF-8"?>
<svg width="22px" height="24px" viewBox="0 0 22 24" version="1.1" xmlns="http://www.w3.org/2000/svg" xmlns:xlink="http://www.w3.org/1999/xlink">
    <!-- Generator: sketchtool 60 (101010) - https://sketch.com -->
    <title>4B1BEDA8-A02D-44EA-871F-0999DD62BFBE</title>
    <desc>Created with sketchtool.</desc>
    <g id="Page-1" stroke="none" stroke-width="1" fill="none" fill-rule="evenodd">
        <g id="icon" transform="translate(-144.000000, -1538.000000)" fill="#FFFFFF" fill-rule="nonzero">
            <g id="12-copy-19" transform="translate(83.000000, 1522.000000)">
                <g id="sumo/white" transform="translate(61.000000, 16.000000)">
                    <path d="M20.8891039,14.6100741 C22.8946714,7.76296296 14.7710228,7.31288889 14.7710228,7.31288889 C14.975266,7.03614815 14.8414822,6.60740741 14.8414822,6.60740741 C16.1014282,5.18755556 15.0055904,5.29659259 15.0055904,5.29659259 C16.0476174,2.73007407 12.8689147,1.96592593 12.8689147,1.96592593 C13.4501309,0.37362963 11.4285093,0.0607407407 10.949266,0.00888888889 L10.949266,1.56319402e-13 C10.949266,1.56319402e-13 10.9317255,0.00118518519 10.8990228,0.00414814815 C10.867212,0.00118518519 10.8490768,1.56319402e-13 10.8490768,1.56319402e-13 L10.8490768,0.00888888889 C10.369239,0.0607407407 8.34940116,0.373925926 8.92942819,1.96592593 C8.92942819,1.96592593 5.75161738,2.73037037 6.79275252,5.29659259 C6.79275252,5.29659259 5.69632008,5.18755556 6.95715792,6.60740741 C6.95715792,6.60740741 6.82456333,7.03644444 7.02761738,7.31288889 C7.02761738,7.31288889 -1.09573397,7.76296296 0.9095363,14.6100741 C0.9095363,14.6100741 -0.878409646,16.1357037 0.559320084,16.8971852 C0.559320084,16.8971852 -0.00197721348,19.6844444 3.92888765,22.5392593 C3.92888765,22.5392593 2.13559035,23.9185185 3.77875252,23.973037 L5.20369846,23.973037 C5.20369846,23.973037 6.68988765,24.1531852 5.34461738,21.8788148 C5.25215792,21.7241481 5.16861738,21.5875556 5.0895363,21.4657778 C5.001239,21.2337778 4.94326603,20.9025185 5.03007684,20.4678519 C5.03007684,20.4678519 6.38902279,21.7105185 9.70299576,21.1961481 L9.79218495,21.4983704 L10.8493741,21.5291852 L10.8493741,21.5318519 L10.8993201,21.5303704 L10.9495633,21.5318519 L10.9495633,21.5291852 L12.0064552,21.4983704 L12.096239,21.1961481 C15.410212,21.7105185 16.7691579,20.4678519 16.7691579,20.4678519 C16.8559687,20.9022222 16.7985904,21.2334815 16.7096985,21.4657778 C16.6309147,21.5872593 16.5461849,21.7238519 16.4546174,21.8788148 C15.1093471,24.1531852 16.5955363,23.973037 16.5955363,23.973037 L18.0204822,23.973037 C19.664239,23.9185185 17.8706444,22.5392593 17.8706444,22.5392593 C21.8021039,19.6844444 21.240212,16.8971852 21.240212,16.8971852 C22.6776444,16.1357037 20.8891039,14.6100741 20.8891039,14.6100741 Z M2.32972549,15.4945185 C3.42377954,13.4328889 3.219239,12.4103704 3.219239,12.4103704 C3.74842819,12.8026667 4.60345522,12.3591111 4.60345522,12.3591111 C4.26215792,12.9386667 4.70602279,13.7395556 4.70602279,13.7395556 C4.00529306,14.4891852 4.32934711,15.8011852 4.32934711,15.8011852 C3.91967144,15.3922963 2.32972549,15.4945185 2.32972549,15.4945185 Z M11.3381309,20.5244444 C11.3381309,20.5244444 5.55986062,20.7416296 4.39059035,15.7899259 C4.39059035,15.7899259 6.43629306,19.1392593 11.4769687,18.8853333 C16.518239,18.6302222 17.3943741,15.6447407 17.3943741,15.6447407 C17.3943741,15.6447407 17.9797525,19.824 11.3381309,20.5244444 Z M17.4689958,15.8014815 C17.4689958,15.8014815 17.794239,14.4891852 17.0929147,13.7398519 C17.0929147,13.7398519 17.5370768,12.9386667 17.1954822,12.3594074 C17.1954822,12.3594074 18.050212,12.802963 18.5796985,12.4106667 C18.5796985,12.4106667 18.3748606,13.4331852 19.4689147,15.4948148 C19.469212,15.4945185 17.8798606,15.3922963 17.4689958,15.8014815 Z"></path>
                </g>
            </g>
        </g>
    </g>
</svg>