<?xml version="1.0" encoding="UTF-8"?>
<svg width="23px" height="16px" viewBox="0 0 23 16" version="1.1" xmlns="http://www.w3.org/2000/svg" xmlns:xlink="http://www.w3.org/1999/xlink">
    <!-- Generator: sketchtool 60 (101010) - https://sketch.com -->
    <title>DC2AFE8F-7B9F-4B55-9163-D7A4C948714E</title>
    <desc>Created with sketchtool.</desc>
    <g id="Page-1" stroke="none" stroke-width="1" fill="none" fill-rule="evenodd">
        <g id="icon" transform="translate(-115.000000, -1909.000000)" fill="#FFFFFF" fill-rule="nonzero">
            <g id="-55" transform="translate(83.000000, 1889.000000)">
                <g id="Virtual-sports" transform="translate(32.000000, 20.000000)">
                    <g>
                        <path d="M23,2.92571429 L23,1.37142857 C23,0.628022857 22.3622891,0 21.6074219,0 L16.4863281,0 C15.7432305,0 15.1386719,0.615222857 15.1386719,1.37142857 L15.1386719,2.92571429 L23,2.92571429 Z" id="Path"></path>
                        <path d="M15.1386719,4.29714286 L15.1386719,14.6285714 C15.1386719,15.3847771 15.7432305,16 16.4863281,16 L21.6074219,16 C22.3622891,16 23,15.3719771 23,14.6285714 L23,4.29714286 L15.1386719,4.29714286 Z M19.2427344,13.0445714 C18.9086953,13.1458743 18.5280723,12.9807086 18.4022461,12.5878857 C18.3012168,12.2431543 18.4711562,11.8559543 18.8514648,11.7325714 C19.2198691,11.61856 19.6232227,11.8424229 19.7076758,12.2546286 C19.7686348,12.5860571 19.6013008,12.9256686 19.2427344,13.0445714 Z M19.2427344,10.1188571 C18.9089648,10.2200686 18.5280723,10.05504 18.4022461,9.66217143 C18.3012168,9.31744 18.4711562,8.93024 18.8514648,8.80685714 C19.2198691,8.69284571 19.6232227,8.91670857 19.7076758,9.32891429 C19.7686348,9.66034286 19.6013008,9.99995429 19.2427344,10.1188571 Z" id="Shape"></path>
                        <path d="M12.2636719,0 L1.34765625,0 C0.604648438,0 0,0.615314286 0,1.37142857 L0,10.6514286 C0,11.4075429 0.604648438,12.0228571 1.34765625,12.0228571 L12.2636719,12.0228571 C13.0066797,12.0228571 13.6113281,11.4075429 13.6113281,10.6514286 L13.6113281,1.37142857 C13.6113281,0.615314286 13.0066797,0 12.2636719,0 Z" id="Path"></path>
                        <path d="M10.421875,14.6285714 L8.93945312,14.6285714 L8.93945312,13.3942857 L4.71679688,13.3942857 L4.71679688,14.6285714 L3.234375,14.6285714 C2.86242187,14.6285714 2.56054688,14.9357714 2.56054688,15.3142857 C2.56054688,15.6928 2.86242187,16 3.234375,16 L10.421875,16 C10.7938281,16 11.0957031,15.6928 11.0957031,15.3142857 C11.0957031,14.9357714 10.7938281,14.6285714 10.421875,14.6285714 Z" id="Path"></path>
                    </g>
                </g>
            </g>
        </g>
    </g>
</svg>