<?xml version="1.0" encoding="UTF-8"?>
<svg width="24px" height="24px" viewBox="0 0 24 24" version="1.1" xmlns="http://www.w3.org/2000/svg" xmlns:xlink="http://www.w3.org/1999/xlink">
    <!-- Generator: sketchtool 60 (101010) - https://sketch.com -->
    <title>B7405A55-D864-4A96-9F70-5775FA2D033A</title>
    <desc>Created with sketchtool.</desc>
    <g id="Page-1" stroke="none" stroke-width="1" fill="none" fill-rule="evenodd">
        <g id="icon" transform="translate(-441.000000, -706.000000)" fill="#FFFFFF" fill-rule="nonzero">
            <g id="23" transform="translate(393.000000, 690.000000)">
                <g id="Handball" transform="translate(48.000000, 16.000000)">
                    <g id="Path">
                        <path d="M3.9375,3.1125 C5.9625,2.925 8.1,4.0125 8.775,4.3875 C9.075,4.2375 9.375,4.125 9.7125,4.0875 C9.9,3.3375 10.425,1.3875 11.625,0 C8.7,0.1125 6,1.2375 3.9375,3.1125 Z"></path>
                        <path d="M10.05,9.9375 C9.675,9.9375 9.3375,9.8625 9,9.75 C8.1375,13.05 8.9625,18.525 10.8375,21.75 C11.475,22.8375 12.1875,23.5875 12.9,23.9625 C15.3375,23.775 17.5875,22.8375 19.3875,21.4125 C19.3875,14.2875 16.1625,9.4125 12.8625,7.65 C12.6375,8.9625 11.475,9.9375 10.05,9.9375 Z"></path>
                        <path d="M10.575,4.125 C10.9875,4.2 11.4,4.35 11.7375,4.6125 C15.15,3.6 18.8625,3.6 21.2625,4.35 C19.2,1.875 16.1625,0.2625 12.7875,0.0375 C11.4375,1.125 10.8,3.225 10.575,4.125 Z"></path>
                        <path d="M1.575,9.7875 C2.925,8.1375 4.9125,7.05 7.1625,6.675 C7.2375,6 7.575,5.4 8.025,4.9125 C6.975,4.3875 4.6125,3.375 2.85,4.2375 C1.0875,6.3375 0,9.0375 0,12 C0,12.225 0,12.4875 0.0375,12.7125 C0.3375,11.6625 0.8625,10.65 1.575,9.7875 Z"></path>
                        <path d="M22.1625,5.6625 C20.4375,4.6125 16.3125,4.2375 12.4125,5.2875 C12.7125,5.7 12.9375,6.225 12.975,6.7875 C16.4625,8.475 20.025,13.4625 20.25,20.7375 C22.575,18.5625 24,15.45 24,12.0375 C24,9.675 23.325,7.5 22.1625,5.6625 Z"></path>
                        <path d="M10.05,9.1125 C11.2125,9.1125 12.15,8.175 12.15,7.0125 C12.15,7.0125 12.15,7.0125 12.15,7.0125 C12.15,5.85 11.2125,4.9125 10.05,4.9125 C10.05,4.9125 10.05,4.9125 10.05,4.9125 C10.05,4.9125 10.05,4.9125 10.05,4.9125 C8.8875,4.9125 7.95,5.85 7.95,7.0125 C7.95,8.175 8.8875,9.1125 10.05,9.1125 Z"></path>
                        <path d="M10.125,22.1625 C8.1375,18.7125 7.275,12.825 8.2875,9.3375 C7.725,8.8875 7.3125,8.25 7.1625,7.5 C5.175,7.875 3.4125,8.85 2.2125,10.3125 C1.05,11.7375 0.45,13.4625 0.4875,15.4125 C1.9125,20.25 6.3375,23.8125 11.5875,24 C11.0625,23.5125 10.575,22.9125 10.125,22.1625 Z"></path>
                    </g>
                </g>
            </g>
        </g>
    </g>
</svg>