<?xml version="1.0" encoding="UTF-8"?>
<svg width="24px" height="24px" viewBox="0 0 24 24" version="1.1" xmlns="http://www.w3.org/2000/svg" xmlns:xlink="http://www.w3.org/1999/xlink">
    <!-- Generator: sketchtool 60 (101010) - https://sketch.com -->
    <title>1F4761D1-933E-4A91-9D5C-CD5596F22086</title>
    <desc>Created with sketchtool.</desc>
    <g id="Page-1" stroke="none" stroke-width="1" fill="none" fill-rule="evenodd">
        <g id="icon" transform="translate(-139.000000, -258.000000)" fill="#FFFFFF" fill-rule="nonzero">
            <g id="4" transform="translate(83.000000, 242.000000)">
                <g id="Cricket" transform="translate(56.000000, 16.000000)">
                    <g id="Path">
                        <path d="M7.84434783,7.7412766 C7.02696126,8.54550128 5.91466482,8.99603251 4.75565217,8.99236294 C4.11559004,8.99168194 3.48342277,8.85399564 2.90347826,8.58893617 L8.70521739,2.9106383 C9.48649822,4.53758505 9.14225334,6.46926269 7.84434783,7.7412766 L7.84434783,7.7412766 Z"></path>
                        <path d="M8.29826087,2.22638298 L2.20956522,8.18553191 C1.82582398,7.91888628 1.49070315,7.59089568 1.21826087,7.21531915 L7.30695652,1.25617021 C7.49786385,1.3900442 7.67756345,1.53859983 7.84434783,1.70042553 C8.01115932,1.86234072 8.16305234,2.03834198 8.29826087,2.22638298 L8.29826087,2.22638298 Z"></path>
                        <path d="M6.61304348,0.852765957 L0.811304348,6.53106383 C0.176476238,5.20960691 0.276279111,3.66217815 1.07584893,2.42933924 C1.87541875,1.19650033 3.26367222,0.449528138 4.75565217,0.449361702 C5.39739119,0.450016557 6.03125883,0.587685396 6.61304348,0.852765957 Z"></path>
                        <polygon points="8.74069565 16.301617 10.3022609 17.802383 23.9426087 4.20919149 19.5636522 0 5.92330435 13.5931915 7.48486957 15.0939574 1.5693913 20.9749787 1.12330435 20.5460426 -2.91322522e-13 21.6801702 2.148 23.7446809 3.27130435 22.6110638 2.82573913 22.1821277"></polygon>
                    </g>
                </g>
            </g>
        </g>
    </g>
</svg>