<?xml version="1.0" encoding="UTF-8"?>
<svg width="23px" height="21px" viewBox="0 0 23 21" version="1.1" xmlns="http://www.w3.org/2000/svg" xmlns:xlink="http://www.w3.org/1999/xlink">
    <!-- Generator: sketchtool 60 (101010) - https://sketch.com -->
    <title>2930101C-8E97-414B-898D-581126DB64E5</title>
    <desc>Created with sketchtool.</desc>
    <g id="Page-1" stroke="none" stroke-width="1" fill="none" fill-rule="evenodd">
        <g id="icon" transform="translate(-139.000000, -1603.000000)" fill="#FFFFFF">
            <g id="12-copy-20" transform="translate(83.000000, 1586.000000)">
                <g id="Politics/white" transform="translate(56.000000, 17.000000)">
                    <g>
                        <path d="M14.8410042,9.16588235 C14.6715305,7.73294118 13.4852147,6.67058824 12.0812463,6.67058824 L10.1199516,6.67058824 C8.71574105,6.67058824 7.52942526,7.73294118 7.35995158,9.16588235 L7.19047789,10.5 L14.9865095,10.5 L14.8410042,9.16588235 Z" id="Fill-1"></path>
                        <path d="M11.0883726,0.568284706 C12.5325305,0.568284706 13.7031095,1.76281412 13.7031095,3.23652 C13.7031095,4.71022588 12.5325305,5.90475529 11.0883726,5.90475529 C9.64445684,5.90475529 8.47363579,4.71022588 8.47363579,3.23652 C8.47363579,1.76281412 9.64445684,0.568284706 11.0883726,0.568284706" id="Fill-3"></path>
                        <path d="M3.00208105,2.89061294 C3.00208105,2.59414235 3.24418632,2.34708353 3.53471263,2.34708353 C3.82523895,2.34708353 4.06734421,2.59414235 4.06734421,2.89061294 C4.06734421,3.18708353 3.82523895,3.43414235 3.53471263,3.43414235 C3.24418632,3.43414235 3.00208105,3.18708353 3.00208105,2.89061294 M1.79155474,3.43414235 C1.50102842,3.43414235 1.25892316,3.18708353 1.25892316,2.89061294 C1.25892316,2.59414235 1.50102842,2.34708353 1.79155474,2.34708353 C2.08208105,2.34708353 2.32418632,2.59414235 2.32418632,2.89061294 C2.32418632,3.18708353 2.08208105,3.43414235 1.79155474,3.43414235 M5.27787053,2.37178941 C5.56839684,2.37178941 5.81050211,2.61884824 5.81050211,2.91531882 C5.81050211,3.21178941 5.56839684,3.45884824 5.27787053,3.45884824 C4.98734421,3.45884824 4.74523895,3.21178941 4.74523895,2.91531882 C4.74523895,2.61884824 4.98734421,2.37178941 5.27787053,2.37178941 M5.66523895,7.21414235 C5.71366,7.23884824 5.73787053,7.23884824 5.78629158,7.23884824 C5.88313368,7.23884824 5.97997579,7.18943647 6.05260737,7.11531882 C6.14944947,6.99178941 6.17366,6.84355412 6.10102842,6.72002471 C5.85892316,6.22590706 5.78629158,5.75649529 5.76208105,5.38590706 L6.27050211,5.38590706 C6.70629158,5.38590706 7.06944947,5.01531882 7.06944947,4.57061294 L7.06944947,1.21061294 C7.06944947,0.765907059 6.70629158,0.395318824 6.27050211,0.395318824 L0.798923158,0.395318824 C0.363133684,0.395318824 -2.42105263e-05,0.765907059 -2.42105263e-05,1.21061294 L-2.42105263e-05,4.59531882 C-2.42105263e-05,5.04002471 0.363133684,5.41061294 0.798923158,5.41061294 L3.55892316,5.41061294 C3.97050211,5.95414235 4.74523895,6.86826 5.66523895,7.21414235" id="Fill-5"></path>
                        <path d="M22.3947368,0.938872941 L18.4484211,0.938872941 L18.4484211,0.667108235 C18.4484211,0.29652 18.1578947,4.94117647e-05 17.7947368,4.94117647e-05 C17.4315789,4.94117647e-05 17.1410526,0.29652 17.1410526,0.667108235 L17.1410526,11.8094612 L2.95368421,11.8094612 C2.54210526,11.8094612 2.20315789,12.1553435 2.20315789,12.5753435 L2.20315789,17.1459318 C2.20315789,17.5659318 2.54210526,17.9118141 2.95368421,17.9118141 L4.40631579,17.9118141 L4.40631579,20.03652 C4.40631579,20.45652 4.74526316,20.8021553 5.15684211,20.8021553 L17.5768421,20.8021553 C17.9884211,20.8021553 18.3273684,20.45652 18.3273684,20.03652 L18.3273684,17.93652 L19.78,17.93652 C20.1915789,17.93652 20.5305263,17.5903906 20.5305263,17.1706376 L20.5305263,12.5753435 C20.5305263,12.1553435 20.1915789,11.8094612 19.78,11.8094612 L18.4484211,11.8094612 L18.4484211,5.36122588 L22.3947368,5.36122588 C22.7336842,5.36122588 23,5.08946118 23,4.74357882 L23,1.53181412 C23,1.21063765 22.7336842,0.938872941 22.3947368,0.938872941" id="Fill-8"></path>
                    </g>
                </g>
            </g>
        </g>
    </g>
</svg>