<?xml version="1.0" encoding="utf-8"?>
<!-- Generator: Adobe Illustrator 19.0.0, SVG Export Plug-In . SVG Version: 6.00 Build 0)  -->
<svg version="1.1" id="Layer_1" xmlns="http://www.w3.org/2000/svg" xmlns:xlink="http://www.w3.org/1999/xlink" x="0px" y="0px"
	 viewBox="-293 386 24 22" style="enable-background:new -293 386 24 22;" xml:space="preserve">
<style type="text/css">
	.st0{fill:#518CAD;}
</style>
<title>FEC9118C-D0A0-4F92-B271-B149959661DD</title>
<desc>Created with sketchtool.</desc>
<g id="Page-1">
	<g id="icon" transform="translate(-132.000000, -1667.000000)">
		<g id="_x31_2-copy-21" transform="translate(83.000000, 1650.000000)">
			<g id="Weather_x2F_white" transform="translate(49.000000, 17.000000)">
				<g id="Path">
					<path class="st0" d="M-282.2,392.1c-0.6-1.2-1.8-2-3.1-2c-1.9,0-3.5,1.6-3.5,3.6c0,1.3,0.6,2.4,1.6,3c0.7-1.3,2-2.2,3.4-2.4
						C-283.5,393.5-282.9,392.7-282.2,392.1z"/>
					<path class="st0" d="M-272.5,395.5c-0.1,0-0.3,0-0.5,0c-0.6-2.2-2.6-3.8-5-3.8c-2.4,0-4.4,1.6-5,3.8c-0.1,0-0.1,0-0.2,0
						c-1.9,0-3.4,1.6-3.4,3.5s1.5,3.5,3.4,3.5h10.7c1.9,0,3.4-1.6,3.4-3.5C-269.1,397.1-270.6,395.5-272.5,395.5z"/>
					<path class="st0" d="M-285.4,389.1c0.4,0,0.7-0.3,0.7-0.7v-1.5c0-0.4-0.3-0.7-0.7-0.7s-0.7,0.3-0.7,0.7v1.5
						C-286.1,388.8-285.8,389.1-285.4,389.1z"/>
					<path class="st0" d="M-289.6,390.5c0.1,0.2,0.3,0.2,0.5,0.2c0.2,0,0.4-0.1,0.5-0.2c0.3-0.3,0.3-0.8,0-1l-1.1-1.1
						c-0.3-0.3-0.8-0.3-1,0c-0.3,0.3-0.3,0.8,0,1L-289.6,390.5z"/>
					<path class="st0" d="M-289.9,393.8c0-0.4-0.3-0.7-0.7-0.7h-1.5c-0.4,0-0.7,0.3-0.7,0.7s0.3,0.7,0.7,0.7h1.5
						C-290.2,394.5-289.9,394.2-289.9,393.8z"/>
					<path class="st0" d="M-289.6,397l-1.1,1.1c-0.3,0.3-0.3,0.8,0,1c0.1,0.2,0.3,0.2,0.5,0.2c0.2,0,0.4-0.1,0.5-0.2l1.1-1.1
						c0.3-0.3,0.3-0.8,0-1C-288.9,396.7-289.3,396.7-289.6,397z"/>
					<path class="st0" d="M-281.6,390.7c0.2,0,0.4-0.1,0.5-0.2l1.1-1.1c0.3-0.3,0.3-0.8,0-1c-0.3-0.3-0.8-0.3-1,0l-1.1,1.1
						c-0.3,0.3-0.3,0.8,0,1C-282,390.6-281.8,390.7-281.6,390.7z"/>
					<path class="st0" d="M-281.2,403.6c-0.4-0.2-0.8,0-1,0.4l-1.4,2.9c-0.2,0.4,0,0.8,0.4,1c0.1,0.1,0.2,0.1,0.4,0.1
						c0.3,0,0.5-0.2,0.7-0.4l1.4-2.9C-280.6,404.2-280.8,403.8-281.2,403.6z"/>
					<path class="st0" d="M-277.9,403.6c-0.4-0.2-0.8,0-1,0.4l-1.4,2.9c-0.2,0.4,0,0.8,0.4,1c0.1,0.1,0.2,0.1,0.4,0.1
						c0.3,0,0.5-0.2,0.7-0.4l1.4-2.9C-277.4,404.2-277.5,403.8-277.9,403.6z"/>
					<path class="st0" d="M-274.7,403.6c-0.4-0.2-0.8,0-1,0.4l-1.4,2.9c-0.2,0.4,0,0.8,0.4,1c0.1,0.1,0.2,0.1,0.4,0.1
						c0.3,0,0.5-0.2,0.7-0.4l1.4-2.9C-274.1,404.2-274.3,403.8-274.7,403.6z"/>
				</g>
			</g>
		</g>
	</g>
</g>
</svg>
