<?xml version="1.0" encoding="UTF-8"?>
<svg width="24px" height="22px" viewBox="0 0 24 22" version="1.1" xmlns="http://www.w3.org/2000/svg" xmlns:xlink="http://www.w3.org/1999/xlink">
    <!-- Generator: sketchtool 60 (101010) - https://sketch.com -->
    <title>FEC9118C-D0A0-4F92-B271-B149959661DD</title>
    <desc>Created with sketchtool.</desc>
    <g id="Page-1" stroke="none" stroke-width="1" fill="none" fill-rule="evenodd">
        <g id="icon" transform="translate(-132.000000, -1667.000000)" fill="#FFFFFF" fill-rule="nonzero">
            <g id="12-copy-21" transform="translate(83.000000, 1650.000000)">
                <g id="Weather/white" transform="translate(49.000000, 17.000000)">
                    <g id="Path">
                        <path d="M10.8,6.11395349 C10.225,4.9372093 9.025,4.11860465 7.65,4.11860465 C5.7,4.11860465 4.125,5.73023256 4.125,7.7255814 C4.125,9.00465116 4.775,10.1046512 5.75,10.7697674 C6.425,9.46511628 7.7,8.54418605 9.175,8.33953488 C9.55,7.46976744 10.1,6.72790698 10.8,6.11395349 Z"></path>
                        <path d="M20.475,9.54186047 C20.325,9.54186047 20.175,9.56744186 20.025,9.56744186 C19.375,7.36744186 17.375,5.78139535 15,5.78139535 C12.65,5.78139535 10.65,7.36744186 10,9.56744186 C9.925,9.56744186 9.85,9.56744186 9.775,9.56744186 C7.9,9.56744186 6.375,11.127907 6.375,13.0465116 C6.375,14.9651163 7.9,16.5255814 9.775,16.5255814 L20.475,16.5255814 C22.35,16.5255814 23.875,14.9651163 23.875,13.0465116 C23.875,11.1023256 22.35,9.54186047 20.475,9.54186047 Z"></path>
                        <path d="M7.625,3.09534884 C8.025,3.09534884 8.35,2.7627907 8.35,2.35348837 L8.35,0.818604651 C8.35,0.409302326 8.025,0.076744186 7.625,0.076744186 C7.225,0.076744186 6.9,0.409302326 6.9,0.818604651 L6.9,2.35348837 C6.9,2.7627907 7.225,3.09534884 7.625,3.09534884 Z"></path>
                        <path d="M3.4,4.45116279 C3.55,4.60465116 3.725,4.68139535 3.925,4.68139535 C4.1,4.68139535 4.3,4.60465116 4.45,4.45116279 C4.725,4.16976744 4.725,3.68372093 4.45,3.40232558 L3.35,2.30232558 C3.075,2.02093023 2.6,2.02093023 2.325,2.30232558 C2.05,2.58372093 2.05,3.06976744 2.325,3.35116279 L3.4,4.45116279 Z"></path>
                        <path d="M3.1,7.75116279 C3.1,7.34186047 2.775,7.00930233 2.375,7.00930233 L0.875,7.00930233 C0.475,7.00930233 0.15,7.34186047 0.15,7.75116279 C0.15,8.16046512 0.475,8.49302326 0.875,8.49302326 L2.375,8.49302326 C2.775,8.49302326 3.1,8.16046512 3.1,7.75116279 Z"></path>
                        <path d="M3.4,11.0255814 L2.325,12.1255814 C2.05,12.4069767 2.05,12.8930233 2.325,13.1744186 C2.475,13.327907 2.65,13.4046512 2.85,13.4046512 C3.025,13.4046512 3.225,13.327907 3.375,13.1744186 L4.45,12.0744186 C4.725,11.7930233 4.725,11.3069767 4.45,11.0255814 C4.15,10.744186 3.675,10.744186 3.4,11.0255814 Z"></path>
                        <path d="M11.375,4.68139535 C11.55,4.68139535 11.75,4.60465116 11.9,4.45116279 L12.975,3.35116279 C13.25,3.06976744 13.25,2.58372093 12.975,2.30232558 C12.7,2.02093023 12.225,2.02093023 11.95,2.30232558 L10.875,3.40232558 C10.6,3.68372093 10.6,4.16976744 10.875,4.45116279 C11,4.60465116 11.175,4.68139535 11.375,4.68139535 Z"></path>
                        <path d="M11.825,17.5744186 C11.45,17.3697674 11,17.5488372 10.8,17.9325581 L9.375,20.8232558 C9.175,21.2069767 9.35,21.6674419 9.725,21.872093 C9.825,21.9232558 9.95,21.9488372 10.075,21.9488372 C10.35,21.9488372 10.625,21.7953488 10.75,21.5139535 L12.175,18.6232558 C12.35,18.2395349 12.2,17.7790698 11.825,17.5744186 Z"></path>
                        <path d="M15.075,17.5744186 C14.7,17.3697674 14.25,17.5488372 14.05,17.9325581 L12.625,20.8232558 C12.425,21.2069767 12.6,21.6674419 12.975,21.872093 C13.075,21.9232558 13.2,21.9488372 13.325,21.9488372 C13.6,21.9488372 13.875,21.7953488 14,21.5139535 L15.425,18.6232558 C15.6,18.2395349 15.45,17.7790698 15.075,17.5744186 Z"></path>
                        <path d="M18.325,17.5744186 C17.95,17.3697674 17.5,17.5488372 17.3,17.9325581 L15.875,20.8232558 C15.675,21.2069767 15.85,21.6674419 16.225,21.872093 C16.325,21.9232558 16.45,21.9488372 16.575,21.9488372 C16.85,21.9488372 17.125,21.7953488 17.25,21.5139535 L18.675,18.6232558 C18.85,18.2395349 18.7,17.7790698 18.325,17.5744186 Z"></path>
                    </g>
                </g>
            </g>
        </g>
    </g>
</svg>