<?xml version="1.0" encoding="utf-8"?>
<!-- Generator: Adobe Illustrator 19.0.0, SVG Export Plug-In . SVG Version: 6.00 Build 0)  -->
<svg version="1.1" id="Layer_1" xmlns="http://www.w3.org/2000/svg" xmlns:xlink="http://www.w3.org/1999/xlink" x="0px" y="0px"
	 viewBox="-293 387 24 20" style="enable-background:new -293 387 24 20;" xml:space="preserve">
<style type="text/css">
	.st0{fill:#513896;}
</style>
<title>78B6574E-F263-441B-AB11-5D282532B39E</title>
<desc>Created with sketchtool.</desc>
<g id="Page-1">
	<g id="icon" transform="translate(-128.000000, -1732.000000)">
		<g id="_x31_2-copy-22" transform="translate(83.000000, 1714.000000)">
			<g id="TV-games_x2F_white" transform="translate(45.000000, 18.000000)">
				<path class="st0" d="M-292.2,387c-0.2,0-0.4,0.1-0.5,0.2c-0.1,0.1-0.2,0.3-0.2,0.5V399h24v-11.3c0-0.4-0.3-0.7-0.7-0.7H-292.2z
					 M-293,401v2.2c0,0.2,0.1,0.4,0.2,0.5c0.1,0.1,0.3,0.2,0.5,0.2h8.8v1.7h-2c0,0,0,0-0.1,0c-0.4,0-0.7,0.4-0.7,0.8
					s0.3,0.7,0.7,0.7h9c0.3,0,0.6-0.1,0.7-0.3c0.1-0.2,0.1-0.5,0-0.8c-0.1-0.2-0.4-0.4-0.7-0.3h-2v-1.7h8.8c0.4,0,0.7-0.3,0.7-0.7
					V401H-293z"/>
			</g>
		</g>
	</g>
</g>
</svg>
