<?xml version="1.0" encoding="UTF-8"?>
<svg width="24px" height="20px" viewBox="0 0 24 20" version="1.1" xmlns="http://www.w3.org/2000/svg" xmlns:xlink="http://www.w3.org/1999/xlink">
    <!-- Generator: sketchtool 60 (101010) - https://sketch.com -->
    <title>78B6574E-F263-441B-AB11-5D282532B39E</title>
    <desc>Created with sketchtool.</desc>
    <g id="Page-1" stroke="none" stroke-width="1" fill="none" fill-rule="evenodd">
        <g id="icon" transform="translate(-128.000000, -1732.000000)" fill="#FFFFFF" fill-rule="nonzero">
            <g id="12-copy-22" transform="translate(83.000000, 1714.000000)">
                <g id="TV-games/white" transform="translate(45.000000, 18.000000)">
                    <path d="M0.752935508,5.16651899e-06 C0.553014242,-0.000722409225 0.361061614,0.0754223997 0.219695384,0.21153899 C0.0783291545,0.34765558 -0.0007515869,0.532479307 5.38471983e-06,0.724975185 L5.38471983e-06,12.0000052 L24.0000054,12.0000052 L24.0000054,0.724975185 C24.0015797,0.3261596 23.6671246,0.00160270595 23.2529253,5.16651899e-06 L0.752935508,5.16651899e-06 Z M5.38471983e-06,14.0000052 L5.38471983e-06,16.1538219 C-0.0007515869,16.3482347 0.0783291545,16.5348988 0.219695384,16.6723708 C0.361061614,16.8098428 0.553014242,16.8867459 0.752935508,16.8860058 L9.5668939,16.8860058 L9.5668939,18.544103 L7.52344495,18.544103 C7.49953143,18.542989 7.47557677,18.542989 7.45166325,18.544103 C7.06238661,18.591145 6.77612799,18.921922 6.79495184,19.302945 C6.81377569,19.6839679 7.13132375,19.986536 7.52344495,19.9970723 L16.4824234,19.9970723 C16.7653254,20.0217754 17.0383079,19.8889625 17.1876067,19.6539828 C17.3369055,19.4190032 17.3369055,19.1221721 17.1876067,18.8871924 C17.0383079,18.6522128 16.7653254,18.5193999 16.4824234,18.544103 L14.4389667,18.544103 L14.4389667,16.8860058 L23.2529253,16.8860058 C23.6671246,16.8843976 24.0015797,16.5566088 24.0000054,16.1538219 L24.0000054,14.0000052 L5.38471983e-06,14.0000052 Z"></path>
                </g>
            </g>
        </g>
    </g>
</svg>