<?xml version="1.0" encoding="utf-8"?>
<!-- Generator: Adobe Illustrator 19.0.0, SVG Export Plug-In . SVG Version: 6.00 Build 0)  -->
<svg version="1.1" id="Layer_1" xmlns="http://www.w3.org/2000/svg" xmlns:xlink="http://www.w3.org/1999/xlink" x="0px" y="0px"
	 viewBox="-296 385 19 24" style="enable-background:new -296 385 19 24;" xml:space="preserve">
<style type="text/css">
	.st0{fill:#E9BC26;}
</style>
<title>8D10052E-2821-4E92-8E3B-0DFFD7C3F92B</title>
<desc>Created with sketchtool.</desc>
<g id="Page-1">
	<g id="icon" transform="translate(-140.000000, -1969.000000)">
		<g id="_x2D_56" transform="translate(83.000000, 1953.000000)">
			<g id="Lottery" transform="translate(57.000000, 16.000000)">
				<g>
					<path id="Path" class="st0" d="M-292.2,403.8l-1.6,2.9c-1,0.1-1.7,0.9-1.8,1.9c0,0.1,0,0.2,0.1,0.3c0.1,0.1,0.2,0.1,0.3,0.1
						h3.3c0.1,0,0.2,0,0.3-0.1c0.1-0.1,0.1-0.2,0.1-0.3c0-0.9-0.6-1.6-1.4-1.8l1.6-3H-292.2z"/>
					<path id="Path_1_" class="st0" d="M-279.2,406.7l-1.6-2.9h-0.9l1.6,3c-0.8,0.2-1.4,1-1.4,1.8c0,0.1,0,0.2,0.1,0.3
						c0.1,0.1,0.2,0.1,0.3,0.1h3.3c0.1,0,0.2,0,0.3-0.1c0.1-0.1,0.1-0.2,0.1-0.3C-277.5,407.6-278.2,406.8-279.2,406.7z"/>
					<path id="Path_2_" class="st0" d="M-288.3,394.3c0-0.1,0-0.1,0-0.2l-7.7-3v6.8l7.7-3.4C-288.2,394.4-288.3,394.3-288.3,394.3z"
						/>
					<path id="Shape" class="st0" d="M-285.3,395.5l3.8,6.9l4.1-4l-7.8-3C-285.2,395.5-285.3,395.5-285.3,395.5z M-281.5,397.7
						c0.7,0,1.3,0.6,1.3,1.3c0,0.7-0.6,1.3-1.3,1.3s-1.3-0.6-1.3-1.3C-282.8,398.3-282.2,397.7-281.5,397.7z"/>
					<path id="Path_3_" class="st0" d="M-287.9,393.2c0,0,0-0.1-0.1-0.1l-2.9-7.7l-5,4.9l7.8,3.1
						C-288,393.3-287.9,393.3-287.9,393.2z"/>
					<path id="Shape_1_" class="st0" d="M-295.5,398.5l4,4l3.8-6.9c-0.1-0.1-0.2-0.2-0.3-0.4L-295.5,398.5z M-291.5,400.3
						c-0.7,0-1.3-0.6-1.3-1.3c0-0.7,0.6-1.3,1.3-1.3s1.3,0.6,1.3,1.3C-290.2,399.7-290.8,400.3-291.5,400.3z"/>
					<path id="Path_4_" class="st0" d="M-285,393.4l7.6-3.2l-4.8-4.7l-3.3,7.4C-285.3,393-285.1,393.2-285,393.4z"/>
					<path id="Path_5_" class="st0" d="M-284.8,394.1c0,0.1,0,0.1,0,0.2c0,0.2,0,0.3-0.1,0.5l7.7,3v-6.9L-284.8,394.1z"/>
					<path id="Path_6_" class="st0" d="M-286.5,392.6c0.1,0,0.2,0,0.3,0l3.4-7.6h-7.3l2.9,7.7C-287,392.6-286.8,392.6-286.5,392.6z"
						/>
					<path id="Shape_2_" class="st0" d="M-286.5,396c-0.2,0-0.4,0-0.5-0.1l-3.9,7.1l0.4,0.4c0.1,0.1,0.2,0.1,0.3,0.1h7.5
						c0.1,0,0.2,0,0.3-0.1l0.4-0.4l-3.9-7.1C-286.1,396-286.3,396-286.5,396z M-287.8,402.5c-0.7,0-1.3-0.6-1.3-1.3
						c0-0.7,0.6-1.3,1.3-1.3s1.3,0.6,1.3,1.3C-286.5,401.9-287.1,402.5-287.8,402.5z M-283.5,401.2c0,0.7-0.6,1.3-1.3,1.3
						c-0.7,0-1.3-0.6-1.3-1.3c0-0.7,0.6-1.3,1.3-1.3C-284,400-283.5,400.5-283.5,401.2z M-285.2,398.3c0,0.7-0.6,1.3-1.3,1.3
						s-1.3-0.6-1.3-1.3c0-0.7,0.6-1.3,1.3-1.3S-285.2,397.6-285.2,398.3z"/>
					<ellipse id="Oval" class="st0" cx="-286.5" cy="394.3" rx="1" ry="1"/>
				</g>
			</g>
		</g>
	</g>
</g>
</svg>
