<?xml version="1.0" encoding="UTF-8"?>
<svg width="19px" height="24px" viewBox="0 0 19 24" version="1.1" xmlns="http://www.w3.org/2000/svg" xmlns:xlink="http://www.w3.org/1999/xlink">
    <!-- Generator: sketchtool 60 (101010) - https://sketch.com -->
    <title>8D10052E-2821-4E92-8E3B-0DFFD7C3F92B</title>
    <desc>Created with sketchtool.</desc>
    <g id="Page-1" stroke="none" stroke-width="1" fill="none" fill-rule="evenodd">
        <g id="icon" transform="translate(-140.000000, -1969.000000)" fill="#FFFFFF" fill-rule="nonzero">
            <g id="-56" transform="translate(83.000000, 1953.000000)">
                <g id="Lottery" transform="translate(57.000000, 16.000000)">
                    <g>
                        <path d="M3.80798,18.784125 L2.2078,21.70875 C1.2312,21.82125 0.475,22.61625 0.437,23.61 C0.4332,23.71125 0.4712,23.8125 0.5434,23.88375 C0.6156,23.95875 0.7144,24 0.817,24 L4.0926,24 C4.1952,24 4.294,23.95875 4.3662,23.88375 C4.4384,23.8125 4.4764,23.71125 4.4726,23.61 C4.4384,22.7325 3.8456,22.0125 3.0362,21.77625 L4.67286,18.784125 L3.80798,18.784125 Z" id="Path"></path>
                        <path d="M16.7884,21.70875 L15.1886,18.784125 L14.32524,18.784125 L15.96,21.7725 C15.1506,22.00875 14.5578,22.7325 14.5236,23.61 C14.5198,23.71125 14.5578,23.8125 14.63,23.88375 C14.7022,23.95875 14.801,24 14.9036,24 L18.1792,24 C18.2818,24 18.3806,23.95875 18.4528,23.88375 C18.525,23.8125 18.563,23.71125 18.5592,23.61 C18.5212,22.61625 17.765,21.82125 16.7884,21.70875 Z" id="Path"></path>
                        <path d="M7.74934,9.28125 C7.74934,9.223875 7.76112,9.169875 7.76644,9.114 L0.095,6.066375 L0.095,12.859125 L7.76834,9.466875 C7.7615,9.405 7.74934,9.345 7.74934,9.28125 Z" id="Path"></path>
                        <path d="M10.6818,10.545 L14.4818,17.49 L18.5668,13.4625 L10.7996,10.425 C10.7616,10.46625 10.7236,10.5075 10.6818,10.545 Z M14.5236,12.72 C15.2342,12.72 15.8118,13.29 15.8118,13.9875 C15.8118,14.68875 15.2342,15.25875 14.5236,15.25875 C13.813,15.25875 13.2392,14.68875 13.2392,13.9875 C13.2392,13.29 13.813,12.72 14.5236,12.72 Z" id="Shape"></path>
                        <path d="M8.10806,8.2455 C8.08412,8.2155 8.06474,8.181 8.05068,8.143125 L5.19422,0.401625 L0.22458,5.309625 L8.0028,8.399625 C8.03548,8.346375 8.07006,8.295 8.10806,8.2455 Z" id="Path"></path>
                        <path d="M0.4826,13.51125 L4.5144,17.49 L8.3144,10.545 C8.1966,10.44 8.0978,10.31625 8.0142,10.18125 L0.4826,13.51125 Z M4.4954,15.25875 C3.7848,15.25875 3.211,14.68875 3.211,13.9875 C3.211,13.29 3.7848,12.72 4.4954,12.72 C5.206,12.72 5.7836,13.29 5.7836,13.9875 C5.7836,14.68875 5.206,15.25875 4.4954,15.25875 Z" id="Shape"></path>
                        <path d="M10.99226,8.394 L18.62722,5.16375 L13.81756,0.417 L10.46824,7.845 C10.68256,7.986375 10.85888,8.17575 10.99226,8.394 Z" id="Path"></path>
                        <path d="M11.23128,9.10875 C11.23736,9.1665 11.24914,9.222375 11.24914,9.281625 C11.24914,9.449625 11.21722,9.608625 11.17162,9.762 L18.905,12.786 L18.905,5.862 L11.23128,9.10875 Z" id="Path"></path>
                        <path d="M9.49924,7.554375 C9.58702,7.554375 9.671,7.5675 9.75536,7.579875 L13.17308,0 L5.85504,0 L8.7134,7.747125 C8.95052,7.627875 9.21538,7.554375 9.49924,7.554375 Z" id="Path"></path>
                        <path d="M9.5,11.01 C9.3138,11.01 9.1428,10.9725 8.9756,10.92 L5.0768,18.045 L5.491,18.45375 C5.5632,18.525 5.6582,18.5625 5.7608,18.5625 L13.2392,18.5625 C13.338,18.5625 13.4368,18.525 13.5052,18.45375 L13.9194,18.045 L10.0244,10.92 C9.8572,10.9725 9.6824,11.01 9.5,11.01 Z M8.1928,17.51625 C7.4822,17.51625 6.9046,16.94625 6.9046,16.245 C6.9046,15.54375 7.4822,14.9775 8.1928,14.9775 C8.9034,14.9775 9.4772,15.54375 9.4772,16.245 C9.4772,16.94625 8.9034,17.51625 8.1928,17.51625 Z M12.5324,16.245 C12.5324,16.94625 11.9586,17.51625 11.248,17.51625 C10.5374,17.51625 9.9598,16.94625 9.9598,16.245 C9.9598,15.54375 10.5374,14.9775 11.248,14.9775 C11.9586,14.9775 12.5324,15.54375 12.5324,16.245 Z M10.7844,13.31625 C10.7844,14.0175 10.2106,14.58375 9.5,14.58375 C8.7894,14.58375 8.2118,14.0175 8.2118,13.31625 C8.2118,12.615 8.7894,12.045 9.5,12.045 C10.2106,12.045 10.7844,12.615 10.7844,13.31625 Z" id="Shape"></path>
                        <ellipse id="Oval" cx="9.49924" cy="9.28125" rx="1" ry="1"></ellipse>
                    </g>
                </g>
            </g>
        </g>
    </g>
</svg>