<?xml version="1.0" encoding="utf-8"?>
<!-- Generator: Adobe Illustrator 19.0.0, SVG Export Plug-In . SVG Version: 6.00 Build 0)  -->
<svg version="1.1" id="Layer_1" xmlns="http://www.w3.org/2000/svg" xmlns:xlink="http://www.w3.org/1999/xlink" x="0px" y="0px"
	 viewBox="-293 385 24 23" style="enable-background:new -293 385 24 23;" xml:space="preserve">
<style type="text/css">
	.st0{fill:#590902;}
</style>
<title>9766CF5B-1620-471D-BEC5-781AFF5EB4A4</title>
<desc>Created with sketchtool.</desc>
<g id="Page-1">
	<g id="icon" transform="translate(-452.000000, -1666.000000)">
		<g id="_x31_2-copy-23" transform="translate(393.000000, 1650.000000)">
			<g id="Bowls_x2F_white" transform="translate(59.000000, 16.000000)">
				<g>
					<path id="Fill-1" class="st0" d="M-288.4,385.8c-0.1,0-0.2,0-0.3,0c-1.7,0-3.2,1.3-4,3.2c0.6-1,1.5-1.6,2.5-1.5
						c1.6,0.1,2.7,1.9,2.5,4c-0.2,2-1.5,3.5-2.9,3.5h-0.2c-0.8-0.1-1.5-0.6-1.9-1.3c-0.1-0.2-0.2-0.4-0.3-0.7
						c0.1,0.7,0.4,1.4,0.8,2.1c0.7,1.1,1.7,1.8,2.8,1.9c2.3,0.2,4.5-2.1,4.7-5.2C-284.4,388.7-286,386-288.4,385.8"/>
					<path id="Fill-3" class="st0" d="M-292.8,391c0.1-0.8,0.4-1.5,0.8-2c0.4-0.5,1-0.8,1.7-0.7c0.6,0.1,1.2,0.5,1.5,1
						c0.4,0.6,0.6,1.4,0.5,2.2c-0.1,1.6-1.2,2.8-2.4,2.8h-0.2c-0.6-0.1-1.2-0.5-1.5-1C-292.8,392.5-292.9,391.7-292.8,391
						 M-290.7,394.6c1.4,0.1,2.6-1.3,2.8-3.1c0.2-1.9-0.8-3.5-2.2-3.6h-0.2c-1.3,0-2.4,1.4-2.6,3.1c-0.1,0.9,0.1,1.7,0.5,2.5
						C-292,394.1-291.4,394.5-290.7,394.6"/>
					<path id="Fill-5" class="st0" d="M-290.2,391.3c0,0.5-0.4,1-0.8,0.9s-0.6-0.5-0.6-1c0-0.5,0.4-1,0.8-0.9
						C-290.4,390.3-290.1,390.7-290.2,391.3 M-290.3,388.3h-0.2c-0.6,0-1.1,0.3-1.5,0.7c-0.5,0.5-0.8,1.2-0.8,2
						c-0.1,0.7,0.1,1.5,0.5,2.1c0.3,0.5,0.9,0.9,1.5,1c1.2,0.1,2.3-1.1,2.4-2.7c0.1-0.7-0.1-1.5-0.5-2.1
						C-289.2,388.7-289.7,388.4-290.3,388.3"/>
					<path id="Fill-7" class="st0" d="M-272.7,397.5c-0.8,0.7-2.1,0.5-2.7,0c-1.5-1-1.4-2.5-0.7-3.1c0.8-0.7,2-0.5,2.9,0.1
						C-272.1,395.2-271.9,396.8-272.7,397.5L-272.7,397.5z M-273.4,393.2c-0.7-0.3-1.4-0.5-2.1-0.5c-1.3,0-2.3,0.6-2.8,1.8
						c-0.3,0.8-0.3,1.6,0.1,2.3c0.5,1.1,1.4,2,2.5,2.5c1.2,0.5,2.5,0.5,3.4,0c0.6-0.3,1.1-0.8,1.3-1.4
						C-270.4,396.2-271.6,394-273.4,393.2L-273.4,393.2z"/>
					<path id="Fill-9" class="st0" d="M-270.4,398.5c-0.3,0.8-0.8,1.4-1.5,1.7c-0.6,0.3-1.3,0.4-1.9,0.4c-0.8,0-1.5-0.2-2.2-0.4
						c-1.4-0.5-2.5-1.6-3.1-3c-0.4-0.9-0.4-1.9-0.1-2.8c0.9-2.2,3.3-2.8,6-1.6C-271.1,393.8-269.7,396.4-270.4,398.5 M-277.2,391.6
						c-0.5,0-1.1,0.1-1.6,0.2c-1.9,0.4-3.5,1.6-4.3,3.4c-0.7,1.6-0.6,3.4,0.2,5.1c0.9,1.8,2.3,3.2,4.1,4c2.1,1,4.5,1.1,6.5,0.2
						c1.3-0.5,2.4-1.6,2.9-3c0.2-0.7,0.4-1.5,0.3-2.2C-269.4,394.9-272.9,391.6-277.2,391.6"/>
					<path id="Fill-11" class="st0" d="M-270.9,397.9c-0.2,0.7-0.7,1.2-1.3,1.5c-0.5,0.2-1.1,0.4-1.6,0.4c-0.6,0-1.3-0.1-1.8-0.4
						c-1.2-0.4-2.1-1.3-2.6-2.5c-0.3-0.8-0.4-1.6-0.1-2.4c0.8-1.8,2.8-2.4,5.1-1.4C-271.5,393.9-270.3,396.2-270.9,397.9
						 M-273.4,393c-0.8-0.4-1.6-0.6-2.5-0.6c-1.5,0-2.7,0.7-3.2,2.1c-0.3,0.9-0.3,1.8,0.1,2.7c0.6,1.3,1.7,2.4,3,2.9
						c1.5,0.5,2.9,0.5,4,0c0.7-0.3,1.2-0.9,1.5-1.6C-269.9,396.4-271.2,393.9-273.4,393"/>
					<path id="Fill-13" class="st0" d="M-272.2,404.7c-1,0.4-2,0.6-3,0.6c-1.3,0-2.5-0.3-3.7-0.8c-1.8-0.8-3.3-2.3-4.3-4.1
						c-0.6-1.1-0.8-2.4-0.7-3.7c0-0.1,0-0.3,0.1-0.4v0c0-0.1,0.1-0.2,0.1-0.4l0-0.1c0-0.1,0.1-0.2,0.1-0.3l0-0.1
						c0-0.1,0.1-0.2,0.1-0.4c0.1-0.1,0.1-0.2,0.2-0.4c0.2-0.3,0.4-0.7,0.6-1c0.3-0.4,0.7-0.8,1.2-1.1c0-0.3,0.1-0.6,0.1-0.9
						c0-3.4-2.7-6.3-6-6.3c-0.5,0-1,0.1-1.5,0.2c0.1,0,0.3,0,0.4,0c2.5,0.2,4.3,3.1,4.1,6.4c-0.3,3.1-2.4,5.5-4.8,5.5
						c-0.1,0-0.2,0-0.3,0c-0.1,0-0.3,0-0.4-0.1c1.6,0.7,3.3,0.8,4.9,0c-0.6,1.8-0.8,4.9,1.5,7.7c2,2.4,4.6,2.7,6.3,2.7
						c3.3,0,6.2-2,7.5-5.1C-270.3,403.6-271.2,404.3-272.2,404.7"/>
				</g>
			</g>
		</g>
	</g>
</g>
</svg>
