<?xml version="1.0" encoding="UTF-8"?>
<svg width="24px" height="23px" viewBox="0 0 24 23" version="1.1" xmlns="http://www.w3.org/2000/svg" xmlns:xlink="http://www.w3.org/1999/xlink">
    <!-- Generator: sketchtool 60 (101010) - https://sketch.com -->
    <title>9766CF5B-1620-471D-BEC5-781AFF5EB4A4</title>
    <desc>Created with sketchtool.</desc>
    <g id="Page-1" stroke="none" stroke-width="1" fill="none" fill-rule="evenodd">
        <g id="icon" transform="translate(-452.000000, -1666.000000)" fill="#FFFFFF">
            <g id="12-copy-23" transform="translate(393.000000, 1650.000000)">
                <g id="Bowls/white" transform="translate(59.000000, 16.000000)">
                    <g>
                        <path d="M4.6219871,0.816339535 C4.51876129,0.807513953 4.41630968,0.802967442 4.31489032,0.802967442 C2.63230968,0.802967442 1.1019871,2.11343256 0.3536,4.03901395 C0.944567742,3.04947907 1.88134194,2.43436279 2.88005161,2.53331628 C4.43101935,2.6804093 5.54843871,4.46424651 5.36779355,6.52354884 C5.19489032,8.48122326 3.89940645,9.98157209 2.43101935,9.98157209 L2.22714839,9.98157209 C1.4256,9.88021163 0.718245161,9.39106047 0.320051613,8.66308372 C0.193083871,8.45688605 0.0857290323,8.23838605 5.16129032e-05,8.01052558 C0.1376,8.75053721 0.409858065,9.45685116 0.802632258,10.0912233 C1.50972903,11.2118047 2.51618065,11.8884326 3.64134194,11.9954093 C5.97940645,12.2200605 8.09553548,9.88796744 8.36650323,6.80703721 C8.63747097,3.72610698 6.95747097,1.03831628 4.6219871,0.816339535" id="Fill-1"></path>
                        <path d="M0.154864516,5.97256512 C0.210348387,5.21303023 0.508154839,4.49414651 1.00131613,3.9293093 C1.42299355,3.42946047 2.0444129,3.1606814 2.68389677,3.20186744 C3.32054194,3.27862326 3.88570323,3.65972791 4.21163871,4.2315186 C4.59770323,4.88006512 4.76467097,5.64307674 4.68647742,6.40047209 C4.54712258,7.97303023 3.50454194,9.17919302 2.32260645,9.17919302 L2.15744516,9.17919302 C1.5208,9.10243721 0.95563871,8.7216 0.629703226,8.14954186 C0.241832258,7.49912326 0.0748645161,6.73290233 0.154864516,5.97256512 M2.25809032,9.6071 C3.61809032,9.73279767 4.85938065,8.33407674 5.03228387,6.48070465 C5.2051871,4.62733256 4.21938065,3.00396047 2.8568,2.88896047 L2.68389677,2.88896047 C1.39357419,2.88896047 0.247767742,4.25023953 0.103251613,6.02337907 C0.00957419355,6.88079767 0.190993548,7.74650698 0.619380645,8.4865186 C0.966735484,9.10484419 1.57292903,9.51964651 2.25809032,9.6071" id="Fill-3"></path>
                        <path d="M2.8283871,6.2748814 C2.78193548,6.80976512 2.43612903,7.22697442 2.05419355,7.18953256 C1.67225806,7.1520907 1.41935484,6.68674186 1.46580645,6.1465093 C1.51225806,5.60627674 1.85806452,5.19441628 2.24,5.23185814 C2.62193548,5.2693 2.87483871,5.72127674 2.8283871,6.2748814 M2.67354839,3.29825349 L2.51612903,3.29825349 C1.95922581,3.31269535 1.43354839,3.56783488 1.06580645,4.00162558 C0.587096774,4.5512186 0.298580645,5.25031163 0.24516129,5.9887186 C0.168,6.72552093 0.329548387,7.46767209 0.704516129,8.09883488 C1.01574194,8.64628837 1.55612903,9.01134651 2.16516129,9.08569535 C3.36516129,9.19802093 4.45419355,7.99453256 4.59354839,6.41127674 C4.67070968,5.67447442 4.50916129,4.93205581 4.13419355,4.30116047 C3.82658065,3.74755581 3.28541935,3.37607907 2.67354839,3.29825349" id="Fill-5"></path>
                        <path d="M20.3200516,12.4875291 C19.5458581,13.1695058 18.2397935,12.9635756 17.5794065,12.5249709 C16.0723097,11.5193895 16.2039226,9.99764535 16.8723097,9.39857558 C17.677471,8.66311047 18.9058581,8.87438953 19.7600516,9.46543605 C20.8671484,10.2463663 21.1406968,11.752064 20.3226323,12.4821802 L20.3200516,12.4875291 Z M19.6232774,8.2084593 C18.9543742,7.89769186 18.2320516,7.72947093 17.4991484,7.71369186 C16.2088258,7.71369186 15.1923097,8.33950581 14.6865032,9.52694767 C14.3979871,10.2864826 14.4268903,11.1358779 14.7662452,11.8724128 C15.2514065,13.0157267 16.1659871,13.904436 17.2981161,14.3328779 C18.5342452,14.7955523 19.7778581,14.7928779 20.7123097,14.3328779 C21.3146323,14.0555407 21.7809548,13.534564 22.0026323,12.8913663 C22.5548903,11.1984593 21.4449548,9.0134593 19.6232774,8.2084593 L19.6232774,8.2084593 Z" id="Fill-7"></path>
                        <path d="M22.5806452,13.4529674 C22.316129,14.2282814 21.7566452,14.8575721 21.0322581,15.194014 C20.4273548,15.4823163 19.7677419,15.6267349 19.1019355,15.6165721 C18.3509677,15.6077465 17.6072258,15.4649326 16.9032258,15.194014 C15.5207742,14.678386 14.4018065,13.5987233 13.8064516,12.2066884 C13.3992258,11.3230605 13.3654194,10.3035721 13.7135484,9.3932 C14.6322581,7.24029302 16.9780645,6.62250233 19.6851613,7.81529302 C21.9019355,8.79145581 23.2516129,11.4257581 22.5806452,13.4529674 M15.8116129,6.58773388 C15.2753548,6.58746744 14.7406452,6.64042093 14.2141935,6.74552558 C12.3019355,7.16006047 10.7096774,8.33413023 9.95096774,10.1233163 C9.27741935,11.6985488 9.34967742,13.5037814 10.1496774,15.2047116 C11.0178065,16.9789209 12.4614194,18.379514 14.2270968,19.1601767 C16.3509677,20.1336651 18.763871,20.2138977 20.6787097,19.3714558 C22.0036129,18.8397814 23.0487742,17.7515605 23.556129,16.376107 C23.8018065,15.6623047 23.9089032,14.9051767 23.8709677,14.1483163 C23.6129032,9.93075814 20.1058065,6.58773388 15.8116129,6.58773388" id="Fill-9"></path>
                        <path d="M22.0798968,12.9153291 C21.8522839,13.5817942 21.3709935,14.1220267 20.7485419,14.4103291 C20.2349935,14.6550384 19.6749935,14.7775267 19.1095742,14.7687012 C18.480671,14.7628174 17.8571871,14.6443407 17.2672516,14.4183523 C16.1131871,13.9813523 15.1813161,13.0752593 14.6866065,11.9097477 C14.3392516,11.1536895 14.3103484,10.2818291 14.6063484,9.50277093 C15.3805419,7.66544535 17.3730581,7.13056163 19.656671,8.13881744 C21.5198968,8.94916628 22.6502194,11.1849802 22.0798968,12.9153291 M19.6257032,7.98102674 C18.8362839,7.61329419 17.9831226,7.41431744 17.1175742,7.39532907 C15.6337032,7.39532907 14.4595097,8.10939884 13.8788645,9.46532907 C13.5493161,10.3313058 13.5828645,11.3005151 13.9715097,12.1397477 C14.5457032,13.4825733 15.6228645,14.5245267 16.9549935,15.0254453 C18.4102194,15.5605965 19.8685419,15.5737012 20.9598968,15.0254453 C21.6435097,14.7106663 22.1722839,14.1188174 22.4231226,13.3887012 C23.0608,11.4497477 21.7547355,8.93044535 19.6257032,7.98102674" id="Fill-11"></path>
                        <path d="M20.8155355,19.7058651 C19.8591484,20.1147837 18.8333419,20.3215163 17.7987613,20.3129581 C16.5208258,20.3084116 15.2581161,20.0289349 14.0901161,19.4916442 C12.2496,18.6764814 10.7448258,17.2154465 9.84005161,15.3652837 C9.28005161,14.218493 9.0539871,12.9278186 9.18972903,11.6502488 C9.20701935,11.5077023 9.22843871,11.3667605 9.25424516,11.2279581 L9.25424516,11.2036209 C9.27747097,11.0835395 9.30585806,10.9631907 9.33682581,10.8425744 L9.36263226,10.7438884 C9.38843871,10.6449349 9.41940645,10.5486558 9.45037419,10.4521093 L9.48392258,10.3507488 C9.52779355,10.2250512 9.57424516,10.1017605 9.62843871,9.97873721 C9.68263226,9.85571395 9.73940645,9.7326907 9.79876129,9.6126093 C9.97476129,9.26921395 10.1830194,8.94507442 10.4206968,8.64446977 C10.765471,8.20853953 11.1665032,7.82422558 11.6129548,7.50249302 C11.6581161,7.1879814 11.6805677,6.87079535 11.6800516,6.55280698 C11.7045677,3.10708605 9.02895484,0.293062791 5.70405161,0.2674913 C5.20547097,0.263911628 4.70843871,0.324086047 4.22456774,0.447376744 C4.36753548,0.443097674 4.51050323,0.447644186 4.65295484,0.460748837 C7.17682581,0.698772093 8.99618065,3.56013256 8.70714839,6.83923721 C8.4336,9.96803953 6.32263226,12.364586 3.94585806,12.364586 C3.83385806,12.364586 3.72134194,12.3592372 3.60779355,12.3485395 C3.4619871,12.3340977 3.3172129,12.3108302 3.17424516,12.2787372 C4.72830968,13.0176791 6.5136,13.0305163 8.07747097,12.3135047 C7.52469677,14.1216791 7.24882581,17.2611791 9.53218065,19.9896209 C11.5726968,22.4276209 14.1347613,22.7236791 15.8114065,22.7199349 C19.0805677,22.751493 22.0465032,20.7397953 23.3262452,17.622493 C22.7045677,18.5566674 21.8315355,19.2811674 20.8155355,19.7058651" id="Fill-13"></path>
                    </g>
                </g>
            </g>
        </g>
    </g>
</svg>