<?xml version="1.0" encoding="utf-8"?>
<!-- Generator: Adobe Illustrator 19.0.0, SVG Export Plug-In . SVG Version: 6.00 Build 0)  -->
<svg version="1.1" id="Layer_1" xmlns="http://www.w3.org/2000/svg" xmlns:xlink="http://www.w3.org/1999/xlink" x="0px" y="0px"
	 viewBox="-293 385 24 24" style="enable-background:new -293 385 24 24;" xml:space="preserve">
<style type="text/css">
	.st0{fill:#21A3B8;}
</style>
<title>06A8EC5F-F839-4A2D-AD0C-A9277FC0D20C</title>
<desc>Created with sketchtool.</desc>
<g id="Page-1">
	<g id="icon" transform="translate(-435.000000, -1282.000000)">
		<g id="_x31_2-copy-24" transform="translate(393.000000, 1266.000000)">
			<g id="Waterpolo_x2F_white" transform="translate(42.000000, 16.000000)">
				<g>
					<path id="Fill-1" class="st0" d="M-277.2,394.8c-1,1.2-2.1,2.2-3.4,3c-1.3,0.8-2.7,1.4-4.2,1.7c0.1,0.1,0.2,0.1,0.3,0.1
						c1.5,0.8,3.1,1.1,4.8,0.8c1.8-0.3,3.3-1.2,4.6-2.6c0,0,0.1-0.2,0-0.2C-275.6,396.5-276.2,395.6-277.2,394.8"/>
					<path id="Fill-3" class="st0" d="M-284.8,386c-0.1,0-0.1,0-0.1,0.1c-2.9,1.6-4.4,5.4-3.6,8.6c0,0.1,0.1,0.2,0.2,0.2
						c0.6,0,1.2,0,1.8-0.1c0.5-0.1,1-0.2,1.5-0.3C-286,391.6-286,388.8-284.8,386"/>
					<path id="Fill-5" class="st0" d="M-278.4,394c-0.7-0.3-1.4-0.5-2.1-0.6c-0.2,0-0.3,0-0.5,0.2c-1.6,1.4-3.4,2.3-5.5,2.5
						c-0.5,0.1-0.9,0.1-1.4,0.1c0.4,0.7,0.8,1.4,1.4,1.9c0,0,0.1,0,0.2,0c2.5-0.3,4.6-1.3,6.5-2.9
						C-279.3,394.9-278.8,394.5-278.4,394"/>
					<path id="Fill-7" class="st0" d="M-280.8,390c0,0.7,0,1.3,0.2,1.9c0,0.2,0.1,0.2,0.3,0.2c2,0.2,3.6,1,4.9,2.5
						c0.5,0.5,0.8,1.1,1.2,1.7c0,0,0,0,0,0c0.4-0.7,0.6-1.5,0.8-2.4c0-0.1,0-0.2-0.1-0.3c-1.3-1.6-2.9-2.7-4.9-3.3
						C-279.2,390.1-279.9,390-280.8,390"/>
					<path id="Fill-9" class="st0" d="M-273.4,391.6C-273.4,391.5-273.4,391.5-273.4,391.6c-0.5-2.9-2.1-4.9-4.7-6
						c-0.1-0.1-0.2,0-0.3,0c-1,0.7-1.7,1.7-2.1,2.8c0,0,0,0.1,0,0.2C-277.8,388.7-275.4,389.7-273.4,391.6"/>
					<path id="Fill-11" class="st0" d="M-269,402.9c0,0.1-0.1,0.3-0.1,0.4c-0.3,0.8-1,1.4-1.9,1.4c-1,0-2,0-3,0
						c-0.5,0-0.9-0.2-1.2-0.4c-0.1-0.1-0.2-0.1-0.3,0c-0.4,0.3-0.8,0.4-1.3,0.4c-0.9,0-1.8,0-2.7,0c-0.5,0-0.9-0.1-1.3-0.4
						c-0.1-0.1-0.2-0.1-0.3,0c-0.4,0.3-0.8,0.4-1.3,0.4c-0.9,0-1.8,0-2.7,0c-0.5,0-0.9-0.1-1.3-0.4c-0.1-0.1-0.2-0.1-0.3,0
						c-0.3,0.3-0.7,0.4-1.2,0.4c-1,0-2,0-3,0c-1.1,0-1.9-0.9-2-1.9c0-0.1,0-0.1,0-0.2h1.4c0.1,0.5,0.3,0.7,0.9,0.7
						c0.8,0,1.7,0,2.5,0c0.5,0,0.7-0.2,0.9-0.7h1.3c0.1,0.2,0.2,0.4,0.3,0.5c0.1,0.1,0.3,0.2,0.5,0.2c0.9,0,1.7,0,2.6,0
						c0.6,0,0.8-0.2,0.9-0.7h1.3c0.1,0.2,0.2,0.4,0.4,0.5c0.2,0.1,0.4,0.1,0.6,0.1c0.8,0,1.6,0,2.4,0c0.6,0,0.8-0.1,0.9-0.7h1.4
						c0.2,0.6,0.4,0.7,1,0.7c0.8,0,1.6,0,2.5,0c0.6,0,0.8-0.1,0.9-0.7h1.3V402.9z"/>
					<path id="Fill-14" class="st0" d="M-269,407.1c0,0.1-0.1,0.3-0.1,0.4c-0.3,0.8-1,1.4-1.9,1.4c-1,0-2,0-3,0
						c-0.5,0-0.9-0.2-1.2-0.4c-0.1-0.1-0.2-0.1-0.3,0c-0.4,0.3-0.8,0.4-1.3,0.4c-0.9,0-1.8,0-2.7,0c-0.5,0-0.9-0.1-1.3-0.4
						c-0.1-0.1-0.2-0.1-0.3,0c-0.4,0.3-0.8,0.4-1.3,0.4c-0.9,0-1.8,0-2.7,0c-0.5,0-0.9-0.1-1.3-0.4c-0.1-0.1-0.2-0.1-0.3,0
						c-0.3,0.3-0.7,0.4-1.2,0.4c-1,0-2,0-3,0c-1.1,0-1.9-0.9-2-1.9c0-0.1,0-0.1,0-0.2h1.4c0.1,0.5,0.3,0.7,0.9,0.7
						c0.8,0,1.7,0,2.5,0c0.5,0,0.7-0.2,0.9-0.7h1.3c0.1,0.2,0.2,0.4,0.3,0.5c0.1,0.1,0.3,0.2,0.5,0.2c0.9,0,1.7,0,2.6,0
						c0.6,0,0.8-0.2,0.9-0.7h1.3c0.1,0.2,0.2,0.4,0.4,0.5c0.2,0.1,0.4,0.1,0.6,0.1c0.8,0,1.6,0,2.4,0c0.6,0,0.8-0.1,0.9-0.7h1.4
						c0.2,0.6,0.4,0.7,1,0.7c0.8,0,1.6,0,2.5,0c0.6,0,0.8-0.1,0.9-0.7h1.3V407.1z"/>
					<path id="Fill-17" class="st0" d="M-280,385.1c-0.2,0.2-0.4,0.4-0.6,0.6c-1.6,2-2,4.2-1.4,6.6c0,0.2,0,0.3-0.1,0.4
						c-0.5,0.4-1,0.8-1.6,1.1c0,0-0.1,0-0.1,0c-0.2-0.7-0.4-1.4-0.5-2.1c-0.4-2.2,0.1-4.4,1.2-6.3c0.1-0.2,0.2-0.3,0.4-0.3
						C-282.2,385.1-280.1,385-280,385.1"/>
					<path id="Fill-20" class="st0" d="M-277.2,394.8c1,0.8,1.6,1.7,2,2.9c0,0.1,0,0.2,0,0.2c-1.2,1.4-2.7,2.2-4.6,2.6
						c-1.7,0.3-3.3,0-4.8-0.8c-0.1,0-0.1-0.1-0.3-0.1c1.5-0.4,2.9-0.9,4.2-1.7C-279.3,396.9-278.2,396-277.2,394.8"/>
					<path id="Fill-22" class="st0" d="M-284.8,386c-1.2,2.8-1.2,5.6-0.1,8.4c-0.5,0.1-1,0.3-1.5,0.3c-0.6,0.1-1.2,0.1-1.8,0.1
						c-0.1,0-0.2,0-0.2-0.2c-0.9-3.2,0.7-7,3.6-8.6C-284.9,386-284.9,386-284.8,386"/>
					<path id="Fill-24" class="st0" d="M-278.4,394c-0.5,0.4-0.9,0.9-1.3,1.3c-1.9,1.6-4.1,2.6-6.5,2.9c-0.1,0-0.2,0-0.2,0
						c-0.6-0.6-1-1.2-1.4-1.9c0.5,0,1-0.1,1.4-0.1c2.1-0.3,3.9-1.1,5.5-2.5c0.1-0.1,0.3-0.2,0.5-0.2
						C-279.8,393.5-279.1,393.7-278.4,394"/>
					<path id="Fill-26" class="st0" d="M-280.8,390c0.8,0,1.6,0.1,2.3,0.3c2,0.6,3.6,1.7,4.9,3.3c0.1,0.1,0.1,0.2,0.1,0.3
						c-0.1,0.8-0.4,1.6-0.8,2.4c0,0,0,0,0,0c-0.4-0.6-0.8-1.2-1.2-1.7c-1.3-1.5-2.9-2.3-4.9-2.5c-0.1,0-0.2-0.1-0.3-0.2
						C-280.7,391.3-280.8,390.6-280.8,390"/>
					<path id="Fill-28" class="st0" d="M-273.4,391.6c-2-1.9-4.4-2.9-7.1-3c0-0.1,0-0.1,0-0.2c0.4-1.1,1.1-2.1,2.1-2.8
						c0.1-0.1,0.2-0.1,0.3,0C-275.5,386.7-273.9,388.7-273.4,391.6C-273.4,391.5-273.4,391.5-273.4,391.6"/>
				</g>
			</g>
		</g>
	</g>
</g>
</svg>
