<?xml version="1.0" encoding="UTF-8"?>
<svg width="24px" height="24px" viewBox="0 0 24 24" version="1.1" xmlns="http://www.w3.org/2000/svg" xmlns:xlink="http://www.w3.org/1999/xlink">
    <!-- Generator: sketchtool 60 (101010) - https://sketch.com -->
    <title>06A8EC5F-F839-4A2D-AD0C-A9277FC0D20C</title>
    <desc>Created with sketchtool.</desc>
    <g id="Page-1" stroke="none" stroke-width="1" fill="none" fill-rule="evenodd">
        <g id="icon" transform="translate(-435.000000, -1282.000000)" fill="#FFFFFF">
            <g id="12-copy-24" transform="translate(393.000000, 1266.000000)">
                <g id="Waterpolo/white" transform="translate(42.000000, 16.000000)">
                    <g>
                        <path d="M15.8038641,9.79146563 C14.8128797,10.9647938 13.6801453,11.949075 12.3850828,12.7425281 C11.0891766,13.5364969 9.69408281,14.0930438 8.16745781,14.446575 C8.28633281,14.5151531 8.35223906,14.5557 8.42034844,14.592075 C9.92062969,15.3920438 11.5088953,15.7111688 13.1950359,15.4274813 C15.0175359,15.1209188 16.5321609,14.2473094 17.7618328,12.8748094 C17.8059891,12.8254969 17.8268484,12.7168875 17.8059422,12.6532313 C17.4302391,11.5107469 16.7690672,10.5650906 15.8038641,9.79146563" id="Fill-1"></path>
                        <path d="M8.18468906,0.991026563 C8.11043906,1.02618281 8.08165781,1.03757344 8.05503281,1.05266719 C5.16068906,2.69615156 3.60781406,6.46124531 4.50186094,9.65455781 C4.54179844,9.79715156 4.61459531,9.84407344 4.74711094,9.83676094 C5.35400156,9.80333906 5.96506406,9.80254219 6.56661094,9.72655781 C7.07220469,9.66276094 7.56673594,9.51149531 8.10640781,9.38985469 C7.02317344,6.56577656 7.02715781,3.79499531 8.18468906,0.991026563" id="Fill-3"></path>
                        <path d="M14.6107031,9.04816875 C13.9184063,8.72468437 13.2380156,8.54918437 12.5248125,8.4820125 C12.3295781,8.4636375 12.1942031,8.508075 12.0456094,8.64054375 C10.4770313,10.0392937 8.6585625,10.9086844 6.56648437,11.1756844 C6.09876563,11.2353562 5.62589063,11.2548094 5.13675,11.2942781 C5.50392188,12.0155906 5.97464063,12.6511219 6.54351563,13.2137625 C6.58504688,13.254825 6.68657813,13.2535594 6.75670313,13.2446062 C9.22532813,12.9305906 11.4041719,11.9564812 13.2888281,10.3370437 C13.7476406,9.94277812 14.1581719,9.4922625 14.6107031,9.04816875" id="Fill-5"></path>
                        <path d="M12.2377734,4.96745625 C12.1978828,5.63701875 12.2805703,6.25769062 12.4471641,6.872175 C12.4913203,7.03506562 12.5753672,7.07326875 12.7241953,7.0878 C14.6828203,7.2792375 16.3282266,8.10803438 17.6203828,9.58651875 C18.0832734,10.1161594 18.4490859,10.7305969 18.8539922,11.2989562 C18.8359922,11.3223937 18.8576953,11.3014875 18.8707266,11.2761281 C19.2565547,10.5284719 19.5092109,9.73684687 19.6281328,8.90514375 C19.6421484,8.80694062 19.5926484,8.67465937 19.5279609,8.59389375 C18.2309297,6.97309687 16.5819141,5.87589375 14.5848047,5.3088 C13.8256641,5.09326875 13.0508203,4.96989375 12.2377734,4.96745625" id="Fill-7"></path>
                        <path d="M19.6036922,6.57564844 C19.6132078,6.53927344 19.6216922,6.52502344 19.6193953,6.51283594 C19.0914891,3.70732031 17.5308797,1.71480469 14.9233172,0.544898438 C14.8024266,0.490664062 14.7122859,0.504773438 14.6063953,0.584132812 C13.6357547,1.31130469 12.9473953,2.24397656 12.5478328,3.38917969 C12.5305828,3.43858594 12.5234109,3.49146094 12.5080359,3.55774219 C15.2376141,3.71936719 17.5993172,4.72113281 19.6036922,6.57564844" id="Fill-9"></path>
                        <path d="M23.9949984,17.9176172 C23.9523891,18.0660234 23.9167641,18.2168672 23.8660453,18.3624141 C23.5782797,19.1876016 22.8367641,19.7338828 21.9654047,19.7426016 C20.9735297,19.7524453 19.9814203,19.7487422 18.9894516,19.7430234 C18.5387016,19.7404453 18.1304203,19.5923672 17.7735141,19.3180078 C17.6654203,19.2349922 17.5949672,19.2148828 17.4747328,19.3106016 C17.0954203,19.6125234 16.6542328,19.7478047 16.1687016,19.7464453 C15.2626547,19.7439141 14.3565609,19.7436328 13.4504672,19.7465391 C12.9648891,19.7480859 12.5247328,19.6126172 12.1438266,19.3123359 C12.0293109,19.2220078 11.9595609,19.2235547 11.8455609,19.3129453 C11.4639047,19.6120078 11.0232797,19.7474766 10.5381234,19.7463516 C9.63985781,19.7441953 8.74159219,19.7433984 7.84337344,19.7466797 C7.34996719,19.7485078 6.90057656,19.6154766 6.51451406,19.3080703 C6.39371719,19.2118828 6.32410781,19.2334453 6.21634219,19.3173047 C5.87420156,19.5835078 5.48101406,19.7362266 5.04765469,19.7403516 C4.04017031,19.7499609 3.03221719,19.7577891 2.02496719,19.7395547 C0.974076563,19.7205703 0.0952171875,18.8733047 0.0022640625,17.8245703 C-0.0024703125,17.7711328 0.0016546875,17.7168984 0.0016546875,17.6497734 L1.38156094,17.6497734 C1.52373281,18.1808672 1.73026406,18.3393984 2.27856094,18.3394453 C3.12217031,18.3395859 3.96573281,18.3396797 4.80934219,18.3394453 C5.33846719,18.3393047 5.55334219,18.1701328 5.68402969,17.6444297 L6.99985781,17.6444297 C7.11962344,17.8344609 7.19701406,18.0436172 7.34565469,18.1668984 C7.47549844,18.2746641 7.68474844,18.3288047 7.86029531,18.3321797 C8.71140469,18.3483047 9.56298281,18.3386016 10.4143734,18.3395859 C10.9648734,18.3402422 11.1697172,18.1842422 11.3115609,17.6445234 L12.6089672,17.6445234 C12.7526859,17.8515703 12.8414672,18.0845859 13.0103578,18.1936641 C13.1834672,18.3053203 13.4342953,18.3289453 13.6522641,18.3331641 C14.4408891,18.3484453 15.2299828,18.3394453 16.0188891,18.3394922 C16.5935297,18.3394922 16.7865609,18.1947422 16.9392797,17.6439609 L18.2911547,17.6439609 C18.4842797,18.2236641 18.6459047,18.3394922 19.2581391,18.3394922 C20.0782641,18.3395391 20.8984359,18.3395391 21.7186078,18.3394922 C22.3097016,18.3394922 22.4887172,18.2083828 22.6652953,17.6363672 L23.9949984,17.6363672 L23.9949984,17.9176172 Z" id="Fill-11"></path>
                        <path d="M23.9949984,22.1363672 C23.9523891,22.2847734 23.9168109,22.4356172 23.8660453,22.5811641 C23.5782797,23.4063516 22.8367641,23.9526328 21.9654047,23.9613516 C20.9735297,23.9712422 19.9814203,23.9675391 18.9894516,23.9617266 C18.5387953,23.9591484 18.1303734,23.8113984 17.7736547,23.5365703 C17.6659359,23.4536016 17.5957172,23.4322266 17.4750609,23.5282734 C17.0957484,23.8301953 16.6542328,23.9658516 16.1690297,23.9649609 C15.2629828,23.9632266 14.3568891,23.9629922 13.4508422,23.9650547 C12.9656859,23.9661797 12.5250609,23.8307109 12.1438266,23.5310391 C12.0291703,23.4408984 11.9595141,23.4423516 11.8455141,23.5317422 C11.4639047,23.8307578 11.0232328,23.9662266 10.5381234,23.9651016 C9.63985781,23.9629453 8.74159219,23.9621016 7.84332656,23.9654297 C7.34996719,23.9672578 6.90057656,23.8342266 6.51451406,23.5268203 C6.39371719,23.4306328 6.32410781,23.4521953 6.21634219,23.5360547 C5.87420156,23.8022578 5.48101406,23.9549766 5.04765469,23.9591016 C4.04017031,23.9687109 3.03221719,23.9765391 2.02496719,23.9583047 C0.974123437,23.9393203 0.0950765625,23.0918203 0.0022640625,22.0432266 C-0.0024703125,21.9897891 0.0016546875,21.9356484 0.0016546875,21.8684766 L1.38160781,21.8684766 C1.52354531,22.3994297 1.73031094,22.5581484 2.27865469,22.5581953 C3.12226406,22.5583359 3.96582656,22.5584297 4.80943594,22.5581953 C5.33846719,22.5580547 5.55320156,22.3889766 5.68407656,21.8631328 L6.99981094,21.8631328 C7.11967031,22.0532578 7.19706094,22.2624141 7.34570156,22.3856953 C7.47554531,22.4934141 7.68479531,22.5475547 7.86034219,22.5509297 C8.71145156,22.5670547 9.56302969,22.5573516 10.4144203,22.5583828 C10.9649203,22.5589922 11.1696234,22.4031328 11.3116078,21.8632734 L12.6089672,21.8632734 C12.7526859,22.0703203 12.8415141,22.3033828 13.0104047,22.4124141 C13.1835141,22.5241172 13.4343422,22.5476953 13.6522641,22.5519141 C14.4408891,22.5671953 15.2299828,22.5581953 16.0188891,22.5582422 C16.5935297,22.5582422 16.7865141,22.4135391 16.9393266,21.8627109 L18.2912016,21.8627109 C18.4842328,22.4423672 18.6459047,22.5582422 19.2581391,22.5582422 C20.0782641,22.5582422 20.8984359,22.5582891 21.7186078,22.5582422 C22.3097016,22.5582422 22.4887172,22.4271328 22.6653422,21.8551172 L23.9949984,21.8551172 L23.9949984,22.1363672 Z" id="Fill-14"></path>
                        <path d="M13.0278047,0.0574828125 C12.8324297,0.274654687 12.6411328,0.467170312 12.4725234,0.677779687 C10.8861797,2.65932656 10.4414297,4.87773281 11.1203672,7.31912344 C11.1692109,7.49471719 11.1447422,7.59231094 11.0054766,7.69163906 C10.4805703,8.06598281 9.95917969,8.44534219 9.43647656,8.82287344 C9.40286719,8.81106094 9.36925781,8.79924844 9.33564844,8.78748281 C9.16197656,8.10413906 8.93585156,7.42923281 8.82424219,6.73585781 C8.46232031,4.48665469 8.87763281,2.37699844 10.0608516,0.422264062 C10.1656172,0.249060937 10.2832266,0.142139062 10.4905078,0.116779687 C10.8059766,0.0781546875 12.8563828,0.0235921875 13.0278047,0.0574828125" id="Fill-17"></path>
                        <path d="M15.8038641,9.79146563 C16.7690672,10.5650906 17.4302391,11.5107469 17.8059422,12.6532313 C17.8268484,12.7168875 17.8059891,12.8254969 17.7618328,12.8748094 C16.5321609,14.2473094 15.0175359,15.1209188 13.1950359,15.4274813 C11.5088953,15.7111688 9.92062969,15.3920438 8.42034844,14.592075 C8.35223906,14.5557 8.28633281,14.5151531 8.16745781,14.446575 C9.69408281,14.0930438 11.0891766,13.5364969 12.3850828,12.7425281 C13.6801453,11.949075 14.8128797,10.9647938 15.8038641,9.79146563" id="Fill-20"></path>
                        <path d="M8.18468906,0.991026563 C7.02715781,3.79499531 7.02317344,6.56577656 8.10640781,9.38985469 C7.56673594,9.51149531 7.07220469,9.66276094 6.56661094,9.72655781 C5.96506406,9.80254219 5.35400156,9.80333906 4.74711094,9.83676094 C4.61459531,9.84407344 4.54179844,9.79715156 4.50186094,9.65455781 C3.60781406,6.46124531 5.16068906,2.69615156 8.05503281,1.05266719 C8.08165781,1.03757344 8.11043906,1.02618281 8.18468906,0.991026563" id="Fill-22"></path>
                        <path d="M14.6107031,9.04816875 C14.1581719,9.4922625 13.7476406,9.94277812 13.2888281,10.3370437 C11.4041719,11.9564812 9.22532813,12.9305906 6.75670313,13.2446062 C6.68657813,13.2535594 6.58504688,13.254825 6.54351563,13.2137625 C5.97464063,12.6511219 5.50392188,12.0155906 5.13675,11.2942781 C5.62589063,11.2548094 6.09876563,11.2353562 6.56648437,11.1756844 C8.6585625,10.9086844 10.4770313,10.0392937 12.0456094,8.64054375 C12.1942031,8.508075 12.3295781,8.4636375 12.5248125,8.4820125 C13.2380156,8.54918437 13.9184063,8.72468437 14.6107031,9.04816875" id="Fill-24"></path>
                        <path d="M12.2377734,4.96745625 C13.0508203,4.96989375 13.8256641,5.09326875 14.5848047,5.3088 C16.5819141,5.87589375 18.2309297,6.97309687 19.5279609,8.59389375 C19.5926484,8.67465937 19.6421484,8.80694062 19.6281328,8.90514375 C19.5092109,9.73684687 19.2565547,10.5284719 18.8707266,11.2761281 C18.8576953,11.3014875 18.8359922,11.3223937 18.8539922,11.2989562 C18.4490859,10.7305969 18.0832734,10.1161594 17.6203828,9.58651875 C16.3282266,8.10803438 14.6828203,7.2792375 12.7241953,7.0878 C12.5753672,7.07326875 12.4913203,7.03506562 12.4471641,6.872175 C12.2805703,6.25769062 12.1978828,5.63701875 12.2377734,4.96745625" id="Fill-26"></path>
                        <path d="M19.6036922,6.57564844 C17.5993172,4.72113281 15.2376141,3.71936719 12.5080359,3.55774219 C12.5234109,3.49146094 12.5305828,3.43858594 12.5478328,3.38917969 C12.9473953,2.24397656 13.6357547,1.31130469 14.6063953,0.584132812 C14.7122859,0.504773438 14.8024266,0.490664062 14.9233172,0.544898438 C17.5308797,1.71480469 19.0914891,3.70732031 19.6193953,6.51283594 C19.6216922,6.52502344 19.6132078,6.53927344 19.6036922,6.57564844" id="Fill-28"></path>
                    </g>
                </g>
            </g>
        </g>
    </g>
</svg>