<?xml version="1.0" encoding="utf-8"?>
<!-- Generator: Adobe Illustrator 19.0.0, SVG Export Plug-In . SVG Version: 6.00 Build 0)  -->
<svg version="1.1" id="Layer_1" xmlns="http://www.w3.org/2000/svg" xmlns:xlink="http://www.w3.org/1999/xlink" x="0px" y="0px"
	 viewBox="-293 385 24 24" style="enable-background:new -293 385 24 24;" xml:space="preserve">
<style type="text/css">
	.st0{fill:#509BFF;}
</style>
<title>B5BBBC25-1648-47AD-99CA-1E0BF577DFFF</title>
<desc>Created with sketchtool.</desc>
<g id="Page-1">
	<g id="icon" transform="translate(-427.000000, -1346.000000)">
		<g id="_x31_2-copy-25" transform="translate(393.000000, 1330.000000)">
			<g id="Alpine-skiing_x2F_white" transform="translate(34.000000, 16.000000)">
				<g id="Shape">
					<path class="st0" d="M-270,388.1c-0.8-1.3-1.7-2.1-2.5-2.1c-0.1,0-0.1,0-0.2,0c-0.5,0.1-0.8,0.5-0.8,1v3c0,0.4,0.2,0.7,0.5,0.8
						v14.2c-0.6,0.1-1,0.5-1,0.9c0,0.5,0.4,0.8,1,0.9v1.6c0,0.3,0.2,0.5,0.5,0.5s0.5-0.2,0.5-0.5v-1.6c0.6-0.1,1-0.5,1-0.9
						c0-0.5-0.4-0.8-1-0.9v-12.6c0.4,0.4,0.9,0.6,1.5,0.6c0,0,0,0,0,0c0.5,0,1-0.2,1.2-0.7C-268.7,391.3-269.3,389.4-270,388.1z
						 M-270.2,391.8c-0.1,0.1-0.1,0.2-0.4,0.2c-0.3,0-0.6-0.1-0.8-0.3c-0.2-0.2-0.4-0.6-0.5-0.9c0.2-0.2,0.3-0.4,0.3-0.7v-2.4
						c0.2,0.3,0.4,0.6,0.7,0.9C-270.2,389.8-269.8,391.3-270.2,391.8z"/>
					<path class="st0" d="M-289,405.1v-14.2c0.3-0.2,0.5-0.5,0.5-0.8v-3c0-0.5-0.3-0.9-0.8-1c-0.1,0-0.1,0-0.2,0
						c-0.8,0-1.8,0.8-2.5,2.1c-0.8,1.3-1.3,3.2-0.7,4.3c0.3,0.4,0.7,0.7,1.2,0.7c0,0,0,0,0,0c0.6,0,1.1-0.2,1.5-0.6v12.6
						c-0.6,0.1-1,0.5-1,0.9s0.4,0.8,1,0.9v1.6c0,0.3,0.2,0.5,0.5,0.5c0.3,0,0.5-0.2,0.5-0.5v-1.6c0.6-0.1,1-0.5,1-0.9
						S-288.4,405.2-289,405.1z M-290.7,391.7c-0.2,0.2-0.5,0.3-0.8,0.3c0,0,0,0,0,0c-0.2,0-0.3-0.1-0.4-0.2c-0.3-0.5,0-2,0.7-3.3
						c0.2-0.4,0.4-0.7,0.7-0.9v2.4c0,0.3,0.1,0.5,0.3,0.7C-290.3,391.1-290.4,391.4-290.7,391.7z"/>
					<path class="st0" d="M-276.9,400.8c-0.6-1.3-1.1-2.3-1.3-2.9c0,0,0,0,0,0c-0.1-0.3-0.3-0.6-0.4-1c0,0,0,0,0,0
						c-0.2-0.5-0.4-1-0.6-1.6c1.3-2.7,2.8-5.9,3.5-7.4c0.2-0.5,0.3-1.1,0.1-1.6c-0.2-0.5-0.6-0.9-1.1-1.1c0,0,0,0,0,0
						c-0.5-0.2-1.1-0.2-1.6,0c-0.5,0.2-0.9,0.6-1.1,1.2c-0.4,1-1,2.6-1.6,4.3c-0.7-1.7-1.3-3.3-1.6-4.3c-0.2-0.5-0.6-0.9-1.1-1.2
						c-0.5-0.2-1.1-0.2-1.6,0c0,0,0,0,0,0c-0.5,0.2-0.9,0.6-1.1,1.1c-0.2,0.5-0.2,1.1,0.1,1.6c0.7,1.5,2.3,4.7,3.5,7.4
						c-0.2,0.6-0.4,1.1-0.6,1.6c0,0,0,0,0,0c-0.2,0.4-0.3,0.7-0.4,1c-0.3,0.6-0.7,1.6-1.3,2.9c0,0,0,0,0,0c-0.9,1.8-1.9,4-2.6,5.3
						c0,0,0,0,0,0c-0.2,0.5-0.3,1.1-0.1,1.6s0.6,0.9,1.1,1.1c0.2,0.1,0.5,0.2,0.8,0.2c0.3,0,0.5-0.1,0.8-0.2
						c0.5-0.2,0.9-0.7,1.1-1.2c0.5-1.4,1.3-3.7,2-5.6l0,0c0.5-1.3,0.8-2.2,1.1-2.8c0.3,0.6,0.6,1.6,1.1,2.8c0.7,1.9,1.5,4.1,2,5.6
						c0.2,0.5,0.6,1,1.1,1.2c0.3,0.1,0.5,0.2,0.8,0.2c0.3,0,0.5-0.1,0.8-0.2c0.5-0.2,0.9-0.6,1.1-1.1c0.2-0.5,0.2-1.1-0.1-1.6
						C-275,404.7-276,402.6-276.9,400.8z M-281.9,398.7c-0.2,0.5-0.6,1.4-1,2.5l-1.1-0.5l0,0c0.5-1.1,0.9-1.9,1.1-2.5c0,0,0,0,0,0
						c0.1-0.2,0.1-0.3,0.2-0.5l1,0.4C-281.8,398.4-281.8,398.5-281.9,398.7z M-278,400.8l-1.1,0.5c-0.4-1.1-0.8-2-1-2.5
						c-0.1-0.2-0.1-0.3-0.2-0.5l1-0.4c0.1,0.2,0.2,0.4,0.2,0.5C-278.9,398.8-278.5,399.7-278,400.8L-278,400.8z"/>
				</g>
			</g>
		</g>
	</g>
</g>
</svg>
