<?xml version="1.0" encoding="UTF-8"?>
<svg width="24px" height="24px" viewBox="0 0 24 24" version="1.1" xmlns="http://www.w3.org/2000/svg" xmlns:xlink="http://www.w3.org/1999/xlink">
    <!-- Generator: sketchtool 60 (101010) - https://sketch.com -->
    <title>B5BBBC25-1648-47AD-99CA-1E0BF577DFFF</title>
    <desc>Created with sketchtool.</desc>
    <g id="Page-1" stroke="none" stroke-width="1" fill="none" fill-rule="evenodd">
        <g id="icon" transform="translate(-427.000000, -1346.000000)" fill="#FFFFFF" fill-rule="nonzero">
            <g id="12-copy-25" transform="translate(393.000000, 1330.000000)">
                <g id="Alpine-skiing/white" transform="translate(34.000000, 16.000000)">
                    <g id="Shape">
                        <path d="M22.9831579,3.06834375 C22.2307368,1.75439062 21.3126082,1.00045312 20.4626901,0.999984375 C20.3935906,0.999984375 20.3278129,1.01409375 20.2680234,1.03945312 C19.8137544,1.1330625 19.464655,1.51776562 19.464655,1.99996875 L19.464655,4.99996875 C19.464655,5.3653125 19.6708772,5.67178125 19.9636959,5.84634375 L19.9636959,20.0551875 C19.3659883,20.1839531 18.9656608,20.5397344 18.9656608,20.9999531 C18.9656608,21.4601719 19.3659883,21.8159531 19.9636959,21.9447187 L19.9636959,23.4999375 C19.9636959,23.7763125 20.1869006,23.9999531 20.4627368,23.9999531 C20.7385731,23.9999531 20.9591111,23.7763125 20.9591111,23.4999375 L20.9591111,21.9447187 C21.5568655,21.8159531 21.9598129,21.4601719 21.9598129,20.9999531 C21.9598129,20.5397344 21.5569123,20.1839531 20.9591111,20.0551875 L20.9591111,7.405875 C21.3616374,7.79179687 21.8627368,7.99579687 22.4500585,7.99996875 C22.454924,7.99996875 22.4597895,7.99996875 22.4637193,7.99996875 C23.0085614,7.99996875 23.4471579,7.76020312 23.7015205,7.32370312 C24.2969825,6.30225 23.7462924,4.40184375 22.9831579,3.06834375 Z M22.8398596,6.81932813 C22.7852632,6.9140625 22.7033918,7.00926562 22.4577778,6.99998438 C22.113731,6.99754688 21.8378947,6.88523438 21.6156725,6.65671875 C21.3837193,6.41878125 21.2335439,6.076875 21.1340819,5.72976563 C21.332117,5.54690625 21.4607251,5.29045312 21.4607251,4.99996875 L21.4607251,2.63639062 C21.684117,2.88665625 21.908538,3.20076562 22.1176608,3.565875 C22.8330292,4.8159375 23.157614,6.27492188 22.8398596,6.81932813 Z"></path>
                        <path d="M3.98975439,20.0552344 L3.98975439,5.84639063 C4.2825731,5.67182813 4.48879532,5.36535938 4.48879532,5.00001563 L4.48879532,2.00001563 C4.48879532,1.51785938 4.13969591,1.13310938 3.6854269,1.0395 C3.62559064,1.01409375 3.55981287,1.00003125 3.49076023,1.00003125 C2.64084211,1.0005 1.72173099,1.7544375 0.970292398,3.06839063 C0.206128655,4.401375 -0.343578947,6.30178125 0.251929825,7.32323438 C0.506339181,7.76025 0.944935673,8.00001562 1.48973099,8.00001562 C1.49361404,8.00001562 1.49847953,8.00001562 1.50339181,8.00001562 C2.09066667,7.99579688 2.59162573,7.79184375 2.99415205,7.40592188 L2.99415205,20.0552813 C2.39644444,20.184 1.99363743,20.5397813 1.99363743,21 C1.99363743,21.4602188 2.39644444,21.816 2.99415205,21.9447656 L2.99415205,23.4999844 C2.99415205,23.7763594 3.21492398,24 3.49071345,24 C3.76654971,24 3.98975439,23.7763594 3.98975439,23.4999844 L3.98975439,21.9447656 C4.58750877,21.816 4.98778947,21.4602188 4.98778947,21 C4.98778947,20.5397813 4.58750877,20.184 3.98975439,20.0552344 Z M2.33773099,6.65671875 C2.11550877,6.88523437 1.83967251,6.99754687 1.49562573,6.99998438 C1.49366082,6.99998438 1.49076023,6.99998438 1.48879532,6.99998438 C1.25192982,6.99998438 1.16814035,6.91307813 1.11354386,6.81932812 C0.795789474,6.274875 1.12037427,4.81542188 1.83574269,3.56592187 C2.04463158,3.20057812 2.2691462,2.88628125 2.49267836,2.63596875 L2.49267836,4.99996875 C2.49267836,5.29045312 2.62128655,5.54690625 2.81932164,5.72976563 C2.71981287,6.07692188 2.56968421,6.41882813 2.33773099,6.65671875 Z"></path>
                        <path d="M16.1198596,15.7948125 C15.4863158,14.4736406 15.0331228,13.4918438 14.771883,12.8776406 C14.771883,12.8771719 14.771883,12.8766563 14.771883,12.8761875 C14.6510877,12.5940938 14.5117661,12.2559375 14.361731,11.8815938 C14.3615906,11.8812656 14.3616842,11.8809844 14.3616842,11.8809844 C14.172117,11.4105 13.9606082,10.8737813 13.7379649,10.3022813 C15.0099649,7.57673438 16.5227602,4.42692188 17.2582456,2.90165625 C17.5009591,2.39779688 17.5282339,1.8114375 17.3323041,1.2924375 C17.1383392,0.776390625 16.7533567,0.37359375 16.2484678,0.159234375 C16.2484678,0.159234375 16.2484678,0.159234375 16.2474854,0.159234375 C15.7406784,-0.0560625 15.1831579,-0.052640625 14.678269,0.1670625 C14.1636491,0.3901875 13.7708538,0.8056875 13.5749708,1.33734375 C13.2158129,2.30990625 12.6205848,3.91598438 11.9665965,5.6570625 C11.3118129,3.91359375 10.7164912,2.30770313 10.3576608,1.336875 C10.161731,0.8056875 9.76898246,0.3901875 9.25436257,0.1670625 C8.74755556,-0.052640625 8.19003509,-0.0560625 7.6851462,0.159234375 C7.68416374,0.159234375 7.68416374,0.159234375 7.68416374,0.159234375 C7.17927485,0.3740625 6.7942924,0.776859375 6.60032749,1.293375 C6.40538012,1.81185938 6.4317193,2.39821875 6.67438596,2.90207813 C7.41160234,4.43029688 8.92617544,7.58273437 10.1952749,10.3013906 C9.97188304,10.8745781 9.76004678,11.4117656 9.57108772,11.8801406 C9.5708538,11.88075 9.57094737,11.8813594 9.57071345,11.8819688 C9.41974269,12.2565 9.28149708,12.5951719 9.16173099,12.8780625 C8.89777778,13.4972813 8.44402339,14.4778125 7.81389474,15.7924219 C7.81333333,15.7935 7.81230409,15.7941094 7.81183626,15.7952344 C6.92977778,17.6373281 5.88397661,19.7454844 5.20364912,21.1081406 C5.20364912,21.1081406 5.20364912,21.1081406 5.20364912,21.1086094 C4.95508772,21.6066094 4.92196491,22.1895469 5.11298246,22.7070938 C5.304,23.2246406 5.68706433,23.6273906 6.19195322,23.8422188 C6.44051462,23.9471719 6.70072515,23.9999962 6.96098246,23.9999962 C7.23097076,23.9999962 7.50194152,23.9432813 7.75826901,23.8299844 C8.26315789,23.6078438 8.6588538,23.1796406 8.84500585,22.6548281 C9.35461988,21.214875 10.1496608,18.9886875 10.8631111,17.0697187 L10.8635322,17.0689687 C11.3410058,15.7849688 11.7089123,14.8357969 11.9664094,14.2192969 C12.2261988,14.8397813 12.5934035,15.7882031 13.069193,17.0685 C13.7826433,18.98775 14.5779649,21.2145469 15.0887018,22.6552969 C15.2738713,23.1796406 15.669614,23.6078438 16.1744561,23.8299844 C16.4307836,23.943375 16.7017544,23.9999962 16.9716959,23.9999962 C17.2319532,23.9999962 17.4921637,23.9472656 17.7407251,23.8423125 C18.2465965,23.6274844 18.629614,23.2237031 18.8206316,22.7062031 C19.0107135,22.1881875 18.9775439,21.6057188 18.7290292,21.1082344 C18.0487018,19.7455781 17.003883,17.6369063 16.1198596,15.7948125 Z M11.1003509,13.70175 C10.8683977,14.2490625 10.5350643,15.1000313 10.1090994,16.2346875 L8.96631579,15.762375 L8.93950877,15.7513125 C9.46095906,14.6576719 9.84397661,13.8242813 10.0798596,13.2696563 C10.0798596,13.2691875 10.0798596,13.2686719 10.0798596,13.2686719 C10.1490526,13.1061094 10.2240936,12.9259219 10.3030643,12.731625 L11.3264561,13.1798438 C11.2436491,13.3678125 11.1676257,13.5426094 11.1003509,13.70175 Z M14.9663626,15.7624219 L13.8235789,16.2347344 C13.3995789,15.1035 13.0672281,14.2525313 12.8323275,13.7013281 C12.7650526,13.5426563 12.6890292,13.3678594 12.6071579,13.1798906 L13.6295673,12.7316719 C13.7094737,12.9264844 13.7845614,13.1071406 13.8537544,13.2697031 C14.0876725,13.8209063 14.4697544,14.6543438 14.9931228,15.7513594 L14.9663626,15.7624219 Z"></path>
                    </g>
                </g>
            </g>
        </g>
    </g>
</svg>