<?xml version="1.0" encoding="utf-8"?>
<!-- Generator: Adobe Illustrator 19.0.0, SVG Export Plug-In . SVG Version: 6.00 Build 0)  -->
<svg version="1.1" id="Layer_1" xmlns="http://www.w3.org/2000/svg" xmlns:xlink="http://www.w3.org/1999/xlink" x="0px" y="0px"
	 viewBox="-293 385 24 24" style="enable-background:new -293 385 24 24;" xml:space="preserve">
<style type="text/css">
	.st0{fill:#00B4D8;}
</style>
<title>9E80A81C-EEC1-4D1B-B05A-693B4785DCEB</title>
<desc>Created with sketchtool.</desc>
<g id="Page-1">
	<g id="icon" transform="translate(-140.000000, -2033.000000)">
		<g id="_x2D_57" transform="translate(83.000000, 2017.000000)">
			<g id="Sailing" transform="translate(57.000000, 16.000000)">
				<g id="Path">
					<path class="st0" d="M-285.9,387.3c0,0-2.3,13.3-5.5,16.4h5.5V387.3z"/>
					<path class="st0" d="M-271,403.8l-13.6-16.4c0,0,2.1,12.9,0,16.4H-271z"/>
					<path class="st0" d="M-285,404.8C-285,404.8-285,404.8-285,404.8l0-19.2c0-0.2-0.1-0.4-0.2-0.4c-0.1,0-0.2,0.2-0.2,0.4v19.1
						c0,0,0,0,0,0h-7.4v0.5h23.8v-0.5H-285z"/>
					<polygon class="st0" points="-290.7,408.7 -271,408.7 -269.1,405.6 -292.9,405.6 					"/>
				</g>
			</g>
		</g>
	</g>
</g>
</svg>
