<?xml version="1.0" encoding="UTF-8"?>
<svg width="24px" height="24px" viewBox="0 0 24 24" version="1.1" xmlns="http://www.w3.org/2000/svg" xmlns:xlink="http://www.w3.org/1999/xlink">
    <!-- Generator: sketchtool 60 (101010) - https://sketch.com -->
    <title>9E80A81C-EEC1-4D1B-B05A-693B4785DCEB</title>
    <desc>Created with sketchtool.</desc>
    <g id="Page-1" stroke="none" stroke-width="1" fill="none" fill-rule="evenodd">
        <g id="icon" transform="translate(-140.000000, -2033.000000)" fill="#FFFFFF" fill-rule="nonzero">
            <g id="-57" transform="translate(83.000000, 2017.000000)">
                <g id="Sailing" transform="translate(57.000000, 16.000000)">
                    <g id="Path">
                        <path d="M7.06887805,2.31428571 C7.06887805,2.31428571 4.81258537,15.6348571 1.55912195,18.7637143 L7.06887805,18.7637143 L7.06887805,2.31428571 Z"></path>
                        <path d="M22.0442927,18.7637143 L8.43541463,2.31428571 C8.43541463,2.31428571 10.5219512,15.1651429 8.43541463,18.7637143 L22.0442927,18.7637143 Z"></path>
                        <path d="M7.97209756,19.7914286 C7.97297561,19.7782857 7.97473171,19.7651429 7.97473171,19.7514286 L7.97473171,0.614 C7.97473171,0.416857143 7.87258537,0.257428571 7.74702439,0.257428571 C7.62029268,0.257428571 7.51814634,0.416857143 7.51814634,0.614 L7.51814634,19.7517143 C7.51814634,19.7654286 7.51990244,19.7782857 7.52078049,19.7917143 L0.0913170732,19.7917143 L0.0913170732,20.2657143 L23.9086829,20.2657143 L23.9086829,19.7914286 L7.97209756,19.7914286 Z"></path>
                        <polygon points="2.25629268 23.7425714 22.0442927 23.7425714 23.9086829 20.6305714 0.0913170732 20.6305714"></polygon>
                    </g>
                </g>
            </g>
        </g>
    </g>
</svg>