<?xml version="1.0" encoding="utf-8"?>
<!-- Generator: Adobe Illustrator 19.0.0, SVG Export Plug-In . SVG Version: 6.00 Build 0)  -->
<svg version="1.1" id="Layer_1" xmlns="http://www.w3.org/2000/svg" xmlns:xlink="http://www.w3.org/1999/xlink" x="0px" y="0px"
	 viewBox="-293 385 24 24" style="enable-background:new -293 385 24 24;" xml:space="preserve">
<style type="text/css">
	.st0{fill:#52B788;}
</style>
<title>350FEDB4-A650-4DAF-962C-3D186C4C9949</title>
<desc>Created with sketchtool.</desc>
<g id="Page-1">
	<g id="icon" transform="translate(-446.000000, -1841.000000)">
		<g id="_x2D_58" transform="translate(393.000000, 1825.000000)">
			<g id="hurling" transform="translate(53.000000, 16.000000)">
				<g id="Path">
					<path class="st0" d="M-281,403.3c-1.5,0-2.8,1.3-2.8,2.8c0,1.5,1.3,2.8,2.8,2.8s2.8-1.3,2.8-2.8
						C-278.2,404.6-279.5,403.3-281,403.3z"/>
					<path class="st0" d="M-283.8,392.6l-1-1l-2.7,2.7c0.4,0.3,0.8,0.5,1.1,0.9L-283.8,392.6z"/>
					<polygon class="st0" points="-275.3,401.6 -282.8,393.6 -285.3,396.1 -277.2,403.5 					"/>
					<path class="st0" d="M-270.4,408.7l1.2-1.2c0.3-0.3,0.3-0.7,0-1c-0.3-0.3-0.7-0.3-1,0l-0.2,0.2l-3.9-4.1l-1.8,1.8l4.7,4.3
						C-271.1,409-270.7,409-270.4,408.7z"/>
					<path class="st0" d="M-292.1,391.9c0.2,0.2,0.5,0.4,0.7,0.5c0.8,0.3,1.7,0.7,2.6,1.2l3.1-3.1c-0.4-0.7-0.4-1.7-0.1-2.5
						c0.3-0.8,0.2-1.4-0.4-2c-1.4-1.4-3.8-1.1-5.4,0.5C-293.2,388-293.4,390.5-292.1,391.9z"/>
					<polygon class="st0" points="-280,394.5 -277.7,397 -276.7,396.1 -279.2,393.6 					"/>
					<path class="st0" d="M-274.5,394.3l-2.7-2.7l-1,1l2.6,2.6C-275.3,394.8-274.9,394.5-274.5,394.3z"/>
					<path class="st0" d="M-270.7,392.3c0.2-0.1,0.5-0.3,0.7-0.5c1.4-1.4,1.1-3.8-0.5-5.5c-1.6-1.6-4.1-1.9-5.4-0.5
						c-0.6,0.6-0.7,1.3-0.4,2c0.4,0.8,0.3,1.8-0.1,2.5l3.1,3.1C-272.4,393.1-271.4,392.6-270.7,392.3z"/>
					<polygon class="st0" points="-282,401 -284.2,399 -286.7,401.6 -284.8,403.5 					"/>
					<path class="st0" d="M-291.6,408.7c0.3,0.3,0.7,0.3,1,0l4.7-4.3l-1.8-1.8l-3.9,4.1l-0.2-0.2c-0.3-0.3-0.7-0.3-1,0
						c-0.3,0.3-0.3,0.7,0,1L-291.6,408.7z"/>
				</g>
			</g>
		</g>
	</g>
</g>
</svg>
