<?xml version="1.0" encoding="UTF-8"?>
<svg width="24px" height="24px" viewBox="0 0 24 24" version="1.1" xmlns="http://www.w3.org/2000/svg" xmlns:xlink="http://www.w3.org/1999/xlink">
    <!-- Generator: sketchtool 60 (101010) - https://sketch.com -->
    <title>350FEDB4-A650-4DAF-962C-3D186C4C9949</title>
    <desc>Created with sketchtool.</desc>
    <g id="Page-1" stroke="none" stroke-width="1" fill="none" fill-rule="evenodd">
        <g id="icon" transform="translate(-446.000000, -1841.000000)" fill="#FFFFFF" fill-rule="nonzero">
            <g id="-58" transform="translate(393.000000, 1825.000000)">
                <g id="hurling" transform="translate(53.000000, 16.000000)">
                    <g id="Path">
                        <path d="M12,18.3392281 C10.4548949,18.3392281 9.19844358,19.5981287 9.19844358,21.1462456 C9.19844358,22.6943626 10.4548949,23.9532632 12,23.9532632 C13.5451051,23.9532632 14.8015564,22.6943626 14.8015564,21.1462456 C14.8015564,19.5981287 13.5451051,18.3392281 12,18.3392281 Z"></path>
                        <path d="M9.21735409,7.58465497 L8.25688716,6.56219883 L5.53349416,9.29090058 C5.92174319,9.54891228 6.29528405,9.8402807 6.65785214,10.1492398 L9.21735409,7.58465497 Z"></path>
                        <polygon points="17.6995798 16.6148772 10.177821 8.60725146 7.70764202 11.0822456 15.8228171 18.4952982"></polygon>
                        <path d="M22.56,23.7477427 L23.7482335,22.557193 C24.0217588,22.2831345 24.0217588,21.8388304 23.7482335,21.5647719 C23.4746615,21.2906667 23.0312685,21.2907135 22.7577432,21.5647719 L22.548607,21.7742222 L18.6600467,17.6373333 L16.8591595,19.4418246 L21.5904747,23.7678596 C21.8668482,24.0225497 22.2945058,24.0137076 22.56,23.7477427 Z"></path>
                        <path d="M0.941603113,6.85122807 C1.16988327,7.07995322 1.41072374,7.24467836 1.65688716,7.34021053 C2.44305058,7.64533333 3.38736187,8.06938012 4.29063035,8.5514386 L7.38499611,5.45104094 C7.02798444,4.72126316 6.95458366,3.78549708 7.30776654,2.94119298 C7.62835798,2.17211696 7.49005447,1.5034386 6.88454475,0.896654971 C5.51925292,-0.471391813 3.07545525,-0.248888889 1.4368249,1.39284211 C-0.201758755,3.0345731 -0.423782101,5.48318129 0.941603113,6.85122807 Z"></path>
                        <polygon points="12.9615875 9.52332164 15.2879533 11.9997661 16.2924047 11.0822456 13.8221323 8.60715789"></polygon>
                        <path d="M18.4665525,9.29090058 L15.7431595,6.56219883 L14.7826926,7.58465497 L17.3421946,10.1492398 C17.7048093,9.8402807 18.0783035,9.54895906 18.4665525,9.29090058 Z"></path>
                        <path d="M22.3431595,7.34016374 C22.589323,7.24463158 22.8301634,7.07990643 23.0584436,6.85118129 C24.4238288,5.4831345 24.2018054,3.03452632 22.5632685,1.39279532 C20.9245914,-0.248888889 18.4807471,-0.471391813 17.1154553,0.896561404 C16.5099455,1.50329825 16.371642,2.17202339 16.6922335,2.94109942 C17.0454163,3.78540351 16.9720623,4.72121637 16.6150039,5.45094737 L19.7093696,8.55134503 C20.6126848,8.06938012 21.5570428,7.64533333 22.3431595,7.34016374 Z"></path>
                        <polygon points="10.9603891 15.9528889 8.78703502 13.9676257 6.30046693 16.6148772 8.17722957 18.4952982"></polygon>
                        <path d="M1.44004669,23.7477427 C1.70549416,24.0137076 2.13315175,24.0225497 2.40957198,23.7678596 L7.14088716,19.4418246 L5.34,17.6373333 L1.45143969,21.7742222 L1.2423035,21.5647719 C0.96877821,21.2907135 0.525431907,21.2906667 0.25181323,21.5647719 C-0.0217120623,21.8388304 -0.0217120623,22.2831345 0.25181323,22.557193 L1.44004669,23.7477427 Z"></path>
                    </g>
                </g>
            </g>
        </g>
    </g>
</svg>