<?xml version="1.0" encoding="UTF-8"?>
<svg width="24px" height="24px" viewBox="0 0 24 24" version="1.1" xmlns="http://www.w3.org/2000/svg" xmlns:xlink="http://www.w3.org/1999/xlink">
    <!-- Generator: sketchtool 60 (101010) - https://sketch.com -->
    <title>3C4F6891-D6C0-4C52-9722-12E222D43B3D</title>
    <desc>Created with sketchtool.</desc>
    <g id="Page-1" stroke="none" stroke-width="1" fill="none" fill-rule="evenodd">
        <g id="icon" transform="translate(-149.000000, -578.000000)" fill="#FFFFFF" fill-rule="nonzero">
            <g id="9" transform="translate(83.000000, 562.000000)">
                <g id="golf" transform="translate(66.000000, 16.000000)">
                    <path d="M12,17.5712 C9.7044,17.5712 7.5668,17.7472 5.7428,18.0464 L5.7428,4.6356 L13.6932,2.4672 L5.7428,0 L4.8596,0 L4.8596,18.2064 C1.916,18.792 0,19.728 0,20.7852 C0,22.5604 5.3728,24 12,24 C18.6272,24 24,22.5604 24,20.7852 C24,19.01 18.6272,17.5712 12,17.5712 Z M7.1416,21.8316 C6.1252,21.8316 5.3012,21.3628 5.3012,20.7852 C5.3012,20.2084 6.1252,19.7396 7.1416,19.7396 C8.158,19.7396 8.9816,20.2084 8.9816,20.7852 C8.9816,21.3628 8.1576,21.8316 7.1416,21.8316 Z"></path>
                </g>
            </g>
        </g>
    </g>
</svg>