<?xml version="1.0" encoding="utf-8"?>
<!-- Generator: Adobe Illustrator 19.0.0, SVG Export Plug-In . SVG Version: 6.00 Build 0)  -->
<svg version="1.1" id="Layer_1" xmlns="http://www.w3.org/2000/svg" xmlns:xlink="http://www.w3.org/1999/xlink" x="0px" y="0px"
	 viewBox="-293 385 24 23" style="enable-background:new -293 385 24 23;" xml:space="preserve">
<style type="text/css">
	.st0{fill:#70C1B3;}
</style>
<title>4DC52D80-8CA7-4919-9905-14E134576BBA</title>
<desc>Created with sketchtool.</desc>
<g id="Page-1">
	<g id="icon" transform="translate(-430.000000, -643.000000)">
		<g id="_x32_2" transform="translate(393.000000, 626.000000)">
			<g id="skier" transform="translate(37.000000, 17.000000)">
				<g>
					<ellipse id="Oval" class="st0" cx="-271.5" cy="387.6" rx="2.4" ry="2.4"/>
					<path id="Path" class="st0" d="M-275.2,398.5c-0.6,0.1-0.9,0.7-0.8,1.3c0.2,0.9-0.3,1.9-1.3,2.1l-8.5,2.2
						c0.1-0.1,0.1-0.1,0.1-0.2l3.8-6l6.5-4.8c0.9-0.7,1.1-2,0.4-2.9c-0.5-0.7-1.3-0.9-2.2-0.8c-0.1,0-9,1.8-9,1.8
						c-0.7,0.1-1.2,0.8-1,1.5c0.1,0.6,0.7,1,1.3,1c0.1,0,0.2,0,0.3,0l3.1-0.6l-2.3,1.7c-0.2,0.2-0.4,0.4-0.5,0.6l-4,6.4
						c-0.6,1-0.3,2.3,0.7,2.9c0.1,0.1,0.2,0.1,0.3,0.2l-4,1c-0.6,0.1-0.9,0.7-0.8,1.3c0.1,0.5,0.5,0.8,1,0.8c0.1,0,0.2,0,0.3,0
						l15-3.8c2-0.5,3.3-2.6,2.8-4.7C-274.1,398.7-274.7,398.4-275.2,398.5z"/>
				</g>
			</g>
		</g>
	</g>
</g>
</svg>
