<?xml version="1.0" encoding="UTF-8"?>
<svg width="24px" height="23px" viewBox="0 0 24 23" version="1.1" xmlns="http://www.w3.org/2000/svg" xmlns:xlink="http://www.w3.org/1999/xlink">
    <!-- Generator: sketchtool 60 (101010) - https://sketch.com -->
    <title>4DC52D80-8CA7-4919-9905-14E134576BBA</title>
    <desc>Created with sketchtool.</desc>
    <g id="Page-1" stroke="none" stroke-width="1" fill="none" fill-rule="evenodd">
        <g id="icon" transform="translate(-430.000000, -643.000000)" fill="#FFFFFF" fill-rule="nonzero">
            <g id="22" transform="translate(393.000000, 626.000000)">
                <g id="skier" transform="translate(37.000000, 17.000000)">
                    <g>
                        <ellipse id="Oval" cx="21.4638261" cy="2.56293182" rx="2.4333913" ry="2.438"></ellipse>
                        <path d="M17.7735652,13.5156364 C17.2147826,13.6572955 16.8756522,14.2255 17.0186087,14.7858636 C17.2544348,15.7168409 16.6904348,16.6666364 15.7617391,16.9023864 L7.21617391,19.0769318 C7.26886957,19.0115909 7.31895652,18.9436364 7.36486957,18.8704545 L11.1370435,12.8470682 L17.6765217,8.03379545 C18.6052174,7.35006818 18.8055652,6.04115909 18.1226087,5.11070455 C17.6107826,4.41234091 16.812,4.1745 15.9558261,4.31459091 C15.8744348,4.32765909 6.98973913,6.11277273 6.98973913,6.11277273 C6.28382609,6.25652273 5.82782609,6.94652273 5.97078261,7.65377273 C6.09652174,8.27320455 6.64017391,8.70079545 7.248,8.70079545 C7.33408696,8.70079545 7.42121739,8.69190909 7.50886957,8.67465909 L10.6153043,8.04268182 L8.34521739,9.71331818 C8.1333913,9.86909091 7.95286957,10.0640682 7.81304348,10.2872727 L3.82904348,16.6483409 C3.21652174,17.6263636 3.51130435,18.9169773 4.48747826,19.5306591 C4.58973913,19.5949545 4.69617391,19.6461818 4.80365217,19.6911364 L0.786782609,20.7130682 C0.228,20.8547273 -0.109565217,21.4234545 0.0323478261,21.9838182 C0.152347826,22.4568864 0.577043478,22.7726136 1.04295652,22.7726136 C1.128,22.7726136 1.2146087,22.7616364 1.30069565,22.7402045 L16.2756522,18.9300455 C18.3193043,18.4094091 19.5605217,16.3205909 19.041913,14.2725455 C18.9,13.7116591 18.3302609,13.3729318 17.7735652,13.5156364 Z" id="Path"></path>
                    </g>
                </g>
            </g>
        </g>
    </g>
</svg>