<?xml version="1.0" encoding="utf-8"?>
<!-- Generator: Adobe Illustrator 19.0.0, SVG Export Plug-In . SVG Version: 6.00 Build 0)  -->
<svg version="1.1" id="Layer_1" xmlns="http://www.w3.org/2000/svg" xmlns:xlink="http://www.w3.org/1999/xlink" x="0px" y="0px"
	 viewBox="-294 385 22 24" style="enable-background:new -294 385 22 24;" xml:space="preserve">
<style type="text/css">
	.st0{fill:#D99B84;}
</style>
<title>6E513F68-348B-4D02-8A5D-813FC38D101F</title>
<desc>Created with sketchtool.</desc>
<g id="Page-1">
	<g id="icon" transform="translate(-452.000000, -1410.000000)">
		<g id="_x31_2-copy-26" transform="translate(393.000000, 1394.000000)">
			<g id="Bandy_x2F_white" transform="translate(59.000000, 16.000000)">
				<g id="Shape">
					<path class="st0" d="M-277.9,385.5l-3.3,9h5.9l3.3-9H-277.9z M-281.9,396.2l-0.6,1.6h5.9l0.6-1.6H-281.9z M-283.1,399.5
						l-0.6,1.6h-3.1l-2.7,7.4h5.5c1.4,0,2.6-0.5,3.4-1.2c0.8-0.7,1.3-1.7,1.5-2.6l0,0l1.9-5.2L-283.1,399.5z M-290.3,401.1
						c-2.1,0-3.7,1.7-3.7,3.7c0,1.7,1.2,3.1,2.8,3.6l2.7-7.3H-290.3z"/>
				</g>
			</g>
		</g>
	</g>
</g>
</svg>
