<?xml version="1.0" encoding="UTF-8"?>
<svg width="22px" height="24px" viewBox="0 0 22 24" version="1.1" xmlns="http://www.w3.org/2000/svg" xmlns:xlink="http://www.w3.org/1999/xlink">
    <!-- Generator: sketchtool 60 (101010) - https://sketch.com -->
    <title>6E513F68-348B-4D02-8A5D-813FC38D101F</title>
    <desc>Created with sketchtool.</desc>
    <g id="Page-1" stroke="none" stroke-width="1" fill="none" fill-rule="evenodd">
        <g id="icon" transform="translate(-452.000000, -1410.000000)" fill="#FFFFFF" fill-rule="nonzero">
            <g id="12-copy-26" transform="translate(393.000000, 1394.000000)">
                <g id="Bandy/white" transform="translate(59.000000, 16.000000)">
                    <g id="Shape">
                        <path d="M16.0654794,0.53332 L12.7356442,9.5690487 L18.6701645,9.5690487 L22,0.53332 L16.0654794,0.53332 Z M12.1308113,11.2118859 L11.5259777,12.8547541 L17.4588723,12.8547541 L18.0653316,11.2118859 L12.1308113,11.2118859 Z M10.9195187,14.4976223 L10.3146852,16.1404595 L7.24336739,16.1404595 L4.51836488,23.53332 L9.98950582,23.53332 C11.4231849,23.53332 12.5879594,23.0355573 13.4055138,22.2867557 C14.2034421,21.5559297 14.675184,20.6215342 14.9338556,19.7069462 L14.9370963,19.6976323 L16.8540334,14.4963495 L10.9195187,14.4976223 Z M3.74606439,16.1404595 C1.68517774,16.1405527 0,17.8032904 0,19.8369053 C0,21.5450946 1.19461152,22.9777184 2.79654125,23.3969654 L5.47114066,16.1404595 L3.74606439,16.1404595 Z"></path>
                    </g>
                </g>
            </g>
        </g>
    </g>
</svg>