<?xml version="1.0" encoding="UTF-8"?>
<svg width="24px" height="24px" viewBox="0 0 24 24" version="1.1" xmlns="http://www.w3.org/2000/svg" xmlns:xlink="http://www.w3.org/1999/xlink">
    <!-- Generator: sketchtool 60 (101010) - https://sketch.com -->
    <title>61A26790-8D8C-4459-B87C-B6603E905ABE</title>
    <desc>Created with sketchtool.</desc>
    <g id="Page-1" stroke="none" stroke-width="1" fill="none" fill-rule="evenodd">
        <g id="icon" transform="translate(-443.000000, -1538.000000)" fill="#FFFFFF" fill-rule="nonzero">
            <g id="12-copy-28" transform="translate(393.000000, 1522.000000)">
                <g id="Baseball/white" transform="translate(50.000000, 16.000000)">
                    <g id="Path">
                        <path d="M22.5105,12.0105 C21.567,12.0105 20.6565,12.147 19.785,12.3825 L20.181,13.176 C20.3655,13.5465 20.2155,13.9965 19.845,14.1825 C19.737,14.2365 19.623,14.2605 19.509,14.2605 C19.2345,14.2605 18.9705,14.1075 18.8385,13.8465 L18.3525,12.873 C17.3595,13.3035 16.4505,13.8855 15.645,14.5845 L16.29,15.2295 C16.5825,15.522 16.5825,15.9975 16.29,16.29 C16.143,16.437 15.951,16.509 15.759,16.509 C15.567,16.509 15.375,16.4355 15.228,16.29 L14.583,15.645 C13.8975,16.434 13.3275,17.3235 12.9,18.2925 L13.884,18.861 C14.2425,19.068 14.3655,19.5255 14.1585,19.8855 C14.019,20.1255 13.767,20.2605 13.509,20.2605 C13.3815,20.2605 13.2525,20.229 13.134,20.16 L12.3945,19.7325 C12.15,20.619 12.009,21.5475 12.009,22.5105 C12.009,23.013 12.057,23.5035 12.126,23.988 C18.648,23.9175 23.916,18.6495 23.988,12.1275 C23.5035,12.0585 23.013,12.0105 22.5105,12.0105 Z"></path>
                        <path d="M13.416,0.087 C13.473,0.555 13.509,1.029 13.509,1.5105 C13.509,2.934 13.2465,4.2945 12.7905,5.562 L13.845,6.09 C14.2155,6.276 14.3655,6.726 14.181,7.0965 C14.049,7.359 13.7835,7.5105 13.509,7.5105 C13.3965,7.5105 13.2825,7.485 13.1745,7.431 L12.1965,6.9435 C11.7345,7.848 11.163,8.6835 10.497,9.438 L11.0415,9.9825 C11.334,10.275 11.334,10.7505 11.0415,11.043 C10.893,11.1885 10.701,11.2605 10.509,11.2605 C10.317,11.2605 10.1265,11.1885 9.9795,11.0415 L9.435,10.497 C8.6805,11.163 7.845,11.736 6.9405,12.1965 L7.4295,13.1745 C7.6155,13.545 7.464,13.995 7.0935,14.181 C6.987,14.2365 6.873,14.2605 6.7605,14.2605 C6.4845,14.2605 6.2205,14.1075 6.0885,13.8465 L5.562,12.792 C4.293,13.2495 2.9325,13.5105 1.509,13.5105 C1.026,13.5105 0.5535,13.473 0.0855,13.4175 C0.7365,18.915 5.097,23.268 10.5975,23.907 C10.545,23.448 10.509,22.9845 10.509,22.5105 C10.509,21.273 10.698,20.0775 11.0475,18.954 L10.134,18.426 C9.7755,18.219 9.6525,17.7615 9.8595,17.4015 C10.0665,17.0415 10.5225,16.917 10.8855,17.127 L11.601,17.541 C12.096,16.4595 12.7455,15.4665 13.524,14.5845 L12.9795,14.0415 C12.687,13.749 12.687,13.2735 12.9795,12.981 C13.272,12.6885 13.7475,12.6885 14.04,12.981 L14.5845,13.5255 C15.504,12.7125 16.545,12.036 17.682,11.5335 L17.3385,10.8465 C17.154,10.476 17.304,10.026 17.6745,9.84 C18.045,9.6555 18.495,9.804 18.681,10.176 L19.0995,11.013 C20.181,10.6905 21.324,10.5105 22.509,10.5105 C22.9815,10.5105 23.4465,10.545 23.9055,10.599 C23.2665,5.0985 18.9135,0.738 13.416,0.087 Z"></path>
                        <path d="M10.845,4.59 L11.442,4.8885 C11.8035,3.8265 12.009,2.694 12.009,1.5105 C12.009,0.996 11.9595,0.495 11.8875,0 C5.346,0.0585 0.057,5.3475 0,11.889 C0.4935,11.961 0.996,12.0105 1.509,12.0105 C2.691,12.0105 3.825,11.805 4.887,11.4435 L4.5885,10.8465 C4.404,10.476 4.554,10.026 4.9245,9.84 C5.295,9.657 5.745,9.8055 5.931,10.176 L6.2715,10.857 C7.032,10.4685 7.737,9.9915 8.376,9.4365 L7.7295,8.7915 C7.437,8.499 7.437,8.0235 7.7295,7.731 C8.022,7.4385 8.4975,7.4385 8.79,7.731 L9.4365,8.3775 C9.9915,7.7385 10.4685,7.0335 10.857,6.273 L10.1745,5.9325 C9.804,5.7465 9.654,5.2965 9.8385,4.926 C10.026,4.5555 10.4745,4.407 10.845,4.59 Z"></path>
                    </g>
                </g>
            </g>
        </g>
    </g>
</svg>