<?xml version="1.0" encoding="UTF-8"?>
<svg width="24px" height="24px" viewBox="0 0 24 24" version="1.1" xmlns="http://www.w3.org/2000/svg" xmlns:xlink="http://www.w3.org/1999/xlink">
    <!-- Generator: sketchtool 60 (101010) - https://sketch.com -->
    <title>B6829948-1975-4D4E-979B-49E26E20EE27</title>
    <desc>Created with sketchtool.</desc>
    <g id="Page-1" stroke="none" stroke-width="1" fill="none" fill-rule="evenodd">
        <g id="icon" transform="translate(-421.000000, -130.000000)" fill="#FFFFFF" fill-rule="nonzero">
            <g id="14" transform="translate(393.000000, 114.000000)">
                <g id="rugby" transform="translate(28.000000, 16.000000)">
                    <g>
                        <path d="M0.395671875,14.9995313 C0.36459375,15.1432031 0.326390625,15.3014062 0.301453125,15.4313437 C-0.32475,18.6894844 0.042609375,21.5671875 1.23801563,22.7619844 C2.0461875,23.5701562 3.62273438,24 5.56729688,24 C6.498375,24 7.51392188,23.9011406 8.56860938,23.6985469 C8.69864063,23.6735625 8.85698438,23.6353594 9.00084375,23.6042344 L0.395671875,14.9995313 Z" id="Path"></path>
                        <path d="M22.7619844,1.2369375 C21.5672344,0.0421875 18.6901875,-0.3238125 15.4313906,0.300328125 C15.3015469,0.3253125 15.1433437,0.363515625 14.9996719,0.394546875 L23.6043281,8.99929688 C23.6354062,8.855625 23.6736094,8.69742187 23.6985469,8.56757813 C24.32475,5.3094375 23.9573906,2.43173437 22.7619844,1.2369375 Z" id="Path"></path>
                        <path d="M13.3867031,0.816890625 C11.1747656,1.50028125 7.8935625,3.19560937 5.35579688,5.73389062 C2.81760937,8.2715625 1.5015,11.174625 0.818015625,13.3866562 L10.6137187,23.1818906 C12.8255625,22.4983125 15.7285312,21.1822969 18.2661094,18.6442031 C20.8043906,16.1064375 22.4986875,12.8242031 23.1820313,10.6122656 L13.3867031,0.816890625 Z M17.590875,11.2956094 C17.4535312,11.4329531 17.273625,11.501625 17.0937656,11.501625 C16.9139062,11.501625 16.7339531,11.4329531 16.5966562,11.2956094 L15.1053281,9.80414062 L14.110875,10.7985937 L15.6023437,12.2899219 C15.8769844,12.5645625 15.8769844,13.0095469 15.6023437,13.2841875 C15.465,13.4215312 15.2850937,13.4902031 15.1052344,13.4902031 C14.925375,13.4902031 14.7454219,13.4215312 14.608125,13.2841875 L13.1166562,11.7928594 L11.7440625,13.1664844 L13.2358125,14.6582344 C13.5104531,14.932875 13.5104531,15.3778594 13.2358125,15.6525 C13.0984687,15.7898437 12.9185625,15.8585156 12.7387031,15.8585156 C12.5588437,15.8585156 12.3788906,15.7898437 12.2415937,15.6525 L10.7498437,14.16075 L9.75534375,15.15525 L11.2466719,16.6467187 C11.5213125,16.9213594 11.5213125,17.3663437 11.2466719,17.6409844 C11.1093281,17.7783281 10.9294219,17.847 10.7495625,17.847 C10.5697031,17.847 10.38975,17.7783281 10.2524531,17.6409844 L8.761125,16.1495156 L7.56079687,17.3498437 C7.42345312,17.4871875 7.24354687,17.5558594 7.0636875,17.5558594 C6.88382812,17.5558594 6.703875,17.4871875 6.56657812,17.3498437 C6.2919375,17.0752031 6.2919375,16.6302187 6.56657812,16.3555781 L7.767,15.1551562 L6.2754375,13.6632656 C6.00079687,13.388625 6.00079687,12.9436406 6.2754375,12.669 C6.55007812,12.3943594 6.9950625,12.3943594 7.26970312,12.669 L8.76126562,14.1608906 L9.75571875,13.1664375 L8.26396875,11.6746875 C7.98932812,11.4000469 7.98932812,10.9550625 8.26396875,10.6804219 C8.53860937,10.4057812 8.98359375,10.4057812 9.25823437,10.6804219 L10.7499844,12.1721719 L12.1224844,10.7986406 L10.6305937,9.30707812 C10.3559531,9.0324375 10.3559531,8.58745312 10.6305937,8.3128125 C10.9052344,8.03817187 11.3502187,8.03817187 11.6248594,8.3128125 L13.11675,9.804375 L14.1113437,8.80978125 L12.6197812,7.31789063 C12.3451406,7.04325 12.3451406,6.59826563 12.6197812,6.323625 C12.8944219,6.04898438 13.3394062,6.04898438 13.6140469,6.323625 L15.1056094,7.81551563 L16.3057031,6.61542188 C16.5803437,6.34078125 17.0253281,6.34078125 17.2999687,6.61542188 C17.5746094,6.8900625 17.5746094,7.33504688 17.2999687,7.6096875 L16.0997812,8.809875 L17.5911094,10.3013437 C17.8655156,10.5759844 17.8655156,11.0209219 17.590875,11.2956094 Z" id="Shape"></path>
                    </g>
                </g>
            </g>
        </g>
    </g>
</svg>