<?xml version="1.0" encoding="utf-8"?>
<!-- Generator: Adobe Illustrator 19.0.0, SVG Export Plug-In . SVG Version: 6.00 Build 0)  -->
<svg version="1.1" id="Layer_1" xmlns="http://www.w3.org/2000/svg" xmlns:xlink="http://www.w3.org/1999/xlink" x="0px" y="0px"
	 viewBox="-293 388 24 17" style="enable-background:new -293 388 24 17;" xml:space="preserve">
<style type="text/css">
	.st0{fill:#5478BF;}
</style>
<title>B7244B77-FABA-4C6E-971C-45B00A589CED</title>
<desc>Created with sketchtool.</desc>
<g id="Page-1">
	<g id="icon" transform="translate(-447.000000, -1606.000000)">
		<g id="_x31_2-copy-29" transform="translate(393.000000, 1586.000000)">
			<g id="curling_x2F_white" transform="translate(54.000000, 20.000000)">
				<g id="Path">
					<path class="st0" d="M-272,394.2h-1.5l-2.2-4.5c-0.5-1-1.5-1.7-2.7-1.7h-8.6c-0.8,0-1.5,0.7-1.5,1.5c0,0.9,0.7,1.5,1.5,1.5h7.5
						v3.1H-290c-1.7,0-3,1.4-3,3.1v0.8h24v-0.8C-269,395.6-270.3,394.2-272,394.2z"/>
					<path class="st0" d="M-293,401.1v0.8c0,1.7,1.3,3.1,3,3.1h18c1.7,0,3-1.4,3-3.1v-0.8H-293z"/>
				</g>
			</g>
		</g>
	</g>
</g>
</svg>
