<?xml version="1.0" encoding="UTF-8"?>
<svg width="24px" height="17px" viewBox="0 0 24 17" version="1.1" xmlns="http://www.w3.org/2000/svg" xmlns:xlink="http://www.w3.org/1999/xlink">
    <!-- Generator: sketchtool 60 (101010) - https://sketch.com -->
    <title>B7244B77-FABA-4C6E-971C-45B00A589CED</title>
    <desc>Created with sketchtool.</desc>
    <g id="Page-1" stroke="none" stroke-width="1" fill="none" fill-rule="evenodd">
        <g id="icon" transform="translate(-447.000000, -1606.000000)" fill="#FFFFFF" fill-rule="nonzero">
            <g id="12-copy-29" transform="translate(393.000000, 1586.000000)">
                <g id="curling/white" transform="translate(54.000000, 20.000000)">
                    <g id="Path">
                        <path d="M21,6.18181818 L19.5,6.18181818 L17.3295,1.70927273 C16.821,0.661454545 15.7815,0 14.646,0 L6,0 C5.172,0 4.5,0.692363636 4.5,1.54545455 C4.5,2.39854545 5.172,3.09090909 6,3.09090909 L13.5,3.09090909 L13.5,6.18181818 L3,6.18181818 C1.3455,6.18181818 0,7.56809091 0,9.27272727 L0,10.0454545 L24,10.0454545 L24,9.27272727 C24,7.56809091 22.6545,6.18181818 21,6.18181818 Z"></path>
                        <path d="M0,13.1363636 L0,13.9090909 C0,15.6137273 1.3455,17 3,17 L21,17 C22.6545,17 24,15.6137273 24,13.9090909 L24,13.1363636 L0,13.1363636 Z"></path>
                    </g>
                </g>
            </g>
        </g>
    </g>
</svg>