<?xml version="1.0" encoding="UTF-8"?>
<svg width="24px" height="24px" viewBox="0 0 24 24" version="1.1" xmlns="http://www.w3.org/2000/svg" xmlns:xlink="http://www.w3.org/1999/xlink">
    <!-- Generator: sketchtool 60 (101010) - https://sketch.com -->
    <title>ACCB04B0-7499-4EFE-B2EB-0F87511AEF5E</title>
    <desc>Created with sketchtool.</desc>
    <g id="Page-1" stroke="none" stroke-width="1" fill="none" fill-rule="evenodd">
        <g id="icon" transform="translate(-144.000000, -386.000000)" fill="#FFFFFF" fill-rule="nonzero">
            <g id="6" transform="translate(83.000000, 370.000000)">
                <g id="darts" transform="translate(61.000000, 16.000000)">
                    <path d="M11.6639825,0.00469746943 C14.9060679,-0.0858745245 18.0468411,1.13650539 20.3707479,3.39334559 C22.6946548,5.65018579 24.0037649,8.74926799 23.999914,11.9845364 C24.0161524,16.2718045 21.7325753,20.2403896 18.0131098,22.3887384 C14.2936442,24.5370872 9.70635577,24.5370872 5.98689021,22.3887384 C2.26742465,20.2403896 -0.0161523832,16.2718045 8.60295319e-05,11.9845364 C-0.00772376966,5.49861539 5.16439753,0.186356154 11.6639825,0.00469746943 Z M12.0236759,1.17283626 L11.6862349,1.17743955 C5.82567161,1.34785782 1.16343816,6.13610025 1.16343816,11.9845364 C1.16343816,17.9558627 6.01625285,22.7965792 12.0025031,22.7965792 C17.9887534,22.7965792 22.8415681,17.9558627 22.8415681,11.9845364 C22.8415681,9.06231745 21.655766,6.26453487 19.5542444,4.22861656 C17.4527228,2.19269825 14.6145062,1.09205124 11.6862349,1.17743955 Z M9.0493934,17.637 C9.89627559,18.0856396 10.8336854,18.336864 11.7914234,18.37186 L11.7914234,18.37186 L11.7914234,22.04604 C10.1887368,22.0090431 8.61828962,21.588258 7.2118102,20.81898 L7.2118102,20.81898 Z M14.9977834,17.637 L16.8337388,20.81898 C15.4273202,21.5882266 13.8569466,22.0090107 12.2543292,22.04604 L12.2543292,22.04604 L12.2543292,18.37186 C13.2125518,18.3370774 14.1504718,18.0858467 14.9977834,17.637 L14.9977834,17.637 Z M6.6406556,15.3979 C7.1500956,16.210085 7.83674925,16.8964369 8.649158,17.40552 L6.8115748,20.58748 C5.44191013,19.7541615 4.29206695,18.6045191 3.4585092,17.235 L6.6406556,15.3979 Z M17.4063176,15.3979 L20.5870396,17.235 C19.7538842,18.6043536 18.6045436,19.7539819 17.2353986,20.58748 L17.2353986,20.58748 L15.3980188,17.40552 C16.2103536,16.8964128 16.8969358,16.2100626 17.4063176,15.3979 L17.4063176,15.3979 Z M11.7914234,12.88696 L11.7914234,17.90852 C10.9151526,17.8739127 10.0576671,17.6440737 9.2815586,17.23578 L11.7914234,12.88696 Z M12.2543292,12.88696 L14.7654148,17.23578 C13.9889374,17.6442489 13.1310154,17.8740931 12.2543292,17.90852 L12.2543292,12.88696 Z M11.3909844,12.65548 L8.8798988,17.00426 C8.13815422,16.5360631 7.51034417,15.9081107 7.0423154,15.16626 L11.3909844,12.65548 Z M12.6559888,12.65548 L17.0046578,15.16626 C16.5366874,15.9080886 15.9089487,16.5360393 15.167278,17.00426 L12.6559888,12.65548 Z M5.674963,12.2545 C5.70992602,13.2123848 5.96118382,14.1499418 6.409915,14.99694 L3.2277686,16.83406 C2.45825187,15.4276588 2.03722311,13.8572273 2,12.2545 L5.674963,12.2545 Z M22.0457516,12.2545 C22.0089042,13.8571258 21.5882963,15.4275513 20.8192056,16.83406 L17.6370584,14.99694 C18.0858603,14.1499586 18.3371879,13.2124007 18.3722138,12.2545 L22.0457516,12.2545 Z M11.1588194,12.2545 L6.8101504,14.76528 C6.40188472,13.9888575 6.17219896,13.1310467 6.1378688,12.2545 L6.1378688,12.2545 L11.1588194,12.2545 Z M17.9091046,12.2545 C17.8743336,13.1311571 17.6441595,13.9889739 17.2353986,14.76528 L17.2353986,14.76528 L12.8867296,12.2545 Z M6.8101504,9.28074 L11.1588194,11.79152 L6.1378688,11.79152 C6.17219896,10.9149733 6.40188472,10.0571625 6.8101504,9.28074 L6.8101504,9.28074 Z M3.2277686,7.21198 L6.409915,9.04908 C5.96118382,9.8960782 5.70992602,10.8336352 5.674963,11.79152 L2,11.79152 C2.03722629,10.1887995 2.45825495,8.61837524 3.2277686,7.21198 Z M17.2353986,9.28074 C17.6441595,10.0570461 17.8743336,10.9148629 17.9091046,11.79152 L17.9091046,11.79152 L12.8867296,11.79152 Z M20.8192056,7.21198 C21.5882932,8.61848274 22.008901,10.188901 22.0457516,11.79152 L22.0457516,11.79152 L18.3722138,11.79152 C18.3371879,10.8336193 18.0858603,9.89606136 17.6370584,9.04908 L17.6370584,9.04908 Z M15.167278,7.04176 C15.9089508,7.50998646 16.5366897,8.1379441 17.0046578,8.87978 L17.0046578,8.87978 L12.6559888,11.39054 Z M8.8798988,7.04176 L11.3909844,11.39054 L7.0423154,8.87978 C7.51034184,8.13792204 8.13815205,7.50996266 8.8798988,7.04176 L8.8798988,7.04176 Z M12.2543292,6.13752 C13.1310154,6.17194687 13.9889374,6.40179106 14.7654148,6.81026 L14.7654148,6.81026 L12.2543292,11.15906 Z M11.7914234,6.13752 L11.7914234,11.15906 L9.2815586,6.81026 C10.0576671,6.40196632 10.9151526,6.17212732 11.7914234,6.13752 L11.7914234,6.13752 Z M17.2353986,3.45856 C18.6045413,4.29205242 19.7538817,5.44167367 20.5870396,6.81102 L17.4063176,8.64812 C16.8969358,7.83595739 16.2103536,7.14960719 15.3980188,6.6405 L17.2353986,3.45856 Z M6.8115748,3.45856 L8.649158,6.6405 C7.83674925,7.14958306 7.1500956,7.83593503 6.6406556,8.64812 L6.6406556,8.64812 L3.4585092,6.81102 C4.29206947,5.4415082 5.44191246,4.29187289 6.8115748,3.45856 L6.8115748,3.45856 Z M12.2543292,2 C13.8569449,2.03702315 15.4273184,2.45780035 16.8337388,3.22704 L16.8337388,3.22704 L14.9977834,6.40902 C14.1504701,5.96018022 13.2125502,5.70895641 12.2543292,5.67418 L12.2543292,5.67418 Z M11.7914234,2 L11.7914234,5.67418 C10.8336869,5.70916983 9.89627724,5.96038741 9.0493934,6.40902 L7.2118102,3.22704 C8.61829138,2.45776894 10.1887385,2.03699074 11.7914234,2 Z" id="Combined-Shape"></path>
                </g>
            </g>
        </g>
    </g>
</svg>