<?xml version="1.0" encoding="UTF-8"?>
<svg width="24px" height="24px" viewBox="0 0 24 24" version="1.1" xmlns="http://www.w3.org/2000/svg" xmlns:xlink="http://www.w3.org/1999/xlink">
    <!-- Generator: sketchtool 60 (101010) - https://sketch.com -->
    <title>E9C53DEE-CFA7-4BA5-86AD-4B75D13BD147</title>
    <desc>Created with sketchtool.</desc>
    <g id="Page-1" stroke="none" stroke-width="1" fill="none" fill-rule="evenodd">
        <g id="icon" transform="translate(-96.000000, -66.000000)" fill="#FFFFFF" fill-rule="nonzero">
            <g id="1" transform="translate(83.000000, 50.000000)">
                <g id="Helmet" transform="translate(13.000000, 16.000000)">
                    <g>
                        <path d="M14.8588594,14.409375 L16.5485625,14.409375 C16.8136406,13.4251406 17.7115313,12.703125 18.7780781,12.703125 L22.5437344,12.703125 C22.9320469,12.703125 23.2468594,12.3883125 23.2468594,12 L23.2468594,11.6234531 C23.2468594,11.4469219 23.2422187,11.2714688 23.2344375,11.0969062 L18.7280625,11.0969062 C16.774125,11.0968594 15.1497656,12.5355937 14.8588594,14.409375 L14.8588594,14.409375 Z" id="Path"></path>
                        <path d="M10.59375,19.5312656 L10.59375,15.0125156 C10.59375,10.5155625 14.2269844,6.87815625 18.7281094,6.87815625 L22.2367969,6.87815625 C20.4215625,2.82435937 16.3524844,-5.68434189e-14 11.6234531,-5.68434189e-14 C5.20396875,-5.68434189e-14 -2.84217094e-14,5.20401562 -2.84217094e-14,11.6234531 L-2.84217094e-14,15.0125156 C-2.84217094e-14,16.2244687 0.9796875,17.221875 2.20935937,17.221875 L2.20973437,17.221875 C3.90567187,17.221875 5.47528125,17.9895 6.51604687,19.3279687 L9.01420312,22.5396562 C9.73589062,23.4677344 10.8241875,24 12,24 C13.7016562,24 15.1840781,23.0437969 15.9385781,21.6406406 L12.703125,21.6406406 C11.5400156,21.6406406 10.59375,20.6943281 10.59375,19.5312656 L10.59375,19.5312656 Z" id="Path"></path>
                        <path d="M23.296875,15.815625 L13.40625,15.815625 L13.40625,15.0125156 C13.40625,12.0728906 15.7845937,9.69065625 18.7281094,9.69065625 L23.296875,9.69065625 C23.6851875,9.69065625 24,9.37584375 24,8.98753125 C24,8.59921875 23.6851875,8.28440625 23.296875,8.28440625 L18.7281094,8.28440625 C15.0122813,8.28440625 12,11.2907812 12,15.0125156 L12,19.5312656 C12,19.9195781 12.3148125,20.2343906 12.703125,20.2343906 L18.075,20.2343906 L18.075,21.7906406 C18.075,23.0027812 19.054875,24 20.2844063,24 L23.296875,24 C23.6851875,24 24,23.6851875 24,23.296875 L24,16.51875 C24,16.1304375 23.6851875,15.815625 23.296875,15.815625 L23.296875,15.815625 Z M18.075,18.8281406 L13.40625,18.8281406 L13.40625,17.221875 L18.075,17.221875 L18.075,18.8281406 Z M22.59375,22.59375 L20.2843594,22.59375 C19.8361406,22.59375 19.4812031,22.2294844 19.4812031,21.7906406 L19.4812031,20.2343906 L22.59375,20.2343906 L22.59375,22.59375 Z M22.59375,18.8281406 L19.48125,18.8281406 L19.48125,17.221875 L22.59375,17.221875 L22.59375,18.8281406 Z" id="Shape"></path>
                    </g>
                </g>
            </g>
        </g>
    </g>
</svg>