<?xml version="1.0" encoding="UTF-8"?>
<svg width="24px" height="17px" viewBox="0 0 24 17" version="1.1" xmlns="http://www.w3.org/2000/svg" xmlns:xlink="http://www.w3.org/1999/xlink">
    <!-- Generator: sketchtool 60 (101010) - https://sketch.com -->
    <title>71E58A8A-8A00-4E4C-B930-D3DBE16F591C</title>
    <desc>Created with sketchtool.</desc>
    <g id="Page-1" stroke="none" stroke-width="1" fill="none" fill-rule="evenodd">
        <g id="icon" transform="translate(-443.000000, -262.000000)" fill="#FFFFFF" fill-rule="nonzero">
            <g id="16" transform="translate(393.000000, 242.000000)">
                <g id="Snooker" transform="translate(50.000000, 20.000000)">
                    <g>
                        <path d="M17.2,0.15 C15.1,0.15 13.25,1.1 12,2.55 C10.75,1.05 8.9,0.15 6.8,0.15 C3.05,0.15 0,3.2 0,6.95 C0,10.05 2.1,12.7 4.95,13.5 C4.4,12.5 4.1,11.3 4.1,10.1 C4.1,6.05 7.4,2.8 11.4,2.8 C11.55,2.8 11.7,2.8 11.8,2.8 C11.95,2.8 12.05,2.8 12.2,2.85 C15.85,3.25 18.7,6.35 18.7,10.1 C18.7,11.4 18.35,12.65 17.7,13.75 C21.25,13.45 24,10.5 24,6.95 C24,3.2 20.95,0.15 17.2,0.15 Z" id="Path"></path>
                        <path d="M11.4,3.25 C7.65,3.25 4.6,6.3 4.6,10.05 C4.6,13.8 7.65,16.85 11.4,16.85 C15.15,16.85 18.2,13.8 18.2,10.05 C18.2,6.3 15.15,3.25 11.4,3.25 Z M9.85,11.7 C8.25,11.7 6.95,10.4 6.95,8.8 C6.95,7.2 8.25,5.9 9.85,5.9 C11.45,5.9 12.75,7.2 12.75,8.8 C12.75,10.4 11.45,11.7 9.85,11.7 Z" id="Shape"></path>
                        <path d="M10.25,8.65 C10.5,8.45 10.6,8.25 10.6,8 C10.6,7.75 10.5,7.55 10.3,7.35 C10.1,7.2 9.8,7.1 9.5,7.1 C9.2,7.1 8.9,7.2 8.7,7.35 C8.5,7.5 8.4,7.75 8.4,8 C8.4,8.25 8.5,8.5 8.75,8.65 C8.45,8.85 8.25,9.15 8.25,9.5 C8.25,9.8 8.35,10 8.6,10.2 C8.85,10.4 9.15,10.5 9.5,10.5 C9.85,10.5 10.15,10.4 10.4,10.2 C10.65,10 10.75,9.75 10.75,9.5 C10.75,9.15 10.6,8.85 10.25,8.65 Z M9.1,7.7 C9.2,7.6 9.35,7.55 9.5,7.55 C9.65,7.55 9.8,7.6 9.9,7.7 C10,7.8 10.1,7.9 10.1,8.05 C10.1,8.2 10.05,8.3 9.9,8.4 C9.8,8.5 9.65,8.55 9.5,8.55 C9.35,8.55 9.2,8.5 9.1,8.4 C9,8.3 8.9,8.2 8.9,8.05 C8.9,7.9 8.95,7.75 9.1,7.7 Z M9.95,9.9 C9.8,10 9.65,10.05 9.5,10.05 C9.35,10.05 9.2,10 9.05,9.9 C8.9,9.8 8.85,9.65 8.85,9.5 C8.85,9.35 8.9,9.2 9.05,9.1 C9.2,9 9.35,8.95 9.5,8.95 C9.7,8.95 9.85,9 9.95,9.1 C10.1,9.2 10.15,9.35 10.15,9.5 C10.2,9.65 10.1,9.8 9.95,9.9 Z" id="Shape"></path>
                    </g>
                </g>
            </g>
        </g>
    </g>
</svg>