<?xml version="1.0" encoding="UTF-8"?>
<svg width="24px" height="24px" viewBox="0 0 24 24" version="1.1" xmlns="http://www.w3.org/2000/svg" xmlns:xlink="http://www.w3.org/1999/xlink">
    <!-- Generator: sketchtool 60 (101010) - https://sketch.com -->
    <title>152F96F3-8383-4954-8E17-AB45CB63D484</title>
    <desc>Created with sketchtool.</desc>
    <g id="Page-1" stroke="none" stroke-width="1" fill="none" fill-rule="evenodd">
        <g id="icon" transform="translate(-426.000000, -1154.000000)" fill="#FFFFFF" fill-rule="nonzero">
            <g id="12-copy-13" transform="translate(393.000000, 1138.000000)">
                <g id="Gaelic-sports/white" transform="translate(33.000000, 16.000000)">
                    <g id="Path">
                        <path d="M23.9659404,8.71491064 C23.9659404,7.69363404 23.6287149,6.84520851 22.9914894,6.26170213 C22.4090553,5.72869787 21.6164936,5.44682553 20.6994894,5.44682553 L20.6979064,5.44682553 C19.6330723,5.44723404 18.1911319,6.20987234 16.7666553,7.19933617 C17.7561702,5.77485957 18.5188085,4.33291915 18.519166,3.26808511 C18.5196766,2.35051915 18.2378043,1.55744681 17.7042894,0.974451064 C17.1207319,0.337225532 16.2723574,0 15.2510809,0 C14.1611745,0 12.7941447,0.752119149 11.9829957,1.43137021 C11.1717957,0.752119149 9.80476596,0 8.71491064,0 C6.73031489,0 5.44733617,1.28297872 5.44682553,3.26757447 C5.44621277,4.33169362 6.20890213,5.7738383 7.19877447,7.19877447 C5.77450213,6.2093617 4.33302128,5.44682553 3.26920851,5.44682553 C3.26869787,5.44682553 3.26813617,5.44682553 3.26813617,5.44682553 C1.28302979,5.44733617 0,6.73031489 0,8.71491064 C0,9.80481702 0.752170213,11.1718468 1.43142128,11.9829957 C0.752119149,12.7941447 0,14.1611745 0,15.2510809 C0,17.2361872 1.28297872,18.519166 3.26808511,18.519166 C4.33251064,18.519166 5.77434894,17.7566809 7.1987234,16.767217 C6.20931064,18.1916426 5.44677447,19.6334298 5.44677447,20.6978553 C5.44677447,22.6829617 6.72975319,23.9659404 8.71485957,23.9659404 C9.80476596,23.9659404 11.1717957,23.2138213 11.9829447,22.5345702 C12.7940936,23.2138213 14.1611234,23.9659404 15.2510298,23.9659404 C17.2356255,23.9659404 18.5186043,22.6829617 18.5191149,20.698366 C18.5193702,20.1813957 18.3353362,19.5734809 18.0371234,18.9234383 C19.3449702,20.2891915 20.7760851,21.9597447 21.8701787,23.7100596 C21.9733787,23.8755064 22.1510298,23.9659404 22.3324085,23.9659404 C22.4308085,23.9659404 22.5307915,23.9392851 22.6207149,23.8829106 C22.8755234,23.7238468 22.9531404,23.3876936 22.793566,23.1323745 C21.5517447,21.1452255 19.9258723,19.284817 18.4987404,17.8250043 C19.3076936,18.2451064 20.0694638,18.519217 20.6967319,18.5190638 C20.6972426,18.5190638 20.6978043,18.5190638 20.6978043,18.5190638 C22.6829106,18.5185532 23.9659404,17.2355745 23.9659404,15.2509787 C23.9659404,14.1610723 23.2137702,12.7940426 22.5345191,11.9828936 C23.2138213,11.1717957 23.9659404,9.80476596 23.9659404,8.71491064 Z"></path>
                    </g>
                </g>
            </g>
        </g>
    </g>
</svg>