<?xml version="1.0" encoding="utf-8"?>
<!-- Generator: Adobe Illustrator 19.0.0, SVG Export Plug-In . SVG Version: 6.00 Build 0)  -->
<svg version="1.1" id="Layer_1" xmlns="http://www.w3.org/2000/svg" xmlns:xlink="http://www.w3.org/1999/xlink" x="0px" y="0px"
	 viewBox="-293 385 24 24" style="enable-background:new -293 385 24 24;" xml:space="preserve">
<style type="text/css">
	.st0{fill:#A53860;}
</style>
<title>8D74F6CE-4BEF-4CB0-A6B4-6074FF5BBB67</title>
<desc>Created with sketchtool.</desc>
<g id="Page-1">
	<g id="icon" transform="translate(-416.000000, -1905.000000)">
		<g id="_x2D_59" transform="translate(393.000000, 1889.000000)">
			<g id="Lottery-Specials" transform="translate(23.000000, 16.000000)">
				<path class="st0" d="M-290.4,403.3l-2.4-2.4c-0.3-0.3-0.3-0.7,0-1l14.7-14.7c0.3-0.3,0.7-0.3,1,0l2.5,2.5
					c-0.1,0.1-0.2,0.1-0.3,0.2c-0.8,0.8-0.8,2.2,0,3c0.8,0.8,2.2,0.8,3,0c0.1-0.1,0.2-0.2,0.2-0.3l2.4,2.4c0.3,0.3,0.3,0.7,0,1
					l-14.7,14.7c-0.3,0.3-0.7,0.3-1,0l-2.4-2.4c0.1-0.1,0.2-0.1,0.3-0.2c0.8-0.8,0.8-2.2,0-3c-0.8-0.8-2.2-0.8-3,0
					C-290.2,403.2-290.3,403.2-290.4,403.3z M-281.9,391.5l1,1l0.8-0.8l-1-1L-281.9,391.5z M-280.1,393.3l1,1l0.8-0.8l-1-1
					L-280.1,393.3z M-278.4,395.1l1,1l0.8-0.8l-1-1L-278.4,395.1z M-276.6,396.9l1,1l0.8-0.8l-1-1L-276.6,396.9z"/>
			</g>
		</g>
	</g>
</g>
</svg>
