<?xml version="1.0" encoding="UTF-8"?>
<svg width="24px" height="24px" viewBox="0 0 24 24" version="1.1" xmlns="http://www.w3.org/2000/svg" xmlns:xlink="http://www.w3.org/1999/xlink">
    <!-- Generator: sketchtool 60 (101010) - https://sketch.com -->
    <title>8D74F6CE-4BEF-4CB0-A6B4-6074FF5BBB67</title>
    <desc>Created with sketchtool.</desc>
    <g id="Page-1" stroke="none" stroke-width="1" fill="none" fill-rule="evenodd">
        <g id="icon" transform="translate(-416.000000, -1905.000000)" fill="#FFFFFF" fill-rule="nonzero">
            <g id="-59" transform="translate(393.000000, 1889.000000)">
                <g id="Lottery-Specials" transform="translate(23.000000, 16.000000)">
                    <path d="M2.63712048,18.3412233 L0.209833952,15.9139368 C-0.0699446507,15.6341582 -0.0699446507,15.1805475 0.209833952,14.9007689 L14.9007689,0.209833952 C15.1805475,-0.0699446507 15.6341582,-0.0699446507 15.9139368,0.209833952 L18.3665521,2.6624493 C18.2703599,2.73100247 18.1785471,2.8084289 18.0922474,2.89472857 C17.2529116,3.73406434 17.2529116,5.09489654 18.0922474,5.93423235 C18.9315832,6.77356813 20.2924154,6.77356813 21.1317512,5.93423235 C21.2180509,5.84793265 21.2954773,5.75611986 21.3640305,5.65992765 L23.7659882,8.06188537 C24.0457668,8.34166397 24.0457668,8.79527468 23.7659882,9.07505328 L9.07505328,23.7659882 C8.79527468,24.0457668 8.34166397,24.0457668 8.06188537,23.7659882 L5.63459884,21.3387017 C5.73079105,21.2701485 5.82260384,21.1927221 5.90890354,21.1064224 C6.74823931,20.2670866 6.74823931,18.9062544 5.90890354,18.0669186 C5.06956773,17.2275828 3.70873553,17.2275828 2.86939976,18.0669186 C2.78310009,18.1532183 2.70567365,18.2450311 2.63712048,18.3412233 Z M11.1013892,6.54213347 L12.1145571,7.55530139 L12.874433,6.79542546 L11.8612651,5.78225755 L11.1013892,6.54213347 Z M12.874433,8.31517736 L13.8876009,9.32834527 L14.6474769,8.56846934 L13.634309,7.55530139 L12.874433,8.31517736 Z M14.6474769,10.0882212 L15.6606448,11.1013892 L16.4205208,10.3415132 L15.4073528,9.32834527 L14.6474769,10.0882212 Z M16.4205208,11.8612651 L17.4336887,12.874433 L18.1935646,12.1145571 L17.1803967,11.1013892 L16.4205208,11.8612651 Z"></path>
                </g>
            </g>
        </g>
    </g>
</svg>