<?xml version="1.0" encoding="UTF-8"?>
<svg width="24px" height="24px" viewBox="0 0 24 24" version="1.1" xmlns="http://www.w3.org/2000/svg" xmlns:xlink="http://www.w3.org/1999/xlink">
    <!-- Generator: sketchtool 60 (101010) - https://sketch.com -->
    <title>A0EC6E6A-CF1A-4358-B18A-D20C84B81CBC</title>
    <desc>Created with sketchtool.</desc>
    <g id="Page-1" stroke="none" stroke-width="1" fill="none" fill-rule="evenodd">
        <g id="Sport" transform="translate(-1194.000000, -481.000000)" fill="#FFFFFF" fill-rule="nonzero">
            <g id="upcoming" transform="translate(1178.000000, 411.000000)">
                <g id="name" transform="translate(0.000000, 54.000000)">
                    <g id="soccer/white" transform="translate(16.000000, 16.000000)">
                        <path d="M11.9997333,0 C5.3832,0 0,5.38293333 0,12 C0,18.6168 5.3832,24 12,24 C18.6168,24 24,18.6168 24,12 C24,8.7944 22.752,5.78053333 20.4850667,3.5144 C18.2189333,1.24773333 15.2056,0 11.9997333,0 Z M8.02346667,1.7072 L11.6656,3.00373333 L11.6656,6.84426667 L7.2,10.0888 L3.54773333,8.90213333 L3.44,5.04266667 C4.64266667,3.56586667 6.21893333,2.40693333 8.02346667,1.7072 Z M2.7384,17.9909333 C1.72053333,16.4226667 1.088,14.5826667 0.980533333,12.6037333 L3.34133333,9.53786667 L6.99386667,10.7248 L8.69946667,15.9744 L6.44213333,19.0810667 L2.7384,17.9909333 Z M14.8306667,22.6669333 C13.9269333,22.9069333 12.9786667,23.0365333 12,23.0365333 C11.0216,23.0365333 10.0733333,22.9069333 9.1696,22.6669333 L6.98293333,19.4744 L9.2408,16.3672 L14.76,16.3672 L17.0176,19.4741333 L14.8306667,22.6669333 Z M23.0194667,12.604 C22.9122667,14.5824 22.2797333,16.4226667 21.2618667,17.9906667 L17.5584,19.0810667 L15.3008,15.9738667 L17.0061333,10.7250667 L20.6592,9.53813333 L23.0194667,12.604 Z M20.4525333,8.90213333 L16.8,10.0888 L12.3344,6.84453333 L12.3344,3.004 L15.9845333,1.7048 C17.4,2.252 18.6992,3.09066667 19.8042667,4.19573333 C20.072,4.46346667 20.3237333,4.7432 20.5602667,5.03253333 L20.4525333,8.90213333 Z" id="Shape"></path>
                    </g>
                </g>
            </g>
        </g>
    </g>
</svg>