<?xml version="1.0" encoding="utf-8"?>
<!-- Generator: Adobe Illustrator 19.0.0, SVG Export Plug-In . SVG Version: 6.00 Build 0)  -->
<svg version="1.1" id="Layer_1" xmlns="http://www.w3.org/2000/svg" xmlns:xlink="http://www.w3.org/1999/xlink" x="0px" y="0px"
	 viewBox="-293 385 24 23" style="enable-background:new -293 385 24 23;" xml:space="preserve">
<style type="text/css">
	.st0{fill:#E63946;}
</style>
<title>B84791BE-1809-4E75-9FA1-7162959802A1</title>
<desc>Created with sketchtool.</desc>
<g id="Page-1">
	<g id="icon" transform="translate(-430.000000, -1970.000000)">
		<g id="_x2D_60" transform="translate(393.000000, 1953.000000)">
			<g id="Special-Bets" transform="translate(37.000000, 17.000000)">
				<g id="Path">
					<path class="st0" d="M-272.6,392.4l-5.7-0.5l-2.2-5.2c-0.1-0.4-0.7-0.4-0.9,0l-2.2,5.2l-5.7,0.5c-0.4,0-0.5,0.5-0.3,0.8
						l4.3,3.7l-1.2,5.5c-0.1,0.4,0.3,0.7,0.7,0.5l4.9-2.8l4.9,2.8c0.4,0.2,0.8-0.1,0.7-0.5l-1.3-5.5l4.3-3.7
						C-272,392.9-272.2,392.4-272.6,392.4z"/>
					<path class="st0" d="M-287.2,385.6c0.3,0.5,1.2,2.3,1.7,3.4c0.1,0.2-0.1,0.3-0.3,0.2c-0.9-0.8-2.4-2.2-2.7-2.7
						c-0.3-0.4-0.2-0.8,0.2-1.1C-287.9,385.2-287.4,385.2-287.2,385.6z"/>
					<path class="st0" d="M-274.6,385.6c-0.3,0.5-1.2,2.3-1.7,3.4c-0.1,0.2,0.1,0.3,0.3,0.2c0.9-0.8,2.4-2.2,2.7-2.7
						c0.3-0.4,0.2-0.8-0.2-1.1C-273.8,385.2-274.3,385.2-274.6,385.6z"/>
					<path class="st0" d="M-269.6,398.3c-0.5-0.2-2.6-0.5-3.8-0.6c-0.2,0-0.3,0.2-0.1,0.3c1.1,0.6,2.9,1.6,3.4,1.8
						c0.4,0.1,0.9-0.1,1-0.5C-269,398.9-269.2,398.5-269.6,398.3z"/>
					<path class="st0" d="M-292.2,398.3c0.5-0.2,2.6-0.5,3.8-0.6c0.2,0,0.3,0.2,0.1,0.3c-1.1,0.6-2.9,1.6-3.4,1.8
						c-0.4,0.1-0.9-0.1-1-0.5C-292.8,398.9-292.6,398.5-292.2,398.3z"/>
					<path class="st0" d="M-281.6,407c0-0.5,0.4-2.5,0.6-3.8c0-0.2,0.3-0.2,0.4,0c0.2,1.1,0.6,3.2,0.6,3.8c0,0.4-0.4,0.8-0.8,0.8
						C-281.3,407.8-281.6,407.4-281.6,407z"/>
				</g>
			</g>
		</g>
	</g>
</g>
</svg>
