<?xml version="1.0" encoding="UTF-8"?>
<svg width="24px" height="23px" viewBox="0 0 24 23" version="1.1" xmlns="http://www.w3.org/2000/svg" xmlns:xlink="http://www.w3.org/1999/xlink">
    <!-- Generator: sketchtool 60 (101010) - https://sketch.com -->
    <title>B84791BE-1809-4E75-9FA1-7162959802A1</title>
    <desc>Created with sketchtool.</desc>
    <g id="Page-1" stroke="none" stroke-width="1" fill="none" fill-rule="evenodd">
        <g id="icon" transform="translate(-430.000000, -1970.000000)" fill="#FFFFFF" fill-rule="nonzero">
            <g id="-60" transform="translate(393.000000, 1953.000000)">
                <g id="Special-Bets" transform="translate(37.000000, 17.000000)">
                    <g id="Path">
                        <path d="M20.4151899,7.38421053 L14.764557,6.83947368 L12.5164557,1.66447368 C12.3949367,1.30131579 11.8481013,1.30131579 11.6658228,1.66447368 L9.41772152,6.83947368 L3.76708861,7.38421053 C3.3721519,7.41447368 3.22025316,7.92894737 3.49367089,8.20131579 L7.74683544,11.9236842 L6.50126582,17.4315789 C6.41012658,17.825 6.80506329,18.0973684 7.16962025,17.9157895 L12.0911392,15.0710526 L17.0126582,17.8855263 C17.3772152,18.0973684 17.7721519,17.7947368 17.6810127,17.4013158 L16.4050633,11.8934211 L20.6582278,8.17105263 C20.9620253,7.92894737 20.7797468,7.41447368 20.4151899,7.38421053 Z"></path>
                        <path d="M5.80253165,0.575 C6.10632911,1.02894737 7.01772152,2.90526316 7.50379747,3.96447368 C7.59493671,4.14605263 7.38227848,4.26710526 7.23037975,4.14605263 C6.31898734,3.32894737 4.86075949,1.90657895 4.52658228,1.45263158 C4.25316456,1.08947368 4.3443038,0.635526316 4.70886076,0.393421053 C5.07341772,0.151315789 5.55949367,0.242105263 5.80253165,0.575 Z"></path>
                        <path d="M18.3797468,0.575 C18.0759494,1.02894737 17.164557,2.90526316 16.678481,3.96447368 C16.5873418,4.14605263 16.8,4.26710526 16.9518987,4.14605263 C17.8632911,3.32894737 19.321519,1.90657895 19.6556962,1.45263158 C19.9291139,1.08947368 19.8379747,0.635526316 19.4734177,0.393421053 C19.1696203,0.151315789 18.6531646,0.242105263 18.3797468,0.575 Z"></path>
                        <path d="M23.3620253,13.3157895 C22.8759494,13.1342105 20.8101266,12.8618421 19.5949367,12.7407895 C19.4126582,12.7105263 19.321519,12.9526316 19.5037975,13.0434211 C20.5670886,13.6184211 22.3594937,14.6171053 22.9063291,14.7986842 C23.3012658,14.9197368 23.756962,14.7078947 23.878481,14.3144737 C24,13.8907895 23.7873418,13.4671053 23.3620253,13.3157895 Z"></path>
                        <path d="M0.820253165,13.3157895 C1.30632911,13.1342105 3.3721519,12.8618421 4.58734177,12.7407895 C4.76962025,12.7105263 4.86075949,12.9526316 4.67848101,13.0434211 C3.61518987,13.6184211 1.82278481,14.6171053 1.27594937,14.7986842 C0.881012658,14.9197368 0.425316456,14.7078947 0.303797468,14.3144737 C0.182278481,13.8907895 0.394936709,13.4671053 0.820253165,13.3157895 Z"></path>
                        <path d="M11.3620253,22.0013158 C11.3620253,21.4565789 11.7265823,19.4592105 11.9392405,18.2486842 C11.9696203,18.0671053 12.243038,18.0671053 12.3037975,18.2486842 C12.5164557,19.3986842 12.8810127,21.4565789 12.8810127,22.0013158 C12.8810127,22.3947368 12.5164557,22.7578947 12.121519,22.7578947 C11.6962025,22.7578947 11.3620253,22.425 11.3620253,22.0013158 Z"></path>
                    </g>
                </g>
            </g>
        </g>
    </g>
</svg>