<?xml version="1.0" encoding="UTF-8"?>
<svg width="23px" height="24px" viewBox="0 0 23 24" version="1.1" xmlns="http://www.w3.org/2000/svg" xmlns:xlink="http://www.w3.org/1999/xlink">
    <!-- Generator: sketchtool 60 (101010) - https://sketch.com -->
    <title>7ACE8EBB-06F4-4E35-8026-642E80B7C85D</title>
    <desc>Created with sketchtool.</desc>
    <g id="Page-1" stroke="none" stroke-width="1" fill="none" fill-rule="evenodd">
        <g id="icon" transform="translate(-135.000000, -450.000000)" fill="#FFFFFF" fill-rule="nonzero">
            <g id="7" transform="translate(83.000000, 434.000000)">
                <g id="game-controller" transform="translate(52.000000, 16.000000)">
                    <g id="Shape">
                        <path d="M2.06300585,23.9535875 C3.16176023,23.9535875 4.4634347,23.1041089 6.04424756,21.3558444 C6.96500975,20.3360311 8.27937232,19.7512529 9.57051072,19.7512529 L13.384924,19.7512529 C14.6761072,19.7512529 15.990425,20.3360311 16.9111871,21.3558444 C18.492,23.1040623 19.7936745,23.9535875 20.8924288,23.9535875 C21.6161891,23.9535875 22.2052671,23.5213074 22.5500877,22.7367782 C22.8088265,22.1492451 22.9553002,21.3524358 22.9553002,20.3702101 C22.9553002,16.3094475 20.4325634,8.49828794 16.5708499,8.49828794 C15.4044405,8.49828794 14.8600175,8.88541634 14.3792593,9.2267393 C14.0028752,9.49419455 13.6361306,9.74442023 12.9358187,9.87702724 C13.2396608,9.37979767 13.495306,8.78231907 13.495306,8.14809339 C13.495306,6.64814008 12.0819942,5.31642023 11.9217115,5.1707393 C11.6320819,4.90468482 10.8052476,3.93324514 10.8052476,3.19867704 C10.8052476,2.46410895 11.6320819,1.53936187 11.9217115,1.27330739 C12.1995049,1.01817899 12.2271228,0.575673152 11.9821481,0.28566537 C11.737846,-0.00639688716 11.3135789,-0.0337587549 11.0351131,0.220015564 C10.8735302,0.367050584 9.46021832,1.69877043 9.46021832,3.19872374 C9.46021832,4.69867704 10.8735302,6.07708949 11.0338129,6.22277043 C11.3234425,6.4888249 12.1502768,7.41357198 12.1502768,8.14814008 C12.1502768,8.76779767 11.5643821,9.51838132 11.206425,9.89911284 L10.1655517,9.89911284 C9.330154,9.7623035 8.96367836,9.50241245 8.57622027,9.22678599 C8.09546199,8.88546304 7.55103899,8.49833463 6.38462963,8.49833463 C2.52291618,8.49833463 0.000134502924,16.3094942 0.000134502924,20.3702568 C0.000134502924,23.6040934 1.44761014,23.9535875 2.06300585,23.9535875 L2.06300585,23.9535875 Z M16.8578343,16.9030039 C16.4864269,16.9030039 16.1853197,16.5894163 16.1853197,16.2026148 C16.1853197,15.8158132 16.4864269,15.5022257 16.8578343,15.5022257 C17.2292417,15.5022257 17.5303489,15.8158132 17.5303489,16.2026148 C17.5303489,16.5894163 17.2292417,16.9030039 16.8578343,16.9030039 Z M18.2028635,14.1014475 C18.574271,14.1014475 18.8753782,14.415035 18.8753782,14.8018366 C18.8753782,15.1886381 18.574271,15.5022257 18.2028635,15.5022257 C17.8314561,15.5022257 17.5303489,15.1886381 17.5303489,14.8018366 C17.5303489,14.415035 17.831501,14.1014475 18.2028635,14.1014475 Z M16.8578343,12.7006693 C17.2292417,12.7006693 17.5303489,13.0142568 17.5303489,13.4010584 C17.5303489,13.7878599 17.2292417,14.1014475 16.8578343,14.1014475 C16.4864269,14.1014475 16.1853197,13.7878599 16.1853197,13.4010584 C16.1853197,13.0142568 16.4864717,12.7006693 16.8578343,12.7006693 Z M15.5128051,14.1014475 C15.8842125,14.1014475 16.1853197,14.415035 16.1853197,14.8018366 C16.1853197,15.1886381 15.8842125,15.5022257 15.5128051,15.5022257 C15.1413977,15.5022257 14.8402904,15.1886381 14.8402904,14.8018366 C14.8402904,14.415035 15.1414425,14.1014475 15.5128051,14.1014475 Z M10.1326881,14.1014475 L12.8227466,14.1014475 C13.1944678,14.1014475 13.4952612,14.4147082 13.4952612,14.8018366 C13.4952612,15.188965 13.1944678,15.5022257 12.8227466,15.5022257 L10.1326881,15.5022257 C9.76096686,15.5022257 9.46017349,15.188965 9.46017349,14.8018366 C9.46017349,14.4147082 9.76096686,14.1014475 10.1326881,14.1014475 Z M4.75257115,14.1014475 L5.42508577,14.1014475 L5.42508577,13.4010584 C5.42508577,13.01393 5.72587914,12.7006693 6.09760039,12.7006693 C6.46932164,12.7006693 6.77011501,13.01393 6.77011501,13.4010584 L6.77011501,14.1014475 L7.44262963,14.1014475 C7.81435088,14.1014475 8.11514425,14.4147082 8.11514425,14.8018366 C8.11514425,15.188965 7.81435088,15.5022257 7.44262963,15.5022257 L6.77011501,15.5022257 L6.77011501,16.2026148 C6.77011501,16.5897432 6.46932164,16.9030039 6.09760039,16.9030039 C5.72587914,16.9030039 5.42508577,16.5897432 5.42508577,16.2026148 L5.42508577,15.5022257 L4.75257115,15.5022257 C4.3808499,15.5022257 4.08005653,15.188965 4.08005653,14.8018366 C4.08005653,14.4147082 4.3808499,14.1014475 4.75257115,14.1014475 Z"></path>
                    </g>
                </g>
            </g>
        </g>
    </g>
</svg>