<?xml version="1.0" encoding="UTF-8"?>
<svg width="24px" height="16px" viewBox="0 0 24 16" version="1.1" xmlns="http://www.w3.org/2000/svg" xmlns:xlink="http://www.w3.org/1999/xlink">
    <!-- Generator: sketchtool 60 (101010) - https://sketch.com -->
    <title>AFF521B7-8A1C-4CE8-AA6F-0E4A52C6762F</title>
    <desc>Created with sketchtool.</desc>
    <g id="Page-1" stroke="none" stroke-width="1" fill="none" fill-rule="evenodd">
        <g id="icon" transform="translate(-118.000000, -646.000000)" fill="#FFFFFF" fill-rule="nonzero">
            <g id="10" transform="translate(83.000000, 626.000000)">
                <g id="Greyhounds" transform="translate(35.000000, 20.000000)">
                    <g id="Path">
                        <path d="M23.9768941,2.34470364 C23.7200558,2.73837277 23.4844497,2.98692604 23.0563053,3.02837105 C22.6281609,3.06981605 23.0134788,3.23559605 22.3712019,3.09059693 C21.7290456,2.94548106 20.8941098,2.65548279 20.3803124,3.29770519 C19.866515,3.93992761 19.5025501,4.29215174 19.6310296,4.95515505 C19.7593885,5.61815832 19.973521,5.90815659 19.7593885,6.5711599 C19.5453766,7.23416317 19.5667295,7.4206073 19.1814116,8.12493886 C18.7960937,8.82938715 18.6676142,9.84461458 18.6247877,10.321057 C18.5819612,10.7976161 18.1751698,13.0765075 18.1538169,13.8638458 C18.1323433,14.6510674 18.5177818,15.1069624 18.7104407,15.1484074 C18.9030997,15.1897356 19.3098911,15.1069624 19.3954235,15.3140707 C19.4161732,15.3340343 19.6750625,15.5442947 19.6549159,15.8302069 L17.672833,15.8302069 C17.6267493,15.726536 17.5712558,15.609556 17.4900664,15.5834048 C17.3617075,15.5419598 17.1262221,14.257515 16.8479101,14.008845 C16.7622571,13.9259549 16.6337776,11.4606194 16.6124247,11.0669503 C16.5909511,10.6732811 16.3126392,10.0911831 16.2484597,9.71829489 C16.0710012,9.88991221 13.0340593,9.21920366 12.3489559,8.8641776 C11.6511855,8.50249698 11.0081848,8.05430723 10.2504573,7.81112431 C9.932938,7.70920462 8.73488168,7.25401006 8.43437232,7.54494232 C8.39154581,7.54494232 8.7340372,7.79361234 8.45572525,8.0318919 C8.17741331,8.27005474 7.55660997,7.93849471 7.55660997,7.93849471 C7.55660997,7.93849471 8.30589283,8.39427298 7.29965096,9.88605959 C6.29352976,11.3777294 5.50142043,12.1857318 5.43712035,13.5738475 C5.37294093,14.9618465 5.73690587,15.0240724 5.92956483,15.1069624 C6.12222376,15.1897356 6.70032123,15.3348515 6.67884765,15.7698489 C6.66618064,15.7903963 6.62938605,15.8108269 6.57702915,15.8302069 L5.34603864,15.8302069 C5.12213445,15.7050546 4.91584341,15.5152249 4.79496411,15.5005148 C4.73066403,15.4384057 4.47370501,13.1387334 4.51653152,12.6207292 C4.55935803,12.1028418 4.5808316,11.6677277 4.68783752,11.5020644 C4.79496411,11.3362844 5.13745547,10.1968387 5.05180248,9.90672372 C5.07315541,10.0102778 4.13121363,11.2948394 3.36057787,11.8749527 C2.58982147,12.455066 2.37568896,12.6000651 2.16167709,13.3045134 C1.94754456,14.008845 1.75488563,15.0032915 1.75488563,15.0032915 C1.75488563,15.0032915 2.58982147,15.1276265 2.58982147,15.4798507 C2.58982147,15.8320748 2.11885059,15.6870757 1.90471808,15.6870757 C1.69070619,15.6870757 1.24108824,15.7166125 1.24108824,15.7166125 C1.24108824,15.7166125 1.11260874,15.3437243 0.984129229,15.359952 C1.02695573,15.3969606 1.0912558,13.4080675 1.49804725,12.5586201 C1.47657368,12.5792842 0.299146469,13.8845099 0.0636610267,13.7602917 C-0.171824416,13.6359567 0.256319968,13.0972884 1.17690881,12.2686218 C2.09737701,11.4398386 2.95378643,10.2175028 2.95378643,9.67883455 C2.95378643,9.1401663 2.52696904,6.32400759 3.91720176,5.05870916 C7.42523517,1.86604305 15.6061828,4.0228176 16.3768186,3.09059693 C17.147575,2.15825951 19.0315792,0.23147551 19.352597,0.293584645 C19.4168971,0.293584645 19.609556,-0.0378586323 20.3588388,0.00358637419 C21.1081217,0.0450313806 21.5363867,0.252139639 21.5577396,0.417919639 C21.5363867,0.376474658 21.7932251,0.480145523 21.7718721,0.728698787 C21.7503986,0.9773688 22.1358371,1.06014206 22.2000165,1.12236795 C22.2641959,1.18447706 24.2338531,1.95103448 23.9768941,2.34470364"></path>
                    </g>
                </g>
            </g>
        </g>
    </g>
</svg>