<?xml version="1.0" encoding="UTF-8"?>
<svg width="23px" height="24px" viewBox="0 0 23 24" version="1.1" xmlns="http://www.w3.org/2000/svg" xmlns:xlink="http://www.w3.org/1999/xlink">
    <!-- Generator: sketchtool 60 (101010) - https://sketch.com -->
    <title>D0BADC2F-74A6-40A5-8CB2-BD61E33CECA1</title>
    <desc>Created with sketchtool.</desc>
    <g id="Page-1" stroke="none" stroke-width="1" fill="none" fill-rule="evenodd">
        <g id="icon" transform="translate(-104.000000, -834.000000)" fill="#FFFFFF" fill-rule="nonzero">
            <g id="12-copy" transform="translate(83.000000, 818.000000)">
                <g id="Beach-Volleyball/white" transform="translate(21.000000, 16.000000)">
                    <g id="Path">
                        <polygon points="7.02045035 8.5785914 11.0792739 8.5785914 11.0792739 11.802472 7.02045035 11.802472"></polygon>
                        <polygon points="1.78515624 8.5785914 6.19692094 8.5785914 6.19692094 11.802472 1.78515624 11.802472"></polygon>
                        <polygon points="7.02045035 12.6382929 11.0792739 12.6382929 11.0792739 15.683069 7.02045035 15.683069"></polygon>
                        <polygon points="0.961626824 16.0897854 0.961626824 6.07112872 0.0204503529 6.07112872 0.0204503529 23.9815765 0.961626824 23.9815765"></polygon>
                        <polygon points="1.78515624 12.6382929 6.19692094 12.6382929 6.19692094 15.683069 1.78515624 15.683069"></polygon>
                        <polygon points="16.8439798 8.5785914 21.1969209 8.5785914 21.1969209 11.802472 16.8439798 11.802472"></polygon>
                        <polygon points="22.0204504 6.07112872 22.9616268 6.07112872 22.9616268 23.9815765 22.0204504 23.9815765"></polygon>
                        <polygon points="11.9028033 8.5785914 16.0204504 8.5785914 16.0204504 11.802472 11.9028033 11.802472"></polygon>
                        <polygon points="16.8439798 12.6382929 21.1969209 12.6382929 21.1969209 15.683069 16.8439798 15.683069"></polygon>
                        <polygon points="11.9028033 12.6382929 16.0204504 12.6382929 16.0204504 15.683069 11.9028033 15.683069"></polygon>
                        <path d="M15.5565258,1.95499069 C15.5565258,3.03498137 14.6941636,3.91021457 13.6302849,3.91021457 C12.5664062,3.91021457 11.7038144,3.03498137 11.7038144,1.95499069 C11.7038144,0.875233194 12.5664062,0 13.6302849,0 C14.6941636,0 15.5565258,0.875233194 15.5565258,1.95499069 Z"></path>
                    </g>
                </g>
            </g>
        </g>
    </g>
</svg>