<?xml version="1.0" encoding="UTF-8"?>
<svg width="24px" height="23px" viewBox="0 0 24 23" version="1.1" xmlns="http://www.w3.org/2000/svg" xmlns:xlink="http://www.w3.org/1999/xlink">
    <!-- Generator: sketchtool 60 (101010) - https://sketch.com -->
    <title>B4B05254-9D9E-4757-858C-4EBB78A20CA5</title>
    <desc>Created with sketchtool.</desc>
    <g id="Page-1" stroke="none" stroke-width="1" fill="none" fill-rule="evenodd">
        <g id="icon" transform="translate(-427.000000, -386.000000)" fill="#FFFFFF" fill-rule="nonzero">
            <g id="18" transform="translate(393.000000, 370.000000)">
                <g id="table-tennis" transform="translate(34.000000, 16.000000)">
                    <g>
                        <path d="M10.0211053,17.9768958 L17.7712105,10.1370903 C17.7945789,7.64909722 16.7894211,5.04195139 14.7901579,3.01938889 C11.1206842,-0.692555556 5.50326316,-1.02845139 2.24336842,2.26917361 C-1.01668421,5.56695833 -0.684631579,11.2493958 2.98484211,14.9613403 C4.98426316,16.9839028 7.56157895,18.0006944 10.0211053,17.9768958 Z" id="Path"></path>
                        <path d="M10.8794211,17.9289792 C10.8794211,17.9289792 13.2312632,16.2780903 15.2971579,17.6330139 C17.3630526,18.9879375 20.2236316,22.8920278 20.2236316,22.8920278 C20.2236316,22.8920278 20.7685263,22.7541875 21.6311053,21.881625 C22.4938421,21.0089028 22.6299474,20.4578611 22.6299474,20.4578611 C22.6299474,20.4578611 18.7705263,17.5643333 17.4311053,15.4743681 C16.0916842,13.3845625 17.7236842,11.0055 17.7236842,11.0055 C17.724,11.0021458 17.7241579,10.9986319 17.7244737,10.9951181 L10.869,17.9299375 C10.8726316,17.9294583 10.8761053,17.9292986 10.8794211,17.9289792 Z" id="Path"></path>
                        <ellipse id="Oval" cx="21.8395263" cy="12.9296736" rx="2.11847368" ry="2.14299306"></ellipse>
                    </g>
                </g>
            </g>
        </g>
    </g>
</svg>