<?xml version="1.0" encoding="UTF-8"?>
<svg width="24px" height="20px" viewBox="0 0 24 20" version="1.1" xmlns="http://www.w3.org/2000/svg" xmlns:xlink="http://www.w3.org/1999/xlink">
    <!-- Generator: sketchtool 60 (101010) - https://sketch.com -->
    <title>BF5347D7-A3C4-40F4-9F1E-C0D00CB49490</title>
    <desc>Created with sketchtool.</desc>
    <g id="Page-1" stroke="none" stroke-width="1" fill="none" fill-rule="evenodd">
        <g id="icon" transform="translate(-142.000000, -516.000000)" fill="#FFFFFF" fill-rule="nonzero">
            <g id="8" transform="translate(83.000000, 498.000000)">
                <g id="football-field" transform="translate(59.000000, 18.000000)">
                    <g transform="translate(12.000000, 10.000000) rotate(90.000000) translate(-12.000000, -10.000000) translate(2.859375, -1.815385)" id="Path">
                        <polygon points="7.03125 0 11.25 0 11.25 2.81538462 7.03125 2.81538462"></polygon>
                        <path d="M9.140625,8.35384615 C7.4428125,8.35384615 6.02240625,9.54498462 5.69573437,11.1230769 L12.5854688,11.1230769 C12.2588438,9.54498462 10.8384375,8.35384615 9.140625,8.35384615 Z"></path>
                        <path d="M4.2691875,11.1230769 C4.61142187,8.77772308 6.66539062,6.96923077 9.140625,6.96923077 C11.6158594,6.96923077 13.6698281,8.77772308 14.0120625,11.1230769 L18.28125,11.1230769 L18.28125,2.07692308 C18.28125,0.931707692 17.3349844,0 16.171875,0 L12.65625,0 L12.65625,3.50769231 C12.65625,3.89003077 12.3414375,4.2 11.953125,4.2 L6.328125,4.2 C5.9398125,4.2 5.625,3.89003077 5.625,3.50769231 L5.625,0 L2.109375,0 C0.946265625,0 0,0.931707692 0,2.07692308 L0,11.1230769 L4.2691875,11.1230769 Z"></path>
                        <path d="M14.0120625,12.5076923 C13.6698281,14.8530462 11.6158594,16.6615385 9.140625,16.6615385 C6.66539062,16.6615385 4.61142187,14.8530462 4.2691875,12.5076923 L-2.84217094e-14,12.5076923 L-2.84217094e-14,21.5538462 C-2.84217094e-14,22.6990615 0.946265625,23.6307692 2.109375,23.6307692 L5.625,23.6307692 L5.625,20.1230769 C5.625,19.7407385 5.9398125,19.4307692 6.328125,19.4307692 L11.953125,19.4307692 C12.3414375,19.4307692 12.65625,19.7407385 12.65625,20.1230769 L12.65625,23.6307692 L16.171875,23.6307692 C17.3349844,23.6307692 18.28125,22.6990615 18.28125,21.5538462 L18.28125,12.5076923 L14.0120625,12.5076923 Z"></path>
                        <polygon points="7.03125 20.8153846 11.25 20.8153846 11.25 23.6307692 7.03125 23.6307692"></polygon>
                        <path d="M9.140625,15.2769231 C10.8384375,15.2769231 12.2588438,14.0857846 12.5855156,12.5076923 L5.69573437,12.5076923 C6.02240625,14.0857846 7.4428125,15.2769231 9.140625,15.2769231 Z"></path>
                    </g>
                </g>
            </g>
        </g>
    </g>
</svg>