<svg id="Layer_4" data-name="Layer 4" xmlns="http://www.w3.org/2000/svg" xmlns:xlink="http://www.w3.org/1999/xlink" viewBox="0 0 265.35 318.8"><defs><style>.cls-1,.cls-10,.cls-2,.cls-3,.cls-4,.cls-5,.cls-6,.cls-7,.cls-8,.cls-9{fill-rule:evenodd;}.cls-1{fill:url(#Linear_Gradient_44);}.cls-2{fill:url(#Linear_Gradient_44-2);}.cls-3{fill:#402e0a;}.cls-4{fill:url(#Linear_Gradient_49);}.cls-5{fill:url(#Linear_Gradient_50);}.cls-6{fill:url(#Radial_Gradient_38);}.cls-7{fill:url(#Radial_Gradient_40);}.cls-8{fill:url(#Radial_Gradient_40-2);}.cls-9{fill:url(#Radial_Gradient_43);}.cls-10{fill:#c79438;}</style><linearGradient id="Linear_Gradient_44" x1="202.08" y1="231.73" x2="101.61" y2="163.5" gradientUnits="userSpaceOnUse"><stop offset="0" stop-color="#140000"/><stop offset="1" stop-color="#422112"/></linearGradient><linearGradient id="Linear_Gradient_44-2" x1="1252.07" y1="757.41" x2="1219.47" y2="735.28" xlink:href="#Linear_Gradient_44"/><linearGradient id="Linear_Gradient_49" x1="1225.15" y1="874.83" x2="1212.81" y2="906.5" gradientUnits="userSpaceOnUse"><stop offset="0" stop-color="#452908"/><stop offset="1" stop-color="#bd9138"/></linearGradient><linearGradient id="Linear_Gradient_50" x1="1327.23" y1="720.93" x2="1360.65" y2="628.85" gradientUnits="userSpaceOnUse"><stop offset="0" stop-color="#0d0000"/><stop offset="1" stop-color="#613824"/></linearGradient><radialGradient id="Radial_Gradient_38" cx="1199.19" cy="741.94" r="45.95" gradientUnits="userSpaceOnUse"><stop offset="0" stop-color="#fabd45"/><stop offset="1" stop-color="#8f451f"/></radialGradient><radialGradient id="Radial_Gradient_40" cx="1359.31" cy="640.49" r="65.78" gradientUnits="userSpaceOnUse"><stop offset="0" stop-color="#9c701f"/><stop offset="1" stop-color="#7d4017"/></radialGradient><radialGradient id="Radial_Gradient_40-2" cx="1359.31" cy="640.48" r="65.78" xlink:href="#Radial_Gradient_40"/><radialGradient id="Radial_Gradient_43" cx="1213.64" cy="725.36" r="87.48" gradientUnits="userSpaceOnUse"><stop offset="0" stop-color="#ffeb8f"/><stop offset="1" stop-color="#8c571a"/></radialGradient></defs><polygon class="cls-1" points="10.38 247.34 131.54 60.74 224.13 100.91 126.61 295.02 10.38 247.34"/><path class="cls-2" d="M1158.56,864.65c-3.79,8.06,4.28,11.1,7,4.26l122.17-193.13,10.49-64.8L1206.3,735.64l-9.25,17.88Z" transform="translate(-1154.82 -609.96)"/><path class="cls-3" d="M1165.67,860c-1.13,3.68-.57,2.17-5.62,15.14l5,18.4,91,35.17,18.52-5.8c3.65-9.25,3.38-8,6.82-18Z" transform="translate(-1154.82 -609.96)"/><path class="cls-4" d="M1165.2,857.3c-1.11,3.7-.54,2.17-5.6,15.14l5,18.4,91,35.19,18.52-5.82c3.67-9.26,3.37-8,6.82-18Z" transform="translate(-1154.82 -609.96)"/><path class="cls-5" d="M1298.12,610c0,.56,79.66,28.5,120.78,43.6.65.22.65,2.29,1.27,2.52l-.07-1L1379,710.86l-92.29-34.4Z" transform="translate(-1154.82 -609.96)"/><path class="cls-6" d="M1158.68,866.14l41.94-117.76a80.67,80.67,0,0,1,7.09-13l92.19-124.84-3.19,1.46-2.16-.3-90.3,123a53.45,53.45,0,0,0-7.23,13.84l-42.2,116C1155,866.67,1156.48,867.39,1158.68,866.14Z" transform="translate(-1154.82 -609.96)"/><path class="cls-7" d="M1296.94,612.05s.66-2.3,2.65-1.58c17.25,6.18,101.34,36.58,118.8,42.83,2,.74.19,2.43.22,2.43l1.28,1.85-125.13-45.11Z" transform="translate(-1154.82 -609.96)"/><path class="cls-8" d="M1294.67,611.58c1.37-1.45,3.12-1.64,5.11-1l.51,3.89a4.24,4.24,0,0,0-4.26,1.34Z" transform="translate(-1154.82 -609.96)"/><path class="cls-9" d="M1160.34,859.64l39-112.33.48-1.24.48-1.15.5-1.11.48-1.06.48-1,.49-1,.48-.94.5-.89.48-.86.5-.84.48-.78.49-.77.48-.76.5-.72,1-1.37,88.69-116.64c-30.11,42.77-57,75-87.08,117.77a64.18,64.18,0,0,0-7.59,14Q1180.73,803.81,1160.34,859.64Z" transform="translate(-1154.82 -609.96)"/><path class="cls-10" d="M1299.81,615.25a.68.68,0,0,1-.46-.81.68.68,0,0,1,.82-.48c1.39.43,76.69,27.52,114.43,41.1a.66.66,0,0,1,.39.84.65.65,0,0,1-.84.4C1376.36,642.7,1301.13,615.63,1299.81,615.25Z" transform="translate(-1154.82 -609.96)"/></svg>