<svg id="Layer_6" data-name="Layer 6" xmlns="http://www.w3.org/2000/svg" xmlns:xlink="http://www.w3.org/1999/xlink" viewBox="0 0 146.84 113.52"><defs><style>.cls-1,.cls-2,.cls-3,.cls-4,.cls-5{fill-rule:evenodd;}.cls-1{fill:url(#Linear_Gradient_45);}.cls-2{fill:url(#Linear_Gradient_46);}.cls-3{fill:url(#Linear_Gradient_47);}.cls-4{fill:url(#Linear_Gradient_53);}.cls-5{fill:url(#Linear_Gradient_54);}</style><linearGradient id="Linear_Gradient_45" x1="1374.02" y1="508.82" x2="1363.96" y2="537.32" gradientUnits="userSpaceOnUse"><stop offset="0" stop-color="#b35c1a"/><stop offset="1" stop-color="#631a0a"/></linearGradient><linearGradient id="Linear_Gradient_46" x1="74.46" y1="59.5" x2="85.86" y2="29.65" gradientUnits="userSpaceOnUse"><stop offset="0" stop-color="#cc731f"/><stop offset="1" stop-color="#852612"/></linearGradient><linearGradient id="Linear_Gradient_47" x1="1338.69" y1="510.02" x2="1297.2" y2="482.13" gradientUnits="userSpaceOnUse"><stop offset="0" stop-color="#70240d"/><stop offset="1" stop-color="#422112"/></linearGradient><linearGradient id="Linear_Gradient_53" x1="1337.74" y1="487.21" x2="1340.36" y2="513.94" gradientUnits="userSpaceOnUse"><stop offset="0" stop-color="#e69494"/><stop offset="1" stop-color="#b35c1a"/></linearGradient><linearGradient id="Linear_Gradient_54" x1="1388.48" y1="475.59" x2="1385.49" y2="483.06" gradientUnits="userSpaceOnUse"><stop offset="0" stop-color="#b3571a"/><stop offset="1" stop-color="#852612"/></linearGradient></defs><path class="cls-1" d="M1303.19,536.71c-.44.43,6.51-28.27,11-46.31.81-2.43,1.94-4.37,2.27-5.48l15.09-26.64,111.58,42.8-48.94,69.14C1364.3,559.39,1303.62,536.78,1303.19,536.71Z" transform="translate(-1296.37 -456.7)"/><polygon class="cls-2" points="19.65 29.38 127.76 70.91 146.74 43.88 34.9 1.23 19.65 29.38"/><path class="cls-3" d="M1331.32,458.23l-4.24-1.53-17.33,27.65a52.64,52.64,0,0,0-4.26,10l-9.12,34,7.9,3.65,8.83-37.38a53.39,53.39,0,0,1,3.94-10.34Z" transform="translate(-1296.37 -456.7)"/><path class="cls-4" d="M1313.66,494c.33,0,24.5,9.84,47.85,16.07,3.7,1,4.42.64,1.22-1.47l-48.16-20.15Z" transform="translate(-1296.37 -456.7)"/><path class="cls-5" d="M1331.56,458.38c0-.29,111.66,41.81,111.66,42.1l-2.68,3.58-111.07-42.7Z" transform="translate(-1296.37 -456.7)"/></svg>