<svg xmlns="http://www.w3.org/2000/svg" xmlns:xlink="http://www.w3.org/1999/xlink" viewBox="0 0 265.76 318.8"><defs><style>.cls-1{isolation:isolate;}.cls-10,.cls-11,.cls-12,.cls-13,.cls-14,.cls-15,.cls-16,.cls-17,.cls-18,.cls-19,.cls-2,.cls-20,.cls-21,.cls-22,.cls-23,.cls-24,.cls-25,.cls-26,.cls-27,.cls-28,.cls-3,.cls-4,.cls-5,.cls-6,.cls-7,.cls-8,.cls-9{fill-rule:evenodd;}.cls-2{fill:url(#Linear_Gradient_44);}.cls-3{fill:url(#Linear_Gradient_45);}.cls-4{fill:url(#Linear_Gradient_46);}.cls-5{fill:url(#Linear_Gradient_47);}.cls-6{fill:#ebe8e5;}.cls-7{fill:#d6d4cf;}.cls-8{fill:#f5f5f5;}.cls-9{fill:url(#Linear_Gradient_48);}.cls-10{fill:url(#Linear_Gradient_48-2);}.cls-11{fill:url(#Linear_Gradient_48-3);}.cls-12,.cls-29{fill:#fff;}.cls-13{fill:#402e0a;}.cls-14{fill:url(#Linear_Gradient_49);}.cls-15{fill:url(#Linear_Gradient_50);}.cls-16{fill:url(#Linear_Gradient_51);}.cls-17{fill:url(#Radial_Gradient_38);}.cls-18{mix-blend-mode:multiply;fill:url(#_ÂÁ_Ï_ÌÌ_È_ËÂÌÚ_8);}.cls-19{fill:url(#Radial_Gradient_40);}.cls-20{fill:url(#Radial_Gradient_40-2);}.cls-21{fill:url(#Linear_Gradient_52);}.cls-22{fill:url(#Radial_Gradient_41);}.cls-23{fill:url(#Linear_Gradient_53);}.cls-24{fill:url(#Linear_Gradient_54);}.cls-25{fill:url(#Radial_Gradient_42);}.cls-26{fill:url(#Radial_Gradient_43);}.cls-27{fill:#c79438;}.cls-28{fill:url(#Linear_Gradient_58);}</style><linearGradient id="Linear_Gradient_44" x1="1608.03" y1="797.31" x2="1575.44" y2="775.18" gradientUnits="userSpaceOnUse"><stop offset="0" stop-color="#140000"/><stop offset="1" stop-color="#422112"/></linearGradient><linearGradient id="Linear_Gradient_45" x1="1665.49" y1="757.93" x2="1655.43" y2="786.42" gradientUnits="userSpaceOnUse"><stop offset="0" stop-color="#b35c1a"/><stop offset="1" stop-color="#631a0a"/></linearGradient><linearGradient id="Linear_Gradient_46" x1="151.52" y1="115.45" x2="162.92" y2="85.61" gradientUnits="userSpaceOnUse"><stop offset="0" stop-color="#cc731f"/><stop offset="1" stop-color="#852612"/></linearGradient><linearGradient id="Linear_Gradient_47" x1="1630.16" y1="759.13" x2="1588.67" y2="731.24" gradientUnits="userSpaceOnUse"><stop offset="0" stop-color="#70240d"/><stop offset="1" stop-color="#422112"/></linearGradient><linearGradient id="Linear_Gradient_48" x1="1641.07" y1="788.81" x2="1653.98" y2="759.21" gradientUnits="userSpaceOnUse"><stop offset="0" stop-color="#fff"/><stop offset="1" stop-color="#b5b3ab"/></linearGradient><linearGradient id="Linear_Gradient_48-2" x1="1631.6" y1="801.08" x2="1644.51" y2="771.49" xlink:href="#Linear_Gradient_48"/><linearGradient id="Linear_Gradient_48-3" x1="1621.91" y1="813.15" x2="1634.82" y2="783.56" xlink:href="#Linear_Gradient_48"/><linearGradient id="Linear_Gradient_49" x1="1581.11" y1="914.73" x2="1568.77" y2="946.4" gradientUnits="userSpaceOnUse"><stop offset="0" stop-color="#452908"/><stop offset="1" stop-color="#bd9138"/></linearGradient><linearGradient id="Linear_Gradient_50" x1="1683.19" y1="760.83" x2="1716.61" y2="668.76" gradientUnits="userSpaceOnUse"><stop offset="0" stop-color="#0d0000"/><stop offset="1" stop-color="#613824"/></linearGradient><linearGradient id="Linear_Gradient_51" x1="1736.8" y1="848.76" x2="1702.11" y2="821.64" gradientUnits="userSpaceOnUse"><stop offset="0" stop-color="#33421f"/><stop offset="1" stop-color="#381c0f"/></linearGradient><radialGradient id="Radial_Gradient_38" cx="1555.16" cy="781.84" r="45.95" gradientUnits="userSpaceOnUse"><stop offset="0" stop-color="#fabd45"/><stop offset="1" stop-color="#8f451f"/></radialGradient><radialGradient id="_ÂÁ_Ï_ÌÌ_È_ËÂÌÚ_8" cx="1624.08" cy="802.06" r="82.3" gradientUnits="userSpaceOnUse"><stop offset="0" stop-color="#fffae6"/><stop offset="1" stop-color="#c9b589"/></radialGradient><radialGradient id="Radial_Gradient_40" cx="1715.27" cy="680.39" r="65.78" gradientUnits="userSpaceOnUse"><stop offset="0" stop-color="#9c701f"/><stop offset="1" stop-color="#7d4017"/></radialGradient><radialGradient id="Radial_Gradient_40-2" cx="1715.27" cy="680.39" r="65.78" xlink:href="#Radial_Gradient_40"/><linearGradient id="Linear_Gradient_52" x1="1715.05" y1="869.34" x2="1682.57" y2="849.08" gradientUnits="userSpaceOnUse"><stop offset="0" stop-color="#2e451a"/><stop offset="1" stop-color="#4d2b12"/></linearGradient><radialGradient id="Radial_Gradient_41" cx="1677.34" cy="826.87" r="67.94" gradientUnits="userSpaceOnUse"><stop offset="0" stop-color="#ffcf52"/><stop offset="1" stop-color="#7d4017"/></radialGradient><linearGradient id="Linear_Gradient_53" x1="1629.21" y1="736.32" x2="1631.83" y2="763.05" gradientUnits="userSpaceOnUse"><stop offset="0" stop-color="#e69494"/><stop offset="1" stop-color="#b35c1a"/></linearGradient><linearGradient id="Linear_Gradient_54" x1="1679.95" y1="724.7" x2="1676.96" y2="732.16" gradientUnits="userSpaceOnUse"><stop offset="0" stop-color="#b3571a"/><stop offset="1" stop-color="#852612"/></linearGradient><radialGradient id="Radial_Gradient_42" cx="1693.64" cy="811" r="46.67" gradientUnits="userSpaceOnUse"><stop offset="0" stop-color="#f7c74d"/><stop offset="1" stop-color="#996929"/></radialGradient><radialGradient id="Radial_Gradient_43" cx="1569.6" cy="765.26" r="87.48" gradientUnits="userSpaceOnUse"><stop offset="0" stop-color="#ffeb8f"/><stop offset="1" stop-color="#8c571a"/></radialGradient><linearGradient id="Linear_Gradient_58" x1="1625.18" y1="849.08" x2="1616.44" y2="798.04" gradientUnits="userSpaceOnUse"><stop offset="0" stop-color="#fff"/><stop offset="1" stop-color="#fff"/></linearGradient></defs><g class="cls-1"><g id="card_deck_2" data-name="card deck 2"><path class="cls-2" d="M1514.52,904.55c-3.79,8.07,4.28,11.1,7,4.26l72.2-111.07,20.35-62.92,29.62-19.14,10.49-64.8-91.93,124.66L1553,793.43Z" transform="translate(-1510.78 -649.86)"/><path class="cls-3" d="M1594.66,785.82c-.44.43,6.51-28.27,11-46.31.81-2.43,1.94-4.37,2.27-5.48L1623,707.39l111.58,42.79-48.94,69.15C1655.77,808.5,1595.09,785.89,1594.66,785.82Z" transform="translate(-1510.78 -649.86)"/><polygon class="cls-4" points="96.71 85.34 204.82 126.86 223.8 99.83 111.96 57.19 96.71 85.34"/><path class="cls-5" d="M1622.79,707.34l-4.24-1.53-17.33,27.65a52.11,52.11,0,0,0-4.26,10l-9.12,34,7.9,3.65,8.83-37.39a53.55,53.55,0,0,1,3.94-10.33Z" transform="translate(-1510.78 -649.86)"/><path class="cls-6" d="M1565.61,826.54l109.49,42.68a4.25,4.25,0,0,0,5.53-2.54L1709,790.34a4.41,4.41,0,0,0-2.48-5.65L1597,742a4.3,4.3,0,0,0-5.55,2.54l-28.32,76.32A4.43,4.43,0,0,0,1565.61,826.54Z" transform="translate(-1510.78 -649.86)"/><path class="cls-7" d="M1564.29,828.44l109.49,42.68a4.27,4.27,0,0,0,5.55-2.53l28.34-76.33a4.45,4.45,0,0,0-2.5-5.67l-109.5-42.68a4.27,4.27,0,0,0-5.53,2.54l-28.34,76.32A4.43,4.43,0,0,0,1564.29,828.44Z" transform="translate(-1510.78 -649.86)"/><path class="cls-8" d="M1562.15,830.11l109.47,42.67a4.27,4.27,0,0,0,5.55-2.53l28.34-76.33a4.43,4.43,0,0,0-2.5-5.67l-109.5-42.67a4.26,4.26,0,0,0-5.53,2.53l-28.34,76.33A4.43,4.43,0,0,0,1562.15,830.11Z" transform="translate(-1510.78 -649.86)"/><path class="cls-9" d="M1560.93,832l109.49,42.68a4.27,4.27,0,0,0,5.55-2.53l28.32-76.35a4.41,4.41,0,0,0-2.48-5.65l-109.49-42.68a4.3,4.3,0,0,0-5.56,2.54l-28.32,76.32A4.45,4.45,0,0,0,1560.93,832Z" transform="translate(-1510.78 -649.86)"/><path class="cls-6" d="M1559,834.89l109.49,42.66A4.26,4.26,0,0,0,1674,875l28.34-76.32a4.45,4.45,0,0,0-2.5-5.66l-109.5-42.67a4.24,4.24,0,0,0-5.53,2.53l-28.34,76.33A4.45,4.45,0,0,0,1559,834.89Z" transform="translate(-1510.78 -649.86)"/><path class="cls-7" d="M1557.66,836.79l109.49,42.68a4.28,4.28,0,0,0,5.55-2.54L1701,800.59a4.42,4.42,0,0,0-2.5-5.66L1589,752.26a4.26,4.26,0,0,0-5.53,2.53l-28.34,76.33A4.45,4.45,0,0,0,1557.66,836.79Z" transform="translate(-1510.78 -649.86)"/><path class="cls-6" d="M1556.13,838.81l109.49,42.68a4.29,4.29,0,0,0,5.56-2.54l28.33-76.32A4.45,4.45,0,0,0,1697,797L1587.52,754.3a4.25,4.25,0,0,0-5.55,2.53l-28.32,76.33A4.41,4.41,0,0,0,1556.13,838.81Z" transform="translate(-1510.78 -649.86)"/><path class="cls-7" d="M1554.81,840.73l109.5,42.66a4.26,4.26,0,0,0,5.55-2.52l28.33-76.34a4.42,4.42,0,0,0-2.5-5.66L1586.2,756.2a4.24,4.24,0,0,0-5.53,2.53l-28.34,76.33A4.44,4.44,0,0,0,1554.81,840.73Z" transform="translate(-1510.78 -649.86)"/><path class="cls-8" d="M1552.67,842.39l109.49,42.68a4.28,4.28,0,0,0,5.54-2.54L1696,806.19a4.4,4.4,0,0,0-2.5-5.65L1584,757.86a4.25,4.25,0,0,0-5.53,2.53l-28.34,76.33A4.43,4.43,0,0,0,1552.67,842.39Z" transform="translate(-1510.78 -649.86)"/><path class="cls-10" d="M1551.45,844.24,1661,886.92a4.28,4.28,0,0,0,5.55-2.54l28.34-76.32a4.47,4.47,0,0,0-2.51-5.67l-109.49-42.68a4.25,4.25,0,0,0-5.53,2.54L1549,838.59A4.41,4.41,0,0,0,1551.45,844.24Z" transform="translate(-1510.78 -649.86)"/><path class="cls-6" d="M1549.3,847l109.49,42.67a4.26,4.26,0,0,0,5.53-2.53l28.34-76.34a4.42,4.42,0,0,0-2.48-5.66l-109.5-42.67a4.26,4.26,0,0,0-5.55,2.53l-28.34,76.33A4.46,4.46,0,0,0,1549.3,847Z" transform="translate(-1510.78 -649.86)"/><path class="cls-7" d="M1548,848.85l109.49,42.68A4.29,4.29,0,0,0,1663,889l28.34-76.32a4.47,4.47,0,0,0-2.5-5.68l-109.5-42.67a4.25,4.25,0,0,0-5.53,2.53l-28.34,76.33A4.44,4.44,0,0,0,1548,848.85Z" transform="translate(-1510.78 -649.86)"/><path class="cls-6" d="M1546.45,850.89,1656,893.55a4.24,4.24,0,0,0,5.53-2.54l28.34-76.32a4.43,4.43,0,0,0-2.49-5.66l-109.49-42.67a4.26,4.26,0,0,0-5.55,2.53L1544,845.22A4.45,4.45,0,0,0,1546.45,850.89Z" transform="translate(-1510.78 -649.86)"/><path class="cls-7" d="M1545.13,852.79l109.5,42.68a4.3,4.3,0,0,0,5.55-2.54l28.33-76.34a4.43,4.43,0,0,0-2.5-5.65l-109.49-42.68a4.23,4.23,0,0,0-5.53,2.53l-28.34,76.33A4.44,4.44,0,0,0,1545.13,852.79Z" transform="translate(-1510.78 -649.86)"/><path class="cls-8" d="M1543,854.45l109.5,42.68a4.28,4.28,0,0,0,5.55-2.54l28.34-76.34a4.41,4.41,0,0,0-2.51-5.65l-109.49-42.68a4.25,4.25,0,0,0-5.53,2.54l-28.34,76.32A4.44,4.44,0,0,0,1543,854.45Z" transform="translate(-1510.78 -649.86)"/><path class="cls-11" d="M1541.77,856.32,1651.27,899a4.24,4.24,0,0,0,5.53-2.54l28.34-76.32a4.44,4.44,0,0,0-2.49-5.67l-109.49-42.68a4.27,4.27,0,0,0-5.55,2.55l-28.34,76.33A4.45,4.45,0,0,0,1541.77,856.32Z" transform="translate(-1510.78 -649.86)"/><path class="cls-12" d="M1539.72,858.82l109.49,42.68a4.27,4.27,0,0,0,5.55-2.54l28.34-76.32a4.45,4.45,0,0,0-2.5-5.67l-109.49-42.68a4.27,4.27,0,0,0-5.54,2.53l-28.34,76.35A4.42,4.42,0,0,0,1539.72,858.82Z" transform="translate(-1510.78 -649.86)"/><path class="cls-12" d="M1535.56,863.48l109.49,42.68a4.27,4.27,0,0,0,5.53-2.54l28.34-76.32a4.44,4.44,0,0,0-2.48-5.67L1566.94,779a4.27,4.27,0,0,0-5.55,2.53l-28.34,76.33A4.44,4.44,0,0,0,1535.56,863.48Z" transform="translate(-1510.78 -649.86)"/><polygon class="cls-12" points="57.26 139.8 58.64 140.33 59.16 139 57.75 138.45 57.26 139.8"/><polygon class="cls-12" points="157 178.37 158.39 178.9 158.9 177.54 157.5 177.01 157 178.37"/><polygon class="cls-12" points="131.54 246.06 132.93 246.6 133.43 245.25 132.04 244.72 131.54 246.06"/><path class="cls-13" d="M1521.63,899.94c-1.13,3.68-.57,2.17-5.62,15.14l5,18.4,91,35.18,18.52-5.81c3.65-9.25,3.38-8,6.82-18Z" transform="translate(-1510.78 -649.86)"/><path class="cls-14" d="M1521.16,897.2c-1.11,3.7-.54,2.17-5.6,15.14l5,18.4,91,35.19,18.52-5.82c3.67-9.25,3.37-8,6.82-18Z" transform="translate(-1510.78 -649.86)"/><path class="cls-15" d="M1654.08,649.86c0,.56,79.66,28.5,120.78,43.6.65.22.65,2.29,1.27,2.52l-.07-1-41.15,55.8-92.29-34.41Z" transform="translate(-1510.78 -649.86)"/><path class="cls-16" d="M1776.44,695.45l.1,1.11-7.64,71.18-129,185.1c-3.7,4.78-4.06,1.7-1.85-4.93l38.88-116,99.12-136.43Z" transform="translate(-1510.78 -649.86)"/><path class="cls-12" d="M1521.2,903.11l109.49,42.67a4.26,4.26,0,0,0,5.55-2.53l28.34-76.33a4.45,4.45,0,0,0-2.5-5.67l-109.49-42.67a4.27,4.27,0,0,0-5.54,2.53l-28.34,76.34A4.43,4.43,0,0,0,1521.2,903.11Z" transform="translate(-1510.78 -649.86)"/><polygon class="cls-12" points="42.9 179.43 44.3 179.98 44.8 178.62 43.41 178.07 42.9 179.43"/><polygon class="cls-12" points="142.64 217.99 144.05 218.54 144.55 217.19 143.16 216.64 142.64 217.99"/><path class="cls-17" d="M1514.64,906l41.94-117.75a80.35,80.35,0,0,1,7.09-13l92.19-124.84-3.19,1.46-2.16-.29-90.3,123a53.45,53.45,0,0,0-7.23,13.84l-42.2,116C1511,906.57,1512.44,907.29,1514.64,906Z" transform="translate(-1510.78 -649.86)"/><path class="cls-18" d="M1559.85,785.41a102.72,102.72,0,0,1,6.82-10.23L1685.12,820l-6.89,10.77Z" transform="translate(-1510.78 -649.86)"/><path class="cls-19" d="M1652.9,652s.66-2.3,2.65-1.58c17.25,6.19,101.34,36.58,118.8,42.83,2,.74.19,2.43.22,2.43l1.28,1.85-125.13-45.11Z" transform="translate(-1510.78 -649.86)"/><path class="cls-20" d="M1650.63,651.48c1.37-1.45,3.12-1.64,5.11-1l.51,3.89a4.24,4.24,0,0,0-4.26,1.34Z" transform="translate(-1510.78 -649.86)"/><path class="cls-21" d="M1768.44,767.64l-37.45-9-45.23,65.31a43.69,43.69,0,0,0-9.72,18.76L1636.11,955.1Z" transform="translate(-1510.78 -649.86)"/><path class="cls-22" d="M1636.43,955l41.94-117.77a81.46,81.46,0,0,1,7.09-12.95l91-127.33-1.63-1.27-.34-2.24L1682,823.54a54.2,54.2,0,0,0-7.21,13.85l-40.74,112,1.35,2.79C1635.75,953.25,1634.72,953.1,1636.43,955Z" transform="translate(-1510.78 -649.86)"/><path class="cls-23" d="M1605.13,743.14c.33,0,24.5,9.84,47.85,16.07,3.7,1,4.42.64,1.22-1.47L1606,737.59Z" transform="translate(-1510.78 -649.86)"/><path class="cls-24" d="M1623,707.49c0-.29,111.66,41.8,111.66,42.09l-2.68,3.58-111.07-42.69Z" transform="translate(-1510.78 -649.86)"/><path class="cls-25" d="M1637.56,951l39-112.32.5-1.23.47-1.17.48-1.1.5-1.07.48-1,.5-1,.48-.94.48-.89.49-.86.48-.84.5-.81.48-.77.5-.73.48-.72,1-1.37L1776.27,697q-45.18,64.14-90.34,128.31a64.57,64.57,0,0,0-7.58,14Q1658,895.2,1637.56,951Z" transform="translate(-1510.78 -649.86)"/><path class="cls-26" d="M1516.3,899.54l39-112.33.48-1.24.48-1.14.5-1.12.48-1.06.48-1,.49-1,.48-.95.5-.89.48-.85.5-.84.48-.79.49-.77.48-.76.5-.72,1-1.37,88.69-116.63c-30.11,42.76-57,75-87.08,117.76a64.18,64.18,0,0,0-7.59,14Q1536.69,843.71,1516.3,899.54Z" transform="translate(-1510.78 -649.86)"/><path class="cls-27" d="M1655.77,655.15a.68.68,0,0,1-.46-.8.67.67,0,0,1,.82-.48c1.39.42,76.69,27.51,114.43,41.1a.67.67,0,0,1,.4.84.66.66,0,0,1-.84.39C1732.32,682.6,1657.09,655.53,1655.77,655.15Z" transform="translate(-1510.78 -649.86)"/><path class="cls-28" d="M1558.77,784.33,1677.24,830l-1,4.52C1637.32,817.69,1559.42,784,1558.77,784.33Z" transform="translate(-1510.78 -649.86)"/><polygon class="cls-29" points="57.63 124.16 58.11 123.7 58.39 123.51 58.66 123.34 58.95 123.2 59.26 123.08 59.59 122.98 59.93 122.91 60.27 122.87 60.65 122.86 61.03 122.87 61.44 122.92 61.85 123.01 62.29 123.13 62.76 123.28 63.24 123.47 63.24 123.47 90.05 133.79 116.79 144.34 143.47 155.01 170.06 165.93 170.09 165.96 170.57 166.29 171.02 166.65 171.44 167.04 171.84 167.47 172.01 167.73 172.16 167.98 172.28 168.26 172.4 168.57 172.47 168.87 172.52 169.22 172.54 169.58 172.49 169.97 172.4 169.59 172.34 169.25 172.25 168.94 172.15 168.65 172.01 168.39 171.87 168.14 171.72 167.91 171.55 167.71 171.17 167.33 170.74 166.99 170.3 166.68 169.82 166.37 169.87 166.39 143.04 156.09 116.3 145.56 89.62 134.88 63.03 123.99 63.03 123.99 62.57 123.78 62.14 123.61 61.73 123.47 61.35 123.37 60.97 123.3 60.63 123.27 60.29 123.25 59.96 123.27 59.66 123.32 59.36 123.37 59.07 123.47 58.78 123.58 58.51 123.7 58.22 123.85 57.63 124.16"/><polygon class="cls-29" points="59.11 121.25 59.59 120.78 59.86 120.59 60.13 120.42 60.43 120.29 60.73 120.17 61.06 120.06 61.38 120 61.74 119.96 62.1 119.94 62.5 119.96 62.89 120.01 63.32 120.1 63.77 120.22 64.23 120.37 64.71 120.56 64.69 120.56 91.52 130.89 118.25 141.43 144.94 152.1 171.51 163.01 171.56 163.05 172.03 163.39 172.49 163.73 172.92 164.13 173.29 164.57 173.47 164.81 173.62 165.07 173.76 165.36 173.86 165.65 173.94 165.98 174 166.3 174.01 166.68 173.96 167.06 173.88 166.68 173.79 166.34 173.71 166.03 173.6 165.74 173.48 165.48 173.35 165.24 173.19 165.02 173.02 164.81 172.64 164.42 172.22 164.08 171.75 163.77 171.29 163.46 171.32 163.5 144.51 153.18 117.77 142.64 91.09 131.97 64.49 121.08 64.49 121.08 64.02 120.87 63.61 120.7 63.2 120.56 62.81 120.46 62.45 120.41 62.09 120.36 61.76 120.36 61.44 120.36 61.13 120.41 60.82 120.47 60.53 120.56 60.24 120.66 59.96 120.8 59.69 120.94 59.11 121.25"/><polygon class="cls-29" points="60.73 119.36 61.21 118.9 61.49 118.71 61.76 118.56 62.05 118.4 62.36 118.28 62.69 118.2 63.01 118.11 63.37 118.08 63.73 118.06 64.13 118.09 64.52 118.13 64.95 118.23 65.39 118.33 65.86 118.5 66.34 118.69 66.32 118.69 93.15 129.01 119.88 139.54 146.57 150.23 173.14 161.15 173.19 161.16 173.65 161.51 174.12 161.87 174.54 162.26 174.92 162.69 175.09 162.95 175.25 163.2 175.38 163.48 175.49 163.77 175.57 164.09 175.62 164.44 175.64 164.8 175.59 165.17 175.5 164.81 175.42 164.47 175.33 164.15 175.23 163.87 175.11 163.6 174.97 163.36 174.82 163.13 174.65 162.93 174.27 162.55 173.84 162.21 173.38 161.88 172.92 161.59 172.95 161.61 146.14 151.31 119.4 140.76 92.72 130.1 66.11 119.19 66.11 119.19 65.67 118.98 65.24 118.81 64.83 118.69 64.44 118.59 64.08 118.52 63.72 118.49 63.39 118.47 63.06 118.49 62.76 118.52 62.45 118.59 62.16 118.68 61.87 118.78 61.59 118.92 61.32 119.05 60.73 119.36"/><polygon class="cls-29" points="62.45 117.07 62.93 116.62 63.18 116.43 63.48 116.26 63.77 116.12 64.08 116 64.4 115.9 64.73 115.83 65.09 115.78 65.45 115.78 65.84 115.8 66.23 115.85 66.66 115.94 67.11 116.06 67.57 116.21 68.05 116.4 68.03 116.4 94.86 126.71 121.59 137.26 148.26 147.94 174.85 158.85 174.91 158.89 175.37 159.21 175.83 159.57 176.26 159.97 176.63 160.39 176.81 160.65 176.96 160.91 177.1 161.18 177.2 161.49 177.29 161.8 177.34 162.14 177.35 162.5 177.29 162.9 177.2 162.52 177.13 162.18 177.05 161.87 176.94 161.58 176.82 161.32 176.69 161.06 176.53 160.84 176.36 160.63 175.97 160.26 175.56 159.91 175.09 159.61 174.61 159.3 174.66 159.31 147.84 149.02 121.11 138.48 94.43 127.81 67.83 116.91 67.83 116.91 67.36 116.71 66.95 116.53 66.54 116.4 66.15 116.3 65.79 116.23 65.43 116.19 65.1 116.17 64.78 116.19 64.47 116.24 64.16 116.3 63.87 116.4 63.58 116.5 63.3 116.62 63.03 116.77 62.45 117.07"/><polygon class="cls-29" points="63.59 115.88 64.08 115.42 64.35 115.23 64.62 115.08 64.93 114.92 65.22 114.8 65.55 114.72 65.89 114.63 66.23 114.6 66.61 114.58 66.99 114.6 67.4 114.65 67.83 114.74 68.25 114.86 68.72 115.01 69.2 115.22 69.2 115.2 96.01 125.53 122.75 136.07 149.43 146.76 176.02 157.67 176.05 157.69 176.53 158.03 176.98 158.39 177.41 158.78 177.8 159.21 177.97 159.45 178.13 159.72 178.25 160 178.37 160.29 178.43 160.62 178.49 160.96 178.5 161.32 178.45 161.7 178.37 161.32 178.3 160.98 178.21 160.67 178.11 160.39 177.99 160.12 177.83 159.88 177.68 159.66 177.51 159.45 177.13 159.07 176.7 158.73 176.26 158.41 175.78 158.1 175.83 158.13 149 147.84 122.26 137.28 95.58 126.61 68.99 115.71 68.99 115.71 68.53 115.51 68.1 115.33 67.71 115.22 67.31 115.11 66.95 115.04 66.59 115.01 66.25 114.99 65.92 115.01 65.62 115.04 65.33 115.11 65.03 115.2 64.74 115.3 64.47 115.44 64.18 115.58 63.59 115.88"/><polygon class="cls-29" points="65.72 113.04 66.2 112.58 66.47 112.41 66.75 112.23 67.04 112.08 67.35 111.96 67.67 111.88 68.02 111.81 68.36 111.75 68.73 111.74 69.11 111.77 69.52 111.81 69.95 111.91 70.38 112.01 70.84 112.18 71.32 112.37 71.32 112.37 98.13 122.69 124.88 133.24 151.55 143.91 178.14 154.83 178.19 154.84 178.66 155.19 179.1 155.54 179.53 155.94 179.93 156.37 180.1 156.62 180.25 156.88 180.37 157.16 180.49 157.45 180.56 157.77 180.61 158.12 180.63 158.47 180.58 158.85 180.49 158.49 180.42 158.15 180.34 157.82 180.23 157.55 180.1 157.28 179.96 157.04 179.81 156.81 179.63 156.61 179.26 156.23 178.83 155.89 178.38 155.56 177.9 155.27 177.95 155.29 151.13 144.99 124.4 134.46 97.71 123.78 71.12 112.87 71.12 112.87 70.65 112.66 70.23 112.49 69.83 112.37 69.44 112.27 69.08 112.2 68.72 112.17 68.38 112.15 68.05 112.17 67.74 112.2 67.45 112.27 67.16 112.35 66.87 112.47 66.59 112.59 66.3 112.73 65.72 113.04"/><polygon class="cls-29" points="67.59 112 68.07 111.53 68.34 111.34 68.61 111.17 68.91 111.03 69.22 110.92 69.54 110.81 69.88 110.74 70.23 110.71 70.6 110.69 70.98 110.71 71.39 110.76 71.8 110.85 72.25 110.97 72.71 111.12 73.19 111.31 73.19 111.31 100 121.62 126.75 132.18 153.42 142.85 180.01 153.76 180.04 153.8 180.52 154.12 180.97 154.48 181.4 154.88 181.79 155.32 181.96 155.56 182.12 155.82 182.24 156.09 182.34 156.4 182.43 156.73 182.48 157.05 182.49 157.41 182.44 157.81 182.36 157.43 182.29 157.09 182.2 156.78 182.08 156.49 181.96 156.23 181.83 155.99 181.67 155.77 181.5 155.54 181.12 155.17 180.7 154.83 180.25 154.52 179.77 154.21 179.82 154.23 152.99 143.93 126.25 133.39 99.57 122.72 72.98 111.82 72.98 111.82 72.52 111.62 72.09 111.45 71.68 111.31 71.31 111.21 70.93 111.14 70.59 111.1 70.24 111.09 69.92 111.1 69.61 111.16 69.32 111.22 69.03 111.31 68.73 111.41 68.46 111.55 68.17 111.69 67.59 112"/><polygon class="cls-29" points="69.06 109.08 69.54 108.62 69.8 108.43 70.09 108.26 70.38 108.12 70.69 108 71.01 107.9 71.34 107.83 71.7 107.8 72.06 107.78 72.45 107.8 72.85 107.85 73.28 107.93 73.72 108.05 74.18 108.21 74.66 108.4 74.65 108.4 101.47 118.73 128.2 129.26 154.88 139.96 181.47 150.87 181.52 150.88 181.98 151.23 182.44 151.59 182.87 151.98 183.25 152.41 183.42 152.65 183.57 152.92 183.71 153.2 183.81 153.49 183.9 153.81 183.95 154.16 183.97 154.52 183.92 154.89 183.83 154.52 183.75 154.18 183.66 153.87 183.56 153.57 183.44 153.32 183.3 153.08 183.15 152.85 182.97 152.65 182.6 152.27 182.17 151.93 181.71 151.6 181.24 151.3 181.28 151.33 154.45 141.03 127.72 130.48 101.05 119.81 74.44 108.91 74.44 108.91 74 108.7 73.57 108.53 73.16 108.4 72.76 108.31 72.4 108.24 72.04 108.19 71.72 108.19 71.39 108.21 71.08 108.24 70.77 108.31 70.48 108.4 70.19 108.5 69.92 108.64 69.64 108.77 69.06 109.08"/><polygon class="cls-29" points="70.69 107.2 71.17 106.75 71.44 106.56 71.72 106.39 72.01 106.24 72.32 106.12 72.64 106.03 72.97 105.96 73.33 105.91 73.69 105.89 74.08 105.93 74.47 105.98 74.9 106.07 75.35 106.19 75.81 106.34 76.29 106.53 76.27 106.53 103.1 116.84 129.83 127.4 156.52 138.07 183.09 148.98 183.15 149 183.61 149.34 184.07 149.7 184.5 150.1 184.88 150.53 185.05 150.78 185.2 151.04 185.34 151.31 185.44 151.6 185.53 151.93 185.58 152.27 185.59 152.63 185.54 153.01 185.46 152.65 185.37 152.31 185.29 152 185.18 151.71 185.06 151.43 184.93 151.19 184.77 150.97 184.6 150.76 184.22 150.39 183.8 150.05 183.33 149.74 182.87 149.43 182.91 149.45 156.09 139.15 129.35 128.61 102.67 117.94 76.07 107.03 76.07 107.03 75.62 106.82 75.19 106.67 74.78 106.53 74.39 106.43 74.03 106.36 73.67 106.32 73.34 106.31 73.02 106.32 72.71 106.36 72.4 106.43 72.11 106.51 71.82 106.63 71.55 106.75 71.27 106.91 70.69 107.2"/><polygon class="cls-29" points="72.4 104.92 72.88 104.46 73.14 104.27 73.43 104.1 73.72 103.96 74.03 103.84 74.34 103.74 74.68 103.67 75.04 103.63 75.4 103.62 75.79 103.63 76.19 103.69 76.62 103.77 77.06 103.89 77.52 104.05 77.99 104.23 77.99 104.23 104.82 114.55 131.54 125.1 158.22 135.77 184.81 146.69 184.86 146.72 185.32 147.05 185.78 147.41 186.21 147.8 186.59 148.25 186.76 148.49 186.91 148.74 187.05 149.02 187.15 149.33 187.24 149.63 187.29 149.98 187.31 150.34 187.24 150.73 187.15 150.35 187.09 150.01 187 149.7 186.9 149.41 186.78 149.16 186.64 148.91 186.49 148.69 186.31 148.47 185.92 148.09 185.51 147.75 185.05 147.44 184.57 147.13 184.62 147.15 157.79 136.85 131.06 126.32 104.37 115.64 77.78 104.75 77.78 104.75 77.32 104.54 76.89 104.37 76.5 104.23 76.1 104.13 75.74 104.06 75.38 104.03 75.06 104.01 74.73 104.03 74.42 104.08 74.11 104.15 73.82 104.23 73.53 104.34 73.26 104.47 72.98 104.61 72.4 104.92"/><polygon class="cls-29" points="73.55 103.72 74.03 103.26 74.3 103.09 74.58 102.91 74.87 102.76 75.18 102.64 75.5 102.56 75.84 102.49 76.19 102.44 76.56 102.42 76.94 102.45 77.35 102.49 77.76 102.59 78.21 102.69 78.67 102.86 79.15 103.05 79.15 103.05 105.96 113.36 132.71 123.92 159.38 134.59 185.97 145.51 186.01 145.52 186.49 145.87 186.93 146.22 187.36 146.62 187.75 147.05 187.93 147.3 188.08 147.56 188.2 147.84 188.3 148.13 188.39 148.45 188.44 148.79 188.46 149.16 188.41 149.53 188.32 149.17 188.25 148.83 188.16 148.52 188.04 148.23 187.93 147.96 187.79 147.72 187.63 147.49 187.46 147.29 187.09 146.91 186.66 146.57 186.21 146.24 185.73 145.95 185.78 145.97 158.95 135.67 132.21 125.14 105.54 114.46 78.95 103.55 78.93 103.55 78.48 103.34 78.06 103.17 77.64 103.05 77.27 102.95 76.89 102.88 76.55 102.85 76.2 102.83 75.88 102.85 75.57 102.88 75.28 102.95 74.99 103.03 74.7 103.15 74.42 103.27 74.13 103.41 73.55 103.72"/><polygon class="cls-29" points="74.53 102.28 75.01 101.82 75.26 101.63 75.55 101.47 75.84 101.32 76.15 101.2 76.46 101.11 76.81 101.03 77.16 101 77.52 100.98 77.92 101 78.31 101.05 78.74 101.13 79.19 101.25 79.65 101.41 80.11 101.61 80.11 101.61 106.94 111.93 133.67 122.46 160.34 133.15 186.93 144.07 186.98 144.08 187.45 144.43 187.91 144.79 188.34 145.18 188.71 145.61 188.88 145.87 189.04 146.12 189.18 146.4 189.28 146.69 189.37 147.01 189.42 147.36 189.43 147.72 189.37 148.09 189.28 147.72 189.21 147.37 189.13 147.06 189.02 146.79 188.9 146.52 188.76 146.28 188.61 146.05 188.44 145.85 188.04 145.47 187.63 145.13 187.17 144.8 186.69 144.5 186.74 144.53 159.91 134.23 133.19 123.68 106.5 113.02 79.91 102.11 79.91 102.11 79.44 101.9 79.02 101.73 78.62 101.61 78.23 101.51 77.87 101.44 77.51 101.41 77.18 101.39 76.86 101.41 76.55 101.44 76.24 101.51 75.95 101.59 75.66 101.7 75.38 101.83 75.11 101.97 74.53 102.28"/><polygon class="cls-29" points="75.98 99.37 76.46 98.92 76.74 98.73 77.01 98.56 77.3 98.43 77.61 98.31 77.94 98.2 78.28 98.13 78.62 98.08 79 98.08 79.37 98.1 79.79 98.15 80.2 98.24 80.64 98.36 81.11 98.51 81.58 98.7 81.58 98.7 108.4 109.01 135.14 119.57 161.82 130.24 188.41 141.15 188.44 141.19 188.92 141.51 189.37 141.87 189.79 142.27 190.19 142.7 190.36 142.95 190.5 143.21 190.63 143.48 190.74 143.79 190.82 144.1 190.87 144.44 190.89 144.8 190.84 145.2 190.75 144.82 190.68 144.48 190.6 144.17 190.48 143.88 190.36 143.62 190.22 143.36 190.07 143.14 189.9 142.94 189.52 142.56 189.09 142.22 188.65 141.91 188.16 141.6 188.22 141.62 161.39 131.32 134.64 120.78 107.97 110.11 81.38 99.21 81.36 99.21 80.92 99.01 80.49 98.84 80.08 98.7 79.7 98.6 79.32 98.53 78.98 98.49 78.64 98.48 78.31 98.49 78 98.55 77.71 98.6 77.42 98.7 77.13 98.8 76.86 98.92 76.56 99.08 75.98 99.37"/><polygon class="cls-29" points="77.61 97.5 78.09 97.04 78.36 96.85 78.64 96.68 78.93 96.54 79.24 96.42 79.56 96.32 79.91 96.25 80.25 96.22 80.63 96.2 81 96.22 81.41 96.27 81.82 96.35 82.27 96.47 82.73 96.63 83.21 96.81 83.21 96.81 110.02 107.15 136.77 117.68 163.44 128.36 190.03 139.27 190.08 139.3 190.55 139.65 190.99 139.99 191.42 140.38 191.81 140.83 191.99 141.07 192.14 141.32 192.26 141.62 192.38 141.91 192.45 142.23 192.5 142.56 192.52 142.94 192.47 143.31 192.38 142.94 192.31 142.59 192.23 142.28 192.12 141.99 191.99 141.74 191.85 141.5 191.69 141.27 191.52 141.07 191.15 140.67 190.72 140.33 190.27 140.02 189.79 139.72 189.84 139.75 163.01 129.44 136.27 118.9 109.6 108.22 83.01 97.33 83.01 97.33 82.54 97.12 82.12 96.95 81.7 96.81 81.33 96.71 80.95 96.64 80.61 96.61 80.27 96.61 79.94 96.61 79.63 96.66 79.34 96.73 79.05 96.81 78.76 96.92 78.48 97.06 78.19 97.19 77.61 97.5"/><polygon class="cls-29" points="79.32 95.2 79.8 94.74 80.08 94.55 80.35 94.4 80.64 94.25 80.95 94.13 81.28 94.04 81.6 93.95 81.96 93.92 82.34 93.9 82.72 93.92 83.13 93.97 83.54 94.06 83.98 94.18 84.45 94.33 84.92 94.54 84.92 94.52 111.74 104.85 138.46 115.39 165.16 126.08 191.73 136.99 191.78 137.01 192.26 137.35 192.71 137.71 193.13 138.1 193.51 138.53 193.7 138.79 193.84 139.05 193.97 139.32 194.08 139.61 194.16 139.94 194.21 140.28 194.23 140.64 194.18 141.02 194.09 140.64 194.03 140.3 193.94 139.99 193.82 139.72 193.7 139.44 193.56 139.2 193.41 138.98 193.24 138.77 192.86 138.4 192.43 138.05 191.99 137.73 191.51 137.42 191.56 137.45 164.73 127.16 137.98 116.6 111.31 105.93 84.72 95.03 84.7 95.03 84.26 94.83 83.83 94.66 83.42 94.54 83.04 94.43 82.66 94.36 82.32 94.31 81.98 94.31 81.65 94.33 81.34 94.36 81.04 94.43 80.75 94.52 80.47 94.62 80.18 94.76 79.91 94.9 79.32 95.2"/><polygon class="cls-29" points="80.49 94.02 80.97 93.56 81.22 93.37 81.52 93.2 81.81 93.06 82.12 92.94 82.42 92.84 82.77 92.77 83.13 92.74 83.49 92.72 83.88 92.74 84.27 92.79 84.7 92.88 85.15 93 85.61 93.15 86.09 93.34 86.07 93.34 112.9 103.67 139.63 114.2 166.3 124.88 192.89 135.79 192.94 135.83 193.41 136.17 193.87 136.51 194.3 136.91 194.68 137.35 194.85 137.59 195 137.85 195.14 138.12 195.24 138.43 195.33 138.75 195.38 139.08 195.4 139.44 195.34 139.84 195.26 139.46 195.17 139.12 195.09 138.81 194.98 138.52 194.86 138.26 194.73 138.02 194.57 137.8 194.4 137.57 194.01 137.2 193.6 136.85 193.13 136.54 192.65 136.24 192.71 136.27 165.88 125.96 139.15 115.42 112.47 104.75 85.87 93.85 85.87 93.85 85.41 93.65 84.99 93.47 84.58 93.34 84.19 93.23 83.83 93.17 83.47 93.13 83.14 93.13 82.82 93.13 82.51 93.18 82.2 93.25 81.91 93.34 81.62 93.44 81.34 93.58 81.07 93.71 80.49 94.02"/></g></g></svg>