<svg xmlns="http://www.w3.org/2000/svg" xmlns:xlink="http://www.w3.org/1999/xlink" viewBox="0 0 154.89 146.76"><defs><style>.cls-1{isolation:isolate;}.cls-2{fill:#e8d9b2;opacity:0.5;}.cls-2,.cls-3,.cls-4,.cls-5,.cls-6{fill-rule:evenodd;}.cls-2,.cls-6{mix-blend-mode:multiply;}.cls-3{fill:url(#Radial_Gradient_37);}.cls-4{fill:#fcfaf5;}.cls-5{fill:#a89461;}.cls-6{fill:#d6d6d6;}</style><radialGradient id="Radial_Gradient_37" cx="1180.38" cy="897.04" r="25.1" gradientUnits="userSpaceOnUse"><stop offset="0" stop-color="#593b08"/><stop offset="1"/></radialGradient></defs><g class="cls-1"><g id="card_deck_2_lid" data-name="card deck 2 lid"><path class="cls-2" d="M1137.05,914.88c-.46,0,34.86-97.33,35.31-97.33l118.42,45.26L1253,960.16l-22.89-8.57c-4.79-2-6.15-6.8-4.28-11.8l6.8-21.3c4.59-17.23-3.39-29-17.59-36.8-11-5.76-30.81-2.28-36.19,11.79l-9.61,26.38c-2.6,5.26-7.62,5.4-11,4Z" transform="translate(-1135.89 -817.55)"/><path class="cls-3" d="M1161.86,924.27c2.89,0,5.77.1,8.67-4.65l9.56-25.71c4.54-10.28,17.16-16.71,31.43-13.81-14.11-1.3-25.81,4.66-28.54,14.68l-10.17,25.72C1170.82,925.14,1166,925.65,1161.86,924.27Z" transform="translate(-1135.89 -817.55)"/><path class="cls-4" d="M1233.32,912.58l.39-3.73c.31-8.62-3.43-16.5-10.26-22.28a29,29,0,0,0-9.83-5.41l-3.62-.91-3.89-.43c-9.2-.54-18.54,2.23-23.95,10.28a22.8,22.8,0,0,0-2.33,4.56l-3.39,9.22c-.57,1.52-1.08,3.08-1.7,4.61,0,.1-3.34,9.13-3.39,9.21a11.63,11.63,0,0,1-4.4,5.61,9.2,9.2,0,0,1-4.68,1.33,6.09,6.09,0,0,1-1,0,14.77,14.77,0,0,1-1.66-.67l-4-1.66-9.46-4c-2-.82-4-1.64-5.94-2.5-.86-.36-1.7-.72-2.56-1.1a4,4,0,0,1-.75-.36,8.86,8.86,0,0,1,1.75.52c1.66.56,3.32,1.2,5,1.83l17.83,7,3-.37a8,8,0,0,0,4.37-3.26l1.46-2.74,6.65-18.47c1-2.72,1.49-4.26,2.5-6.63a18.14,18.14,0,0,1,1.27-2.28,22.8,22.8,0,0,1,5.2-5.79c9.07-7.21,23.83-7.45,33.67-1.73,7.61,4.42,13.26,11.7,14.73,20.46a27.12,27.12,0,0,1-.1,9.92c0,.17-3.36,10.79-3.41,11-.48,1.85-1.13,3.65-1.71,5.48l-3.4,11Z" transform="translate(-1135.89 -817.55)"/><polygon class="cls-5" points="45.21 74.56 40.84 84.96 41.48 90.15 46.67 77.68 45.21 74.56"/><path class="cls-6" d="M1137,915c.15,0,24.81,9.8,25,9.8,4.75.76,8.57-.66,11.22-4.9l10.26-26.55c3.21-8.31,15.18-15,25.14-13.42,13.1,1.79,20.71,10.56,24.65,24-4.83-10.33-13.28-19.59-23.23-20.22-7.26-.94-17.54-.94-24.5,9.63l-10.74,27.19c-2.81,6.06-7.3,8.77-13.43,8.2l-25.44-10.58Z" transform="translate(-1135.89 -817.55)"/><path class="cls-6" d="M1224.63,944.21c-1.32,4.18-2,8.22,2.54,11.07l24,9,1.58-3.95-24.37-9.19C1225.23,949.67,1224.73,947,1224.63,944.21Z" transform="translate(-1135.89 -817.55)"/></g></g></svg>