<svg xmlns="http://www.w3.org/2000/svg" xmlns:xlink="http://www.w3.org/1999/xlink" viewBox="0 0 202.29 266.36"><defs><style>.cls-1{isolation:isolate;}.cls-10,.cls-11,.cls-12,.cls-13,.cls-14,.cls-15,.cls-16,.cls-17,.cls-19,.cls-2,.cls-20,.cls-21,.cls-22,.cls-23,.cls-24,.cls-25,.cls-3,.cls-5,.cls-6,.cls-7,.cls-8,.cls-9{fill-rule:evenodd;}.cls-2{fill:url(#Linear_Gradient_24);}.cls-3{fill:url(#Linear_Gradient_25);}.cls-4{fill:url(#Linear_Gradient_26);}.cls-5{fill:#5e4226;}.cls-6,.cls-7{opacity:0.5;}.cls-6{fill:url(#Linear_Gradient_27);}.cls-21,.cls-25,.cls-7{mix-blend-mode:multiply;}.cls-7{fill:url(#_ÂÁ_Ï_ÌÌ_È_ËÂÌÚ_13);}.cls-8{fill:#bdc4bd;}.cls-9{fill:url(#Linear_Gradient_29);}.cls-10{fill:url(#Linear_Gradient_30);}.cls-11{fill:url(#Linear_Gradient_31);}.cls-12{fill:#1c3312;}.cls-13{fill:url(#Linear_Gradient_32);}.cls-14{fill:url(#Linear_Gradient_33);}.cls-15{fill:url(#Linear_Gradient_25-2);}.cls-16{fill:url(#Linear_Gradient_34);}.cls-17{fill:#915212;}.cls-18{fill:#523300;}.cls-19{fill:#fff;}.cls-20{fill:#60770a;mix-blend-mode:screen;}.cls-21{fill:#96b030;}.cls-22{fill:none;stroke:#1c4014;stroke-linecap:round;stroke-linejoin:round;stroke-width:5.18px;}.cls-23{fill:#403030;}.cls-24{fill:url(#Linear_Gradient_37);}.cls-25{fill:#c9c9c9;}</style><linearGradient id="Linear_Gradient_24" x1="735.98" y1="788.46" x2="736.19" y2="802.72" gradientUnits="userSpaceOnUse"><stop offset="0" stop-color="#7d400d"/><stop offset="1" stop-color="#7a5703"/></linearGradient><linearGradient id="Linear_Gradient_25" x1="729.7" y1="791.48" x2="742.79" y2="791.13" gradientUnits="userSpaceOnUse"><stop offset="0" stop-color="#4d210d"/><stop offset="0.54" stop-color="#9c4a0a"/><stop offset="0.76" stop-color="#de5e17"/><stop offset="1" stop-color="#4d2600"/></linearGradient><linearGradient id="Linear_Gradient_26" x1="183.48" y1="122.18" x2="185.63" y2="116.78" gradientUnits="userSpaceOnUse"><stop offset="0" stop-color="#9c8f14"/><stop offset="1" stop-color="#825c00"/></linearGradient><linearGradient id="Linear_Gradient_27" x1="4.65" y1="132.7" x2="61.08" y2="132.7" gradientUnits="userSpaceOnUse"><stop offset="0" stop-color="#cfe62b"/><stop offset="1"/></linearGradient><linearGradient id="_ÂÁ_Ï_ÌÌ_È_ËÂÌÚ_13" x1="115.84" y1="-35.51" x2="127.26" y2="106.28" gradientUnits="userSpaceOnUse"><stop offset="0" stop-color="#e5e5e5"/><stop offset="1" stop-color="#ccc"/></linearGradient><linearGradient id="Linear_Gradient_29" x1="712.9" y1="671.93" x2="523.37" y2="671.93" gradientUnits="userSpaceOnUse"><stop offset="0" stop-color="#a3ba69"/><stop offset="1" stop-color="#bdc4bd"/></linearGradient><linearGradient id="Linear_Gradient_30" x1="571.52" y1="946.41" x2="567.69" y2="865.33" gradientUnits="userSpaceOnUse"><stop offset="0" stop-color="#ffbf17"/><stop offset="1" stop-color="#96630a"/></linearGradient><linearGradient id="Linear_Gradient_31" x1="576.2" y1="795.51" x2="575.95" y2="800.26" gradientUnits="userSpaceOnUse"><stop offset="0" stop-color="#bdc4bd"/><stop offset="1" stop-color="#1c3312"/></linearGradient><linearGradient id="Linear_Gradient_32" x1="571.9" y1="914.92" x2="572.1" y2="929.18" gradientUnits="userSpaceOnUse"><stop offset="0" stop-color="#7d400d"/><stop offset="1" stop-color="#dea114"/></linearGradient><linearGradient id="Linear_Gradient_33" x1="597.46" y1="864.13" x2="561.66" y2="838.72" gradientUnits="userSpaceOnUse"><stop offset="0" stop-color="#b07a0d"/><stop offset="1" stop-color="#5e3d03"/></linearGradient><linearGradient id="Linear_Gradient_25-2" x1="565.62" y1="917.94" x2="578.71" y2="917.59" xlink:href="#Linear_Gradient_25"/><linearGradient id="Linear_Gradient_34" x1="570.26" y1="917.77" x2="572.42" y2="912.38" gradientUnits="userSpaceOnUse"><stop offset="0" stop-color="#fff045"/><stop offset="1" stop-color="#f2bf4d"/></linearGradient><linearGradient id="Linear_Gradient_37" x1="198.49" y1="2.46" x2="193.45" y2="2.29" gradientUnits="userSpaceOnUse"><stop offset="0" stop-color="#4a5740"/><stop offset="1" stop-color="#a3ba69"/></linearGradient></defs><g class="cls-1"><g id="card_deck_1" data-name="card deck 1"><path class="cls-2" d="M729.75,791.93c0,.08.06,4.52,0,4.52,2,3.82,11.52,3.72,12.66-.43v-4.4Z" transform="translate(-550.87 -669.12)"/><path class="cls-3" d="M729.65,791.31a1.06,1.06,0,0,1,0-.25l-.1-3.47,3.71-.1a9.1,9.1,0,0,1,5-.12l4-.11.21,4.28-.09,0c-.22,2.21-3,4-6.35,4S729.65,793.64,729.65,791.31Z" transform="translate(-550.87 -669.12)"/><ellipse class="cls-4" cx="184.95" cy="118.51" rx="6.34" ry="4.23"/><path class="cls-5" d="M730.85,790.65a.83.83,0,0,1-.38-.68.81.81,0,0,1,.5-.75l.08,0,.35-.18.79-.41,2.35-1.24c1.8-1,3.88-2.09,5.29-2.87a.81.81,0,0,1,1.09.35.8.8,0,0,1-.31,1.09c-1.42.75-3.49,1.9-5.3,2.85-.89.48-1.72.93-2.36,1.26l-.82.43c-.19.09-.38.19-.5.23l-.14,0a.43.43,0,0,1-.23,0A1.06,1.06,0,0,1,730.85,790.65Z" transform="translate(-550.87 -669.12)"/><polygon class="cls-6" points="38.14 252.57 50.83 139.05 42.37 12.84 27.28 126.54 38.14 252.57"/><polygon class="cls-7" points="42.37 4.96 197.61 4.17 200.62 136.93 51.1 136.16 42.37 4.96"/><path class="cls-8" d="M594.52,672.22c-.69,0-5.48-.29-5.48.43L573.33,791.78l5.6-.22Z" transform="translate(-550.87 -669.12)"/><path class="cls-9" d="M748.7,673.92l-153.94.74-6.07-.11c.31-2.37.69-4.7,5.27-4.66l154.74-.7Z" transform="translate(-550.87 -669.12)"/><path class="cls-10" d="M584.59,934.7l-14.19-.41c-15.34.84-14.45-14.31-13-23.25l15.92-107.78Z" transform="translate(-550.87 -669.12)"/><path class="cls-11" d="M573.71,789.06l5.42.39a51.6,51.6,0,0,0-.24,14.15l-5.47.1A55.66,55.66,0,0,1,573.71,789.06Z" transform="translate(-550.87 -669.12)"/><path class="cls-12" d="M574.2,813.49c2.33,40.83,6.38,80.85,9.95,121.68l4.87.31-9.45-122Z" transform="translate(-550.87 -669.12)"/><path class="cls-13" d="M565.67,918.39c0,.08.05,4.52,0,4.52,2,3.82,11.52,3.74,12.66-.43v-4.4Z" transform="translate(-550.87 -669.12)"/><path class="cls-14" d="M601.66,804.81c0,.31-8.38,77.24-12.55,115.69L578.39,804.21Z" transform="translate(-550.87 -669.12)"/><path class="cls-15" d="M565.57,917.77a1.06,1.06,0,0,1,0-.25l-.1-3.47,3.69-.1a9.52,9.52,0,0,1,2.73-.41,8.71,8.71,0,0,1,2.27.29l3.94-.11.23,4.28a.22.22,0,0,1-.1,0c-.21,2.21-3,4-6.34,4S565.57,920.1,565.57,917.77Z" transform="translate(-550.87 -669.12)"/><path class="cls-16" d="M571.74,909.86c3.49,0,6.34,1.9,6.34,4.23s-2.85,4.22-6.34,4.22-6.34-1.9-6.34-4.22S568.25,909.86,571.74,909.86Z" transform="translate(-550.87 -669.12)"/><path class="cls-17" d="M566.77,917.11a.81.81,0,0,1-.37-.68.83.83,0,0,1,.49-.75l.08,0,.35-.18.79-.41,2.35-1.24,5.29-2.85a.83.83,0,0,1,1.11.31.84.84,0,0,1-.35,1.11c-1.4.77-3.47,1.9-5.28,2.85-.91.48-1.72.93-2.36,1.26l-.82.43c-.21.09-.39.19-.5.23l-.14,0a.46.46,0,0,1-.23,0A.79.79,0,0,1,566.77,917.11Z" transform="translate(-550.87 -669.12)"/><path class="cls-18" d="M585.08,934.39a1.49,1.49,0,0,1-.7.19c-.5.06-1,.08-1.53.12-2.13.12-4.27.14-6.4.17-2.5,0-5,0-7.51,0l-2.25,0a17.66,17.66,0,0,1-2-.12,8.65,8.65,0,0,1-5.26-2.93,12,12,0,0,1-1.92-3.2,16.62,16.62,0,0,1-1.14-4.21,18.47,18.47,0,0,1-.2-2.34,3.41,3.41,0,0,1,0-.55,5.31,5.31,0,0,1,.09-.79s.08-.53.08-.54c.12.42.25.87.35,1.29s.15.86.23,1.27c.14.65.29,1.33.47,1.95s.39,1.32.6,2c.95,2.64,2.71,5.32,5.45,6.29a8.27,8.27,0,0,0,2.36.44h0c4.62.08,9.26.18,13.85.45,1.36.06,2.76.11,4.09.29A3.78,3.78,0,0,1,585.08,934.39Z" transform="translate(-550.87 -669.12)"/><path class="cls-19" d="M578.66,798c0-.18-5.59-.06-5.49-.06l0-4.46,5.59-.1Z" transform="translate(-550.87 -669.12)"/><path class="cls-20" d="M589.33,916.41c0-.54,8.39-75.16,12.6-112.48l-2.73-23-14.28,98.74Z" transform="translate(-550.87 -669.12)"/><polygon class="cls-21" points="51.06 135.36 199.2 135.36 199.76 119.46 50.52 120.55 51.06 135.36"/><path class="cls-22" d="M589.44,921.82c-.54-1.08,14-117.48,13.46-117.48l147.68,1.09" transform="translate(-550.87 -669.12)"/><polygon class="cls-19" points="64.5 109.88 64.28 111.45 66.3 111.45 66.5 109.88 64.5 109.88"/><polygon class="cls-19" points="165.59 109.9 165.4 111.47 167.4 111.47 167.61 109.9 165.59 109.9"/><polygon class="cls-19" points="50.57 222.22 50.36 223.79 52.38 223.79 52.57 222.22 50.57 222.22"/><path class="cls-23" d="M589.5,902.82c0,.31,1,16.64,1.57,24.8l.95,5.66-3.14,1.26-2.21-31.72Z" transform="translate(-550.87 -669.12)"/><polygon class="cls-24" points="197.92 0 192.88 0.1 192.53 4.69 197.92 4.79 197.92 0"/><path class="cls-25" d="M558.88,932.08c-.45-.44-2.74-14.1-2.74-14.56l17.75-114.65-1.36-15.46-10,55.06-10.48,68.69c-1.59,7.27-2,14.56,1.36,21.83Z" transform="translate(-550.87 -669.12)"/></g></g></svg>