<svg id="Layer_5" data-name="Layer 5" xmlns="http://www.w3.org/2000/svg" xmlns:xlink="http://www.w3.org/1999/xlink" viewBox="0 0 142.49 261.77"><defs><style>.cls-1,.cls-2,.cls-3,.cls-4{fill-rule:evenodd;}.cls-1{fill:url(#Linear_Gradient_51);}.cls-2{fill:url(#Linear_Gradient_52);}.cls-3{fill:url(#Radial_Gradient_41);}.cls-4{fill:url(#Radial_Gradient_42);}</style><linearGradient id="Linear_Gradient_51" x1="1454.75" y1="822.43" x2="1420.07" y2="795.32" gradientUnits="userSpaceOnUse"><stop offset="0" stop-color="#33421f"/><stop offset="1" stop-color="#381c0f"/></linearGradient><linearGradient id="Linear_Gradient_52" x1="1433.01" y1="843.02" x2="1400.53" y2="822.76" gradientUnits="userSpaceOnUse"><stop offset="0" stop-color="#2e451a"/><stop offset="1" stop-color="#4d2b12"/></linearGradient><radialGradient id="Radial_Gradient_41" cx="1395.3" cy="800.54" r="67.94" gradientUnits="userSpaceOnUse"><stop offset="0" stop-color="#ffcf52"/><stop offset="1" stop-color="#7d4017"/></radialGradient><radialGradient id="Radial_Gradient_42" cx="1411.59" cy="784.68" r="46.67" gradientUnits="userSpaceOnUse"><stop offset="0" stop-color="#f7c74d"/><stop offset="1" stop-color="#996929"/></radialGradient></defs><path class="cls-1" d="M1494.39,669.12l.11,1.11-7.65,71.19L1357.9,926.52c-3.7,4.78-4.06,1.69-1.85-4.94l38.87-116,99.13-136.43Z" transform="translate(-1352.01 -667.06)"/><path class="cls-2" d="M1486.39,741.31l-37.45-9-45.23,65.3a43.78,43.78,0,0,0-9.71,18.76l-39.94,112.43Z" transform="translate(-1352.01 -667.06)"/><path class="cls-3" d="M1354.39,928.62l41.94-117.76a81.21,81.21,0,0,1,7.09-13l91-127.32-1.63-1.27-.34-2.25L1400,797.22a53.68,53.68,0,0,0-7.21,13.84L1352,923l1.35,2.79C1353.7,926.93,1352.67,926.77,1354.39,928.62Z" transform="translate(-1352.01 -667.06)"/><path class="cls-4" d="M1355.52,924.68l39-112.32.5-1.23.48-1.17.48-1.09.5-1.08.48-1,.49-1,.48-.94.48-.89.5-.86.48-.84.5-.8.48-.77.49-.74.48-.72,1-1.37,91.93-127.17Q1449,734.84,1403.88,799a65,65,0,0,0-7.57,14Q1375.91,868.87,1355.52,924.68Z" transform="translate(-1352.01 -667.06)"/></svg>