<?xml version="1.0" encoding="UTF-8"?>
<svg width="24px" height="24px" viewBox="0 0 24 24" version="1.1" xmlns="http://www.w3.org/2000/svg" xmlns:xlink="http://www.w3.org/1999/xlink">
    <!-- Generator: sketchtool 60 (101010) - https://sketch.com -->
    <title>30BF8FD2-7FB2-41D8-BE26-DD9A6CEBDFB8</title>
    <desc>Created with sketchtool.</desc>
    <g id="Page-1" stroke="none" stroke-width="1" fill="none" fill-rule="evenodd">
        <g id="Casino" transform="translate(-227.000000, -547.000000)" fill="#AAAFB5" fill-rule="nonzero">
            <g id="games" transform="translate(32.000000, 531.000000)">
                <g id="tabs">
                    <g id="2" transform="translate(138.000000, 0.000000)">
                        <g id="Live-Casino/gray" transform="translate(57.000000, 16.000000)">
                            <g>
                                <path d="M3.52926563,12.7354688 L0.00553125,12.7488281 C0.106359375,14.39775 0.53859375,15.98325 1.27110937,17.4274688 L4.32257812,15.6519844 C3.89404687,14.7548906 3.6185625,13.7714531 3.52926563,12.7354688 Z" id="Path"></path>
                                <path d="M12.0009375,4.9036875 C8.08851563,4.9036875 4.90551562,8.0866875 4.90551562,11.9991094 C4.90551562,15.9115313 8.08851563,19.0945313 12.0009375,19.0945313 C15.9133594,19.0945313 19.0963594,15.9115313 19.0963594,11.9991094 C19.0963594,8.0866875 15.9133125,4.9036875 12.0009375,4.9036875 Z M15.3061406,13.9182656 C14.8592344,14.6481563 14.164125,15.0534844 13.3489219,15.0595781 C13.1311406,15.0614531 12.9150938,15.0339375 12.7052344,14.9792344 L12.7052344,15.8020313 L11.2967344,15.8020313 L11.2967344,14.979 C11.0926406,15.0321094 10.8826875,15.059625 10.671375,15.059625 C10.6652812,15.059625 10.6592344,15.059625 10.6530938,15.0595781 C9.83779687,15.0535313 9.1426875,14.6482031 8.69582812,13.9183125 C8.24142188,13.1760938 8.22689062,12.2635313 8.656875,11.4771563 C8.96310937,10.9171875 9.42721875,10.4805469 9.836625,10.0952813 C9.90403125,10.0319063 9.97078125,9.96909375 10.0359375,9.9065625 C10.2885,9.66407813 10.5419531,9.43228125 10.7871563,9.208125 C11.0260781,8.98973438 11.2731094,8.76384375 11.51325,8.53326563 L12.0010781,8.06489063 L12.4889063,8.53326563 C12.729,8.76389063 12.9760781,8.9896875 13.215,9.208125 C13.4601563,9.43228125 13.7136562,9.66403125 13.9662188,9.9065625 C14.031375,9.96914063 14.0981719,10.0319531 14.1655313,10.0953281 C14.5749844,10.4805469 15.0390469,10.9171875 15.3451875,11.4771094 L15.3452344,11.4771094 C15.7750313,12.2634844 15.7605,13.1760469 15.3061406,13.9182656 Z" id="Shape"></path>
                                <path d="M15.6441094,19.6819687 C14.7465469,20.1092812 13.7627812,20.3836875 12.7266562,20.4716719 L12.7355625,23.9953594 C14.3848125,23.8965937 15.970875,23.4664687 17.4158906,22.7358281 L15.6441094,19.6819687 Z" id="Path"></path>
                                <path d="M14.1091875,12.1529531 C13.9104844,11.7895781 13.5494062,11.4497812 13.2001406,11.1211875 C13.1292656,11.0544844 13.059,10.9883906 12.9904687,10.9225313 C12.7503281,10.6919063 12.50325,10.4661094 12.2643281,10.247625 C12.1774219,10.1681719 12.0894375,10.0877813 12.0008906,10.0062188 C11.9122969,10.0877344 11.8243125,10.168125 11.7374531,10.247625 C11.4985312,10.4660156 11.2515,10.6919063 11.0113594,10.9225313 C10.9428281,10.9882969 10.8726094,11.0543906 10.8017344,11.1210938 C10.4524687,11.4497344 10.0913437,11.7895312 9.89254687,12.153 C9.70209375,12.5013281 9.7036875,12.8670469 9.89695312,13.1828437 C10.0910625,13.4998594 10.334625,13.6486406 10.6635,13.6511605 C10.8737812,13.6528594 11.0825156,13.5910781 11.2697344,13.473 L12.0008906,13.0149375 L12.7302656,13.4718281 C12.9191719,13.5910312 13.1284219,13.6526719 13.3383281,13.6510781 C13.6671562,13.6486406 13.9107187,13.4998125 14.1048281,13.1827969 C14.2981406,12.8670938 14.2996875,12.5013281 14.1091875,12.1529531 Z" id="Path"></path>
                                <path d="M11.3181094,20.4754688 C10.2811406,20.3926875 9.29620313,20.122875 8.39671875,19.7002031 L6.64045313,22.7629687 C8.08865625,23.4859219 9.6766875,23.9084531 11.3270156,23.9990625 L11.3181094,20.4754688 Z" id="Path"></path>
                                <path d="M12.7051406,0.0009375 L12.7051406,3.52457813 C13.7416875,3.60998438 14.7260156,3.88204688 15.6245625,4.30710938 L17.3887031,1.24860938 C15.9420937,0.521765625 14.355,0.095625 12.7051406,0.0009375 Z" id="Path"></path>
                                <path d="M1.23032812,6.65235937 C0.50934375,8.10126562 0.08859375,9.68976562 0,11.340375 L3.52354687,11.3270156 C3.60501562,10.2898594 3.87370312,9.30464062 4.29520312,8.4046875 L1.23032812,6.65235937 Z" id="Path"></path>
                                <path d="M5.34342187,1.987875 C4.6884375,2.42540625 4.07170312,2.93071875 3.50207812,3.50025 C2.9068125,4.09551562 2.38242187,4.74267188 1.93157812,5.43084375 L4.99621875,7.18303125 C5.57217187,6.34795313 6.29325,5.62045313 7.12298437,5.03732813 L5.34342187,1.987875 Z" id="Path"></path>
                                <path d="M5.0330625,16.8682031 L1.98140625,18.6438281 C2.42085938,19.3035469 2.92884375,19.9246875 3.502125,20.4979219 C4.09373437,21.0895312 4.73653125,21.6111563 5.41992188,22.060125 L7.17604687,18.9975938 C6.34171875,18.4206563 5.61515625,17.6986406 5.0330625,16.8682031 Z" id="Path"></path>
                                <path d="M18.9933281,16.8328594 C18.4153125,17.6663906 17.6924531,18.3920625 16.8612187,18.973125 L18.6329531,22.0269375 C19.2974063,21.5855625 19.9228594,21.0748594 20.49975,20.4979219 C21.0877031,19.9099688 21.6065625,19.2714844 22.0537031,18.5928281 L18.9933281,16.8328594 Z" id="Path"></path>
                                <path d="M6.5589375,1.2763125 L8.33821875,4.32529688 C9.24721875,3.88964063 10.2451875,3.61120313 11.2966406,3.52457813 L11.2966406,0.0009375 C9.62620312,0.096796875 8.02007812,0.532828125 6.5589375,1.2763125 Z" id="Path"></path>
                                <path d="M22.7447344,6.59760937 L19.6883906,8.36564062 C20.1145312,9.26371875 20.3878125,10.2477656 20.4744844,11.284125 L23.998125,11.2796719 C23.9014219,9.63014063 23.4734063,8.04342187 22.7447344,6.59760937 Z" id="Path"></path>
                                <path d="M20.4764062,12.6925781 C20.3923125,13.7293125 20.121375,14.7139687 19.6975312,15.6129844 L22.7581875,17.3731406 C23.4829687,15.9257812 23.9073281,14.3382187 24,12.688125 L20.4764062,12.6925781 Z" id="Path"></path>
                                <path d="M20.49975,3.50025 C19.9154531,2.91595312 19.2813281,2.39985937 18.6074063,1.95459375 L16.8435,5.01276562 C17.6762812,5.5918125 18.4010156,6.31560938 18.9810937,7.14764063 L22.0371094,5.37984375 C21.5937656,4.71065625 21.0803438,4.08084375 20.49975,3.50025 Z" id="Path"></path>
                            </g>
                        </g>
                    </g>
                </g>
            </g>
        </g>
    </g>
</svg>