<?xml version="1.0" encoding="UTF-8"?>
<svg width="24px" height="23px" viewBox="0 0 24 23" version="1.1" xmlns="http://www.w3.org/2000/svg" xmlns:xlink="http://www.w3.org/1999/xlink">
    <!-- Generator: sketchtool 60 (101010) - https://sketch.com -->
    <title>4CF4F2C1-4004-4AED-A792-328957710912</title>
    <desc>Created with sketchtool.</desc>
    <g id="Page-1" stroke="none" stroke-width="1" fill="none" fill-rule="evenodd">
        <g id="Casino" transform="translate(-89.000000, -548.000000)" fill="#FFFFFF" fill-rule="nonzero">
            <g id="games" transform="translate(32.000000, 531.000000)">
                <g id="tabs">
                    <g id="1">
                        <g id="Popular/white" transform="translate(57.000000, 17.000000)">
                            <g id="Path">
                                <path d="M23.9364597,8.68747858 C23.754636,8.12712034 23.2133763,7.74211478 22.4512915,7.63114369 L16.2398054,6.72686671 L13.4617296,1.0886174 C13.1209703,0.396928058 12.5881335,0 12,0 C11.4118641,0 10.8790273,0.396928058 10.538268,1.08880081 L7.76055845,6.72686671 L1.54888931,7.63114369 C0.786621329,7.74211478 0.245178538,8.12712034 0.0635379358,8.68747858 C-0.118102666,9.24783678 0.0939334163,9.87807935 0.645447019,10.4164267 L5.1403195,14.8051965 L4.07904034,21.0025201 C3.94335921,21.7950922 4.1746214,22.2699752 4.39251686,22.5289689 C4.64813206,22.8327179 5.02093475,23 5.44226037,23 C5.7592159,23 6.09631306,22.9070044 6.44439651,22.7237645 L12,19.7979792 L17.5559674,22.7239479 C17.9038677,22.9071878 18.2409648,23 18.5579204,23 L18.5581035,23 C18.979246,23 19.3522318,22.8327179 19.607847,22.5289689 C19.8255593,22.2701587 20.0570046,21.7950922 19.9211404,21.0025201 L18.8600443,14.8051965 L23.3547337,10.4164267 C23.9060642,9.87807935 24.1181003,9.24783678 23.9364597,8.68747858 Z"></path>
                            </g>
                        </g>
                    </g>
                </g>
            </g>
        </g>
    </g>
</svg>