<?xml version="1.0" encoding="UTF-8"?>
<svg width="23px" height="24px" viewBox="0 0 23 24" version="1.1" xmlns="http://www.w3.org/2000/svg" xmlns:xlink="http://www.w3.org/1999/xlink">
    <!-- Generator: sketchtool 60 (101010) - https://sketch.com -->
    <title>744AEEC8-7538-4084-AA75-C6A1D1A7085B</title>
    <desc>Created with sketchtool.</desc>
    <g id="Page-1" stroke="none" stroke-width="1" fill="none" fill-rule="evenodd">
        <g id="Casino" transform="translate(-365.000000, -547.000000)" fill="#AAAFB5" fill-rule="nonzero">
            <g id="games" transform="translate(32.000000, 531.000000)">
                <g id="tabs">
                    <g id="3" transform="translate(276.000000, 0.000000)">
                        <g id="slots/gray" transform="translate(57.000000, 16.000000)">
                            <g>
                                <path d="M0.0029498998,23.9607018 L17.9799158,23.9607018 L17.9799158,14.5037661 L0.0029498998,14.5037661 L0.0029498998,23.9607018 Z M13.3704208,16.9427836 L13.3704208,18.6736842 C13.3704208,20.041076 12.2744409,21.1534971 10.9272585,21.1534971 L7.05560721,21.1534971 C5.70842485,21.1534971 4.61244489,20.041076 4.61244489,18.6736842 L4.61244489,16.9427836 L13.3704208,16.9427836 Z" id="Shape"></path>
                                <polygon id="Path" points="0.0029498998 4.21071345 17.9799158 4.21071345 17.9799158 6.55012865 0.0029498998 6.55012865"></polygon>
                                <path d="M7.05560721,19.7499883 L10.9272585,19.7499883 C11.511984,19.7499883 11.9876553,19.2671813 11.9876553,18.6736842 L11.9876553,18.3462924 L5.99521042,18.3462924 L5.99521042,18.6736842 C5.99521042,19.2671813 6.47092786,19.7499883 7.05560721,19.7499883 L7.05560721,19.7499883 Z" id="Path"></path>
                                <path d="M6.45617836,7.95363743 L6.45617836,13.1002573 L11.5267335,13.1002573 L11.5267335,7.95363743 L6.45617836,7.95363743 Z M8.3000501,11.9305263 L8.3000501,9.12336842 L9.68281563,9.12336842 L9.68281563,11.9305263 L8.3000501,11.9305263 Z" id="Shape"></path>
                                <path d="M5.07341283,7.95363743 L0.0029498998,7.95363743 L0.0029498998,13.1002573 L5.07341283,13.1002573 L5.07341283,7.95363743 Z M1.84672946,11.9305263 L1.84672946,9.12336842 L3.22949499,9.12336842 L3.22949499,11.9305263 L1.84672946,11.9305263 Z" id="Shape"></path>
                                <path d="M21.000014,3.54909942 C19.9201663,3.54909942 19.0416954,4.44079532 19.0416954,5.53674854 C19.0416954,6.38582456 19.5690822,7.11185965 20.3086313,7.39611696 L20.3086313,10.7608889 L17.9799619,10.7608889 L17.9799619,7.95359064 L12.909499,7.95359064 L12.909499,13.1002105 L17.9799619,13.1002105 L17.9799619,12.1643977 L21.6913968,12.1643977 L21.6913968,7.39616374 C22.4309459,7.11190643 22.9582866,6.38582456 22.9582866,5.53679532 C22.9582866,4.44079532 22.0798156,3.54909942 21.000014,3.54909942 Z M16.1361363,11.9305263 L14.7533707,11.9305263 L14.7533707,9.12336842 L16.1361363,9.12336842 L16.1361363,11.9305263 Z" id="Shape"></path>
                                <polygon id="Path" points="14.0993226 0 3.88363527 0 2.96174549 2.80720468 15.0212124 2.80720468"></polygon>
                            </g>
                        </g>
                    </g>
                </g>
            </g>
        </g>
    </g>
</svg>