<?xml version="1.0" encoding="UTF-8"?>
<svg width="8px" height="8px" viewBox="0 0 8 8" version="1.1" xmlns="http://www.w3.org/2000/svg" xmlns:xlink="http://www.w3.org/1999/xlink">
    <!-- Generator: sketchtool 60 (101010) - https://sketch.com -->
    <title>5878549A-22DA-48BA-BF3E-3D83D0DC5D67</title>
    <desc>Created with sketchtool.</desc>
    <g id="Page-1" stroke="none" stroke-width="1" fill="none" fill-rule="evenodd">
        <g id="Events-list-page" transform="translate(-519.000000, -113.000000)" fill="#FFFFFF" fill-rule="nonzero">
            <g id="in-play" transform="translate(318.000000, 105.000000)">
                <g id="tabs">
                    <g id="1" transform="translate(16.000000, 0.000000)">
                        <g id="close" transform="translate(185.000000, 8.000000)">
                            <path d="M4.88110569,4 L7.87219512,1.00858592 C7.95447154,0.926239105 7.99986992,0.816378301 8,0.69923247 C8,0.582021595 7.95460163,0.472030701 7.87219512,0.389813972 L7.6100813,0.127748146 C7.5276748,0.0452061923 7.41782114,0 7.30055285,0 C7.18347967,0 7.07362602,0.0452061923 6.99121951,0.127748146 L4.00013008,3.11896709 L1.00891057,0.127748146 C0.926634146,0.0452061923 0.816715447,0 0.699512195,0 C0.582439024,0 0.472520325,0.0452061923 0.390243902,0.127748146 L0.128,0.389813972 C-0.0426666667,0.560491739 -0.0426666667,0.838103291 0.128,1.00858592 L3.11915447,4 L0.128,6.99128399 C0.0456585366,7.0737609 0.000325203252,7.1836217 0.000325203252,7.30076753 C0.000325203252,7.41791336 0.0456585366,7.52777416 0.128,7.61018603 L0.390178862,7.87225185 C0.472455285,7.95472876 0.582439024,8 0.699447154,8 C0.816650407,8 0.926569106,7.95472876 1.00884553,7.87225185 L4.00006504,4.88096787 L6.99115447,7.87225185 C7.07356098,7.95472876 7.18341463,8 7.3004878,8 L7.30061789,8 C7.4177561,8 7.52760976,7.95472876 7.61001626,7.87225185 L7.87213008,7.61018603 C7.9544065,7.52783921 7.99980488,7.41791336 7.99980488,7.30076753 C7.99980488,7.1836217 7.9544065,7.0737609 7.87213008,6.99134903 L4.88110569,4 Z" id="Path"></path>
                        </g>
                    </g>
                </g>
            </g>
        </g>
    </g>
</svg>