<?xml version="1.0" encoding="UTF-8"?>
<svg width="16px" height="15px" viewBox="0 0 16 15" version="1.1" xmlns="http://www.w3.org/2000/svg" xmlns:xlink="http://www.w3.org/1999/xlink">
    <!-- Generator: sketchtool 60 (101010) - https://sketch.com -->
    <title>C2FAA1EB-25BD-4E5F-BEFC-15CB1B794470</title>
    <desc>Created with sketchtool.</desc>
    <g id="Page-1" stroke="none" stroke-width="1" fill="none" fill-rule="evenodd">
        <g id="Exchange" transform="translate(-24.000000, -224.000000)" fill="#FDCF13">
            <g id="menu">
                <g id="Favourites" transform="translate(0.000000, 221.000000)">
                    <g id="star" transform="translate(24.000000, 3.000000)">
                        <g id="Fill-1">
                            <path d="M15.8023025,5.48347277 C15.1799589,5.39644791 14.5576152,5.30942305 13.93529,5.22239819 C12.9520423,5.08460883 11.9688314,4.94681946 10.9855837,4.81084312 C10.7986965,4.78518891 10.6115883,4.75846503 10.4236331,4.73241196 C10.188947,4.23941612 9.9555497,3.74643841 9.7206426,3.2534607 L8.5164813,0.718861615 C8.42441863,0.523055677 8.33049629,0.329062757 8.23843362,0.133256819 C8.15375438,-0.0444189396 7.84624665,-0.0444189396 7.761549,0.133256819 C7.5093157,0.662658059 7.25888682,1.1920593 7.00663511,1.72146054 C6.60524187,2.5663269 6.20384864,3.41119326 5.8024554,4.25605962 C5.72757162,4.41535138 5.65161992,4.57362785 5.57625742,4.73248448 C4.99188042,4.8141972 4.40750342,4.89592805 3.82310801,4.97764077 C2.8398787,5.11543013 1.85666781,5.25321949 0.873420089,5.38919584 C0.648787176,5.42001715 0.424154264,5.45265147 0.197680097,5.48347277 C-0.0159052952,5.51248106 -0.0564128696,5.80800299 0.076157374,5.93854028 C0.512552838,6.36641251 0.950752731,6.79428475 1.3871482,7.22397 C2.07944106,7.90203871 2.76991107,8.58010742 3.46222235,9.25817613 C3.58608346,9.3787237 3.70992616,9.50017777 3.83376887,9.62121485 C3.70841634,10.1526104 3.58418697,10.6851119 3.45855825,11.2162355 C3.23943069,12.1481267 3.02032153,13.080018 2.80121238,14.0118911 C2.75149854,14.2258453 2.69994345,14.4397814 2.6502296,14.6555124 C2.59316916,14.8966619 2.8398787,15.0652726 3.05530535,14.9619306 C3.63161766,14.6899779 4.20608871,14.4180252 4.78240102,14.1460725 C5.69198019,13.7163873 6.60340062,13.284889 7.51297979,12.8552037 C7.67648309,12.777534 7.83901053,12.700789 8.00201669,12.6236088 C8.53163481,12.8736421 9.06003771,13.1236936 9.58993202,13.3737269 C10.4994928,13.803394 11.4109132,14.2349104 12.3204924,14.6645775 C12.5221464,14.7603955 12.7221434,14.8545637 12.9236502,14.9502185 C12.9909111,14.994855 13.0780024,15.0122781 13.1564398,14.9909207 C13.182917,14.98385 13.2070375,14.973135 13.2287643,14.9597187 C13.2297217,14.9591748 13.2306792,14.9586309 13.2316366,14.958087 L13.2333122,14.9570173 C13.2698058,14.9355512 13.3017515,14.9047843 13.3258167,14.8640095 C13.3689205,14.7944077 13.3732658,14.6981546 13.3410439,14.6184725 C13.2059327,14.0469548 13.0724971,13.4738055 12.9373123,12.9023422 C12.7182031,11.970451 12.4991124,11.0385416 12.2799848,10.1066685 C12.2424601,9.94518302 12.2040515,9.78342556 12.1660296,9.62116046 C12.5664286,9.22878711 12.968006,8.83634125 13.368184,8.44231806 C14.0604768,7.76424935 14.7509468,7.08618064 15.4432581,6.40811193 C15.6034472,6.25219238 15.7636362,6.09445982 15.9238437,5.93854028 C16.0564139,5.80800299 16.0159063,5.51429408 15.8023025,5.48347277"></path>
                        </g>
                    </g>
                </g>
            </g>
        </g>
    </g>
</svg>