<?xml version="1.0" encoding="UTF-8"?>
<svg width="399px" height="292px" viewBox="0 0 399 292" version="1.1" xmlns="http://www.w3.org/2000/svg" xmlns:xlink="http://www.w3.org/1999/xlink">
    <!-- Generator: sketchtool 60 (101010) - https://sketch.com -->
    <title>ED161D47-BB2E-4936-871F-D68885441AD0</title>
    <desc>Created with sketchtool.</desc>
    <g id="Page-1" stroke="none" stroke-width="1" fill="none" fill-rule="evenodd">
        <g id="404" transform="translate(-760.000000, -194.000000)">
            <g id="image-404" transform="translate(760.000000, 194.000000)">
                <g id="image" transform="translate(0.000000, 190.000000)">
                    <g>
                        <path d="M229.540902,62.54145 C193.798045,57.74745 150.61609,61.91145 133.089774,71.84445 C115.563459,81.77595 130.330376,93.71445 166.073233,98.50995 C201.81609,103.30395 244.998045,99.13845 262.524361,89.20695 C280.049173,79.27395 265.283759,67.33545 229.540902,62.54145" id="Fill-1" fill="#0A0C0E"></path>
                        <path d="M133.083008,77.9634 C150.609323,68.0319 193.791278,63.8664 229.534135,68.6604 C251.520602,71.6109 265.553684,77.2629 269.030376,83.4909 C273.791278,75.0624 258.598797,66.4404 229.534135,62.5419 C193.791278,57.7464 150.609323,61.9119 133.083008,71.8449 C126.338647,75.6669 124.394286,79.7859 126.570226,83.6814 C127.663459,81.7449 129.809323,79.8189 133.083008,77.9634" id="Fill-3" fill="#404952"></path>
                        <path d="M91.1171429,88.10895 C90.8419549,86.91495 90.5682707,85.72245 90.2930827,84.52995 C90.3592481,84.81795 90.3833083,85.10295 90.3772932,85.38945 C90.3833083,85.10295 90.3592481,84.81645 90.2930827,84.52845 C90.0329323,83.41245 89.4630075,82.38345 88.5532331,81.37995 C88.3772932,81.18645 88.1366917,80.93445 87.9396992,80.76195 C87.5607519,80.43045 87.0374436,80.00895 86.6374436,79.70295 C86.1517293,79.33395 85.4449624,78.92895 84.9231579,78.61395 C84.2449624,78.24795 83.3261654,77.78145 82.6254135,77.46045 C82.0254135,77.18595 81.2103759,76.85145 80.5893233,76.62645 C79.3923308,76.19295 77.772782,75.67695 76.5517293,75.30945 C75.7682707,75.07395 74.7051128,74.81745 73.9096241,74.62095 C72.1021053,74.17095 69.2133835,73.62495 68.5396992,73.51545 C67.6720301,73.37745 66.5171429,73.16895 65.6449624,73.05345 C63.8299248,72.81195 61.4103759,72.50445 59.5893233,72.32445 C57.7156391,72.13845 50.9938346,71.54295 43.1893233,71.66745 C40.7562406,71.70495 40.7562406,71.70495 36.466015,71.90895 C35.466015,71.95545 34.1366917,72.07245 33.1396992,72.14145 C32.0780451,72.21795 30.0795489,72.40095 26.584812,72.84645 C26.303609,72.88395 23.7562406,73.21245 20.6780451,73.80495 C19.1261654,74.10195 17.0765414,74.58795 15.541203,74.96745 C13.7051128,75.42345 10.6675188,76.40595 8.75924812,77.26395 C7.62240602,77.77545 6.72466165,78.19545 5.55924812,78.91995 C4.40586466,79.63695 3.85849624,80.10945 3.15323308,80.74995 C3.08406015,80.81295 2.71714286,81.15495 2.22541353,81.77145 C1.98030075,82.07895 1.85548872,82.28295 1.60736842,82.68945 C1.6043609,82.69245 1.39684211,83.03745 1.19233083,83.54895 C1.08556391,83.81895 1.07353383,83.86095 0.932180451,84.37995 C0.899097744,84.52095 0.897593985,84.66495 0.881052632,84.80895 C0.897593985,84.66495 0.899097744,84.52245 0.932180451,84.38145 C0.653984962,85.57245 0.374285714,86.76495 0.0960902256,87.95595 C-0.401654135,90.08145 1.03894737,92.27445 4.6675188,94.33095 C15.7532331,100.61445 43.0690226,103.24845 65.6780451,100.21545 C82.7502256,97.92645 92.2569925,93.06045 91.1171429,88.10895" id="Fill-5" fill="#FBB03B"></path>
                        <path d="M73.277594,79.815 C65.7873684,75.57 47.327218,73.788 32.0505263,75.8385 C16.7723308,77.8875 10.4595489,82.9905 17.9512782,87.2355 C25.4415038,91.482 43.9016541,93.2625 59.1798496,91.2135 C74.4565414,89.163 80.7693233,84.06 73.277594,79.815 M83.7888722,78.4065 C94.127218,84.264 85.4159398,91.305 64.3332331,94.134 C43.2490226,96.963 17.7783459,94.506 7.44,88.647 C-2.89684211,82.7865 5.81293233,75.7455 26.8956391,72.9165 C47.9798496,70.0905 73.4505263,72.546 83.7888722,78.4065" id="Fill-7" fill="#E8972D"></path>
                        <path d="M53.8315789,3.7338 C53.3909774,2.1948 52.2330827,1.4943 51.7368421,1.1943 C51.2977444,0.9573 50.2721805,0.4023 48.0526316,0.1353 C47.1518797,0.0243 45.324812,-0.1152 43.2090226,0.1608 C40.8796992,0.4653 39.8255639,1.1448 39.4270677,1.3998 C39.0150376,1.6653 38.6330827,2.0313 38.2887218,2.4903 C37.9398496,2.9553 37.7804511,3.4458 37.6962406,3.7068 C37.5834586,4.0938 37.8360902,4.4958 38.4992481,4.8708 C40.4646617,5.9853 45.312782,6.4533 49.324812,5.9148 C52.3909774,5.5038 54.0827068,4.6248 53.8315789,3.7338" id="Fill-9" fill="#E8972D"></path>
                        <path d="M14.8953383,82.8018 C15.5780451,80.4288 16.4908271,77.2653 17.1750376,74.8938 C17.516391,73.7073 17.9735338,72.1248 18.3148872,70.9383 C18.9990977,68.5653 19.9103759,65.4003 20.5945865,63.0273 C21.278797,60.6543 22.1915789,57.4908 22.8757895,55.1193 C23.2171429,53.9328 23.672782,52.3503 24.0141353,51.1638 C24.6998496,48.7908 25.6111278,45.6273 26.2953383,43.2543 C26.9795489,40.8813 27.8923308,37.7178 28.5765414,35.3448 C28.9178947,34.1583 29.3735338,32.5773 29.7148872,31.3908 C30.4006015,29.0178 31.3118797,25.8528 31.9960902,23.4798 C32.678797,21.1068 33.5915789,17.9448 34.2757895,15.5718 C34.6171429,14.3853 35.0742857,12.8028 35.4156391,11.6163 C36.0998496,9.2433 37.0111278,6.0798 37.6953383,3.7068 C37.5840602,4.0938 37.835188,4.4958 38.4983459,4.8708 C40.4652632,5.9853 45.3133835,6.4548 49.3254135,5.9148 C52.3930827,5.5038 54.084812,4.6233 53.8306767,3.7338 C54.5058647,6.1083 55.4051128,9.2748 56.0818045,11.6508 C56.7569925,14.0253 57.6577444,17.1933 58.3329323,19.5678 C59.0066165,21.9438 59.9073684,25.1103 60.5825564,27.4848 C61.2577444,29.8608 62.1584962,33.0273 62.8336842,35.4018 C63.5088722,37.7763 64.4096241,40.9443 65.0833083,43.3203 C65.7584962,45.6948 66.6592481,48.8613 67.3344361,51.2358 C67.672782,52.4238 68.122406,54.0078 68.4592481,55.1958 C69.1344361,57.5703 70.035188,60.7368 70.7103759,63.1128 C71.3855639,65.4873 72.2863158,68.6538 72.9615038,71.0283 C73.2983459,72.2163 73.7494737,73.8003 74.0863158,74.9883 C74.7630075,77.3628 75.6622556,80.5293 76.3374436,82.9053 C77.3013534,86.2938 70.8607519,89.6463 59.1795489,91.2123 C43.9013534,93.2628 25.4427068,91.4823 17.9509774,87.2358 C15.4276692,85.8063 14.4697744,84.2778 14.8953383,82.8018" id="Fill-11" fill="#FBB03B"></path>
                        <path d="M64.2478195,40.37835 C64.8297744,42.42435 60.9410526,44.44935 53.8854135,45.39585 C44.6598496,46.63335 33.5124812,45.55785 28.9891729,42.99285 C27.4628571,42.12885 26.8854135,41.20785 27.1425564,40.31535 C27.8267669,37.94235 28.7395489,34.77885 29.4222556,32.40585 C29.763609,31.22085 30.2207519,29.63835 30.563609,28.45185 C31.0357895,26.81235 31.6658647,24.62685 32.1365414,22.98735 C31.9485714,23.63985 32.3741353,24.31635 33.4899248,24.94935 C36.8042105,26.82735 44.9696241,27.61335 51.7275188,26.70885 C56.8944361,26.01435 59.7425564,24.53235 59.3169925,23.03385 C59.9921805,25.40835 60.8929323,28.57485 61.5681203,30.94935 C61.9049624,32.13735 62.3545865,33.72135 62.6929323,34.90935 C63.1590977,36.54885 63.7801504,38.73585 64.2478195,40.37835" id="Fill-13" fill="#FFFFFF"></path>
                        <path d="M73.2365414,72 C74.1027068,75.045 68.3177444,78.057 57.8215038,79.4655 C44.095188,81.3045 27.5117293,79.707 20.7809023,75.8925 C18.5117293,74.6055 17.6530827,73.233 18.0350376,71.907 C18.7192481,69.534 19.6320301,66.3705 20.3162406,63.9975 C20.657594,62.811 21.1132331,61.2285 21.4545865,60.042 C21.9282707,58.404 22.5583459,56.2185 23.0305263,54.579 C22.7162406,55.6665 23.4230075,56.793 25.2816541,57.846 C30.8034586,60.975 44.4049624,62.2875 55.6621053,60.7785 C64.2711278,59.622 69.0154887,57.153 68.307218,54.6555 L73.2365414,72" id="Fill-15" fill="#FFFFFF"></path>
                        <path d="M90.2933835,84.52875 L90.2933835,84.53025 L90.2933835,84.52875 Z" id="Fill-17" fill="#FFAE5E"></path>
                        <path d="M307.589474,88.10895 C307.864662,86.91495 308.138346,85.72245 308.413534,84.52995 C308.347368,84.81795 308.323308,85.10295 308.329323,85.38945 C308.323308,85.10295 308.347368,84.81645 308.413534,84.52845 C308.673684,83.41245 309.243609,82.38345 310.153383,81.37995 C310.329323,81.18645 310.569925,80.93445 310.766917,80.76195 C311.145865,80.43045 311.669173,80.00895 312.069173,79.70295 C312.554887,79.33395 313.261654,78.92895 313.783459,78.61395 C314.461654,78.24795 315.380451,77.78145 316.081203,77.46045 C316.681203,77.18595 317.496241,76.85145 318.117293,76.62645 C319.314286,76.19295 320.933835,75.67695 322.154887,75.30945 C322.938346,75.07395 324.001504,74.81745 324.796992,74.62095 C326.604511,74.17095 329.493233,73.62495 330.166917,73.51545 C331.03609,73.37745 332.189474,73.16895 333.061654,73.05345 C334.876692,72.81195 337.296241,72.50445 339.117293,72.32445 C340.990977,72.13845 347.712782,71.54295 355.517293,71.66745 C357.950376,71.70495 357.950376,71.70495 362.240602,71.90895 C363.240602,71.95545 364.569925,72.07245 365.566917,72.14145 C366.628571,72.21795 368.627068,72.40095 372.121805,72.84645 C372.404511,72.88395 374.95188,73.21245 378.028571,73.80495 C379.580451,74.10195 381.631579,74.58795 383.165414,74.96745 C385.001504,75.42345 388.039098,76.40595 389.947368,77.26395 C391.085714,77.77545 391.981955,78.19545 393.147368,78.91995 C394.300752,79.63695 394.84812,80.10945 395.553383,80.74995 C395.622556,80.81295 395.989474,81.15495 396.481203,81.77145 C396.726316,82.07895 396.851128,82.28295 397.099248,82.68945 C397.102256,82.69245 397.309774,83.03745 397.514286,83.54895 C397.621053,83.81895 397.633083,83.86095 397.774436,84.37995 C397.807519,84.52095 397.810526,84.66495 397.825564,84.80895 C397.810526,84.66495 397.807519,84.52245 397.774436,84.38145 C398.052632,85.57245 398.332331,86.76495 398.610526,87.95595 C399.108271,90.08145 397.667669,92.27445 394.039098,94.33095 C382.953383,100.61445 355.637594,103.24845 333.028571,100.21545 C315.956391,97.92645 306.449624,93.06045 307.589474,88.10895" id="Fill-19" fill="#FBB03B"></path>
                        <path d="M325.429023,79.815 C317.937293,84.06 324.250075,89.163 339.528271,91.2135 C354.804962,93.2625 373.265113,91.482 380.755338,87.2355 C388.247068,82.9905 381.934286,77.8875 366.657594,75.8385 C351.379398,73.788 332.919248,75.57 325.429023,79.815 M371.810977,72.9165 C392.893684,75.7455 401.604962,82.7865 391.266617,88.647 C380.928271,94.506 355.457594,96.963 334.373383,94.134 C313.290677,91.305 304.580902,84.264 314.917744,78.4065 C325.25609,72.546 350.726767,70.0905 371.810977,72.9165" id="Fill-21" fill="#E8972D"></path>
                        <path d="M344.876541,3.7338 C345.315639,2.1948 346.473534,1.4943 346.969774,1.1943 C347.408872,0.9573 348.434436,0.4023 350.653985,0.1353 C351.554737,0.0243 353.381805,-0.1152 355.497594,0.1608 C357.826917,0.4653 358.882556,1.1448 359.279549,1.3998 C359.691579,1.6653 360.073534,2.0313 360.417895,2.4903 C360.766767,2.9553 360.926165,3.4458 361.010376,3.7068 C361.123158,4.0938 360.870526,4.4958 360.207368,4.8708 C358.241955,5.9853 353.393835,6.4533 349.381805,5.9148 C346.315639,5.5038 344.62391,4.6248 344.876541,3.7338" id="Fill-23" fill="#E8972D"></path>
                        <path d="M383.812782,82.8018 C383.128571,80.4288 382.215789,77.2653 381.531579,74.8938 C381.190226,73.7073 380.733083,72.1248 380.393233,70.9383 C379.709023,68.5653 378.796241,65.4003 378.11203,63.0273 C377.42782,60.6543 376.515038,57.4908 375.830827,55.1193 C375.489474,53.9328 375.033835,52.3503 374.692481,51.1638 C374.006767,48.7908 373.095489,45.6273 372.411278,43.2543 C371.727068,40.8813 370.814286,37.7178 370.130075,35.3448 C369.790226,34.1583 369.333083,32.5773 368.991729,31.3908 C368.306015,29.0178 367.394737,25.8528 366.710526,23.4798 C366.02782,21.1068 365.115038,17.9448 364.430827,15.5718 C364.089474,14.3853 363.632331,12.8028 363.292481,11.6163 C362.606767,9.2433 361.695489,6.0798 361.011278,3.7068 C361.122556,4.0938 360.871429,4.4958 360.208271,4.8708 C358.241353,5.9853 353.393233,6.4548 349.382707,5.9148 C346.313534,5.5038 344.621805,4.6233 344.87594,3.7338 C344.200752,6.1083 343.301504,9.2748 342.624812,11.6508 C341.949624,14.0253 341.050376,17.1933 340.375188,19.5678 C339.7,21.9438 338.799248,25.1103 338.12406,27.4848 C337.448872,29.8608 336.54812,33.0273 335.872932,35.4018 C335.199248,37.7763 334.296992,40.9443 333.623308,43.3203 C332.94812,45.6948 332.047368,48.8613 331.37218,51.2358 C331.033835,52.4238 330.585714,54.0078 330.247368,55.1958 C329.57218,57.5703 328.671429,60.7368 327.996241,63.1128 C327.321053,65.4873 326.420301,68.6538 325.746617,71.0283 C325.408271,72.2163 324.957143,73.8003 324.620301,74.9883 C323.945113,77.3628 323.044361,80.5293 322.370677,82.9053 C321.406767,86.2938 327.845865,89.6463 339.528571,91.2123 C354.805263,93.2628 373.26391,91.4823 380.755639,87.2358 C383.280451,85.8063 384.236842,84.2778 383.812782,82.8018" id="Fill-25" fill="#FBB03B"></path>
                        <path d="M334.458947,40.37835 C333.876992,42.42435 337.765714,44.44935 344.821353,45.39585 C354.046917,46.63335 365.194286,45.55785 369.717594,42.99285 C371.24391,42.12885 371.821353,41.20785 371.564211,40.31535 C370.881504,37.94235 369.967218,34.77885 369.284511,32.40585 C368.943158,31.22085 368.486015,29.63835 368.143158,28.45185 C367.672481,26.81235 367.040902,24.62685 366.570226,22.98735 C366.758195,23.63985 366.334135,24.31635 365.216842,24.94935 C361.902556,26.82735 353.737143,27.61335 346.979248,26.70885 C341.813835,26.01435 338.964211,24.53235 339.389774,23.03385 C338.714586,25.40835 337.813835,28.57485 337.138647,30.94935 C336.801805,32.13735 336.35218,33.72135 336.013835,34.90935 C335.547669,36.54885 334.926617,38.73585 334.458947,40.37835" id="Fill-27" fill="#FFFFFF"></path>
                        <path d="M325.470226,72 C324.60406,75.045 330.389023,78.057 340.885263,79.4655 C354.611579,81.3045 371.195038,79.707 377.925865,75.8925 C380.195038,74.6055 381.053684,73.233 380.671729,71.907 C379.987519,69.534 379.074737,66.3705 378.390526,63.9975 C378.049173,62.811 377.593534,61.2285 377.25218,60.042 C376.778496,58.404 376.148421,56.2185 375.676241,54.579 C375.990526,55.6665 375.285263,56.793 373.425113,57.846 C367.904812,60.975 354.301805,62.2875 343.044662,60.7785 C334.435639,59.622 329.691278,57.153 330.399549,54.6555 L325.470226,72" id="Fill-29" fill="#FFFFFF"></path>
                        <path d="M308.413383,84.52875 L308.413383,84.53025 L308.413383,84.52875 Z" id="Fill-31" fill="#FFAE5E"></path>
                    </g>
                </g>
                <path d="M317.855,175 L250.342,175.908 L250.97,196 L191.97,208 L206.97,216 L195.97,232 L234.97,246 L220.92,264.54 L201.64,289.99 C200.55,290 199.47,290 198.39,289.98 L214.3,263.87 L223.97,248 L184.97,236 L192.97,220 L162.97,205 L221.97,188 L203.347,176.539 L94.69,178 L70,25 L330,2.84217094e-14 L317.855,175 Z" id="Fill-1" fill="#FFFFFF"></path>
                <path d="M161.584,132 L161.584,116.832 L171.088,116.832 L171.088,108.192 L161.584,108.192 L161.584,63.168 L151.504,63.168 L119.92,108.768 L119.92,116.832 L151.696,116.832 L151.696,132 L161.584,132 Z M151.696,108.192 L129.52,108.192 L147.664,81.888 C148.368,80.864 149.104,79.68 149.872,78.336 C150.64,76.992 151.28,75.68 151.792,74.4 L151.792,74.4 L152.176,74.4 C152.048,76.192 151.936,78.416 151.84,81.072 C151.744,83.728 151.696,86.56 151.696,89.568 L151.696,89.568 L151.696,108.192 Z M200.272,132.96 C205.84,132.96 210.336,131.552 213.76,128.736 C217.184,125.92 219.664,121.888 221.2,116.64 C222.736,111.392 223.504,105.056 223.504,97.632 C223.504,86.496 221.584,77.84 217.744,71.664 C213.904,65.488 208.08,62.4 200.272,62.4 C194.704,62.4 190.224,63.792 186.832,66.576 C183.44,69.36 180.992,73.376 179.488,78.624 C177.984,83.872 177.232,90.208 177.232,97.632 C177.232,108.704 179.104,117.36 182.848,123.6 C186.592,129.84 192.4,132.96 200.272,132.96 Z M200.272,124.416 C195.536,124.416 192.208,122.192 190.288,117.744 C188.368,113.296 187.408,106.592 187.408,97.632 C187.408,88.736 188.368,82.064 190.288,77.616 C192.208,73.168 195.536,70.944 200.272,70.944 C204.944,70.944 208.272,73.168 210.256,77.616 C212.24,82.064 213.232,88.736 213.232,97.632 C213.232,106.656 212.24,113.376 210.256,117.792 C208.272,122.208 204.944,124.416 200.272,124.416 Z M271.408,132 L271.408,116.832 L280.912,116.832 L280.912,108.192 L271.408,108.192 L271.408,63.168 L261.328,63.168 L229.744,108.768 L229.744,116.832 L261.52,116.832 L261.52,132 L271.408,132 Z M261.52,108.192 L239.344,108.192 L257.488,81.888 C258.192,80.864 258.928,79.68 259.696,78.336 C260.464,76.992 261.104,75.68 261.616,74.4 L261.616,74.4 L262,74.4 C261.872,76.192 261.76,78.416 261.664,81.072 C261.568,83.728 261.52,86.56 261.52,89.568 L261.52,89.568 L261.52,108.192 Z" id="404" fill="#23292E" fill-rule="nonzero"></path>
            </g>
        </g>
    </g>
</svg>