<?xml version="1.0" encoding="utf-8"?>
<svg xml:space="preserve" viewBox="0 0 100 100" y="0" x="0" xmlns="http://www.w3.org/2000/svg" id="圖層_1" version="1.1" style="height: 100%; width: 100%; background: none; shape-rendering: auto; animation-play-state: running; animation-delay: 0s;" width="500px" height="500px"><g class="ldl-scale" style="transform-origin: 50% 50%; transform: rotate(0deg) scale(0.4, 0.4); animation-play-state: running; animation-delay: 0s;"><g class="ldl-ani" style="animation-play-state: running; animation-delay: 0s;"><g class="ldl-layer" style="animation-play-state: running; animation-delay: 0s;"><g class="ldl-ani" style="animation-play-state: running; animation-delay: 0s;"><g style="animation-play-state: running; animation-delay: 0s;"><g class="ldl-layer" style="animation-play-state: running; animation-delay: 0s;"><g class="ldl-ani" style="transform-origin: 50px 50px; transform: scale(0.91); animation: 0.666667s linear -0.349206s infinite alternate forwards running breath-09ae1e6a-f486-481b-96c0-645ea9b0b3cf;"><path stroke-miterlimit="10" stroke-width="3.5" stroke="#333" fill="#e15b64" d="M89.77 38.977h-4.969a32.902 32.902 0 0 1-.303 1.994c-.323-.151-.606-.308-1.002-.51l-1.35-.709c-.926-.484-1.915-.995-3.016-1.447a19.892 19.892 0 0 0-2.601-.876l-.456-.114-.55-.102c-1.47-.234-2.906-.165-4.24.068a17.03 17.03 0 0 0-2.986.821l.013-1.237-8.31.731 2.386 13.188 5.785-.509.029-2.851a14.33 14.33 0 0 1 2.685-2.165c1.336-.832 2.758-1.333 3.911-1.354h.215l.303.021a13.506 13.506 0 0 1 1.875.287c.856.187 1.767.47 2.737.786l1.495.488.817.255c.118.034.234.06.351.091-.06.091-.114.182-.177.274a23.3 23.3 0 0 1-.554.769l-.3.389-.254.321c-.266.336-.631.717-1.082 1.141-1.537 1.443-3.444 2.649-4.856 4.159-4.638 4.96-8.264 9.646-8.264 18.228 1.615.021 11.358.021 12.494.021-.165-2.632-.079-5.192.434-7.486a15.056 15.056 0 0 1 1.11-3.245 15.705 15.705 0 0 1 1.919-2.994c.796-1.013 1.784-2.032 2.917-3.371.561-.673 1.158-1.442 1.699-2.363l.199-.345.131-.29.259-.581c.169-.397.335-.795.49-1.212.631-1.644 1.095-3.521 1.2-5.301.121-1.784-.015-3.415-.184-4.97z" style="fill: rgb(225, 91, 100); stroke: rgb(51, 51, 51); animation-play-state: running; animation-delay: 0s;"></path></g></g><g class="ldl-layer" style="animation-play-state: running; animation-delay: 0s;"><g class="ldl-ani" style="transform-origin: 50px 50px; transform: scale(0.91); animation: 0.666667s linear -0.365079s infinite alternate forwards running breath-09ae1e6a-f486-481b-96c0-645ea9b0b3cf;"><path stroke-miterlimit="10" stroke-width="3.5" stroke="#000" opacity=".1" d="M68.171 50.275l.029-2.851a14.33 14.33 0 0 1 2.685-2.165c1.336-.832 2.758-1.333 3.911-1.354h.215l.303.021a13.506 13.506 0 0 1 1.875.287 22.42 22.42 0 0 1 1.781.483l-.82-.384-1.566-.759c-1.015-.491-1.972-.939-2.881-1.268a14.158 14.158 0 0 0-2.011-.581l-.329-.066-.235-.029c-1.264-.134-2.89.244-4.469 1.012a15.96 15.96 0 0 0-3.244 2.104l-.436 3.248-1.109-.036.515 2.847 5.786-.509z" style="animation-play-state: running; animation-delay: 0s;"></path></g></g><g class="ldl-layer" style="animation-play-state: running; animation-delay: 0s;"><g class="ldl-ani" style="transform-origin: 50px 50px; transform: scale(0.91); animation: 0.666667s linear -0.380952s infinite alternate forwards running breath-09ae1e6a-f486-481b-96c0-645ea9b0b3cf;"><path stroke-miterlimit="10" stroke-width="3.5" stroke="#000" opacity=".1" d="M89.77 38.977h-1.591c-.049 1.507-.161 3.076-.48 4.74-.368 2.016-1.142 4.095-2.065 5.884-.229.454-.467.886-.708 1.316l-.366.628-.184.313-.266.366c-.722.977-1.484 1.773-2.193 2.465-1.429 1.373-2.654 2.401-3.668 3.448a18.072 18.072 0 0 0-2.523 3.154 17.831 17.831 0 0 0-1.674 3.551c-.67 1.926-1.094 4.058-1.345 6.291 3.045.003 6.266.003 6.89.003-.165-2.632-.079-5.192.434-7.486a15.056 15.056 0 0 1 1.11-3.245 15.705 15.705 0 0 1 1.919-2.994c.796-1.013 1.784-2.032 2.917-3.371.561-.673 1.158-1.442 1.699-2.363l.199-.345.131-.29.259-.581c.169-.397.335-.795.49-1.212.63-1.644 1.095-3.521 1.2-5.301.12-1.785-.016-3.416-.185-4.971z" style="animation-play-state: running; animation-delay: 0s;"></path></g></g><g class="ldl-layer" style="animation-play-state: running; animation-delay: 0s;"><g class="ldl-ani" style="animation-play-state: running; animation-delay: 0s;"><g style="animation-play-state: running; animation-delay: 0s;"><g class="ldl-layer" style="animation-play-state: running; animation-delay: 0s;"><g class="ldl-ani" style="transform-origin: 50px 50px; transform: scale(0.91); animation: 0.666667s linear -0.396825s infinite alternate forwards running breath-09ae1e6a-f486-481b-96c0-645ea9b0b3cf;"><path fill="#fff" d="M67.475 70.711c.056-1.823.446-3.598 1.008-5.274a20.72 20.72 0 0 1 2.348-4.68 22.909 22.909 0 0 1 3.304-3.933 24.312 24.312 0 0 1 1.95-1.644 14.169 14.169 0 0 1 1.622-1.039c.098-.044.178-.118.298-.127.119-.009.276.045.492.215.04.274.02.431-.035.53-.055.098-.148.134-.22.202a13.103 13.103 0 0 0-1.302 1.196 23.954 23.954 0 0 0-1.529 1.819c-.97 1.249-1.769 2.611-2.446 4.004-.664 1.4-1.195 2.849-1.515 4.323a17.114 17.114 0 0 0-.433 4.408h-3.542z" style="fill: rgb(255, 255, 255); animation-play-state: running; animation-delay: 0s;"></path></g></g></g></g></g><g class="ldl-layer" style="animation-play-state: running; animation-delay: 0s;"><g class="ldl-ani" style="animation-play-state: running; animation-delay: 0s;"><g style="animation-play-state: running; animation-delay: 0s;"><g class="ldl-layer" style="animation-play-state: running; animation-delay: 0s;"><g class="ldl-ani" style="transform-origin: 50px 50px; transform: scale(0.91); animation: 0.666667s linear -0.412698s infinite alternate forwards running breath-09ae1e6a-f486-481b-96c0-645ea9b0b3cf;"><path fill="#fff" d="M64.749 37.679c-.131 1.341-.1 2.814-.006 4.284a54.66 54.66 0 0 0 .484 4.443l-1.429.455a58.141 58.141 0 0 1-1.828-4.284c-.548-1.469-1.05-2.967-1.392-4.63l4.171-.268z" style="fill: rgb(255, 255, 255); animation-play-state: running; animation-delay: 0s;"></path></g></g></g></g></g><g class="ldl-layer" style="animation-play-state: running; animation-delay: 0s;"><g class="ldl-ani" style="animation-play-state: running; animation-delay: 0s;"><g style="animation-play-state: running; animation-delay: 0s;"><g class="ldl-layer" style="animation-play-state: running; animation-delay: 0s;"><g class="ldl-ani" style="transform-origin: 50px 50px; transform: scale(0.91); animation: 0.666667s linear -0.428571s infinite alternate forwards running breath-09ae1e6a-f486-481b-96c0-645ea9b0b3cf;"><path fill="#fff" d="M80.019 53.453a.43.43 0 0 1-.236-.786 7.34 7.34 0 0 0 2.118-2.142.428.428 0 1 1 .72.464 8.204 8.204 0 0 1-2.366 2.394.435.435 0 0 1-.236.07z" style="fill: rgb(255, 255, 255); animation-play-state: running; animation-delay: 0s;"></path></g></g></g></g></g><g class="ldl-layer" style="animation-play-state: running; animation-delay: 0s;"><g class="ldl-ani" style="animation-play-state: running; animation-delay: 0s;"><g style="animation-play-state: running; animation-delay: 0s;"><g class="ldl-layer" style="animation-play-state: running; animation-delay: 0s;"><g class="ldl-ani" style="transform-origin: 50px 50px; transform: scale(0.91); animation: 0.666667s linear -0.444444s infinite alternate forwards running breath-09ae1e6a-f486-481b-96c0-645ea9b0b3cf;"><path fill="#fff" d="M70.979 40.452c.78-.293 1.649-.29 2.46-.158.816.137 1.588.402 2.316.704.73.303 1.418.647 2.104.981.343.171.686.336 1.037.499.173.095.354.16.534.245.086.04.193.094.253.116.031.011.056.021.077.006.02-.019.04-.076-.011-.098.06-.022.116.058.107.127-.006.086-.091.139-.154.159-.137.034-.222.029-.329.042a5.136 5.136 0 0 1-.62.018 6.55 6.55 0 0 1-1.222-.158c-.799-.174-1.553-.451-2.271-.752-.72-.301-1.406-.625-2.099-.922-.693-.3-1.39-.567-2.182-.809z" style="fill: rgb(255, 255, 255); animation-play-state: running; animation-delay: 0s;"></path></g></g></g></g></g></g></g></g><g class="ldl-layer" style="animation-play-state: running; animation-delay: 0s;"><g class="ldl-ani" style="animation-play-state: running; animation-delay: 0s;"><g style="animation-play-state: running; animation-delay: 0s;"><g class="ldl-layer" style="animation-play-state: running; animation-delay: 0s;"><g class="ldl-ani" style="transform-origin: 50px 50px; transform: scale(0.91); animation: 0.666667s linear -0.460317s infinite alternate forwards running breath-09ae1e6a-f486-481b-96c0-645ea9b0b3cf;"><path stroke-miterlimit="10" stroke-width="3.5" stroke="#333" fill="#e15b64" d="M39.77 38.977h-4.969a32.902 32.902 0 0 1-.303 1.994c-.323-.151-.606-.308-1.002-.51l-1.35-.709c-.926-.484-1.915-.995-3.016-1.447a19.77 19.77 0 0 0-2.601-.876l-.456-.114-.55-.102c-1.47-.234-2.906-.165-4.24.068a17.03 17.03 0 0 0-2.986.821l.013-1.237-8.31.731 2.386 13.188 5.785-.509.029-2.851a14.33 14.33 0 0 1 2.685-2.165c1.336-.832 2.758-1.333 3.911-1.354h.215l.303.021a13.506 13.506 0 0 1 1.875.287c.856.187 1.767.47 2.737.786l1.495.488.817.255c.118.034.234.06.351.091-.06.091-.114.182-.177.274a23.3 23.3 0 0 1-.554.769l-.3.389-.254.321c-.266.336-.631.717-1.082 1.141-1.537 1.443-3.444 2.649-4.856 4.159-4.638 4.96-8.264 9.646-8.264 18.228 1.615.021 11.358.021 12.494.021-.165-2.632-.079-5.192.434-7.486a15.056 15.056 0 0 1 1.11-3.245 15.705 15.705 0 0 1 1.919-2.994c.796-1.013 1.784-2.032 2.917-3.371.561-.673 1.158-1.442 1.699-2.363l.199-.345.131-.29.259-.581c.169-.397.335-.795.49-1.212.631-1.644 1.095-3.521 1.2-5.301.121-1.784-.015-3.415-.184-4.97z" style="fill: rgb(225, 91, 100); stroke: rgb(51, 51, 51); animation-play-state: running; animation-delay: 0s;"></path></g></g><g class="ldl-layer" style="animation-play-state: running; animation-delay: 0s;"><g class="ldl-ani" style="transform-origin: 50px 50px; transform: scale(0.91); animation: 0.666667s linear -0.47619s infinite alternate forwards running breath-09ae1e6a-f486-481b-96c0-645ea9b0b3cf;"><path stroke-miterlimit="10" stroke-width="3.5" stroke="#000" opacity=".1" d="M18.171 50.275l.029-2.851a14.33 14.33 0 0 1 2.685-2.165c1.336-.832 2.758-1.333 3.911-1.354h.215l.303.021a13.506 13.506 0 0 1 1.875.287 22.42 22.42 0 0 1 1.781.483l-.82-.384-1.566-.759c-1.015-.491-1.972-.939-2.881-1.268a14.158 14.158 0 0 0-2.011-.581l-.329-.066-.235-.029c-1.264-.134-2.89.244-4.469 1.012a15.96 15.96 0 0 0-3.244 2.104l-.436 3.248-1.109-.036.515 2.847 5.786-.509z" style="animation-play-state: running; animation-delay: 0s;"></path></g></g><g class="ldl-layer" style="animation-play-state: running; animation-delay: 0s;"><g class="ldl-ani" style="transform-origin: 50px 50px; transform: scale(0.91); animation: 0.666667s linear -0.492063s infinite alternate forwards running breath-09ae1e6a-f486-481b-96c0-645ea9b0b3cf;"><path stroke-miterlimit="10" stroke-width="3.5" stroke="#000" opacity=".1" d="M39.77 38.977h-1.591c-.049 1.507-.161 3.076-.48 4.74-.368 2.016-1.142 4.095-2.065 5.884-.229.454-.467.886-.708 1.316l-.366.628-.184.313-.266.366c-.722.977-1.484 1.773-2.193 2.465-1.429 1.373-2.654 2.401-3.668 3.448a18.072 18.072 0 0 0-2.523 3.154 17.831 17.831 0 0 0-1.674 3.551c-.67 1.926-1.094 4.058-1.345 6.291 3.045.003 6.266.003 6.89.003-.165-2.632-.079-5.192.434-7.486a15.056 15.056 0 0 1 1.11-3.245 15.705 15.705 0 0 1 1.919-2.994c.796-1.013 1.784-2.032 2.917-3.371.561-.673 1.158-1.442 1.699-2.363l.199-.345.131-.29.259-.581c.169-.397.335-.795.49-1.212.63-1.644 1.095-3.521 1.2-5.301.12-1.785-.016-3.416-.185-4.971z" style="animation-play-state: running; animation-delay: 0s;"></path></g></g><g class="ldl-layer" style="animation-play-state: running; animation-delay: 0s;"><g class="ldl-ani" style="animation-play-state: running; animation-delay: 0s;"><g style="animation-play-state: running; animation-delay: 0s;"><g class="ldl-layer" style="animation-play-state: running; animation-delay: 0s;"><g class="ldl-ani" style="transform-origin: 50px 50px; transform: scale(0.91); animation: 0.666667s linear -0.507937s infinite alternate forwards running breath-09ae1e6a-f486-481b-96c0-645ea9b0b3cf;"><path fill="#fff" d="M17.475 70.711c.056-1.823.446-3.598 1.008-5.274a20.72 20.72 0 0 1 2.348-4.68 22.909 22.909 0 0 1 3.304-3.933 24.312 24.312 0 0 1 1.95-1.644 14.169 14.169 0 0 1 1.622-1.039c.098-.044.178-.118.298-.127.119-.009.276.045.492.215.04.274.02.431-.035.53-.055.098-.148.134-.22.202a13.103 13.103 0 0 0-1.302 1.196 23.954 23.954 0 0 0-1.529 1.819c-.97 1.249-1.769 2.611-2.446 4.004-.664 1.4-1.195 2.849-1.515 4.323a17.114 17.114 0 0 0-.433 4.408h-3.542z" style="fill: rgb(255, 255, 255); animation-play-state: running; animation-delay: 0s;"></path></g></g></g></g></g><g class="ldl-layer" style="animation-play-state: running; animation-delay: 0s;"><g class="ldl-ani" style="animation-play-state: running; animation-delay: 0s;"><g style="animation-play-state: running; animation-delay: 0s;"><g class="ldl-layer" style="animation-play-state: running; animation-delay: 0s;"><g class="ldl-ani" style="transform-origin: 50px 50px; transform: scale(0.91); animation: 0.666667s linear -0.52381s infinite alternate forwards running breath-09ae1e6a-f486-481b-96c0-645ea9b0b3cf;"><path fill="#fff" d="M14.749 37.679c-.131 1.341-.1 2.814-.006 4.284a54.66 54.66 0 0 0 .484 4.443l-1.429.455a58.141 58.141 0 0 1-1.828-4.284c-.548-1.469-1.05-2.967-1.392-4.63l4.171-.268z" style="fill: rgb(255, 255, 255); animation-play-state: running; animation-delay: 0s;"></path></g></g></g></g></g><g class="ldl-layer" style="animation-play-state: running; animation-delay: 0s;"><g class="ldl-ani" style="animation-play-state: running; animation-delay: 0s;"><g style="animation-play-state: running; animation-delay: 0s;"><g class="ldl-layer" style="animation-play-state: running; animation-delay: 0s;"><g class="ldl-ani" style="transform-origin: 50px 50px; transform: scale(0.91); animation: 0.666667s linear -0.539683s infinite alternate forwards running breath-09ae1e6a-f486-481b-96c0-645ea9b0b3cf;"><path fill="#fff" d="M30.019 53.453a.43.43 0 0 1-.236-.786 7.34 7.34 0 0 0 2.118-2.142.428.428 0 1 1 .72.464 8.204 8.204 0 0 1-2.366 2.394.435.435 0 0 1-.236.07z" style="fill: rgb(255, 255, 255); animation-play-state: running; animation-delay: 0s;"></path></g></g></g></g></g><g class="ldl-layer" style="animation-play-state: running; animation-delay: 0s;"><g class="ldl-ani" style="animation-play-state: running; animation-delay: 0s;"><g style="animation-play-state: running; animation-delay: 0s;"><g class="ldl-layer" style="animation-play-state: running; animation-delay: 0s;"><g class="ldl-ani" style="transform-origin: 50px 50px; transform: scale(0.91); animation: 0.666667s linear -0.555556s infinite alternate forwards running breath-09ae1e6a-f486-481b-96c0-645ea9b0b3cf;"><path fill="#fff" d="M20.979 40.452c.78-.293 1.649-.29 2.46-.158.816.137 1.588.402 2.316.704.73.303 1.418.647 2.104.981.343.171.686.336 1.037.499.173.095.354.16.534.245.086.04.193.094.253.116.031.011.056.021.077.006.02-.019.04-.076-.011-.098.06-.022.116.058.107.127-.006.086-.091.139-.154.159-.137.034-.222.029-.329.042a5.136 5.136 0 0 1-.62.018 6.55 6.55 0 0 1-1.222-.158c-.799-.174-1.553-.451-2.271-.752-.72-.301-1.406-.625-2.099-.922-.693-.3-1.39-.567-2.182-.809z" style="fill: rgb(255, 255, 255); animation-play-state: running; animation-delay: 0s;"></path></g></g></g></g></g></g></g></g><g class="ldl-layer" style="animation-play-state: running; animation-delay: 0s;"><g class="ldl-ani" style="animation-play-state: running; animation-delay: 0s;"><g style="animation-play-state: running; animation-delay: 0s;"><g class="ldl-layer" style="animation-play-state: running; animation-delay: 0s;"><g class="ldl-ani" style="transform-origin: 50px 50px; transform: scale(0.91); animation: 0.666667s linear -0.571429s infinite alternate forwards running breath-09ae1e6a-f486-481b-96c0-645ea9b0b3cf;"><path stroke-miterlimit="10" stroke-width="3.5" stroke="#333" fill="#e15b64" d="M69.693 29.969h-6.625a43.58 43.58 0 0 1-.404 2.659c-.431-.202-.809-.411-1.336-.68l-1.799-.946c-1.234-.645-2.553-1.327-4.021-1.929a26.6 26.6 0 0 0-3.469-1.168l-.609-.152-.733-.136c-1.96-.312-3.875-.22-5.654.091-1.397.245-2.72.626-3.982 1.095l.017-1.65L30 28.128l3.181 17.583 7.713-.678.039-3.801a19.108 19.108 0 0 1 3.581-2.886c1.781-1.11 3.677-1.778 5.215-1.805h.286l.404.028a17.865 17.865 0 0 1 2.501.382c1.141.249 2.356.627 3.649 1.047l1.994.65 1.089.339c.157.045.312.08.468.122-.08.122-.153.243-.237.365-.23.339-.484.683-.739 1.026l-.401.518-.338.428c-.355.448-.841.957-1.442 1.521-2.049 1.925-4.592 3.532-6.475 5.546-6.185 6.614-11.019 12.861-11.019 24.304 2.154.027 15.145.027 16.659.027-.22-3.51-.106-6.923.578-9.982a20.06 20.06 0 0 1 1.48-4.327c.663-1.362 1.485-2.655 2.559-3.991 1.062-1.35 2.379-2.709 3.889-4.494.748-.897 1.544-1.923 2.265-3.151l.265-.46.174-.386.345-.775c.225-.529.447-1.06.654-1.616.841-2.192 1.46-4.695 1.6-7.068.163-2.376-.017-4.552-.244-6.625z" style="fill: rgb(225, 91, 100); stroke: rgb(51, 51, 51); animation-play-state: running; animation-delay: 0s;"></path></g></g><g class="ldl-layer" style="animation-play-state: running; animation-delay: 0s;"><g class="ldl-ani" style="transform-origin: 50px 50px; transform: scale(0.91); animation: 0.666667s linear -0.587302s infinite alternate forwards running breath-09ae1e6a-f486-481b-96c0-645ea9b0b3cf;"><path stroke-miterlimit="10" stroke-width="3.5" stroke="#000" opacity=".1" d="M40.894 45.033l.039-3.801a19.108 19.108 0 0 1 3.581-2.886c1.781-1.11 3.677-1.778 5.215-1.805h.286l.404.028a17.547 17.547 0 0 1 2.501.382 29.94 29.94 0 0 1 2.375.644l-1.094-.512-2.088-1.013c-1.354-.655-2.63-1.252-3.842-1.691a19.156 19.156 0 0 0-2.68-.776l-.438-.087-.313-.039c-1.686-.178-3.854.326-5.959 1.349a21.22 21.22 0 0 0-4.325 2.805l-.582 4.331-1.478-.048.687 3.796 7.711-.677z" style="animation-play-state: running; animation-delay: 0s;"></path></g></g><g class="ldl-layer" style="animation-play-state: running; animation-delay: 0s;"><g class="ldl-ani" style="transform-origin: 50px 50px; transform: scale(0.91); animation: 0.666667s linear -0.603175s infinite alternate forwards running breath-09ae1e6a-f486-481b-96c0-645ea9b0b3cf;"><path stroke-miterlimit="10" stroke-width="3.5" stroke="#000" opacity=".1" d="M69.693 29.969h-2.122c-.066 2.01-.215 4.101-.64 6.32-.49 2.688-1.523 5.459-2.753 7.845a44.49 44.49 0 0 1-.944 1.754l-.488.837-.246.417-.355.489c-.963 1.303-1.979 2.365-2.924 3.286-1.905 1.831-3.538 3.201-4.891 4.597-1.363 1.379-2.446 2.742-3.364 4.205a23.748 23.748 0 0 0-2.232 4.734c-.894 2.567-1.459 5.411-1.793 8.388 4.059.004 8.354.005 9.186.005-.22-3.51-.106-6.923.578-9.982a20.06 20.06 0 0 1 1.48-4.327c.663-1.362 1.485-2.655 2.559-3.991 1.062-1.351 2.379-2.709 3.889-4.494.748-.897 1.544-1.923 2.265-3.151l.265-.46.174-.386.345-.775c.225-.529.447-1.06.654-1.616.841-2.192 1.46-4.695 1.6-7.068.164-2.378-.016-4.554-.243-6.627z" style="animation-play-state: running; animation-delay: 0s;"></path></g></g><g class="ldl-layer" style="animation-play-state: running; animation-delay: 0s;"><g class="ldl-ani" style="animation-play-state: running; animation-delay: 0s;"><g style="animation-play-state: running; animation-delay: 0s;"><g class="ldl-layer" style="animation-play-state: running; animation-delay: 0s;"><g class="ldl-ani" style="transform-origin: 50px 50px; transform: scale(0.91); animation: 0.666667s linear -0.619048s infinite alternate forwards running breath-09ae1e6a-f486-481b-96c0-645ea9b0b3cf;"><path fill="#fff" d="M39.967 72.282c.074-2.431.594-4.797 1.344-7.032.774-2.233 1.853-4.319 3.131-6.24a30.55 30.55 0 0 1 4.406-5.245 32.412 32.412 0 0 1 2.599-2.192c.459-.339.932-.661 1.42-.958.244-.149.491-.292.743-.427.131-.059.238-.158.397-.169.159-.012.368.059.657.287.053.366.027.575-.046.706-.073.13-.197.178-.294.269-.206.162-.407.33-.604.503-.394.345-.77.711-1.132 1.091a32.16 32.16 0 0 0-2.039 2.425c-1.293 1.665-2.359 3.482-3.262 5.339-.886 1.867-1.594 3.799-2.02 5.765-.464 1.957-.629 3.942-.577 5.878h-4.723z" style="fill: rgb(255, 255, 255); animation-play-state: running; animation-delay: 0s;"></path></g></g></g></g></g><g class="ldl-layer" style="animation-play-state: running; animation-delay: 0s;"><g class="ldl-ani" style="animation-play-state: running; animation-delay: 0s;"><g style="animation-play-state: running; animation-delay: 0s;"><g class="ldl-layer" style="animation-play-state: running; animation-delay: 0s;"><g class="ldl-ani" style="transform-origin: 50px 50px; transform: scale(0.91); animation: 0.666667s linear -0.634921s infinite alternate forwards running breath-09ae1e6a-f486-481b-96c0-645ea9b0b3cf;"><path fill="#fff" d="M36.331 28.238c-.174 1.788-.134 3.752-.008 5.713a75.023 75.023 0 0 0 .645 5.923l-1.905.606a77.091 77.091 0 0 1-2.437-5.713c-.731-1.959-1.401-3.956-1.857-6.174l5.562-.355z" style="fill: rgb(255, 255, 255); animation-play-state: running; animation-delay: 0s;"></path></g></g></g></g></g><g class="ldl-layer" style="animation-play-state: running; animation-delay: 0s;"><g class="ldl-ani" style="animation-play-state: running; animation-delay: 0s;"><g style="animation-play-state: running; animation-delay: 0s;"><g class="ldl-layer" style="animation-play-state: running; animation-delay: 0s;"><g class="ldl-ani" style="transform-origin: 50px 50px; transform: scale(0.91); animation: 0.666667s linear -0.650794s infinite alternate forwards running breath-09ae1e6a-f486-481b-96c0-645ea9b0b3cf;"><path fill="#fff" d="M56.692 49.271a.572.572 0 0 1-.315-1.048 9.776 9.776 0 0 0 2.823-2.856.57.57 0 1 1 .96.618 10.956 10.956 0 0 1-3.155 3.192.57.57 0 0 1-.313.094z" style="fill: rgb(255, 255, 255); animation-play-state: running; animation-delay: 0s;"></path></g></g></g></g></g><g class="ldl-layer" style="animation-play-state: running; animation-delay: 0s;"><g class="ldl-ani" style="animation-play-state: running; animation-delay: 0s;"><g style="animation-play-state: running; animation-delay: 0s;"><g class="ldl-layer" style="animation-play-state: running; animation-delay: 0s;"><g class="ldl-ani" style="transform-origin: 50px 50px; transform: scale(0.91); animation: 0.666667s linear -0.666667s infinite alternate forwards running breath-09ae1e6a-f486-481b-96c0-645ea9b0b3cf;"><path fill="#fff" d="M44.639 31.936c1.04-.391 2.199-.387 3.28-.21 1.088.182 2.117.536 3.087.939.973.404 1.891.862 2.806 1.308.457.228.915.448 1.383.666.231.127.471.213.712.327.115.054.258.125.338.155.042.014.075.028.103.008.026-.025.053-.102-.015-.131.079-.029.155.078.143.169-.008.114-.122.186-.205.212-.183.045-.296.038-.439.056a6.714 6.714 0 0 1-.827.023 8.836 8.836 0 0 1-1.629-.21c-1.065-.232-2.071-.602-3.028-1.002-.96-.401-1.875-.833-2.799-1.23a27.008 27.008 0 0 0-2.91-1.08z" style="fill: rgb(255, 255, 255); animation-play-state: running; animation-delay: 0s;"></path></g></g></g></g></g></g></g></g><metadata xmlns:d="https://loading.io/stock/" style="animation-play-state: running; animation-delay: 0s;">
<d:name style="animation-play-state: running; animation-delay: 0s;">lucky seven</d:name>
<d:tags style="animation-play-state: running; animation-delay: 0s;">lucky seven,slot machine,casino,gamble,game,jackpot,puggy,fruit machine</d:tags>
<d:license style="animation-play-state: running; animation-delay: 0s;">by</d:license>
<d:slug style="animation-play-state: running; animation-delay: 0s;">k0ud4v</d:slug>
</metadata></g></g><style id="breath-09ae1e6a-f486-481b-96c0-645ea9b0b3cf" data-anikit="">@keyframes breath-09ae1e6a-f486-481b-96c0-645ea9b0b3cf
{
  0% {
    animation-timing-function: cubic-bezier(0.9647,0.2413,-0.0705,0.7911);
    transform: scale(0.9099999999999999);
  }
  51% {
    animation-timing-function: cubic-bezier(0.9226,0.2631,-0.0308,0.7628);
    transform: scale(1.02994);
  }
  100% {
    transform: scale(0.9099999999999999);
  }
}</style><!-- [ldio] generated by https://loading.io/ --></svg>