<?xml version="1.0" encoding="UTF-8"?>
<svg width="345px" height="290px" viewBox="0 0 345 290" version="1.1" xmlns="http://www.w3.org/2000/svg" xmlns:xlink="http://www.w3.org/1999/xlink">
    <!-- Generator: sketchtool 60 (101010) - https://sketch.com -->
    <title>64686E75-FE9D-4B58-864E-3533A438E9E6</title>
    <desc>Created with sketchtool.</desc>
    <defs>
        <polygon id="path-1" points="0.257603077 0.288675799 34.9751415 0.288675799 34.9751415 24.2461187 0.257603077 24.2461187"></polygon>
        <polygon id="path-3" points="0.353261538 0.288675799 35.0708 0.288675799 35.0708 24.2461187 0.353261538 24.2461187"></polygon>
        <polygon id="path-5" points="0.447464615 0.288675799 35.1650031 0.288675799 35.1650031 24.2461187 0.447464615 24.2461187"></polygon>
        <polygon id="path-7" points="0.543123077 0.288675799 35.2606615 0.288675799 35.2606615 24.2461187 0.543123077 24.2461187"></polygon>
        <polygon id="path-9" points="0.637458462 0.288675799 35.35632 0.288675799 35.35632 24.2461187 0.637458462 24.2461187"></polygon>
        <path d="M1.42495385,5.42525114 C-0.246092308,8.99794521 1.29529231,13.2512785 4.8676,14.9224201 L4.8676,14.9224201 C8.43858462,16.5935616 12.6869846,15.0508676 14.3567077,11.4755251 L14.3567077,11.4755251 C16.0264308,7.90150685 14.4850462,3.65082192 10.9140615,1.97835616 L10.9140615,1.97835616 C9.93630769,1.52018265 8.90827692,1.3043379 7.89612308,1.3043379 L7.89612308,1.3043379 C5.21027692,1.3043379 2.63689231,2.82849315 1.42495385,5.42525114 L1.42495385,5.42525114 Z" id="path-11"></path>
        <path d="M4.8676,14.9224201 C8.43858462,16.5935616 12.6869846,15.0508676 14.3567077,11.4755251 C16.0264308,7.90150685 14.4850462,3.65082192 10.9140615,1.97835616 C9.93630769,1.52018265 8.90827692,1.3043379 7.89612308,1.3043379 C5.21027692,1.3043379 2.63689231,2.82849315 1.42495385,5.42525114 C-0.246092308,8.99794521 1.29529231,13.2512785 4.8676,14.9224201 Z" id="path-13"></path>
        <path d="M1.89067692,3.79515982 C-0.633753846,6.88319635 -0.182584615,11.4357991 2.90283077,13.9650228 L2.90283077,13.9650228 C5.98824615,16.4929224 10.5369846,16.0387215 13.0614154,12.9520091 L13.0614154,12.9520091 C15.5884923,9.8639726 15.136,5.31269406 12.0505846,2.78214612 L12.0505846,2.78214612 C10.7089846,1.68305936 9.09086154,1.14808219 7.482,1.14808219 L7.482,1.14808219 C5.39153846,1.14808219 3.31827692,2.05118721 1.89067692,3.79515982 L1.89067692,3.79515982 Z" id="path-15"></path>
        <path d="M13.1024308,2.09488584 L0.0410153846,35.8831963 L29.6885231,35.8831963 L16.6257846,2.09488584 C16.3148615,1.28977169 15.5884923,0.887214612 14.8634462,0.887214612 L14.8634462,0.887214612 C14.1384,0.887214612 13.4133538,1.28977169 13.1024308,2.09488584 L13.1024308,2.09488584 Z" id="path-17"></path>
        <path d="M13.5747692,2.19949772 L0.513353846,35.9878082 L30.1595385,35.9878082 L17.0981231,2.19949772 C16.7872,1.39305936 16.0621538,0.990502283 15.3371077,0.990502283 L15.3371077,0.990502283 C14.6120615,0.990502283 13.8870154,1.39305936 13.5747692,2.19949772 L13.5747692,2.19949772 Z" id="path-19"></path>
    </defs>
    <g id="Page-1" stroke="none" stroke-width="1" fill="none" fill-rule="evenodd">
        <g id="Maintenance-page" transform="translate(-788.000000, -198.000000)">
            <g id="Maintenance-image" transform="translate(788.000000, 199.000000)">
                <g>
                    <g id="Group-23" transform="translate(14.553846, 128.665982)">
                        <path d="M227.745994,159.498676 L15.2836554,159.66553 C7.23670154,159.672146 0.707316923,153.147808 0.700701538,145.094018 L242.305137,144.904658 C242.311748,152.959772 235.792948,159.492055 227.745994,159.498676" id="Fill-1" fill="#000000"></path>
                        <path d="M227.742157,154.47863 L15.2798185,154.644155 C8.99917231,154.649452 3.65923385,150.66758 1.60714154,145.092694 L0.700833846,145.094018 C0.707449231,153.147808 7.23683385,159.672146 15.2837877,159.66553 L227.746126,159.498676 C235.79308,159.492055 242.31188,152.959772 242.30527,144.905982 L241.398957,144.905982 C239.357449,150.482192 234.024126,154.473333 227.742157,154.47863" id="Fill-3" fill="#14181B"></path>
                        <path d="M135.232618,149.869749 L107.782742,149.892263 C105.088957,149.894909 102.903234,147.709977 102.900588,145.013904 L140.106836,144.984772 C140.10948,147.680845 137.926403,149.868425 135.232618,149.869749" id="Fill-5" fill="#23292E"></path>
                        <path d="M229.871385,144.914324 L13.1355077,145.083822 L13.0323042,14.1534566 C13.0270154,6.64258904 19.1065538,0.548616438 26.6110462,0.541995434 L216.1696,0.393681476 C223.674092,0.388388128 229.762892,6.47309132 229.769508,13.9839589 L229.871385,144.914324 Z" id="Fill-7" fill="#111417"></path>
                        <polygon id="Fill-9" fill="#47515A" points="218.576145 133.612005 24.4132831 133.762963 24.3193446 11.8557032 218.480883 11.7034201"></polygon>
                        <polygon id="Fill-21" fill="#FBB03B" points="13.0323077 87.8064384 229.871385 87.8064384 229.871385 63.8489954 13.0323077 63.8489954"></polygon>
                    </g>
                    <g id="Group-39" transform="translate(35.723077, 192.227626)">
                        <g id="Group-26">
                            <mask id="mask-2" fill="white">
                                <use xlink:href="#path-1"></use>
                            </mask>
                            <g id="Clip-25"></g>
                            <polygon id="Fill-24" fill="#FFFFFF" mask="url(#mask-2)" points="18.9156338 32.6494977 0.257603077 32.6494977 16.3171108 -4.11958904 34.9751415 -4.11958904"></polygon>
                        </g>
                        <g id="Group-29" transform="translate(39.692308, 0.000000)">
                            <mask id="mask-4" fill="white">
                                <use xlink:href="#path-3"></use>
                            </mask>
                            <g id="Clip-28"></g>
                            <polygon id="Fill-27" fill="#FFFFFF" mask="url(#mask-4)" points="19.0099692 32.6494977 0.353261538 32.6494977 16.4127692 -4.11958904 35.0708 -4.11958904"></polygon>
                        </g>
                        <g id="Group-32" transform="translate(79.384615, 0.000000)">
                            <mask id="mask-6" fill="white">
                                <use xlink:href="#path-5"></use>
                            </mask>
                            <g id="Clip-31"></g>
                            <polygon id="Fill-30" fill="#FFFFFF" mask="url(#mask-6)" points="19.1054954 32.6494977 0.447464615 32.6494977 16.5082954 -4.11958904 35.1650031 -4.11958904"></polygon>
                        </g>
                        <g id="Group-35" transform="translate(119.076923, 0.000000)">
                            <mask id="mask-8" fill="white">
                                <use xlink:href="#path-7"></use>
                            </mask>
                            <g id="Clip-34"></g>
                            <polygon id="Fill-33" fill="#FFFFFF" mask="url(#mask-8)" points="19.2011538 32.6494977 0.543123077 32.6494977 16.6026308 -4.11958904 35.2606615 -4.11958904"></polygon>
                        </g>
                        <g id="Group-38" transform="translate(158.769231, 0.000000)">
                            <mask id="mask-10" fill="white">
                                <use xlink:href="#path-9"></use>
                            </mask>
                            <g id="Clip-37"></g>
                            <polygon id="Fill-36" fill="#FFFFFF" mask="url(#mask-10)" points="19.2954892 32.6494977 0.637458462 32.6494977 16.6982892 -4.11958904 35.35632 -4.11958904"></polygon>
                        </g>
                    </g>
                    <g id="Group-86" transform="translate(0.000000, 77.022146)">
                        <path d="M10.1760492,74.129032 L5.93823385,74.2919087 L3.45614154,73.5040091 C2.31697231,73.1411781 1.07328,73.575516 0.405126154,74.5686667 L0.0942030769,75.0334612 L12.4848185,81.8835525 L14.8822338,76.739032 L10.1760492,74.129032 Z" id="Fill-40" fill="#474748"></path>
                        <path d="M12.48892,81.9914749 L0.000396923077,75.0870913 L0.437012308,74.2952192 C0.523012308,74.1402877 0.718827692,74.083347 0.874950769,74.1694201 L13.0816585,80.9175479 L12.48892,81.9914749" id="Fill-42" fill="#232323"></path>
                        <polygon id="Fill-44" fill="#EB8175" points="14.8817046 76.7392968 18.1549969 71.0690685 14.8817046 65.2161005 10.17552 74.1292968"></polygon>
                        <path d="M40.5306092,44.1225068 C40.5306092,44.1225068 22.8701785,39.0508174 21.1700246,43.8232374 C19.4698708,48.5943333 9.16839385,69.7087169 9.16839385,69.7087169 L16.8567938,73.7236941 L28.3913785,53.6752922 L43.9097477,52.3232831 L40.5306092,44.1225068 Z" id="Fill-46" fill="#373737"></path>
                        <path d="M26.1757538,80.5638539 L22.7172308,82.7686484 L20.1663385,83.2837626 C18.9927692,83.5194703 18.1168923,84.5020274 18.0136923,85.6938082 L17.9647385,86.252621 L32.1216615,86.2301096 L31.7247385,80.5691507 L26.1757538,80.5638539 Z" id="Fill-48" fill="#474748"></path>
                        <path d="M32.1773631,86.3235982 L17.9093015,86.3447854 L17.9079785,85.4416804 C17.9079785,85.2629132 18.0521938,85.1185753 18.2308092,85.1185753 L32.17604,85.0960639 L32.1773631,86.3235982" id="Fill-50" fill="#232323"></path>
                        <polygon id="Fill-52" fill="#EB8175" points="31.7251354 80.5690183 32.1776277 71.0692009 26.5386738 70.4322603 26.1761508 80.5637215"></polygon>
                        <path d="M42.91572,43.3116986 L26.2714123,44.0704658 C26.2714123,44.0704658 23.8766431,44.2015616 24.0380585,49.8095525 C24.1994738,55.4188676 24.1835969,77.9872237 24.1835969,77.9872237 L32.1776277,78.2639817 L33.7084277,54.6230228 L50.3686123,54.4177717 C53.8800585,54.3740731 57.1480585,52.3599635 58.5372892,49.1315616 C59.0691662,47.8960822 59.3231969,46.5122922 58.9950738,45.0569954 L42.91572,43.3116986 Z" id="Fill-54" fill="#585858"></path>
                        <path d="M27.1201771,39.9514064 C27.1241354,41.5325023 26.0524431,41.7721826 24.4740123,41.7748532 C22.8942585,41.7774795 21.4044738,41.5444201 21.4005005,39.9633242 C21.3978585,38.3822283 22.6759508,37.0977534 24.2543815,37.0950958 C25.8341354,37.0911324 27.11752,38.3703105 27.1201771,39.9514064" id="Fill-56" fill="#E1AD9D"></path>
                        <path d="M29.1293908,41.5671963 L25.8243446,41.5738248 C24.9603754,41.5764658 24.2512062,40.8706667 24.2498831,40.0059635 C24.2498831,39.1412603 24.95376,38.4328128 25.8177292,38.4314886 L29.1227754,38.4248602 C29.9854215,38.4222192 30.6945908,39.1293425 30.6959213,39.9927215 C30.69856,40.8574247 29.9920369,41.5658721 29.1293908,41.5671963" id="Fill-58" fill="#E1AD9D"></path>
                        <path d="M29.0014492,41.9027489 L27.8993262,36.4894155 L41.4886492,35.0063105 L44.2062492,19.1158995 C44.4801262,17.6725205 46.5692646,15.8808767 48.0127415,16.1549863 L47.5972954,16.0358082 C49.0407723,16.3099178 50.3651723,17.9876804 50.0912954,19.4323836 L47.4464646,38.4426119 C47.2519723,39.4675434 46.4766492,40.2845753 45.4631723,40.5322009 L29.0014492,41.9027489 Z" id="Fill-60" fill="#CCCCD0"></path>
                        <path d="M56.1491354,16.5043105 C56.4283046,16.5268219 56.7035046,16.5903836 56.9654738,16.6936712 L57.1030738,16.7466393 C59.4343354,17.6590137 61.0140892,20.1630776 61.1199354,22.5108858 L58.9950738,45.0567306 C44.9162123,44.9349041 42.91572,43.3114338 42.91572,43.3114338 L44.0350431,20.2478265 C44.2070431,18.0734886 45.20332,16.026274 47.6787969,15.8196986 L56.1491354,16.5043105 Z" id="Fill-62" fill="#DEDEE7"></path>
                        <path d="M40.6430708,41.7242466 C40.75024,43.3013699 39.6983938,43.6112329 38.1226092,43.7198174 C36.5468246,43.8270776 35.0451323,43.6933333 34.93664,42.11621 C34.8268246,40.5390868 36.0175938,39.1725114 37.5933785,39.0652511 C39.1691631,38.9566667 40.5345785,40.1471233 40.6430708,41.7242466" id="Fill-64" fill="#EB8175"></path>
                        <path d="M42.7543046,43.2029817 L39.4571969,43.4294201 C38.5945508,43.4876849 37.84172,42.8308813 37.7821815,41.9688265 C37.7226431,41.1067717 38.3788892,40.3533014 39.2415354,40.2937123 L42.5386431,40.067274 C43.3999662,40.0076849 44.15412,40.6644886 44.2136585,41.5278676 C44.2705508,42.3899224 43.6143046,43.1433927 42.7543046,43.2029817" id="Fill-66" fill="#EB8175"></path>
                        <path d="M42.6483262,43.546347 L41.1889723,38.2177626 L55.9981723,35.8342009 L55.1566954,22.0519178 C55.3339877,20.5926484 56.9322646,18.9519635 58.3889723,19.1294064 C59.8483262,19.3068493 61.2825415,20.893242 61.1052492,22.3525114 L62.1716492,38.8652968 C62.0459569,39.9021461 61.3262031,40.7694977 60.3312492,41.0833333 L42.6483262,43.546347 Z" id="Fill-68" fill="#DEDEE7"></path>
                        <path d="M17.0265446,25.2351644 L33.18396,26.7593196 C33.7145138,26.8096393 34.1405446,27.2254384 34.2000831,27.7564429 L35.8975908,42.329274 C35.9796215,43.0443425 35.3842369,43.6534749 34.6671292,43.5859406 L18.2411292,42.0366256 C17.7026369,41.9849817 17.27396,41.5599132 17.2210369,41.0196393 L15.79476,26.4732922 C15.72596,25.7635205 16.3186985,25.1689543 17.0265446,25.2351644" id="Fill-70" fill="#2A3740"></path>
                        <path d="M16.0949662,25.1472374 L32.2537046,26.6727169 C32.7842585,26.7217123 33.2102892,27.1375114 33.2698277,27.668516 L34.9660123,42.241347 C35.0493662,42.9564155 34.4526585,43.5655479 33.7368738,43.4980137 L17.3108738,41.9486986 C16.7723815,41.8970548 16.3437046,41.4719863 16.2907815,40.9317123 L14.8631815,26.3853653 C14.7957046,25.6769178 15.3884431,25.0810274 16.0949662,25.1472374" id="Fill-72" fill="#3E4C57"></path>
                        <path d="M35.4489354,42.4296484 L46.4900123,43.4717945 C46.8260738,43.5035753 47.0721662,43.8015205 47.0417354,44.1391918 C47.0086585,44.4755388 46.7109662,44.7231644 46.3749046,44.6913836 L34.6669969,43.6293744 L35.4489354,42.4296484 Z" id="Fill-74" fill="#2A3740"></path>
                        <path d="M25.3565046,33.9878676 C25.2652123,34.9611553 24.4012431,35.6748995 23.4301046,35.5835297 C22.4576431,35.4921598 21.7445046,34.6287808 21.8357969,33.6554932 C21.9270892,32.6822055 22.7897354,31.9684612 23.7621969,32.0598311 C24.7333354,32.1512009 25.4477969,33.0145799 25.3565046,33.9878676" id="Fill-76" fill="#FFFFFF"></path>
                        <polygon id="Fill-78" fill="#CCCCD0" points="54.6412246 25.23 55.0050708 35.5918721 41.1895015 38.2177626 53.3644554 34.4106849"></polygon>
                        <path d="M47.3138923,15.1296575 L48.2374,17.6098858 C48.5694923,18.5050457 49.3964154,19.1221233 50.3490308,19.1856849 C52.1550308,19.3088356 53.4556154,17.4774658 52.7464462,15.8102968 L51.127,11.9992466 L47.3138923,15.1296575 Z" id="Fill-80" fill="#EB8175"></path>
                        <path d="M48.1356554,17.3390868 C48.1356554,17.3390868 52.6857169,16.4783562 52.0188862,12.496484 C51.3494092,8.51461187 47.0692554,11.6211872 47.0692554,11.6211872 L47.4873477,15.5964384 L48.1356554,17.3390868 Z" id="Fill-82" fill="#E16C5F"></path>
                        <path d="M41.1172615,5.42445662 C39.4462154,8.99847489 40.9876,13.250484 44.5599077,14.9216256 C48.1308923,16.5940913 52.3806154,15.0500731 54.0490154,11.4760548 C55.7187385,7.90203653 54.1773538,3.6500274 50.6063692,1.97756164 C47.0353846,0.306420091 42.7869846,1.85043836 41.1172615,5.42445662" id="Fill-84" fill="#EB8175"></path>
                    </g>
                    <g id="Group-93" transform="translate(39.692308, 77.022146)">
                        <g id="Group-89">
                            <mask id="mask-12" fill="white">
                                <use xlink:href="#path-11"></use>
                            </mask>
                            <g id="Clip-88"></g>
                            <path d="M10.5377785,9.85814612 C10.5377785,9.85814612 9.41316308,15.5813425 13.6165785,15.7071416 C17.8199938,15.8316164 15.5323938,4.97052055 15.5323938,4.97052055 L8.87996308,-1.72861187 L-1.29846769,0.779424658 L-0.28896,7.366 C-0.28896,7.366 1.33048615,8.22540639 10.0799938,6.7820274 L10.5377785,9.85814612 Z" id="Fill-87" fill="#111417" mask="url(#mask-12)"></path>
                        </g>
                        <g id="Group-92">
                            <mask id="mask-14" fill="white">
                                <use xlink:href="#path-13"></use>
                            </mask>
                            <g id="Clip-91"></g>
                            <polygon id="Fill-90" fill="#111417" mask="url(#mask-14)" points="6.38384615 5.37983105 9.72726154 10.2754018 12.6102462 7.08672603"></polygon>
                        </g>
                    </g>
                    <g id="Group-146" transform="translate(38.369231, 73.049543)">
                        <path d="M10.7380923,12.5027078 C10.2657538,13.5130731 10.7023692,14.7154475 11.7105538,15.1881872 C12.7200615,15.6596027 13.9214154,15.2239406 14.3937538,14.2135753 C14.8647692,13.20321 14.4294769,12.0008356 13.4199692,11.5294201 C12.4117846,11.0566804 11.2091077,11.4923425 10.7380923,12.5027078" id="Fill-94" fill="#EB8175"></path>
                        <path d="M1.35893231,11.2301507 C1.35893231,11.2301507 -0.183775385,5.5996484 3.46394769,2.1143516 C6.47262462,-0.760488584 11.3905015,-0.573776256 14.0617938,2.61754795 C15.3147477,4.11521918 16.3229323,6.37298174 16.4155477,9.76426027 L1.35893231,11.2301507 Z" id="Fill-96" fill="#F5D100"></path>
                        <path d="M2.13425538,11.1363973 L2.09059385,7.62064384 C2.08000923,6.72945662 2.77594769,5.98922831 3.66637846,5.94817808 C4.54357846,5.90580365 5.30170154,6.5599589 5.38902462,7.43525571 L5.74096308,10.9430639" id="Stroke-98" stroke="#F1AB00" stroke-width="0.28"></path>
                        <line x1="16.4154154" y1="9.76439269" x2="0.0344" y2="11.3375434" id="Stroke-100" stroke="#FFFFFF" stroke-width="1.121" stroke-linecap="round" stroke-linejoin="round"></line>
                        <polygon id="Fill-102" fill="#EB8175" points="165.552382 199.727767 169.222597 203.287219 165.037705 205.542333 161.450843 202.025256"></polygon>
                        <path d="M139.705809,173.132516 L142.158794,184.000233 C142.650978,186.177219 143.594332,188.268132 144.953132,190.184251 L161.105255,204.708087 L167.493071,199.49868 L153.701317,184.882151 L148.649809,165.607082 L139.705809,173.132516 Z" id="Fill-104" fill="#373737"></path>
                        <path d="M164.91532,205.438384 L163.592243,209.662584 L162.079966,211.76674 C161.386674,212.734731 161.411812,214.044365 162.143474,214.984548 L162.486151,215.424183 L172.791597,205.813132 L168.671535,201.953087 L164.91532,205.438384 Z" id="Fill-106" fill="#474748"></path>
                        <polygon id="Fill-108" fill="#232323" points="172.895194 205.841735 162.507717 215.528265 161.676825 214.635753 172.062978 204.949224"></polygon>
                        <polygon id="Fill-110" fill="#EB8175" points="130.233637 206.338311 128.856314 210.942557 124.126314 209.672648 125.510252 205.151826"></polygon>
                        <path d="M136.575145,161.009059 L123.325852,205.831936 L131.686375,207.921525 L139.143237,185.449836 L148.305545,170.748557 C148.772591,170.093078 149.227729,169.405817 149.614068,168.694721 C150.348375,167.349333 150.679145,165.883443 150.661945,164.410932 L150.631514,161.496365 L136.575145,161.009059 Z" id="Fill-112" fill="#585858"></path>
                        <path d="M124.399926,209.228644 L120.220326,210.773986 L117.612542,210.864032 C116.413834,210.906406 115.387126,211.732708 115.088111,212.895356 L114.947865,213.439603 L128.951311,215.745037 L129.48848,210.081429 L124.399926,209.228644 Z" id="Fill-114" fill="#474748"></path>
                        <polygon id="Fill-116" fill="#232323" points="128.991929 215.844484 114.878668 213.521836 115.077129 212.307543 129.190391 214.631516"></polygon>
                        <polygon id="Fill-118" fill="#7B7B7E" points="118.083028 115.480648 112.728535 123.841653 115.295305 125.686265 120.836351 116.839279"></polygon>
                        <path d="M111.130391,101.624342 C111.130391,101.624342 113.604545,111.987539 126.142022,116.068726 C126.503222,116.18658 126.778422,116.489822 126.828698,116.867219 C126.988791,118.068269 126.990114,120.662379 124.218268,121.43174 C123.954975,121.504571 123.663898,121.450279 123.433683,121.305941 C121.516545,120.10489 112.084329,114.585621 102.928637,116.177311 L111.130391,101.624342 Z" id="Fill-120" fill="#B0B0B1"></path>
                        <path d="M111.130391,101.624342 C111.130391,101.624342 108.830883,111.963703 102.928637,116.177311 C102.928637,116.177311 103.760852,107.113155 111.130391,101.624342" id="Fill-122" fill="#7B7B7E"></path>
                        <path d="M110.983132,123.30032 C110.595471,125.203196 112.160671,127.523196 114.060609,127.912511 C115.961871,128.300502 117.818148,127.075616 118.205809,125.171416 C118.594794,123.269863 117.029594,120.948539 115.129655,120.559224 C113.228394,120.171233 111.372117,121.397443 110.983132,123.30032" id="Fill-124" fill="#EB8175"></path>
                        <polyline id="Fill-126" fill="#EB8175" points="121.044471 128.88421 117.331917 125.001653 114.906717 127.98905 121.044471 132.491333"></polyline>
                        <path d="M120.453982,125.295758 L116.529735,131.13416 L127.259889,140.963703 C127.914812,141.150416 128.59752,141.215301 129.276258,141.158361 L143.442443,139.32037 C145.674474,139.214434 147.398443,137.318178 147.292597,135.084251 C147.186751,132.849 147.615428,129.615301 145.383397,129.721237 L128.922997,133.104571 L120.453982,125.295758 Z" id="Fill-128" fill="#CCCCD0"></path>
                        <path d="M152.227277,138.692963 C152.604354,135.594333 151.201892,132.530132 148.574262,130.845749 C147.396723,130.08963 146.2258,129.578489 145.383,129.721502 C142.558231,130.198215 139.652754,131.480041 138.410385,135.297712 C136.294785,141.790269 135.691462,160.977941 135.691462,160.977941 L150.876415,161.497027 L152.227277,138.692963 Z" id="Fill-130" fill="#DEDEE7"></path>
                        <polygon id="Fill-132" fill="#CCCCD0" points="146.621003 139.176562 151.186942 155.970078 152.109126 141.723"></polygon>
                        <path d="M165.233123,172.315219 C166.668662,171.009557 166.774508,168.210196 165.468631,166.773438 C164.162754,165.33668 161.941308,165.230744 160.507092,166.539055 C159.071554,167.844717 158.965708,170.642753 160.270262,172.079511 C161.574815,173.516269 163.797585,173.620881 165.233123,172.315219" id="Fill-134" fill="#EB8175"></path>
                        <polyline id="Fill-136" fill="#EB8175" points="158.343862 160.353447 161.113062 167.191621 164.829585 166.213037 162.5314 158.952443"></polyline>
                        <path d="M158.519566,165.629594 L166.124612,163.955804 L160.967258,146.302881 C160.775412,145.648726 160.468458,145.034297 160.056982,144.49005 L150.590366,132.695393 C149.310951,130.86005 147.153012,131.188452 145.319228,132.468954 C143.488089,133.748132 143.039566,136.273384 144.318982,138.107402 L153.434982,149.081055 L158.519566,165.629594 Z" id="Fill-138" fill="#DEDEE7"></path>
                        <path d="M141.827363,127.411301 L142.115794,130.074269 C142.220317,131.032991 142.876563,131.844726 143.793455,132.143995 C145.534625,132.714726 147.263886,131.244863 146.983394,129.432032 L146.344348,125.29258 L141.827363,127.411301 Z" id="Fill-140" fill="#EB8175"></path>
                        <path d="M142.084569,129.782945 C142.084569,129.782945 146.774877,129.629338 147.110938,125.560068 C147.445677,121.488151 142.461646,123.911438 142.461646,123.911438 L141.882138,127.911849 L142.084569,129.782945 Z" id="Fill-142" fill="#E16C5F"></path>
                        <path d="M138.168262,116.352237 C135.642508,119.440274 136.095,123.994201 139.180415,126.5221 C142.265831,129.05 146.813246,128.595799 149.339,125.509087 C151.866077,122.42105 151.413585,117.869772 148.328169,115.339224 C145.242754,112.811324 140.694015,113.265525 138.168262,116.352237" id="Fill-144" fill="#EB8175"></path>
                    </g>
                    <g id="Group-153" transform="translate(174.646154, 185.606621)">
                        <g id="Group-149">
                            <mask id="mask-16" fill="white">
                                <use xlink:href="#path-15"></use>
                            </mask>
                            <g id="Clip-148"></g>
                            <path d="M9.72130769,10.413516 C9.72130769,10.413516 7.19555385,15.7434247 11.2851846,16.9140183 C15.3734923,18.0846119 15.8339231,6.86730594 15.8339231,6.86730594 L10.9795538,-1.35863014 L0.377738462,-1.43675799 L-0.270569231,5.27164384 C-0.270569231,5.27164384 1.10146154,6.51771689 10.0388462,7.28442922 L9.72130769,10.413516 Z" id="Fill-147" fill="#0E0B27" mask="url(#mask-16)"></path>
                        </g>
                        <g id="Group-152" fill="#0E0B27">
                            <polygon id="Fill-150" points="6.76370154 4.9886621 8.82373231 10.6204886 12.4423477 8.21441553"></polygon>
                        </g>
                    </g>
                    <g id="Group-235" transform="translate(58.215385, 0.218493)">
                        <path d="M125.381914,194.220151 C124.667452,195.092799 124.795791,196.379922 125.667698,197.094991 C126.539606,197.810059 127.825637,197.680288 128.540098,196.807639 C129.25456,195.936315 129.126222,194.647868 128.254314,193.934123 C127.382406,193.219055 126.095052,193.347502 125.381914,194.220151" id="Fill-154" fill="#EB8175"></path>
                        <path d="M116.461465,191.254868 C116.461465,191.254868 116.10688,185.360849 120.445249,182.672721 C124.020203,180.456009 128.848111,181.666329 130.826111,185.382037 C131.756234,187.127333 132.282818,189.570484 131.667588,192.947196 L116.461465,191.254868 Z" id="Fill-156" fill="#F5D100"></path>
                        <path d="M117.247108,191.323461 L117.936431,187.835516 C118.1124,186.95095 118.956523,186.364329 119.845631,186.508667 C120.722831,186.65168 121.336738,187.45547 121.241477,188.340037 L120.857785,191.886247" id="Stroke-158" stroke="#F1AB00" stroke-width="0.283"></path>
                        <line x1="131.667852" y1="192.947594" x2="115.128068" y2="191.085767" id="Stroke-160" stroke="#1A1A1E" stroke-width="1.133" stroke-linecap="round" stroke-linejoin="round"></line>
                        <line x1="232.618357" y1="235.788936" x2="215.504357" y2="252.673822" id="Stroke-162" stroke="#1A1A1E" stroke-width="2.649"></line>
                        <line x1="232.618357" y1="217.745374" x2="215.504357" y2="234.63026" id="Stroke-164" stroke="#1A1A1E" stroke-width="2.649"></line>
                        <line x1="232.618357" y1="199.701813" x2="215.504357" y2="216.588023" id="Stroke-166" stroke="#1A1A1E" stroke-width="2.649"></line>
                        <line x1="232.618357" y1="181.659575" x2="215.504357" y2="198.543137" id="Stroke-168" stroke="#1A1A1E" stroke-width="2.649"></line>
                        <line x1="232.618357" y1="163.616014" x2="215.504357" y2="180.499575" id="Stroke-170" stroke="#1A1A1E" stroke-width="2.649"></line>
                        <line x1="232.618357" y1="145.571922" x2="215.504357" y2="162.456808" id="Stroke-172" stroke="#1A1A1E" stroke-width="2.649"></line>
                        <line x1="232.618357" y1="127.528361" x2="215.504357" y2="144.413247" id="Stroke-174" stroke="#1A1A1E" stroke-width="2.649"></line>
                        <line x1="232.618357" y1="109.485461" x2="215.504357" y2="126.369023" id="Stroke-176" stroke="#1A1A1E" stroke-width="2.649"></line>
                        <line x1="232.618357" y1="91.4413699" x2="215.504357" y2="108.326256" id="Stroke-178" stroke="#1A1A1E" stroke-width="2.649"></line>
                        <line x1="232.618357" y1="73.3984703" x2="215.504357" y2="90.2833562" id="Stroke-180" stroke="#1A1A1E" stroke-width="2.649"></line>
                        <line x1="232.618357" y1="55.3549087" x2="215.504357" y2="72.2397945" id="Stroke-182" stroke="#1A1A1E" stroke-width="2.649"></line>
                        <line x1="215.504886" y1="234.63026" x2="232.618886" y2="234.63026" id="Stroke-184" stroke="#1A1A1E" stroke-width="2.649"></line>
                        <line x1="215.504886" y1="216.588023" x2="232.618886" y2="216.588023" id="Stroke-186" stroke="#1A1A1E" stroke-width="2.649"></line>
                        <line x1="215.504886" y1="198.543137" x2="232.618886" y2="198.543137" id="Stroke-188" stroke="#1A1A1E" stroke-width="2.649"></line>
                        <line x1="215.504886" y1="180.499575" x2="232.618886" y2="180.499575" id="Stroke-190" stroke="#1A1A1E" stroke-width="2.649"></line>
                        <line x1="215.504886" y1="162.457338" x2="232.618886" y2="162.457338" id="Stroke-192" stroke="#1A1A1E" stroke-width="2.649"></line>
                        <line x1="215.504886" y1="144.413247" x2="232.618886" y2="144.413247" id="Stroke-194" stroke="#1A1A1E" stroke-width="2.649"></line>
                        <line x1="215.504886" y1="126.369685" x2="232.618886" y2="126.369685" id="Stroke-196" stroke="#1A1A1E" stroke-width="2.649"></line>
                        <line x1="215.504886" y1="108.326785" x2="232.618886" y2="108.326785" id="Stroke-198" stroke="#1A1A1E" stroke-width="2.649"></line>
                        <line x1="215.504886" y1="90.2832237" x2="232.618886" y2="90.2832237" id="Stroke-200" stroke="#1A1A1E" stroke-width="2.649"></line>
                        <line x1="215.504886" y1="72.2397945" x2="232.618886" y2="72.2397945" id="Stroke-202" stroke="#1A1A1E" stroke-width="2.649"></line>
                        <line x1="215.504886" y1="257.564493" x2="215.504886" y2="58.2404749" id="Stroke-204" stroke="#1A1A1E" stroke-width="2.649"></line>
                        <line x1="232.618357" y1="257.564493" x2="232.618357" y2="58.2404749" id="Stroke-206" stroke="#1A1A1E" stroke-width="2.649"></line>
                        <polygon id="Fill-208" fill="#0A0C0E" points="206.683138 288.113014 240.761631 288.113014 240.761631 252.673425 206.683138 252.673425"></polygon>
                        <path d="M232.664929,58.2406073 L214.852345,58.2406073 C211.710037,58.2406073 209.161791,55.6915205 209.161791,52.5452192 L209.161791,30.1847626 C209.161791,27.0397854 211.710037,24.4906986 214.852345,24.4906986 L232.664929,24.4906986 C235.80856,24.4906986 238.355483,27.0397854 238.355483,30.1847626 L238.355483,52.5452192 C238.355483,55.6915205 235.80856,58.2406073 232.664929,58.2406073" id="Fill-210" fill="#1A1A1E"></path>
                        <polygon id="Stroke-212" fill="#0A0C0E" fill-rule="nonzero" points="103.953931 59.6167639 117.643808 99.4182707 114.939091 100.350149 101.249214 60.5486425"></polygon>
                        <polygon id="Stroke-213" fill="#0A0C0E" fill-rule="nonzero" points="91.9295261 54.5031069 94.2284554 56.2067105 67.5327323 92.2925096 65.2338031 90.588906"></polygon>
                        <path d="M101.051058,73.0609315 L128.637212,109.165269 C131.672351,113.136548 130.914228,118.820018 126.944997,121.857735 L90.8726277,149.466 C86.9033969,152.503717 81.2260738,151.746274 78.1909354,147.773671 L50.6047815,111.670658 C47.5696431,107.698055 48.3264431,102.014584 52.2956738,98.9768676 L88.3693662,71.3686027 C92.3385969,68.3308858 98.01592,69.0883288 101.051058,73.0609315" id="Fill-214" fill="#F5D100"></path>
                        <path d="M88.1488138,77.8829807 L58.6350037,100.471149 C55.0645143,103.204442 54.382958,108.31663 57.1132774,111.890752 L79.6823604,141.42975 C82.4128296,145.004069 87.522028,145.685874 91.0923862,142.952681 L120.607523,120.363186 C124.177995,117.629907 124.85962,112.517649 122.129158,108.944795 L99.5587884,79.4045205 C96.8280814,75.8313464 91.7189023,75.1499941 88.1488138,77.8829807 Z M98.3880731,80.3007306 L120.958394,109.840942 C123.194275,112.766628 122.63609,116.953074 119.712137,119.191428 L90.1969998,141.780923 C87.2732407,144.01913 83.0892393,143.460789 80.8532149,140.533722 L58.2841319,110.994724 C56.0482389,108.06783 56.6063866,103.8813 59.5303862,101.64291 L89.0441963,79.0547417 C91.9677733,76.8166749 96.1519013,77.3746638 98.3880731,80.3007306 Z" id="Stroke-215" fill="#0A0C0E" fill-rule="nonzero"></path>
                        <path d="M95.4576185,93.944242 L92.2690031,116.472872 L85.4339877,115.561822 C86.4448185,107.982096 87.2836492,100.615566 88.3010954,92.9894932 L95.4576185,93.944242 Z M91.9620492,123.889721 C91.2475877,129.251411 83.1212492,128.165566 83.8343877,122.805201 C84.5554646,117.397164 92.6818031,118.481685 91.9620492,123.889721 L91.9620492,123.889721 Z" id="Fill-216" fill="#0A0C0E"></path>
                        <path d="M110.140729,51.9829635 C110.140729,58.3086712 105.016452,63.4373014 98.6961138,63.4373014 C92.3757754,63.4373014 87.2514985,58.3086712 87.2514985,51.9829635 C87.2514985,45.6572557 92.3757754,40.5299498 98.6961138,40.5299498 C105.016452,40.5299498 110.140729,45.6572557 110.140729,51.9829635" id="Fill-217" fill="#0A0C0E"></path>
                        <path d="M106.789111,51.9829635 C106.789111,56.4561142 103.165203,60.0831005 98.6958492,60.0831005 C94.2264954,60.0831005 90.6039108,56.4561142 90.6039108,51.9829635 C90.6039108,47.5098128 94.2264954,43.8841507 98.6958492,43.8841507 C103.165203,43.8841507 106.789111,47.5098128 106.789111,51.9829635" id="Fill-218" fill="#47515A"></path>
                        <line x1="143.574222" y1="0.211077626" x2="143.574222" y2="24.4903014" id="Stroke-219" stroke="#1A1A1E" stroke-width="2.649"></line>
                        <line x1="121.819662" y1="0.211077626" x2="121.819662" y2="24.4903014" id="Stroke-220" stroke="#1A1A1E" stroke-width="2.649"></line>
                        <line x1="165.256409" y1="0.211077626" x2="165.256409" y2="24.4903014" id="Stroke-221" stroke="#1A1A1E" stroke-width="2.649"></line>
                        <line x1="189.348317" y1="0.211077626" x2="189.348317" y2="24.4903014" id="Stroke-222" stroke="#1A1A1E" stroke-width="2.649"></line>
                        <line x1="211.822498" y1="0.211077626" x2="211.822498" y2="24.4903014" id="Stroke-223" stroke="#1A1A1E" stroke-width="2.649"></line>
                        <line x1="235.122412" y1="0.211077626" x2="235.122412" y2="24.4903014" id="Stroke-224" stroke="#1A1A1E" stroke-width="2.649"></line>
                        <line x1="258.010055" y1="0.211077626" x2="258.010055" y2="24.4903014" id="Stroke-225" stroke="#1A1A1E" stroke-width="2.649"></line>
                        <line x1="120.686578" y1="24.4903014" x2="143.574486" y2="0.211077626" id="Stroke-226" stroke="#1A1A1E" stroke-width="2.649"></line>
                        <line x1="143.574222" y1="24.4903014" x2="166.462129" y2="0.211077626" id="Stroke-227" stroke="#1A1A1E" stroke-width="2.649"></line>
                        <line x1="166.461997" y1="24.4903014" x2="189.348582" y2="0.211077626" id="Stroke-228" stroke="#1A1A1E" stroke-width="2.649"></line>
                        <line x1="189.348317" y1="24.4903014" x2="212.236225" y2="0.211077626" id="Stroke-229" stroke="#1A1A1E" stroke-width="2.649"></line>
                        <line x1="212.23596" y1="24.4903014" x2="235.122545" y2="0.211077626" id="Stroke-230" stroke="#1A1A1E" stroke-width="2.649"></line>
                        <line x1="235.122412" y1="24.4903014" x2="258.01032" y2="0.211077626" id="Stroke-231" stroke="#1A1A1E" stroke-width="2.649"></line>
                        <polygon id="Stroke-232" stroke="#1A1A1E" stroke-width="2.649" stroke-linecap="round" stroke-linejoin="round" points="98.6955846 24.4903014 285.299708 24.4903014 260.174477 0.211077626 118.0006 0.211077626"></polygon>
                        <line x1="98.6955846" y1="24.4903014" x2="98.6955846" y2="51.9833607" id="Stroke-233" stroke="#1A1A1E" stroke-width="2.649" stroke-linecap="round" stroke-linejoin="round"></line>
                        <path d="M0.0411476923,284.832174 L13.1025631,251.043863 C13.7257323,249.434959 16.0027477,249.434959 16.6259169,251.043863 L29.6886554,284.832174 L0.0411476923,284.832174 Z" id="Fill-234" fill="#F5D100"></path>
                    </g>
                    <g id="Group-239" transform="translate(58.215385, 249.168265)">
                        <mask id="mask-18" fill="white">
                            <use xlink:href="#path-17"></use>
                        </mask>
                        <use id="Clip-237" fill="#FBB03B" xlink:href="#path-17"></use>
                        <polygon id="Fill-236" fill="#FAFAFA" mask="url(#mask-18)" points="3.06689231 16.53 26.2591077 16.53 26.2591077 9.35945205 3.06689231 9.35945205"></polygon>
                        <polygon id="Fill-238" fill="#FAFAFA" mask="url(#mask-18)" points="1.79938462 30.0831963 28.0307077 30.0831963 28.0307077 22.9126484 1.79938462 22.9126484"></polygon>
                    </g>
                    <g id="Group-243" transform="translate(55.569231, 249.168265)">
                        <polygon id="Fill-240" fill="#E8972D" points="0.300338462 38.7302283 34.8710154 38.7302283 34.8710154 35.8831963 0.300338462 35.8831963"></polygon>
                        <path d="M192.360169,35.9871461 L205.421585,2.19883562 C206.044754,0.588607306 208.321769,0.588607306 208.944938,2.19883562 L222.006354,35.9871461 L192.360169,35.9871461 Z" id="Fill-242" fill="#F5D100"></path>
                    </g>
                    <g id="Group-247" transform="translate(247.415385, 249.168265)">
                        <mask id="mask-20" fill="white">
                            <use xlink:href="#path-19"></use>
                        </mask>
                        <use id="Clip-245" fill="#FBB03B" xlink:href="#path-19"></use>
                        <polygon id="Fill-244" fill="#FAFAFA" mask="url(#mask-20)" points="3.54055385 16.6346119 26.7314462 16.6346119 26.7314462 9.46273973 3.54055385 9.46273973"></polygon>
                        <polygon id="Fill-246" fill="#FAFAFA" mask="url(#mask-20)" points="2.27304615 30.1878082 28.5043692 30.1878082 28.5043692 23.0159361 2.27304615 23.0159361"></polygon>
                    </g>
                    <polygon id="Fill-248" fill="#E8972D" points="245.541908 288.001781 280.113908 288.001781 280.113908 285.156073 245.541908 285.156073"></polygon>
                </g>
            </g>
        </g>
    </g>
</svg>