<?xml version="1.0" encoding="UTF-8"?>
<svg width="20px" height="20px" viewBox="0 0 20 20" version="1.1" xmlns="http://www.w3.org/2000/svg" xmlns:xlink="http://www.w3.org/1999/xlink">
    <!-- Generator: sketchtool 60 (101010) - https://sketch.com -->
    <title>560DFF66-060B-4876-B188-BDD1ED85057E</title>
    <desc>Created with sketchtool.</desc>
    <g id="Page-1" stroke="none" stroke-width="1" fill="none" fill-rule="evenodd">
        <g id="Exchange" transform="translate(-916.000000, -839.000000)" fill="#727C87" fill-rule="nonzero">
            <g id="table" transform="translate(315.000000, 410.000000)">
                <g id="soccer" transform="translate(3.000000, 1.000000)">
                    <g id="5" transform="translate(0.000000, 408.000000)">
                        <g id="suits" transform="translate(598.000000, 20.000000)">
                            <g id="Path">
                                <path d="M15.175,9.01234568 C15.175,9.01234568 19.025,4.81481481 19.425,4.24691358 C20.25,3.11111111 19.95,1.50617284 18.8,0.716049383 C17.65,-0.0987654321 16.025,0.197530864 15.225,1.33333333 C15.2,1.35802469 15.2,1.38271605 15.175,1.40740741 C15.15,1.38271605 15.15,1.35802469 15.125,1.33333333 C14.3,0.197530864 12.7,-0.0987654321 11.55,0.716049383 C10.4,1.5308642 10.1,3.11111111 10.925,4.24691358 C11.325,4.81481481 15.175,9.01234568 15.175,9.01234568 Z"></path>
                                <path d="M4.575,0 C4.575,0 0.95,2.98765432 0.55,3.55555556 C-0.225,4.64197531 0.05,6.14814815 1.15,6.88888889 C2.15,7.58024691 3.525,7.43209877 4.325,6.54320988 C4.275,7.45679012 4.175,8.34567901 3.925,9.25925926 C4.35,9.25925926 4.8,9.25925926 5.225,9.25925926 C4.975,8.34567901 4.9,7.45679012 4.825,6.54320988 C5.65,7.40740741 7,7.58024691 8,6.88888889 C9.1,6.12345679 9.375,4.64197531 8.6,3.55555556 C8.225,2.98765432 4.575,0 4.575,0 Z"></path>
                                <path d="M4.6,10.4938272 C3.2,12.0246914 2.25,13.5802469 0.425,15.1358025 C2.25,16.6666667 3.2,18.2222222 4.6,19.7530864 C6,18.2222222 6.95,16.6666667 8.775,15.1358025 C6.925,13.5802469 5.975,12.0246914 4.6,10.4938272 Z"></path>
                                <path d="M17.275,13.8518519 C17.2,13.8518519 17.15,13.8518519 17.075,13.8518519 C17.3,13.5061728 17.425,13.1111111 17.425,12.6666667 C17.425,11.4567901 16.425,10.4691358 15.2,10.4691358 C13.975,10.4691358 12.975,11.4567901 12.975,12.6666667 C12.975,13.1111111 13.1,13.5061728 13.325,13.8518519 C13.25,13.8518519 13.2,13.8518519 13.125,13.8518519 C11.9,13.8518519 10.9,14.8395062 10.9,16.0493827 C10.9,17.2592593 11.9,18.2469136 13.125,18.2469136 C13.9,18.2469136 14.575,17.8518519 14.975,17.2839506 C14.925,18.1234568 14.85,18.962963 14.6,19.7777778 C15,19.7777778 15.4,19.7777778 15.775,19.7777778 C15.55,18.962963 15.475,18.1234568 15.4,17.2839506 C15.8,17.8765432 16.475,18.2469136 17.25,18.2469136 C18.475,18.2469136 19.475,17.2592593 19.475,16.0493827 C19.475,14.8395062 18.5,13.8518519 17.275,13.8518519 Z"></path>
                            </g>
                        </g>
                    </g>
                </g>
            </g>
        </g>
    </g>
</svg>