<?xml version="1.0" encoding="UTF-8"?>
<svg width="22px" height="16px" viewBox="0 0 22 16" version="1.1" xmlns="http://www.w3.org/2000/svg" xmlns:xlink="http://www.w3.org/1999/xlink">
    <!-- Generator: sketchtool 60 (101010) - https://sketch.com -->
    <title>4AFD331C-147F-4946-BFA7-6AF52ADBA6E4</title>
    <desc>Created with sketchtool.</desc>
    <g id="Page-1" stroke="none" stroke-width="1" fill="none" fill-rule="evenodd">
        <g id="Exchange" transform="translate(-914.000000, -671.000000)" fill="#727C87" fill-rule="nonzero">
            <g id="table" transform="translate(315.000000, 410.000000)">
                <g id="soccer" transform="translate(3.000000, 1.000000)">
                    <g id="3" transform="translate(0.000000, 242.000000)">
                        <g id="tv" transform="translate(596.000000, 18.000000)">
                            <g>
                                <path d="M21.2523867,0.00275132275 L0.747613281,0.00275132275 C0.334726563,0.00275132275 0,0.332486772 0,0.739216931 L0,11.7178836 C0,12.1246138 0.334726562,12.4543492 0.747613281,12.4543492 L21.2523867,12.4543492 C21.6652734,12.4543492 22,12.1246138 22,11.7178836 L22,0.739216931 C22,0.332486772 21.6652734,0.00275132275 21.2523867,0.00275132275 Z" id="XMLID_1672_"></path>
                                <path d="M15.272082,14.7195767 L12.7339609,14.7195767 L12.7339609,13.7320212 L9.26603906,13.7320212 L9.26603906,14.7195767 L6.727875,14.7195767 C6.36973047,14.7195767 6.07934766,15.0055873 6.07934766,15.3584339 C6.07934766,15.7112381 6.3696875,15.997291 6.727875,15.997291 L15.272082,15.997291 C15.6302266,15.997291 15.9206094,15.7112804 15.9206094,15.3584339 C15.9206094,15.0056296 15.6302695,14.7195767 15.272082,14.7195767 Z" id="XMLID_1626_"></path>
                            </g>
                        </g>
                    </g>
                </g>
            </g>
        </g>
    </g>
</svg>