<?xml version="1.0" encoding="UTF-8"?>
<svg width="40px" height="40px" viewBox="0 0 40 40" version="1.1" xmlns="http://www.w3.org/2000/svg" xmlns:xlink="http://www.w3.org/1999/xlink">
    <!-- Generator: sketchtool 60 (101010) - https://sketch.com -->
    <title>17625B21-896A-46C8-9FE7-532DA16DCD9F</title>
    <desc>Created with sketchtool.</desc>
    <g id="Page-1" stroke="none" stroke-width="1" fill="none" fill-rule="evenodd">
        <g id="Exchange" transform="translate(-1514.000000, -1366.000000)">
            <g id="footer" transform="translate(318.000000, 1314.000000)">
                <g id="twitter" transform="translate(1196.000000, 52.000000)">
                    <rect id="Rectangle" fill="#2E3439" x="0" y="0" width="40" height="40" rx="20"></rect>
                    <path d="M30,13.8930518 C29.2638877,14.2142948 28.4740498,14.4321581 27.6441792,14.5294225 C28.4915335,14.029679 29.140162,13.2370157 29.4475808,12.2953981 C28.6527429,12.7581927 27.7753885,13.094241 26.8405504,13.2764107 C26.0919544,12.4898948 25.0271487,12 23.8461011,12 C21.5802804,12 19.7431205,13.8093696 19.7431205,16.0396927 C19.7431205,16.3560113 19.7793624,16.6649595 19.8493625,16.9603898 C16.4400105,16.791738 13.4168356,15.1830125 11.3934663,12.7384952 C11.0397729,13.3342479 10.8385635,14.0284238 10.8385635,14.7694295 C10.8385635,16.1713956 11.5634339,17.4084113 12.6632396,18.1321334 C11.9908529,18.1099898 11.3584663,17.9278201 10.8048379,17.6250194 L10.8048379,17.6754862 C10.8048379,19.6325548 12.2195788,21.2659021 14.0954642,21.6376441 C13.7517708,21.7287289 13.3893519,21.7791957 13.0144167,21.7791957 C12.7494816,21.7791957 12.493272,21.7533508 12.2420625,21.7041071 C12.764449,23.3103864 14.27919,24.4784609 16.0738661,24.5104854 C14.6703671,25.5936546 12.900691,26.2373959 10.9785637,26.2373959 C10.6473867,26.2373959 10.321177,26.2176984 10,26.1820047 C11.815918,27.3304138 13.9717712,28 16.2888338,28 C23.8361664,28 27.9616633,21.8432126 27.9616633,16.5037426 L27.9479051,15.9806324 C28.7539849,15.4143937 29.451339,14.7029665 30,13.8930518 Z" fill="#FFFFFF" fill-rule="nonzero"></path>
                </g>
            </g>
        </g>
    </g>
</svg>