<?xml version="1.0" encoding="UTF-8"?>
<svg width="28px" height="44px" viewBox="0 0 28 44" version="1.1" xmlns="http://www.w3.org/2000/svg" xmlns:xlink="http://www.w3.org/1999/xlink">
    <!-- Generator: sketchtool 60 (101010) - https://sketch.com -->
    <title>4AEAE1F8-5E67-4D58-AA11-FB435DD90A58</title>
    <desc>Created with sketchtool.</desc>
    <g id="Page-1" stroke="none" stroke-width="1" fill="none" fill-rule="evenodd">
        <g id="playing-cards" transform="translate(-154.000000, -176.000000)">
            <g id="hearts" transform="translate(66.000000, 176.000000)">
                <g id="card_hearts-3" transform="translate(88.000000, 0.000000)">
                    <rect id="Rectangle" fill="#FFFFFF" x="0" y="0" width="28" height="44" rx="2"></rect>
                    <path d="M7.28208654,30.065026 C7.09492436,29.5596853 7,29.0360623 7,28.4955634 C7,26.1957475 8.65938529,24.2943914 10.7902581,24.0323456 L11.0741357,24.0060941 C11.1466722,24.0018751 11.2201043,24 11.2939841,24 C12.2938242,24 13.2376947,24.3534572 14.0002239,25.0055249 C14.7627531,24.3534572 15.7066236,24 16.7060159,24 C16.7857166,24 16.8636262,24.0028127 16.941088,24.0070316 L17.2245179,24.0346894 C19.3477788,24.3032982 21,26.2009041 21,28.4955634 C21,29.049188 20.9028369,29.5803114 20.7071673,30.0969027 L20.3422458,30.8577264 C20.2020981,31.0963335 20.0409057,31.3321279 19.8559823,31.5669848 C19.8501615,31.5744852 19.8447884,31.581048 19.8385198,31.5880797 L14.3955928,37.8167085 C14.2930566,37.9334338 14.1497745,38 13.9984329,38 L13.9975373,38 C13.8461957,38 13.7024659,37.932965 13.6003774,37.815771 L8.16013689,31.5674535 C8.15655483,31.5627658 8.15207727,31.5576092 8.14894298,31.5543278 C7.95461669,31.315252 7.79700643,31.0710196 7.65193335,30.8211619 L7.28208654,30.065026 Z" id="heart" fill="#FC4242" fill-rule="nonzero"></path>
                    <text id="3" font-family="NotoSans-Bold, Noto Sans" font-size="16" font-weight="bold" fill="#FC4242">
                        <tspan x="9.424" y="18">3</tspan>
                    </text>
                </g>
            </g>
        </g>
    </g>
</svg>