<?xml version="1.0" encoding="UTF-8"?>
<svg width="28px" height="44px" viewBox="0 0 28 44" version="1.1" xmlns="http://www.w3.org/2000/svg" xmlns:xlink="http://www.w3.org/1999/xlink">
    <!-- Generator: sketchtool 60 (101010) - https://sketch.com -->
    <title>CAA930F8-54F7-4697-BBD1-56453653871A</title>
    <desc>Created with sketchtool.</desc>
    <g id="Page-1" stroke="none" stroke-width="1" fill="none" fill-rule="evenodd">
        <g id="playing-cards" transform="translate(-374.000000, -334.000000)">
            <g id="ace" transform="translate(66.000000, 334.000000)">
                <g id="card_ace-8" transform="translate(308.000000, 0.000000)">
                    <rect id="Rectangle" fill="#FFFFFF" x="0" y="0" width="28" height="44" rx="2"></rect>
                    <path d="M16.5239703,34.7520714 L16.7653435,34.7316189 C18.5845979,34.5311048 20,33.0737677 20,31.3112481 C20,28.9580138 14.3678169,24.1681311 14.3678169,24.1681311 C14.1528839,23.9439563 13.8471161,23.9439563 13.6321831,24.1681311 C13.6321831,24.1681311 8,28.9580138 8,31.3112481 C8,33.0741688 9.41582857,34.5311048 11.2346565,34.7316189 L11.4764562,34.7520714 C11.5387185,34.7556806 11.6005544,34.7564827 11.6636696,34.7564827 C12.1869292,34.7564827 12.6905718,34.6538194 13.1528484,34.4613258 C13.3178862,36.5767504 9.65506948,37.0539741 9.7352429,37.0202877 L9.7352429,38 L18.2639042,38 L18.2639042,37.0202877 C18.3440776,37.0539741 14.6816873,36.5775524 14.8458723,34.4613258 C15.3081488,34.6538194 15.8126444,34.7564827 16.335051,34.7564827 C16.3998721,34.7564827 16.4617079,34.7556806 16.5239703,34.7520714 Z" id="ace" fill="#131313" fill-rule="nonzero"></path>
                    <text id="8" font-family="NotoSans-Bold, Noto Sans" font-size="16" font-weight="bold" fill="#131313">
                        <tspan x="9.424" y="18">8</tspan>
                    </text>
                </g>
            </g>
        </g>
    </g>
</svg>