<svg xmlns="http://www.w3.org/2000/svg" xmlns:xlink="http://www.w3.org/1999/xlink" viewBox="0 0 435.79 404.01"><defs><style>.cls-1{fill:url(#New_Gradient_Swatch_7);}.cls-2{fill:url(#linear-gradient);}</style><radialGradient id="New_Gradient_Swatch_7" cx="217.89" cy="-15797.41" r="202.23" gradientTransform="matrix(1, 0, 0, -1, 0, -15595.41)" gradientUnits="userSpaceOnUse"><stop offset="0.18" stop-color="#231f20"/><stop offset="0.46" stop-color="#1c191a"/><stop offset="0.85" stop-color="#090808"/><stop offset="1"/></radialGradient><linearGradient id="linear-gradient" x1="77.09" y1="-15690.03" x2="355.49" y2="-15968.43" gradientTransform="matrix(1, 0, 0, -1, 0, -15595.41)" gradientUnits="userSpaceOnUse"><stop offset="0" stop-color="#ea8c23"/><stop offset="0.11" stop-color="#f5c470"/><stop offset="0.2" stop-color="#fce9a4"/><stop offset="0.24" stop-color="#fff8b8"/><stop offset="0.29" stop-color="#fae396"/><stop offset="0.38" stop-color="#f3c86a"/><stop offset="0.45" stop-color="#eeb54a"/><stop offset="0.51" stop-color="#eba936"/><stop offset="0.56" stop-color="#eaa52f"/><stop offset="0.57" stop-color="#ebab38"/><stop offset="0.64" stop-color="#f4cc70"/><stop offset="0.7" stop-color="#fae598"/><stop offset="0.75" stop-color="#fef3b1"/><stop offset="0.78" stop-color="#fff9ba"/><stop offset="0.83" stop-color="#f7db8a"/><stop offset="0.89" stop-color="#efbe5b"/><stop offset="0.93" stop-color="#e9a939"/><stop offset="0.97" stop-color="#e59d24"/><stop offset="1" stop-color="#e4981d"/></linearGradient></defs><title>club2</title><g id="Layer_2" data-name="Layer 2"><g id="Layer_2-2" data-name="Layer 2"><g id="_Group_" data-name="&lt;Group&gt;"><path class="cls-1" d="M248.06,321.88c47.2,40.34,116.44,35.29,153.71-6.51,37.59-42.16,33.58-111.53-5.21-145.89-28.16-24.94-65.15-23-75.55-22.14,7.46-66.84-30.32-124.15-80.76-136.78-32.33-8.09-67.88,2.68-92.49,24.75-30.53,27.39-42.73,70.88-31.26,112C61.6,144.63,13.82,185.82,8.38,239.82,2.61,297,46.59,344,95.66,351.84c49.65,8,86.7-26.9,91.18-31.26a131,131,0,0,1-37.78,75.55h142a114.57,114.57,0,0,1-43-74.25Z"/><path class="cls-2" d="M313.93,404h-184l13.65-13.48a123.2,123.2,0,0,0,30.74-50c-14.71,9.71-37,20.38-63.79,20.38a101.15,101.15,0,0,1-16.08-1.29c-26.2-4.21-51.36-18.9-69-40.29C6.46,296.4-2.37,267.88.54,239a110,110,0,0,1,38.23-72.69,111.33,111.33,0,0,1,67.8-26.9A121.22,121.22,0,0,1,108.8,84a114.52,114.52,0,0,1,33.71-54.6A116.66,116.66,0,0,1,189,4a104.51,104.51,0,0,1,53.16-1.11A101.62,101.62,0,0,1,280,21.64a121.88,121.88,0,0,1,29,32.87,140.67,140.67,0,0,1,17.26,43.34A153.31,153.31,0,0,1,329.6,139,127.11,127.11,0,0,1,353.53,141c18.93,3.4,35.16,11,48.26,22.61a96.74,96.74,0,0,1,24.07,33.23,115,115,0,0,1,9.72,40.4,121.36,121.36,0,0,1-5.52,43.94,109.14,109.14,0,0,1-22.41,39.46A107.55,107.55,0,0,1,372,346.85a116.93,116.93,0,0,1-42.91,10.44,121.91,121.91,0,0,1-68.45-16.8,106.77,106.77,0,0,0,35.3,49.44ZM166.59,388.26H271A122.54,122.54,0,0,1,240.27,323L234,297.33l19.2,18.56a107.74,107.74,0,0,0,69.91,26c27.34,0,54-10.68,72.8-31.76,16.81-18.86,25.55-45.1,24-72-1.48-25.15-11.88-48-28.52-62.77-24.31-21.53-56.81-21.29-69.66-20.19l-9.56.82,1.07-9.54C319.86,86.71,287,30.37,238.34,18.19c-28.8-7.21-61.49,1.59-85.31,23-28.15,25.26-39.51,66.1-28.94,104.05L127,155.73l-10.9-.54c-50.93-2.5-94.82,35-99.9,85.41-5.55,55,37.57,96.53,80.69,103.46,44.5,7.16,78.15-23,84.44-29.13L197.74,299l-3.09,22.64a138.93,138.93,0,0,1-28.06,66.61Z"/></g></g></g></svg>