<svg xmlns="http://www.w3.org/2000/svg" xmlns:xlink="http://www.w3.org/1999/xlink" viewBox="0 0 422.34 485.27"><defs><style>.cls-1{fill:url(#New_Gradient_Swatch_4);}.cls-2{fill:url(#linear-gradient);}</style><radialGradient id="New_Gradient_Swatch_4" cx="211.31" cy="-14758.58" r="211.82" gradientTransform="matrix(1, 0, 0, -1, 0, -14515.28)" gradientUnits="userSpaceOnUse"><stop offset="0" stop-color="#f20006"/><stop offset="0.5" stop-color="#a60003"/><stop offset="1" stop-color="#570000"/></radialGradient><linearGradient id="linear-gradient" x1="89.15" y1="-14635.18" x2="334.62" y2="-14880.65" gradientTransform="matrix(1, 0, 0, -1, 0, -14515.28)" gradientUnits="userSpaceOnUse"><stop offset="0" stop-color="#ea8c23"/><stop offset="0.11" stop-color="#f5c470"/><stop offset="0.2" stop-color="#fce9a4"/><stop offset="0.24" stop-color="#fff8b8"/><stop offset="0.29" stop-color="#fae396"/><stop offset="0.38" stop-color="#f3c86a"/><stop offset="0.45" stop-color="#eeb54a"/><stop offset="0.51" stop-color="#eba936"/><stop offset="0.56" stop-color="#eaa52f"/><stop offset="0.57" stop-color="#ebab38"/><stop offset="0.64" stop-color="#f4cc70"/><stop offset="0.7" stop-color="#fae598"/><stop offset="0.75" stop-color="#fef3b1"/><stop offset="0.78" stop-color="#fff9ba"/><stop offset="0.83" stop-color="#f7db8a"/><stop offset="0.89" stop-color="#efbe5b"/><stop offset="0.93" stop-color="#e9a939"/><stop offset="0.97" stop-color="#e59d24"/><stop offset="1" stop-color="#e4981d"/></linearGradient></defs><title>diamond_1</title><g id="Layer_2" data-name="Layer 2"><g id="Layer_2-2" data-name="Layer 2"><g id="_Group_" data-name="&lt;Group&gt;"><path class="cls-1" d="M14,240.69a530.61,530.61,0,0,0,106.82-89.88A531.09,531.09,0,0,0,209.35,17.94,585.1,585.1,0,0,0,294,141.69a585.11,585.11,0,0,0,114.63,99,680.3,680.3,0,0,0-194.09,228,700.66,700.66,0,0,0-92.49-130.26A700.54,700.54,0,0,0,14,240.69Z"/><path class="cls-2" d="M214.72,485.27l-7.05-12.82a693.68,693.68,0,0,0-91.45-128.8,694,694,0,0,0-106.9-96.6L0,240.25l9.72-6.2A522.83,522.83,0,0,0,115,145.5a522.5,522.5,0,0,0,87.26-130.9L209,0l7.32,14.36A577.38,577.38,0,0,0,299.9,136.45,577.34,577.34,0,0,0,413,234.12l9.35,6.16-9,6.72A672.42,672.42,0,0,0,221.53,472.32Zm-187-244.16a709.85,709.85,0,0,1,100.21,92,709.44,709.44,0,0,1,86.48,119.22A687.84,687.84,0,0,1,395.14,241.1a593.1,593.1,0,0,1-107-94.16A593.15,593.15,0,0,1,209.64,35.39a537.92,537.92,0,0,1-83,120.73A538.51,538.51,0,0,1,27.73,241.11Z"/></g></g></g></svg>