<svg xmlns="http://www.w3.org/2000/svg" xmlns:xlink="http://www.w3.org/1999/xlink" viewBox="0 0 454.98 369.97"><defs><style>.cls-1{fill:url(#New_Gradient_Swatch_3);}.cls-2{fill:url(#linear-gradient);}</style><radialGradient id="New_Gradient_Swatch_3" cx="227.5" cy="-16731.6" r="198.74" gradientTransform="matrix(1, 0, 0, -1, 0, -16548.32)" gradientUnits="userSpaceOnUse"><stop offset="0.29" stop-color="#f20006"/><stop offset="0.6" stop-color="#a70003"/><stop offset="0.87" stop-color="#6d0001"/><stop offset="1" stop-color="#570000"/></radialGradient><linearGradient id="linear-gradient" x1="87.58" y1="-16534.38" x2="367.6" y2="-16814.41" gradientTransform="matrix(1, 0, 0, -1, 0, -16548.32)" gradientUnits="userSpaceOnUse"><stop offset="0" stop-color="#ea8c23"/><stop offset="0.11" stop-color="#f5c470"/><stop offset="0.2" stop-color="#fce9a4"/><stop offset="0.24" stop-color="#fff8b8"/><stop offset="0.29" stop-color="#fae396"/><stop offset="0.38" stop-color="#f3c86a"/><stop offset="0.45" stop-color="#eeb54a"/><stop offset="0.51" stop-color="#eba936"/><stop offset="0.56" stop-color="#eaa52f"/><stop offset="0.57" stop-color="#ebab38"/><stop offset="0.64" stop-color="#f4cc70"/><stop offset="0.7" stop-color="#fae598"/><stop offset="0.75" stop-color="#fef3b1"/><stop offset="0.78" stop-color="#fff9ba"/><stop offset="0.83" stop-color="#f7db8a"/><stop offset="0.89" stop-color="#efbe5b"/><stop offset="0.93" stop-color="#e9a939"/><stop offset="0.97" stop-color="#e59d24"/><stop offset="1" stop-color="#e4981d"/></linearGradient></defs><title>heart2</title><g id="Layer_2" data-name="Layer 2"><g id="Layer_2-2" data-name="Layer 2"><g id="_Group_" data-name="&lt;Group&gt;"><path class="cls-1" d="M233.66,89.86C249.32,37.45,298.45,3.72,348.75,8.28c54.08,4.9,88.4,52.15,96.39,92.49C455.83,154.7,420,198.45,406.06,215.4c-23.64,28.83-42.13,33.05-87.28,66.44a620.16,620.16,0,0,0-86,76.86,749.88,749.88,0,0,0-78.16-66.43c-67.83-50.11-98.58-55.14-123.75-96.4C24.48,185.32-3,140.24,12.67,90.35,26.53,46.28,72,5.57,128.6,8.28,176.38,10.57,218.46,43.14,233.66,89.86Z"/><path class="cls-2" d="M233.09,370l-5.78-5.64A743.49,743.49,0,0,0,150,298.59c-23.91-17.66-43.51-29.88-59.27-39.71C61,240.36,41.36,228.12,24.18,200A171.23,171.23,0,0,1,6,160.15C-1.71,134.93-2,110.65,5.15,88a121.74,121.74,0,0,1,17.1-34A131.62,131.62,0,0,1,49.83,25.5,124.48,124.48,0,0,1,86.07,6.29,117.94,117.94,0,0,1,129,.42a122,122,0,0,1,69.2,25.77,126.52,126.52,0,0,1,35.25,42.58,124.81,124.81,0,0,1,11.38-19,122.94,122.94,0,0,1,28.88-28.47C296.21,5.45,323.12-1.95,349.46.44,376.18,2.86,400.57,15.11,420,35.86c16.39,17.52,28.38,40.62,32.89,63.38,11.42,57.58-26.46,103.77-40.71,121.16-15.9,19.4-29.86,28.38-49.18,40.81-11,7.07-23.43,15.08-39.5,27A613.51,613.51,0,0,0,238.59,364ZM123.1,16C71.34,16,32.37,54,20.18,92.71c-6.67,21.2-9.06,55.6,17.45,99,15.23,25,32.62,35.81,61.41,53.76,16,10,35.89,22.37,60.3,40.4a760.36,760.36,0,0,1,73.21,61.56,630,630,0,0,1,81.56-72c16.48-12.19,29.71-20.7,40.34-27.54,18.78-12.09,31.19-20.07,45.52-37.55,13-15.81,47.41-57.82,37.44-108.11C429.58,62.79,396.37,20.51,348,16.13c-47.46-4.3-92.38,27.66-106.83,76L234,116.3l-7.81-24c-14.13-43.42-53.49-74-97.95-76.15Q125.64,16,123.1,16Z"/></g></g></g></svg>