<svg xmlns="http://www.w3.org/2000/svg" xmlns:xlink="http://www.w3.org/1999/xlink" viewBox="0 0 419.42 411.7"><defs><style>.cls-1{fill:url(#New_Gradient_Swatch_7);}.cls-2{fill:url(#linear-gradient);}</style><radialGradient id="New_Gradient_Swatch_7" cx="209.71" cy="-17633.86" r="198.32" gradientTransform="matrix(1, 0, 0, -1, 0, -17425.32)" gradientUnits="userSpaceOnUse"><stop offset="0.18" stop-color="#231f20"/><stop offset="0.46" stop-color="#1c191a"/><stop offset="0.85" stop-color="#090808"/><stop offset="1"/></radialGradient><linearGradient id="linear-gradient" x1="79.06" y1="-17537.18" x2="343.12" y2="-17801.24" gradientTransform="matrix(1, 0, 0, -1, 0, -17425.32)" gradientUnits="userSpaceOnUse"><stop offset="0" stop-color="#ea8c23"/><stop offset="0.11" stop-color="#f5c470"/><stop offset="0.2" stop-color="#fce9a4"/><stop offset="0.24" stop-color="#fff8b8"/><stop offset="0.29" stop-color="#fae396"/><stop offset="0.38" stop-color="#f3c86a"/><stop offset="0.45" stop-color="#eeb54a"/><stop offset="0.51" stop-color="#eba936"/><stop offset="0.56" stop-color="#eaa52f"/><stop offset="0.57" stop-color="#ebab38"/><stop offset="0.64" stop-color="#f4cc70"/><stop offset="0.7" stop-color="#fae598"/><stop offset="0.75" stop-color="#fef3b1"/><stop offset="0.78" stop-color="#fff9ba"/><stop offset="0.83" stop-color="#f7db8a"/><stop offset="0.89" stop-color="#efbe5b"/><stop offset="0.93" stop-color="#e9a939"/><stop offset="0.97" stop-color="#e59d24"/><stop offset="1" stop-color="#e4981d"/></linearGradient></defs><title>ace2</title><g id="Layer_2" data-name="Layer 2"><g id="Layer_2-2" data-name="Layer 2"><g id="_Group_" data-name="&lt;Group&gt;"><path class="cls-1" d="M229.6,309.5c37.46,42.63,97,52.44,138.08,27.35,51.35-31.38,50.21-103,33.87-142-11.17-26.67-31.56-43.17-65.13-70.34-31.77-25.71-47.47-29.63-76.86-56a313.71,313.71,0,0,1-48.2-54.71,294.72,294.72,0,0,1-50.8,56c-31.62,26.89-46.34,27.65-82.07,57.32-25.3,21-44.4,36.87-57.32,65.13C15.81,204,1.9,234.45,10.76,270.42c8.93,36.28,41.22,79,89.88,82.07,49.29,3.12,81.48-36.34,84.67-40.38a190.74,190.74,0,0,1-18.24,50.8,190.69,190.69,0,0,1-28.66,40.38l135.47-3.91A207.38,207.38,0,0,1,229.6,309.5Z"/><path class="cls-2" d="M119.88,411.7l12.76-13.77a182.86,182.86,0,0,0,27.47-38.71,182.52,182.52,0,0,0,9.6-21.34c-1.59,1.2-3.26,2.41-5,3.6a113,113,0,0,1-28,14.05,96.17,96.17,0,0,1-36.56,4.81c-24.19-1.53-46.66-12.23-65-30.94C19.89,313.8,8.2,293,3.11,272.3-6.4,233.67,8.43,201.21,14,189c13.66-29.9,33.87-46.68,59.45-67.92C92,105.71,104.88,98,117.37,90.46c11.79-7.08,22.93-13.76,38.09-26.65A287,287,0,0,0,204.9,9.29L211.38,0l6.45,9.31a306,306,0,0,0,47,53.34C280.35,76.59,292,84.14,304.44,92.14a383.73,383.73,0,0,1,36.93,26.26c17.11,13.85,30.62,24.78,41.62,36,12.18,12.37,20.15,23.93,25.82,37.47,9.6,22.92,12.95,52.11,9,78.09a115.38,115.38,0,0,1-14,41,92.62,92.62,0,0,1-31.94,32.68c-21.8,13.32-48.78,17.85-76,12.74a126.26,126.26,0,0,1-50.91-22.21q3.28,9,7.41,17.59a199.77,199.77,0,0,0,27.57,42.61l10.55,12.48Zm78.62-131-5.48,33a198.48,198.48,0,0,1-19,52.9,198.46,198.46,0,0,1-18.23,28.32l102.26-3a215.2,215.2,0,0,1-36.17-80.79l-6.46-29.71,20.07,22.84c21.89,24.91,52.58,38.37,82.1,38.37a87.65,87.65,0,0,0,46-12.54c46.76-28.57,46-95.79,30.71-132.23-10.4-24.84-30.13-40.81-62.82-67.26a370.46,370.46,0,0,0-35.56-25.27C283,97,270.75,89.14,254.3,74.37a321.37,321.37,0,0,1-43-47.11,301.89,301.89,0,0,1-45.68,48.56C149.51,89.54,137.84,96.55,125.47,104c-12,7.19-24.37,14.63-41.95,29.22-25,20.74-43,35.72-55.18,62.35-5,10.86-18.14,39.7-9.94,73,8.81,35.77,40.05,73.39,82.73,76.09,44.88,2.84,74.73-33.27,78-37.4Z"/></g></g></g></svg>